999
dxflib 2.2.0.0
  0
SECTION
  2
HEADER
  9
$ACADVER
  1
AC1015
  9
$HANDSEED
  5
FFFF
  9
$DIMASZ
 40
2.5
  9
$PLIMMIN
 10
0.0
 20
0.0
  9
$DIMEXE
 40
1.25
  9
$DIMGAP
 40
0.625
  9
$PLIMMAX
 10
210.0
 20
297.0
  9
$INSUNITS
 70
4
  9
$DIMSTYLE
  2
Standard
  9
$CLAYER
  8
nozzles B
  9
$DIMEXO
 40
0.625
  9
$DIMTXT
 40
2.5
  9
$CLAYER
  8
backplane
  0
ENDSEC
  0
SECTION
  2
TABLES
  0
TABLE
  2
VPORT
  5
8
100
AcDbSymbolTable
 70
1
  0
VPORT
  5
30
100
AcDbSymbolTableRecord
100
AcDbViewportTableRecord
  2
*Active
 70
0
 10
0.0
 20
0.0
 11
1.0
 21
1.0
 12
286.3055555555554861
 22
148.5
 13
0.0
 23
0.0
 14
10.0
 24
10.0
 15
10.0
 25
10.0
 16
0.0
 26
0.0
 36
1.0
 17
0.0
 27
0.0
 37
0.0
 40
297.0
 41
1.92798353909465
 42
50.0
 43
0.0
 44
0.0
 50
0.0
 51
0.0
 71
0
 72
100
 73
1
 74
3
 75
1
 76
1
 77
0
 78
0
281
0
 65
1
110
0.0
120
0.0
130
0.0
111
1.0
121
0.0
131
0.0
112
0.0
122
1.0
132
0.0
 79
0
146
0.0
  0
ENDTAB
  0
TABLE
  2
LTYPE
  5
5
100
AcDbSymbolTable
 70
21
  0
LTYPE
  5
14
100
AcDbSymbolTableRecord
100
AcDbLinetypeTableRecord
  2
ByBlock
 70
0
  3

 72
65
 73
0
 40
0.0
  0
LTYPE
  5
15
100
AcDbSymbolTableRecord
100
AcDbLinetypeTableRecord
  2
ByLayer
 70
0
  3

 72
65
 73
0
 40
0.0
  0
LTYPE
  5
16
100
AcDbSymbolTableRecord
100
AcDbLinetypeTableRecord
  2
CONTINUOUS
 70
0
  3
Solid line
 72
65
 73
0
 40
0.0
  0
LTYPE
  5
31
100
AcDbSymbolTableRecord
100
AcDbLinetypeTableRecord
  2
DOT
 70
0
  3
Dot . . . . . . . . . . . . . . . . . . . . . .
 72
65
 73
2
 40
6.3499999999999996
 49
0.0
 74
0
 49
-6.3499999999999996
 74
0
  0
LTYPE
  5
32
100
AcDbSymbolTableRecord
100
AcDbLinetypeTableRecord
  2
DOT2
 70
0
  3
Dot (.5x) .....................................
 72
65
 73
2
 40
3.1749999999999998
 49
0.0
 74
0
 49
-3.1749999999999998
 74
0
  0
LTYPE
  5
33
100
AcDbSymbolTableRecord
100
AcDbLinetypeTableRecord
  2
DOTX2
 70
0
  3
Dot (2x) .  .  .  .  .  .  .  .  .  .  .  .  .
 72
65
 73
2
 40
12.6999999999999993
 49
0.0
 74
0
 49
-12.6999999999999993
 74
0
  0
LTYPE
  5
34
100
AcDbSymbolTableRecord
100
AcDbLinetypeTableRecord
  2
DASHED
 70
0
  3
Dashed __ __ __ __ __ __ __ __ __ __ __ __ __ _
 72
65
 73
2
 40
19.0500000000000007
 49
12.6999999999999993
 74
0
 49
-6.3499999999999996
 74
0
  0
LTYPE
  5
35
100
AcDbSymbolTableRecord
100
AcDbLinetypeTableRecord
  2
DASHED2
 70
0
  3
Dashed (.5x) _ _ _ _ _ _ _ _ _ _ _ _ _ _ _ _ _
 72
65
 73
2
 40
9.5250000000000004
 49
6.3499999999999996
 74
0
 49
-3.1749999999999998
 74
0
  0
LTYPE
  5
36
100
AcDbSymbolTableRecord
100
AcDbLinetypeTableRecord
  2
DASHEDX2
 70
0
  3
Dashed (2x) ____  ____  ____  ____  ____  ___
 72
65
 73
2
 40
38.1000000000000014
 49
25.3999999999999986
 74
0
 49
-12.6999999999999993
 74
0
  0
LTYPE
  5
37
100
AcDbSymbolTableRecord
100
AcDbLinetypeTableRecord
  2
DASHDOT
 70
0
  3
Dash dot __ . __ . __ . __ . __ . __ . __ . __
 72
65
 73
4
 40
25.3999999999999986
 49
12.6999999999999993
 74
0
 49
-6.3499999999999996
 74
0
 49
0.0
 74
0
 49
-6.3499999999999996
 74
0
  0
LTYPE
  5
38
100
AcDbSymbolTableRecord
100
AcDbLinetypeTableRecord
  2
DASHDOT2
 70
0
  3
Dash dot (.5x) _._._._._._._._._._._._._._._.
 72
65
 73
4
 40
12.6999999999999993
 49
6.3499999999999996
 74
0
 49
-3.1749999999999998
 74
0
 49
0.0
 74
0
 49
-3.1749999999999998
 74
0
  0
LTYPE
  5
39
100
AcDbSymbolTableRecord
100
AcDbLinetypeTableRecord
  2
DASHDOTX2
 70
0
  3
Dash dot (2x) ____  .  ____  .  ____  .  ___
 72
65
 73
4
 40
50.7999999999999972
 49
25.3999999999999986
 74
0
 49
-12.6999999999999993
 74
0
 49
0.0
 74
0
 49
-12.6999999999999993
 74
0
  0
LTYPE
  5
3A
100
AcDbSymbolTableRecord
100
AcDbLinetypeTableRecord
  2
DIVIDE
 70
0
  3
Divide ____ . . ____ . . ____ . . ____ . . ____
 72
65
 73
6
 40
31.75
 49
12.6999999999999993
 74
0
 49
-6.3499999999999996
 74
0
 49
0.0
 74
0
 49
-6.3499999999999996
 74
0
 49
0.0
 74
0
 49
-6.3499999999999996
 74
0
  0
LTYPE
  5
3B
100
AcDbSymbolTableRecord
100
AcDbLinetypeTableRecord
  2
DIVIDE2
 70
0
  3
Divide (.5x) __..__..__..__..__..__..__..__.._
 72
65
 73
6
 40
15.875
 49
6.3499999999999996
 74
0
 49
-3.1749999999999998
 74
0
 49
0.0
 74
0
 49
-3.1749999999999998
 74
0
 49
0.0
 74
0
 49
-3.1749999999999998
 74
0
  0
LTYPE
  5
3C
100
AcDbSymbolTableRecord
100
AcDbLinetypeTableRecord
  2
DIVIDEX2
 70
0
  3
Divide (2x) ________  .  .  ________  .  .  _
 72
65
 73
6
 40
63.5
 49
25.3999999999999986
 74
0
 49
-12.6999999999999993
 74
0
 49
0.0
 74
0
 49
-12.6999999999999993
 74
0
 49
0.0
 74
0
 49
-12.6999999999999993
 74
0
  0
LTYPE
  5
3D
100
AcDbSymbolTableRecord
100
AcDbLinetypeTableRecord
  2
CENTER
 70
0
  3
Center ____ _ ____ _ ____ _ ____ _ ____ _ ____
 72
65
 73
4
 40
50.7999999999999972
 49
31.75
 74
0
 49
-6.3499999999999996
 74
0
 49
6.3499999999999996
 74
0
 49
-6.3499999999999996
 74
0
  0
LTYPE
  5
3E
100
AcDbSymbolTableRecord
100
AcDbLinetypeTableRecord
  2
CENTER2
 70
0
  3
Center (.5x) ___ _ ___ _ ___ _ ___ _ ___ _ ___
 72
65
 73
4
 40
28.5749999999999993
 49
19.0500000000000007
 74
0
 49
-3.1749999999999998
 74
0
 49
3.1749999999999998
 74
0
 49
-3.1749999999999998
 74
0
  0
LTYPE
  5
3F
100
AcDbSymbolTableRecord
100
AcDbLinetypeTableRecord
  2
CENTERX2
 70
0
  3
Center (2x) ________  __  ________  __  _____
 72
65
 73
4
 40
101.5999999999999943
 49
63.5
 74
0
 49
-12.6999999999999993
 74
0
 49
12.6999999999999993
 74
0
 49
-12.6999999999999993
 74
0
  0
LTYPE
  5
40
100
AcDbSymbolTableRecord
100
AcDbLinetypeTableRecord
  2
BORDER
 70
0
  3
Border __ __ . __ __ . __ __ . __ __ . __ __ .
 72
65
 73
6
 40
44.4500000000000028
 49
12.6999999999999993
 74
0
 49
-6.3499999999999996
 74
0
 49
12.6999999999999993
 74
0
 49
-6.3499999999999996
 74
0
 49
0.0
 74
0
 49
-6.3499999999999996
 74
0
  0
LTYPE
  5
41
100
AcDbSymbolTableRecord
100
AcDbLinetypeTableRecord
  2
BORDER2
 70
0
  3
Border (.5x) __.__.__.__.__.__.__.__.__.__.__.
 72
65
 73
6
 40
22.2250000000000014
 49
6.3499999999999996
 74
0
 49
-3.1749999999999998
 74
0
 49
6.3499999999999996
 74
0
 49
-3.1749999999999998
 74
0
 49
0.0
 74
0
 49
-3.1749999999999998
 74
0
  0
LTYPE
  5
42
100
AcDbSymbolTableRecord
100
AcDbLinetypeTableRecord
  2
BORDERX2
 70
0
  3
Border (2x) ____  ____  .  ____  ____  .  ___
 72
65
 73
6
 40
88.9000000000000057
 49
25.3999999999999986
 74
0
 49
-12.6999999999999993
 74
0
 49
25.3999999999999986
 74
0
 49
-12.6999999999999993
 74
0
 49
0.0
 74
0
 49
-12.6999999999999993
 74
0
  0
ENDTAB
  0
TABLE
  2
LAYER
  5
2
100
AcDbSymbolTable
 70
9
  0
LAYER
  5
10
100
AcDbSymbolTableRecord
100
AcDbLayerTableRecord
  2
0
 70
0
 62
7
420
0
  6
CONTINUOUS
370
0
390
F
  0
LAYER
  5
43
100
AcDbSymbolTableRecord
100
AcDbLayerTableRecord
  2
part A
 70
0
 62
7
420
0
  6
CONTINUOUS
370
0
390
F
  0
LAYER
  5
44
100
AcDbSymbolTableRecord
100
AcDbLayerTableRecord
  2
part B
 70
0
 62
7
420
0
  6
CONTINUOUS
370
0
390
F
  0
LAYER
  5
45
100
AcDbSymbolTableRecord
100
AcDbLayerTableRecord
  2
guidelines
 70
0
 62
1
420
16711680
  6
CONTINUOUS
370
0
390
F
  0
LAYER
  5
46
100
AcDbSymbolTableRecord
100
AcDbLayerTableRecord
  2
support vane A C
 70
0
 62
7
420
0
  6
CONTINUOUS
370
0
390
F
  0
LAYER
  5
47
100
AcDbSymbolTableRecord
100
AcDbLayerTableRecord
  2
nozzles A
 70
0
 62
7
420
0
  6
CONTINUOUS
370
0
390
F
  0
LAYER
  5
48
100
AcDbSymbolTableRecord
100
AcDbLayerTableRecord
  2
nozzles B
 70
0
 62
7
420
0
  6
CONTINUOUS
370
0
390
F
  0
LAYER
  5
49
100
AcDbSymbolTableRecord
100
AcDbLayerTableRecord
  2
support vane B
 70
0
 62
7
420
0
  6
CONTINUOUS
370
0
390
F
  0
LAYER
  5
4A
100
AcDbSymbolTableRecord
100
AcDbLayerTableRecord
  2
backplane
 70
0
 62
7
420
0
  6
CONTINUOUS
370
0
390
F
  0
ENDTAB
  0
TABLE
  2
STYLE
  5
3
100
AcDbSymbolTable
 70
1
  0
STYLE
  5
11
100
AcDbSymbolTableRecord
100
AcDbTextStyleTableRecord
  2
Standard
 70
0
 40
0.0
 41
0.75
 50
0.0
 71
0
 42
2.5
  3
txt
  4

  0
ENDTAB
  0
TABLE
  2
VIEW
  5
6
100
AcDbSymbolTable
 70
0
  0
ENDTAB
  0
TABLE
  2
UCS
  5
7
100
AcDbSymbolTable
 70
0
  0
ENDTAB
  0
TABLE
  2
APPID
  5
9
100
AcDbSymbolTable
 70
1
  0
APPID
  5
12
100
AcDbSymbolTableRecord
100
AcDbRegAppTableRecord
  2
ACAD
 70
0
  0
ENDTAB
  0
TABLE
  2
DIMSTYLE
  5
A
100
AcDbSymbolTable
 70
1
100
AcDbDimStyleTable
 71
0
  0
DIMSTYLE
105
27
100
AcDbSymbolTableRecord
100
AcDbDimStyleTableRecord
  2
Standard
 41
2.5
 42
0.625
 43
3.75
 44
1.25
 70
0
 73
0
 74
0
 77
1
 78
8
140
2.5
141
2.5
143
0.03937007874016
147
0.625
171
3
172
1
271
2
272
2
274
3
278
44
283
0
284
8
340
11
  0
ENDTAB
  0
TABLE
  2
BLOCK_RECORD
  5
1
100
AcDbSymbolTable
 70
1
  0
BLOCK_RECORD
  5
1F
100
AcDbSymbolTableRecord
100
AcDbBlockTableRecord
  2
*Model_Space
340
22
  0
BLOCK_RECORD
  5
1B
100
AcDbSymbolTableRecord
100
AcDbBlockTableRecord
  2
*Paper_Space
340
1E
  0
BLOCK_RECORD
  5
23
100
AcDbSymbolTableRecord
100
AcDbBlockTableRecord
  2
*Paper_Space0
340
26
  0
BLOCK_RECORD
  5
4B
100
AcDbSymbolTableRecord
100
AcDbBlockTableRecord
  2
solenoid_valve
340
0
  0
BLOCK_RECORD
  5
4C
100
AcDbSymbolTableRecord
100
AcDbBlockTableRecord
  2
t_joints
340
0
  0
BLOCK_RECORD
  5
4D
100
AcDbSymbolTableRecord
100
AcDbBlockTableRecord
  2
t_slots
340
0
  0
ENDTAB
  0
ENDSEC
  0
SECTION
  2
BLOCKS
  0
BLOCK
  5
20
100
AcDbEntity
  8
0
100
AcDbBlockBegin
  2
*Model_Space
 70
0
 10
0.0
 20
0.0
 30
0.0
  3
*Model_Space
  1

  0
ENDBLK
  5
21
100
AcDbEntity
  8
0
100
AcDbBlockEnd
  0
BLOCK
  5
1C
100
AcDbEntity
 67
1
  8
0
100
AcDbBlockBegin
  2
*Paper_Space
 70
0
 10
0.0
 20
0.0
 30
0.0
  3
*Paper_Space
  1

  0
ENDBLK
  5
1D
100
AcDbEntity
 67
1
  8
0
100
AcDbBlockEnd
  0
BLOCK
  5
24
100
AcDbEntity
  8
0
100
AcDbBlockBegin
  2
*Paper_Space0
 70
0
 10
0.0
 20
0.0
 30
0.0
  3
*Paper_Space0
  1

  0
ENDBLK
  5
25
100
AcDbEntity
  8
0
100
AcDbBlockEnd
  0
BLOCK
  5
4E
100
AcDbEntity
  8
0
100
AcDbBlockBegin
  2
solenoid_valve
 70
0
 10
0.0
 20
0.0
 30
0.0
  3
solenoid_valve
  1

  0
LINE
  5
4F
100
AcDbEntity
100
AcDbLine
  8
guidelines
 62
256
370
-1
  6
ByLayer
 10
-35.0999999999999943
 20
-12.6999999999999993
 30
0.0
 11
24.9000000000000057
 21
-12.6999999999999993
 31
0.0
  0
LINE
  5
50
100
AcDbEntity
100
AcDbLine
  8
guidelines
 62
256
370
-1
  6
ByLayer
 10
24.9000000000000057
 20
-12.6999999999999993
 30
0.0
 11
24.9000000000000057
 21
12.6999999999999993
 31
0.0
  0
LINE
  5
51
100
AcDbEntity
100
AcDbLine
  8
guidelines
 62
256
370
-1
  6
ByLayer
 10
24.9000000000000057
 20
12.6999999999999993
 30
0.0
 11
-35.0999999999999943
 21
12.6999999999999993
 31
0.0
  0
LINE
  5
52
100
AcDbEntity
100
AcDbLine
  8
guidelines
 62
256
370
-1
  6
ByLayer
 10
-35.0999999999999943
 20
12.6999999999999993
 30
0.0
 11
-35.0999999999999943
 21
-12.6999999999999993
 31
0.0
  0
LINE
  5
53
100
AcDbEntity
100
AcDbLine
  8
guidelines
 62
256
370
-1
  6
ByLayer
 10
-12.6999999999999957
 20
12.6999999999999922
 30
0.0
 11
-12.6999999999999957
 21
-12.7000000000000046
 31
0.0
  0
LINE
  5
54
100
AcDbEntity
100
AcDbLine
  8
guidelines
 62
256
370
-1
  6
ByLayer
 10
12.7000000000000028
 20
12.6999999999999851
 30
0.0
 11
12.7000000000000028
 21
-12.7000000000000117
 31
0.0
  0
CIRCLE
  5
55
100
AcDbEntity
100
AcDbCircle
  8
guidelines
 62
256
370
-1
  6
ByLayer
 10
0.0
 20
0.0
 30
0.0
 40
10.75
  0
LINE
  5
56
100
AcDbEntity
100
AcDbLine
  8
guidelines
 62
256
370
-1
  6
ByLayer
 10
-25.5249999999999915
 20
22.6999999999999993
 30
0.0
 11
-31.8749999999999929
 21
22.6999999999999993
 31
0.0
  0
LINE
  5
57
100
AcDbEntity
100
AcDbLine
  8
guidelines
 62
256
370
-1
  6
ByLayer
 10
-25.5249999999999915
 20
22.6999999999999993
 30
0.0
 11
-25.524999999999995
 21
-22.6999999999999993
 31
0.0
  0
LINE
  5
58
100
AcDbEntity
100
AcDbLine
  8
guidelines
 62
256
370
-1
  6
ByLayer
 10
-31.8749999999999929
 20
-22.6999999999999993
 30
0.0
 11
-25.524999999999995
 21
-22.6999999999999993
 31
0.0
  0
LINE
  5
59
100
AcDbEntity
100
AcDbLine
  8
guidelines
 62
256
370
-1
  6
ByLayer
 10
-31.8749999999999929
 20
22.6999999999999993
 30
0.0
 11
-31.8749999999999929
 21
-22.6999999999999993
 31
0.0
  0
ENDBLK
  5
5A
100
AcDbEntity
  8
0
100
AcDbBlockEnd
  0
BLOCK
  5
5B
100
AcDbEntity
  8
0
100
AcDbBlockBegin
  2
t_joints
 70
0
 10
0.0
 20
0.0
 30
0.0
  3
t_joints
  1

  0
LINE
  5
5C
100
AcDbEntity
100
AcDbLine
  8
0
 62
256
370
-1
  6
ByLayer
 10
2.7581962956024468
 20
-7.0022436396322405
 30
0.0
 11
2.7556802645584915
 21
-10.0022436396322405
 31
0.0
  0
LINE
  5
5D
100
AcDbEntity
100
AcDbLine
  8
0
 62
256
370
-1
  6
ByLayer
 10
1.5081962956024459
 20
-10.0022436396322405
 30
0.0
 11
2.7556802645584915
 21
-10.0022436396322405
 31
0.0
  0
LINE
  5
5E
100
AcDbEntity
100
AcDbLine
  8
0
 62
256
370
-1
  6
ByLayer
 10
-2.7418037043975541
 20
-7.0022436396322369
 30
0.0
 11
-2.7464953648147343
 21
-10.0022436396322369
 31
0.0
  0
LINE
  5
5F
100
AcDbEntity
100
AcDbLine
  8
0
 62
256
370
-1
  6
ByLayer
 10
-2.7464953648147343
 20
-10.0022436396322369
 30
0.0
 11
-1.4918037043975563
 21
-10.0022436396322387
 31
0.0
  0
LINE
  5
60
100
AcDbEntity
100
AcDbLine
  8
0
 62
256
370
-1
  6
ByLayer
 10
-1.4090056890460154
 20
-0.0022436396322392
 30
0.0
 11
-1.408287724363805
 21
-7.000963362852886
 31
0.0
  0
LINE
  5
61
100
AcDbEntity
100
AcDbLine
  8
0
 62
256
370
-1
  6
ByLayer
 10
1.4090056890459026
 20
-7.000963362852886
 30
0.0
 11
1.4090056890460154
 21
0.0022436396322387
 31
0.0
  0
LINE
  5
62
100
AcDbEntity
100
AcDbLine
  8
0
 62
256
370
-1
  6
ByLayer
 10
-14.9918037043975509
 20
-0.0022436396322352
 30
0.0
 11
-1.4090056890460154
 21
-0.0022436396322392
 31
0.0
  0
LINE
  5
63
100
AcDbEntity
100
AcDbLine
  8
0
 62
256
370
-1
  6
ByLayer
 10
2.7581962956024468
 20
-7.0022436396322405
 30
0.0
 11
1.4090056890459026
 21
-7.000963362852886
 31
0.0
  0
LINE
  5
64
100
AcDbEntity
100
AcDbLine
  8
0
 62
256
370
-1
  6
ByLayer
 10
-1.408287724363805
 20
-7.000963362852886
 30
0.0
 11
-2.7418037043975541
 21
-7.0022436396322369
 31
0.0
  0
LINE
  5
65
100
AcDbEntity
100
AcDbLine
  8
0
 62
256
370
-1
  6
ByLayer
 10
-1.4918037043975518
 20
-11.0022436396322387
 30
0.0
 11
1.5081962956024473
 21
-11.0022436396322387
 31
0.0
  0
LINE
  5
66
100
AcDbEntity
100
AcDbLine
  8
0
 62
256
370
-1
  6
ByLayer
 10
-1.4918037043975563
 20
-10.0022436396322387
 30
0.0
 11
-1.4918037043975518
 21
-11.0022436396322387
 31
0.0
  0
LINE
  5
67
100
AcDbEntity
100
AcDbLine
  8
0
 62
256
370
-1
  6
ByLayer
 10
1.5081962956024473
 20
-11.0022436396322387
 30
0.0
 11
1.5081962956024459
 21
-10.0022436396322405
 31
0.0
  0
LINE
  5
68
100
AcDbEntity
100
AcDbLine
  8
0
 62
256
370
-1
  6
ByLayer
 10
-14.9918037043975492
 20
4.9977563603677648
 30
0.0
 11
-14.9918037043975509
 21
-0.0022436396322352
 31
0.0
  0
LINE
  5
69
100
AcDbEntity
100
AcDbLine
  8
0
 62
256
370
-1
  6
ByLayer
 10
-24.9918037043975509
 20
4.9977563603677702
 30
0.0
 11
-14.9918037043975492
 21
4.9977563603677648
 31
0.0
  0
LINE
  5
6A
100
AcDbEntity
100
AcDbLine
  8
0
 62
256
370
-1
  6
ByLayer
 10
-24.9918037043975509
 20
-0.0022436396322227
 30
0.0
 11
-24.9918037043975509
 21
4.9977563603677702
 31
0.0
  0
LINE
  5
6B
100
AcDbEntity
100
AcDbLine
  8
0
 62
256
370
-1
  6
ByLayer
 10
15.0081962956024491
 20
4.9977563603677613
 30
0.0
 11
25.0081962956024491
 21
4.9977563603677684
 31
0.0
  0
LINE
  5
6C
100
AcDbEntity
100
AcDbLine
  8
0
 62
256
370
-1
  6
ByLayer
 10
25.0081962956024491
 20
4.9977563603677684
 30
0.0
 11
25.0081962956024491
 21
-0.0022436396322263
 31
0.0
  0
LINE
  5
6D
100
AcDbEntity
100
AcDbLine
  8
0
 62
256
370
-1
  6
ByLayer
 10
1.4090056890460154
 20
0.0022436396322387
 30
0.0
 11
15.0081962956024491
 21
0.0
 31
0.0
  0
LINE
  5
6E
100
AcDbEntity
100
AcDbLine
  8
0
 62
256
370
-1
  6
ByLayer
 10
15.0081962956024491
 20
0.0
 30
0.0
 11
15.0081962956024491
 21
4.9977563603677613
 31
0.0
  0
ENDBLK
  5
6F
100
AcDbEntity
  8
0
100
AcDbBlockEnd
  0
BLOCK
  5
70
100
AcDbEntity
  8
0
100
AcDbBlockBegin
  2
t_slots
 70
0
 10
0.0
 20
0.0
 30
0.0
  3
t_slots
  1

  0
CIRCLE
  5
71
100
AcDbEntity
100
AcDbCircle
  8
0
 62
256
370
-1
  6
ByLayer
 10
0.0
 20
0.0
 30
0.0
 40
1.5
  0
LINE
  5
72
100
AcDbEntity
100
AcDbLine
  8
0
 62
256
370
-1
  6
ByLayer
 10
-25.0
 20
-2.4999999999999991
 30
0.0
 11
-25.0
 21
2.4999999999999991
 31
0.0
  0
LINE
  5
73
100
AcDbEntity
100
AcDbLine
  8
0
 62
256
370
-1
  6
ByLayer
 10
-25.0
 20
2.5
 30
0.0
 11
-15.0
 21
2.5
 31
0.0
  0
LINE
  5
74
100
AcDbEntity
100
AcDbLine
  8
0
 62
256
370
-1
  6
ByLayer
 10
-25.0
 20
-2.5
 30
0.0
 11
-15.0000000000000018
 21
-2.5
 31
0.0
  0
LINE
  5
75
100
AcDbEntity
100
AcDbLine
  8
0
 62
256
370
-1
  6
ByLayer
 10
-15.0
 20
2.4999999999999996
 30
0.0
 11
-15.0000000000000018
 21
-2.4999999999999996
 31
0.0
  0
LINE
  5
76
100
AcDbEntity
100
AcDbLine
  8
0
 62
256
370
-1
  6
ByLayer
 10
15.0
 20
2.5
 30
0.0
 11
25.0
 21
2.5
 31
0.0
  0
LINE
  5
77
100
AcDbEntity
100
AcDbLine
  8
0
 62
256
370
-1
  6
ByLayer
 10
15.0
 20
-2.5
 30
0.0
 11
24.9999999999999964
 21
-2.5
 31
0.0
  0
LINE
  5
78
100
AcDbEntity
100
AcDbLine
  8
0
 62
256
370
-1
  6
ByLayer
 10
24.9999999999999964
 20
2.5
 30
0.0
 11
24.9999999999999964
 21
-2.5000000000000004
 31
0.0
  0
LINE
  5
79
100
AcDbEntity
100
AcDbLine
  8
0
 62
256
370
-1
  6
ByLayer
 10
15.0
 20
-2.4999999999999969
 30
0.0
 11
15.0
 21
2.5000000000000004
 31
0.0
  0
ENDBLK
  5
7A
100
AcDbEntity
  8
0
100
AcDbBlockEnd
  0
ENDSEC
  0
SECTION
  2
ENTITIES
  0
LINE
  5
7B
100
AcDbEntity
100
AcDbLine
  8
0
 62
256
370
-1
  6
ByLayer
 10
0.0
 20
0.0
 30
0.0
 11
298.0
 21
0.0
 31
0.0
  0
LINE
  5
7C
100
AcDbEntity
100
AcDbLine
  8
0
 62
256
370
-1
  6
ByLayer
 10
298.0
 20
0.0
 30
0.0
 11
298.0
 21
810.0
 31
0.0
  0
LINE
  5
7D
100
AcDbEntity
100
AcDbLine
  8
0
 62
256
370
-1
  6
ByLayer
 10
298.0
 20
810.0
 30
0.0
 11
98.0
 21
810.0
 31
0.0
  0
LINE
  5
7E
100
AcDbEntity
100
AcDbLine
  8
0
 62
256
370
-1
  6
ByLayer
 10
98.0
 20
810.0
 30
0.0
 11
0.0
 21
0.0
 31
0.0
  0
LINE
  5
7F
100
AcDbEntity
100
AcDbLine
  8
part A
 62
256
370
-1
  6
ByLayer
 10
298.0
 20
810.0
 30
0.0
 11
298.0
 21
400.0
 31
0.0
  0
LINE
  5
80
100
AcDbEntity
100
AcDbLine
  8
part A
 62
256
370
-1
  6
ByLayer
 10
298.0
 20
400.0
 30
0.0
 11
48.3950617283950635
 21
400.0
 31
0.0
  0
LINE
  5
81
100
AcDbEntity
100
AcDbLine
  8
part A
 62
256
370
-1
  6
ByLayer
 10
48.3950617283950635
 20
400.0
 30
0.0
 11
98.0
 21
810.0
 31
0.0
  0
LINE
  5
82
100
AcDbEntity
100
AcDbLine
  8
part A
 62
256
370
-1
  6
ByLayer
 10
98.0
 20
810.0
 30
0.0
 11
298.0
 21
810.0
 31
0.0
  0
LINE
  5
83
100
AcDbEntity
100
AcDbLine
  8
part B
 62
256
370
-1
  6
ByLayer
 10
298.0
 20
400.0
 30
0.0
 11
298.0
 21
0.0
 31
0.0
  0
LINE
  5
84
100
AcDbEntity
100
AcDbLine
  8
part B
 62
256
370
-1
  6
ByLayer
 10
298.0
 20
0.0
 30
0.0
 11
0.0
 21
0.0
 31
0.0
  0
LINE
  5
85
100
AcDbEntity
100
AcDbLine
  8
part B
 62
256
370
-1
  6
ByLayer
 10
0.0
 20
0.0
 30
0.0
 11
48.3950617283950635
 21
400.0
 31
0.0
  0
LINE
  5
86
100
AcDbEntity
100
AcDbLine
  8
part B
 62
256
370
-1
  6
ByLayer
 10
48.3950617283950635
 20
400.0
 30
0.0
 11
298.0
 21
400.0
 31
0.0
  0
INSERT
  5
87
100
AcDbEntity
100
AcDbBlockReference
  8
guidelines
 62
256
370
-1
  6
ByLayer
  2
solenoid_valve
 10
483.2999999999999545
 20
687.2999999999999545
 30
0.0
 41
1.0
 42
-1.0
 43
1.0
 50
180.0
 44
1.0
 45
1.0
  0
LINE
  5
88
100
AcDbEntity
100
AcDbLine
  8
guidelines
 62
256
370
-1
  6
ByLayer
 10
452.3999999999999773
 20
674.5999999999999091
 30
0.0
 11
452.3999999999999773
 21
700.0
 31
0.0
  0
LINE
  5
89
100
AcDbEntity
100
AcDbLine
  8
guidelines
 62
256
370
-1
  6
ByLayer
 10
446.3999999999999773
 20
674.5999999999999091
 30
0.0
 11
446.3999999999999773
 21
700.0
 31
0.0
  0
INSERT
  5
8A
100
AcDbEntity
100
AcDbBlockReference
  8
guidelines
 62
256
370
-1
  6
ByLayer
  2
solenoid_valve
 10
403.2999999999999545
 20
687.2999999999999545
 30
0.0
 41
1.0
 42
-1.0
 43
1.0
 50
180.0
 44
1.0
 45
1.0
  0
INSERT
  5
8B
100
AcDbEntity
100
AcDbBlockReference
  8
guidelines
 62
256
370
-1
  6
ByLayer
  2
solenoid_valve
 10
477.2999999999999545
 20
727.2999999999999545
 30
0.0
 41
1.0
 42
-1.0
 43
1.0
 50
360.0
 44
1.0
 45
1.0
  0
CIRCLE
  5
8C
100
AcDbEntity
100
AcDbCircle
  8
support vane B
 62
256
370
-1
  6
ByLayer
 10
477.2999999999999545
 20
727.2999999999999545
 30
0.0
 40
10.7500000000000124
  0
LINE
  5
8D
100
AcDbEntity
100
AcDbLine
  8
support vane B
 62
256
370
-1
  6
ByLayer
 10
388.9310990489115056
 20
720.6048792391291045
 30
0.0
 11
415.6439071939203131
 21
741.9751257551362187
 31
0.0
  0
LINE
  5
8E
100
AcDbEntity
100
AcDbLine
  8
support vane B
 62
256
370
-1
  6
ByLayer
 10
451.3086759422756131
 20
758.2152138076863821
 30
0.0
 11
541.4249999999999545
 21
774.5999999999999091
 31
0.0
  0
ARC
  5
8F
100
AcDbEntity
  8
support vane B
 62
256
370
-1
  6
ByLayer
100
AcDbCircle
 10
465.6195109982743361
 20
679.5056209996937469
 30
0.0
 40
80.0
100
AcDbArc
 50
100.3048464687660299
 51
128.6598082540900805
  0
LINE
  5
90
100
AcDbEntity
100
AcDbLine
  8
support vane B
 62
256
370
-1
  6
ByLayer
 10
541.4249999999999545
 20
774.5999999999999091
 30
0.0
 11
541.422756360327071
 21
769.5918037043974209
 31
0.0
  0
CIRCLE
  5
91
100
AcDbEntity
100
AcDbCircle
  8
support vane B
 62
256
370
-1
  6
ByLayer
 10
403.2999999999999545
 20
687.2999999999999545
 30
0.0
 40
10.7499999999999893
  0
CIRCLE
  5
92
100
AcDbEntity
100
AcDbCircle
  8
support vane B
 62
256
370
-1
  6
ByLayer
 10
483.2999999999999545
 20
687.2999999999999545
 30
0.0
 40
10.7499999999999911
  0
ARC
  5
93
100
AcDbEntity
  8
support vane B
 62
256
370
-1
  6
ByLayer
100
AcDbCircle
 10
401.4250000000000114
 20
704.9875030502685149
 30
0.0
 40
20.0
100
AcDbArc
 50
128.6598082540901657
 51
180.0
  0
LINE
  5
94
100
AcDbEntity
100
AcDbLine
  8
support vane B
 62
256
370
-1
  6
ByLayer
 10
541.4227563603592444
 20
719.5918037043975346
 30
0.0
 11
541.422756360327071
 21
669.5918037043974209
 31
0.0
  0
LINE
  5
95
100
AcDbEntity
100
AcDbLine
  8
support vane B
 62
256
370
-1
  6
ByLayer
 10
541.4227563603592444
 20
619.5918037043975346
 30
0.0
 11
541.4249999999999545
 21
594.5999999999999091
 31
0.0
  0
LINE
  5
96
100
AcDbEntity
100
AcDbLine
  8
support vane B
 62
256
370
-1
  6
ByLayer
 10
541.4249999999999545
 20
594.5999999999999091
 30
0.0
 11
511.4250000000000114
 21
594.5999999999999091
 31
0.0
  0
INSERT
  5
97
100
AcDbEntity
100
AcDbBlockReference
  8
support vane B
 62
256
370
-1
  6
ByLayer
  2
t_joints
 10
541.4249999999999545
 20
644.5999999999999091
 30
0.0
 50
270.0
 44
1.0
 45
1.0
  0
INSERT
  5
98
100
AcDbEntity
100
AcDbBlockReference
  8
support vane B
 62
256
370
-1
  6
ByLayer
  2
t_joints
 10
541.4249999999999545
 20
744.5999999999999091
 30
0.0
 50
270.0
 44
1.0
 45
1.0
  0
LINE
  5
99
100
AcDbEntity
100
AcDbLine
  8
support vane B
 62
256
370
-1
  6
ByLayer
 10
381.4250000000000114
 20
678.070899069365737
 30
0.0
 11
381.4250000000000114
 21
704.9875030502685149
 31
0.0
  0
ARC
  5
9A
100
AcDbEntity
  8
support vane B
 62
256
370
-1
  6
ByLayer
100
AcDbCircle
 10
401.4250000000000114
 20
678.070899069365737
 30
0.0
 40
20.0
100
AcDbArc
 50
180.0
 51
264.8457185816800461
  0
LINE
  5
9B
100
AcDbEntity
100
AcDbLine
  8
support vane B
 62
256
370
-1
  6
ByLayer
 10
399.6282420869745806
 20
658.1517710512525809
 30
0.0
 11
479.9245274139582307
 21
650.9088342160349612
 31
0.0
  0
ARC
  5
9C
100
AcDbEntity
  8
support vane B
 62
256
370
-1
  6
ByLayer
100
AcDbCircle
 10
478.1277695009327999
 20
630.9897061979218051
 30
0.0
 40
20.0
100
AcDbArc
 50
31.1834159928288877
 51
84.8457185816800887
  0
LINE
  5
9D
100
AcDbEntity
100
AcDbLine
  8
support vane B
 62
256
370
-1
  6
ByLayer
 10
511.4250000000000114
 20
594.5999999999999091
 30
0.0
 11
511.4250000000000114
 21
606.2285294485526492
 31
0.0
  0
LINE
  5
9E
100
AcDbEntity
100
AcDbLine
  8
support vane B
 62
256
370
-1
  6
ByLayer
 10
495.2380527995160264
 20
641.3452943242535866
 30
0.0
 11
507.090424947874908
 21
621.7619116380502646
 31
0.0
  0
ARC
  5
9F
100
AcDbEntity
  8
support vane B
 62
256
370
-1
  6
ByLayer
100
AcDbCircle
 10
481.4250000000000114
 20
606.2285294485526492
 30
0.0
 40
30.0
100
AcDbArc
 50
0.0
 51
31.183415992828742
  0
INSERT
  5
A0
100
AcDbEntity
100
AcDbBlockReference
  8
guidelines
 62
256
370
-1
  6
ByLayer
  2
solenoid_valve
 10
716.9000000000000909
 20
687.2999999999999545
 30
0.0
 41
1.0
 42
-1.0
 43
1.0
 50
180.0
 44
1.0
 45
1.0
  0
LINE
  5
A1
100
AcDbEntity
100
AcDbLine
  8
guidelines
 62
256
370
-1
  6
ByLayer
 10
686.0
 20
674.5999999999999091
 30
0.0
 11
686.0
 21
700.0
 31
0.0
  0
LINE
  5
A2
100
AcDbEntity
100
AcDbLine
  8
guidelines
 62
256
370
-1
  6
ByLayer
 10
680.0000000000001137
 20
674.5999999999999091
 30
0.0
 11
680.0
 21
700.0
 31
0.0
  0
INSERT
  5
A3
100
AcDbEntity
100
AcDbBlockReference
  8
guidelines
 62
256
370
-1
  6
ByLayer
  2
solenoid_valve
 10
636.9000000000000909
 20
687.2999999999999545
 30
0.0
 41
1.0
 42
-1.0
 43
1.0
 50
180.0
 44
1.0
 45
1.0
  0
INSERT
  5
A4
100
AcDbEntity
100
AcDbBlockReference
  8
guidelines
 62
256
370
-1
  6
ByLayer
  2
solenoid_valve
 10
710.9000000000000909
 20
727.2999999999999545
 30
0.0
 41
1.0
 42
-1.0
 43
1.0
 50
360.0
 44
1.0
 45
1.0
  0
CIRCLE
  5
A5
100
AcDbEntity
100
AcDbCircle
  8
support vane A C
 62
256
370
-1
  6
ByLayer
 10
710.9000000000000909
 20
727.2999999999999545
 30
0.0
 40
10.7500000000000124
  0
LINE
  5
A6
100
AcDbEntity
100
AcDbLine
  8
support vane A C
 62
256
370
-1
  6
ByLayer
 10
622.5310990489116421
 20
720.6048792391291045
 30
0.0
 11
649.2439071939204496
 21
741.9751257551362187
 31
0.0
  0
LINE
  5
A7
100
AcDbEntity
100
AcDbLine
  8
support vane A C
 62
256
370
-1
  6
ByLayer
 10
684.9086759422757495
 20
758.2152138076863821
 30
0.0
 11
775.0250000000000909
 21
774.5999999999999091
 31
0.0
  0
ARC
  5
A8
100
AcDbEntity
  8
support vane A C
 62
256
370
-1
  6
ByLayer
100
AcDbCircle
 10
699.2195109982743588
 20
679.5056209996937469
 30
0.0
 40
80.0
100
AcDbArc
 50
100.3048464687660299
 51
128.6598082540900805
  0
LINE
  5
A9
100
AcDbEntity
100
AcDbLine
  8
support vane A C
 62
256
370
-1
  6
ByLayer
 10
775.0250000000000909
 20
774.5999999999999091
 30
0.0
 11
775.0227563603270937
 21
769.5918037043974209
 31
0.0
  0
CIRCLE
  5
AA
100
AcDbEntity
100
AcDbCircle
  8
support vane A C
 62
256
370
-1
  6
ByLayer
 10
636.9000000000000909
 20
687.2999999999999545
 30
0.0
 40
10.7499999999999893
  0
CIRCLE
  5
AB
100
AcDbEntity
100
AcDbCircle
  8
support vane A C
 62
256
370
-1
  6
ByLayer
 10
716.9000000000000909
 20
687.2999999999999545
 30
0.0
 40
10.7499999999999911
  0
ARC
  5
AC
100
AcDbEntity
  8
support vane A C
 62
256
370
-1
  6
ByLayer
100
AcDbCircle
 10
635.0250000000000909
 20
704.9875030502685149
 30
0.0
 40
20.0
100
AcDbArc
 50
128.6598082540901657
 51
180.0
  0
LINE
  5
AD
100
AcDbEntity
100
AcDbLine
  8
support vane A C
 62
256
370
-1
  6
ByLayer
 10
775.0227563603593808
 20
719.5918037043975346
 30
0.0
 11
775.0227563603270937
 21
669.5918037043974209
 31
0.0
  0
LINE
  5
AE
100
AcDbEntity
100
AcDbLine
  8
support vane A C
 62
256
370
-1
  6
ByLayer
 10
775.0227563603593808
 20
619.5918037043975346
 30
0.0
 11
775.0250000000000909
 21
594.5999999999999091
 31
0.0
  0
LINE
  5
AF
100
AcDbEntity
100
AcDbLine
  8
support vane A C
 62
256
370
-1
  6
ByLayer
 10
775.0250000000000909
 20
594.5999999999999091
 30
0.0
 11
745.0250000000000909
 21
594.5999999999999091
 31
0.0
  0
LINE
  5
B0
100
AcDbEntity
100
AcDbLine
  8
support vane A C
 62
256
370
-1
  6
ByLayer
 10
745.0250000000000909
 20
594.5999999999999091
 30
0.0
 11
745.0250000000000909
 21
614.5999999999999091
 31
0.0
  0
LINE
  5
B1
100
AcDbEntity
100
AcDbLine
  8
support vane A C
 62
256
370
-1
  6
ByLayer
 10
615.0250000000000909
 20
614.5999999999999091
 30
0.0
 11
615.0250000000000909
 21
704.9875030502685149
 31
0.0
  0
INSERT
  5
B2
100
AcDbEntity
100
AcDbBlockReference
  8
support vane A C
 62
256
370
-1
  6
ByLayer
  2
t_joints
 10
685.0250000000000909
 20
614.5999999999999091
 30
0.0
 50
180.0
 44
1.0
 45
1.0
  0
LINE
  5
B3
100
AcDbEntity
100
AcDbLine
  8
support vane A C
 62
256
370
-1
  6
ByLayer
 10
660.0168037043976028
 20
614.6022436396406192
 30
0.0
 11
615.0250000000000909
 21
614.5999999999999091
 31
0.0
  0
LINE
  5
B4
100
AcDbEntity
100
AcDbLine
  8
support vane A C
 62
256
370
-1
  6
ByLayer
 10
745.0250000000000909
 20
614.5999999999999091
 30
0.0
 11
710.0168037043976028
 21
614.6022436396727926
 31
0.0
  0
INSERT
  5
B5
100
AcDbEntity
100
AcDbBlockReference
  8
support vane A C
 62
256
370
-1
  6
ByLayer
  2
t_joints
 10
775.0250000000000909
 20
644.5999999999999091
 30
0.0
 50
270.0
 44
1.0
 45
1.0
  0
INSERT
  5
B6
100
AcDbEntity
100
AcDbBlockReference
  8
support vane A C
 62
256
370
-1
  6
ByLayer
  2
t_joints
 10
775.0250000000000909
 20
744.5999999999999091
 30
0.0
 50
270.0
 44
1.0
 45
1.0
  0
LINE
  5
B7
100
AcDbEntity
100
AcDbLine
  8
nozzles B
 62
256
370
-1
  6
ByLayer
 10
620.0
 20
500.0
 30
0.0
 11
620.0
 21
400.0
 31
0.0
  0
LINE
  5
B8
100
AcDbEntity
100
AcDbLine
  8
guidelines
 62
256
370
-1
  6
ByLayer
 10
640.0
 20
500.0
 30
0.0
 11
640.0
 21
400.0
 31
0.0
  0
LINE
  5
B9
100
AcDbEntity
100
AcDbLine
  8
guidelines
 62
256
370
-1
  6
ByLayer
 10
700.0
 20
400.0
 30
0.0
 11
700.0
 21
500.0
 31
0.0
  0
LINE
  5
BA
100
AcDbEntity
100
AcDbLine
  8
guidelines
 62
256
370
-1
  6
ByLayer
 10
760.0
 20
500.0
 30
0.0
 11
760.0
 21
400.0
 31
0.0
  0
LINE
  5
BB
100
AcDbEntity
100
AcDbLine
  8
nozzles B
 62
256
370
-1
  6
ByLayer
 10
780.0
 20
500.0
 30
0.0
 11
620.0
 21
500.0
 31
0.0
  0
LINE
  5
BC
100
AcDbEntity
100
AcDbLine
  8
nozzles B
 62
256
370
-1
  6
ByLayer
 10
620.0
 20
400.0
 30
0.0
 11
780.0
 21
400.0
 31
0.0
  0
LINE
  5
BD
100
AcDbEntity
100
AcDbLine
  8
nozzles B
 62
256
370
-1
  6
ByLayer
 10
780.0
 20
500.0
 30
0.0
 11
780.0
 21
400.0
 31
0.0
  0
INSERT
  5
BE
100
AcDbEntity
100
AcDbBlockReference
  8
nozzles B
 62
256
370
-1
  6
ByLayer
  2
t_slots
 10
640.0
 20
450.0
 30
0.0
 50
90.0
 44
1.0
 45
1.0
  0
INSERT
  5
BF
100
AcDbEntity
100
AcDbBlockReference
  8
nozzles B
 62
256
370
-1
  6
ByLayer
  2
t_slots
 10
760.0
 20
450.0
 30
0.0
 50
90.0
 44
1.0
 45
1.0
  0
LINE
  5
C0
100
AcDbEntity
100
AcDbLine
  8
guidelines
 62
256
370
-1
  6
ByLayer
 10
685.75
 20
400.0
 30
0.0
 11
685.75
 21
500.0
 31
0.0
  0
LINE
  5
C1
100
AcDbEntity
100
AcDbLine
  8
guidelines
 62
256
370
-1
  6
ByLayer
 10
630.0
 20
450.0
 30
0.0
 11
770.0
 21
450.0
 31
0.0
  0
CIRCLE
  5
C2
100
AcDbEntity
100
AcDbCircle
  8
guidelines
 62
256
370
-1
  6
ByLayer
 10
685.75
 20
450.0
 30
0.0
 40
30.0
  0
CIRCLE
  5
C3
100
AcDbEntity
100
AcDbCircle
  8
nozzles B
 62
256
370
-1
  6
ByLayer
 10
685.75
 20
450.0
 30
0.0
 40
6.0
  0
CIRCLE
  5
C4
100
AcDbEntity
100
AcDbCircle
  8
nozzles B
 62
256
370
-1
  6
ByLayer
 10
696.3566017177981848
 20
460.6066017177981848
 30
0.0
 40
6.0
  0
CIRCLE
  5
C5
100
AcDbEntity
100
AcDbCircle
  8
nozzles B
 62
256
370
-1
  6
ByLayer
 10
675.1433982822018152
 20
439.3933982822018152
 30
0.0
 40
6.0
  0
CIRCLE
  5
C6
100
AcDbEntity
100
AcDbCircle
  8
nozzles B
 62
256
370
-1
  6
ByLayer
 10
675.1433982822018152
 20
460.6066017177981848
 30
0.0
 40
6.0
  0
CIRCLE
  5
C7
100
AcDbEntity
100
AcDbCircle
  8
nozzles B
 62
256
370
-1
  6
ByLayer
 10
685.75
 20
471.2132034355963697
 30
0.0
 40
6.0
  0
CIRCLE
  5
C8
100
AcDbEntity
100
AcDbCircle
  8
nozzles B
 62
256
370
-1
  6
ByLayer
 10
664.5367965644036303
 20
450.0
 30
0.0
 40
6.0
  0
CIRCLE
  5
C9
100
AcDbEntity
100
AcDbCircle
  8
nozzles B
 62
256
370
-1
  6
ByLayer
 10
696.3566017177981848
 20
439.3933982822017583
 30
0.0
 40
6.0
  0
CIRCLE
  5
CA
100
AcDbEntity
100
AcDbCircle
  8
nozzles B
 62
256
370
-1
  6
ByLayer
 10
706.9632034355963697
 20
450.0
 30
0.0
 40
6.0
  0
CIRCLE
  5
CB
100
AcDbEntity
100
AcDbCircle
  8
nozzles B
 62
256
370
-1
  6
ByLayer
 10
685.75
 20
428.7867965644035735
 30
0.0
 40
6.0
  0
LINE
  5
CC
100
AcDbEntity
100
AcDbLine
  8
guidelines
 62
256
370
-1
  6
ByLayer
 10
640.0
 20
380.0
 30
0.0
 11
640.0
 21
280.0
 31
0.0
  0
LINE
  5
CD
100
AcDbEntity
100
AcDbLine
  8
guidelines
 62
256
370
-1
  6
ByLayer
 10
700.0
 20
280.0
 30
0.0
 11
700.0
 21
380.0
 31
0.0
  0
LINE
  5
CE
100
AcDbEntity
100
AcDbLine
  8
guidelines
 62
256
370
-1
  6
ByLayer
 10
760.0
 20
380.0
 30
0.0
 11
760.0
 21
280.0
 31
0.0
  0
LINE
  5
CF
100
AcDbEntity
100
AcDbLine
  8
guidelines
 62
256
370
-1
  6
ByLayer
 10
685.75
 20
280.0
 30
0.0
 11
685.75
 21
380.0
 31
0.0
  0
LINE
  5
D0
100
AcDbEntity
100
AcDbLine
  8
guidelines
 62
256
370
-1
  6
ByLayer
 10
630.0
 20
330.0
 30
0.0
 11
770.0
 21
330.0
 31
0.0
  0
CIRCLE
  5
D1
100
AcDbEntity
100
AcDbCircle
  8
guidelines
 62
256
370
-1
  6
ByLayer
 10
685.75
 20
330.0
 30
0.0
 40
30.0
  0
LINE
  5
D2
100
AcDbEntity
100
AcDbLine
  8
nozzles A
 62
256
370
-1
  6
ByLayer
 10
620.0
 20
380.0
 30
0.0
 11
620.0
 21
280.0
 31
0.0
  0
LINE
  5
D3
100
AcDbEntity
100
AcDbLine
  8
nozzles A
 62
256
370
-1
  6
ByLayer
 10
780.0
 20
380.0
 30
0.0
 11
620.0
 21
380.0
 31
0.0
  0
LINE
  5
D4
100
AcDbEntity
100
AcDbLine
  8
nozzles A
 62
256
370
-1
  6
ByLayer
 10
620.0
 20
280.0
 30
0.0
 11
780.0
 21
280.0
 31
0.0
  0
LINE
  5
D5
100
AcDbEntity
100
AcDbLine
  8
nozzles A
 62
256
370
-1
  6
ByLayer
 10
780.0
 20
380.0
 30
0.0
 11
780.0
 21
280.0
 31
0.0
  0
INSERT
  5
D6
100
AcDbEntity
100
AcDbBlockReference
  8
nozzles A
 62
256
370
-1
  6
ByLayer
  2
t_slots
 10
640.0
 20
330.0
 30
0.0
 50
90.0
 44
1.0
 45
1.0
  0
INSERT
  5
D7
100
AcDbEntity
100
AcDbBlockReference
  8
nozzles A
 62
256
370
-1
  6
ByLayer
  2
t_slots
 10
760.0
 20
330.0
 30
0.0
 50
90.0
 44
1.0
 45
1.0
  0
CIRCLE
  5
D8
100
AcDbEntity
100
AcDbCircle
  8
nozzles A
 62
256
370
-1
  6
ByLayer
 10
685.75
 20
330.0
 30
0.0
 40
6.0
  0
CIRCLE
  5
D9
100
AcDbEntity
100
AcDbCircle
  8
nozzles A
 62
256
370
-1
  6
ByLayer
 10
695.6494949366117453
 20
320.1005050633883116
 30
0.0
 40
6.0
  0
CIRCLE
  5
DA
100
AcDbEntity
100
AcDbCircle
  8
nozzles A
 62
256
370
-1
  6
ByLayer
 10
675.8505050633882547
 20
339.8994949366116316
 30
0.0
 40
6.0
  0
CIRCLE
  5
DB
100
AcDbEntity
100
AcDbCircle
  8
nozzles A
 62
256
370
-1
  6
ByLayer
 10
675.8505050633882547
 20
320.1005050633883116
 30
0.0
 40
6.0
  0
CIRCLE
  5
DC
100
AcDbEntity
100
AcDbCircle
  8
nozzles A
 62
256
370
-1
  6
ByLayer
 10
695.6494949366117453
 20
339.8994949366116316
 30
0.0
 40
6.0
  0
CIRCLE
  5
DD
100
AcDbEntity
100
AcDbCircle
  8
nozzles A
 62
256
370
-1
  6
ByLayer
 10
685.75
 20
349.7989898732233769
 30
0.0
 40
6.0
  0
CIRCLE
  5
DE
100
AcDbEntity
100
AcDbCircle
  8
nozzles A
 62
256
370
-1
  6
ByLayer
 10
665.9510101267767368
 20
330.0
 30
0.0
 40
6.0
  0
CIRCLE
  5
DF
100
AcDbEntity
100
AcDbCircle
  8
nozzles A
 62
256
370
-1
  6
ByLayer
 10
685.75
 20
310.20101012677668
 30
0.0
 40
6.0
  0
CIRCLE
  5
E0
100
AcDbEntity
100
AcDbCircle
  8
nozzles A
 62
256
370
-1
  6
ByLayer
 10
705.5489898732232632
 20
330.0
 30
0.0
 40
6.0
  0
LINE
  5
E1
100
AcDbEntity
100
AcDbLine
  8
guidelines
 62
256
370
-1
  6
ByLayer
 10
640.0
 20
260.0
 30
0.0
 11
640.0
 21
80.0
 31
0.0
  0
LINE
  5
E2
100
AcDbEntity
100
AcDbLine
  8
guidelines
 62
256
370
-1
  6
ByLayer
 10
700.0
 20
260.0
 30
0.0
 11
700.0
 21
80.0
 31
0.0
  0
LINE
  5
E3
100
AcDbEntity
100
AcDbLine
  8
guidelines
 62
256
370
-1
  6
ByLayer
 10
760.0
 20
260.0
 30
0.0
 11
760.0
 21
80.0
 31
0.0
  0
LINE
  5
E4
100
AcDbEntity
100
AcDbLine
  8
guidelines
 62
256
370
-1
  6
ByLayer
 10
790.0
 20
260.0
 30
0.0
 11
610.0
 21
260.0
 31
0.0
  0
LINE
  5
E5
100
AcDbEntity
100
AcDbLine
  8
guidelines
 62
256
370
-1
  6
ByLayer
 10
610.0
 20
260.0
 30
0.0
 11
610.0
 21
80.0
 31
0.0
  0
LINE
  5
E6
100
AcDbEntity
100
AcDbLine
  8
guidelines
 62
256
370
-1
  6
ByLayer
 10
610.0
 20
80.0
 30
0.0
 11
790.0
 21
80.0
 31
0.0
  0
LINE
  5
E7
100
AcDbEntity
100
AcDbLine
  8
guidelines
 62
256
370
-1
  6
ByLayer
 10
790.0
 20
80.0
 30
0.0
 11
790.0
 21
260.0
 31
0.0
  0
LINE
  5
E8
100
AcDbEntity
100
AcDbLine
  8
guidelines
 62
256
370
-1
  6
ByLayer
 10
610.0
 20
130.0
 30
0.0
 11
790.0
 21
130.0
 31
0.0
  0
LINE
  5
E9
100
AcDbEntity
100
AcDbLine
  8
guidelines
 62
256
370
-1
  6
ByLayer
 10
790.0
 20
230.0
 30
0.0
 11
610.0
 21
230.0
 31
0.0
  0
INSERT
  5
EA
100
AcDbEntity
100
AcDbBlockReference
  8
backplane
 62
256
370
-1
  6
ByLayer
  2
t_slots
 10
760.0
 20
230.0
 30
0.0
 50
90.0
 44
1.0
 45
1.0
  0
INSERT
  5
EB
100
AcDbEntity
100
AcDbBlockReference
  8
backplane
 62
256
370
-1
  6
ByLayer
  2
t_slots
 10
640.0
 20
230.0
 30
0.0
 50
90.0
 44
1.0
 45
1.0
  0
INSERT
  5
EC
100
AcDbEntity
100
AcDbBlockReference
  8
backplane
 62
256
370
-1
  6
ByLayer
  2
t_slots
 10
640.0
 20
130.0
 30
0.0
 50
90.0
 44
1.0
 45
1.0
  0
INSERT
  5
ED
100
AcDbEntity
100
AcDbBlockReference
  8
backplane
 62
256
370
-1
  6
ByLayer
  2
t_slots
 10
760.0
 20
130.0
 30
0.0
 50
90.0
 44
1.0
 45
1.0
  0
LINE
  5
EE
100
AcDbEntity
100
AcDbLine
  8
backplane
 62
256
370
-1
  6
ByLayer
 10
610.0
 20
270.0
 30
0.0
 11
790.0
 21
270.0
 31
0.0
  0
LINE
  5
EF
100
AcDbEntity
100
AcDbLine
  8
backplane
 62
256
370
-1
  6
ByLayer
 10
790.0
 20
270.0
 30
0.0
 11
790.0
 21
80.0
 31
0.0
  0
LINE
  5
F0
100
AcDbEntity
100
AcDbLine
  8
backplane
 62
256
370
-1
  6
ByLayer
 10
790.0
 20
80.0
 30
0.0
 11
610.0
 21
80.0
 31
0.0
  0
LINE
  5
F1
100
AcDbEntity
100
AcDbLine
  8
backplane
 62
256
370
-1
  6
ByLayer
 10
610.0
 20
80.0
 30
0.0
 11
610.0
 21
270.0
 31
0.0
  0
INSERT
  5
F2
100
AcDbEntity
100
AcDbBlockReference
  8
backplane
 62
256
370
-1
  6
ByLayer
  2
t_slots
 10
700.0
 20
130.0
 30
0.0
 50
90.0
 44
1.0
 45
1.0
  0
INSERT
  5
F3
100
AcDbEntity
100
AcDbBlockReference
  8
backplane
 62
256
370
-1
  6
ByLayer
  2
t_slots
 10
700.0
 20
230.0
 30
0.0
 50
90.0
 44
1.0
 45
1.0
  0
CIRCLE
  5
F4
100
AcDbEntity
100
AcDbCircle
  8
backplane
 62
256
370
-1
  6
ByLayer
 10
620.0
 20
250.0
 30
0.0
 40
1.5
  0
CIRCLE
  5
F5
100
AcDbEntity
100
AcDbCircle
  8
backplane
 62
256
370
-1
  6
ByLayer
 10
780.0
 20
250.0
 30
0.0
 40
1.5
  0
CIRCLE
  5
F6
100
AcDbEntity
100
AcDbCircle
  8
backplane
 62
256
370
-1
  6
ByLayer
 10
780.0
 20
110.0
 30
0.0
 40
1.5
  0
CIRCLE
  5
F7
100
AcDbEntity
100
AcDbCircle
  8
backplane
 62
256
370
-1
  6
ByLayer
 10
620.0
 20
110.0
 30
0.0
 40
1.5
  0
CIRCLE
  5
F8
100
AcDbEntity
100
AcDbCircle
  8
backplane
 62
256
370
-1
  6
ByLayer
 10
670.0
 20
180.0
 30
0.0
 40
1.5
  0
CIRCLE
  5
F9
100
AcDbEntity
100
AcDbCircle
  8
backplane
 62
256
370
-1
  6
ByLayer
 10
730.0
 20
180.0
 30
0.0
 40
1.5
  0
ENDSEC
  0
SECTION
  2
OBJECTS
  0
DICTIONARY
  5
C
100
AcDbDictionary
280
0
281
1
  3
ACAD_GROUP
350
D
  3
ACAD_LAYOUT
350
1A
  3
ACAD_MLINESTYLE
350
17
  3
ACAD_PLOTSETTINGS
350
19
  3
ACAD_PLOTSTYLENAME
350
E
  3
AcDbVariableDictionary
350
FA
  0
DICTIONARY
  5
D
100
AcDbDictionary
280
0
281
1
  0
ACDBDICTIONARYWDFLT
  5
E
100
AcDbDictionary
281
1
  3
Normal
350
F
100
AcDbDictionaryWithDefault
340
F
  0
ACDBPLACEHOLDER
  5
F
  0
DICTIONARY
  5
17
100
AcDbDictionary
280
0
281
1
  3
Standard
350
18
  0
MLINESTYLE
  5
18
100
AcDbMlineStyle
  2
STANDARD
 70
0
  3

 62
256
 51
90.0
 52
90.0
 71
2
 49
0.5
 62
256
  6
BYLAYER
 49
-0.5
 62
256
  6
BYLAYER
  0
DICTIONARY
  5
19
100
AcDbDictionary
280
0
281
1
  0
DICTIONARY
  5
1A
100
AcDbDictionary
281
1
  3
Layout1
350
1E
  3
Layout2
350
26
  3
Model
350
22
  0
LAYOUT
  5
1E
100
AcDbPlotSettings
  1

  2
C:\Program Files\AutoCAD 2002\plotters\DWF ePlot (optimized for plotting).pc3
  4

  6

 40
0.0
 41
0.0
 42
0.0
 43
0.0
 44
0.0
 45
0.0
 46
0.0
 47
0.0
 48
0.0
 49
0.0
140
0.0
141
0.0
142
1.0
143
1.0
 70
688
 72
0
 73
0
 74
5
  7

 75
16
147
1.0
148
0.0
149
0.0
100
AcDbLayout
  1
Layout1
 70
1
 71
1
 10
0.0
 20
0.0
 11
420.0
 21
297.0
 12
0.0
 22
0.0
 32
0.0
 14
100000000000000000000.0
 24
100000000000000000000.0
 34
100000000000000000000.0
 15
-100000000000000000000.0
 25
-100000000000000000000.0
 35
-100000000000000000000.0
146
0.0
 13
0.0
 23
0.0
 33
0.0
 16
1.0
 26
0.0
 36
0.0
 17
0.0
 27
1.0
 37
0.0
 76
0
330
1B
  0
LAYOUT
  5
22
100
AcDbPlotSettings
  1

  2
C:\Program Files\AutoCAD 2002\plotters\DWF ePlot (optimized for plotting).pc3
  4

  6

 40
0.0
 41
0.0
 42
0.0
 43
0.0
 44
0.0
 45
0.0
 46
0.0
 47
0.0
 48
0.0
 49
0.0
140
0.0
141
0.0
142
1.0
143
1.0
 70
1712
 72
0
 73
0
 74
0
  7

 75
0
147
1.0
148
0.0
149
0.0
100
AcDbLayout
  1
Model
 70
1
 71
0
 10
0.0
 20
0.0
 11
12.0
 21
9.0
 12
0.0
 22
0.0
 32
0.0
 14
0.0
 24
0.0
 34
0.0
 15
0.0
 25
0.0
 35
0.0
146
0.0
 13
0.0
 23
0.0
 33
0.0
 16
1.0
 26
0.0
 36
0.0
 17
0.0
 27
1.0
 37
0.0
 76
0
330
1F
  0
LAYOUT
  5
26
100
AcDbPlotSettings
  1

  2
C:\Program Files\AutoCAD 2002\plotters\DWF ePlot (optimized for plotting).pc3
  4

  6

 40
0.0
 41
0.0
 42
0.0
 43
0.0
 44
0.0
 45
0.0
 46
0.0
 47
0.0
 48
0.0
 49
0.0
140
0.0
141
0.0
142
1.0
143
1.0
 70
688
 72
0
 73
0
 74
5
  7

 75
16
147
1.0
148
0.0
149
0.0
100
AcDbLayout
  1
Layout2
 70
1
 71
2
 10
0.0
 20
0.0
 11
12.0
 21
9.0
 12
0.0
 22
0.0
 32
0.0
 14
0.0
 24
0.0
 34
0.0
 15
0.0
 25
0.0
 35
0.0
146
0.0
 13
0.0
 23
0.0
 33
0.0
 16
1.0
 26
0.0
 36
0.0
 17
0.0
 27
1.0
 37
0.0
 76
0
330
23
  0
DICTIONARY
  5
FA
100
AcDbDictionary
281
1
  3
DIMASSOC
350
FC
  3
HIDETEXT
350
FB
  0
DICTIONARYVAR
  5
FB
100
DictionaryVariables
280
0
  1
2
  0
DICTIONARYVAR
  5
FC
100
DictionaryVariables
280
0
  1
1
  0
ENDSEC
  0
EOF
