999
dxflib 2.2.0.0
  0
SECTION
  2
HEADER
  9
$ACADVER
  1
AC1015
  9
$HANDSEED
  5
FFFF
  9
$DIMASZ
 40
2.5
  9
$PLIMMIN
 10
0.0
 20
0.0
  9
$DIMEXE
 40
1.25
  9
$DIMGAP
 40
0.625
  9
$PLIMMAX
 10
210.0
 20
297.0
  9
$INSUNITS
 70
4
  9
$DIMSTYLE
  2
Standard
  9
$CLAYER
  8
midplate
  9
$DIMEXO
 40
0.625
  9
$DIMTXT
 40
2.5
  9
$CLAYER
  8
base
  0
ENDSEC
  0
SECTION
  2
TABLES
  0
TABLE
  2
VPORT
  5
8
100
AcDbSymbolTable
 70
1
  0
VPORT
  5
30
100
AcDbSymbolTableRecord
100
AcDbViewportTableRecord
  2
*Active
 70
0
 10
0.0
 20
0.0
 11
1.0
 21
1.0
 12
286.3055555555554861
 22
148.5
 13
0.0
 23
0.0
 14
10.0
 24
10.0
 15
10.0
 25
10.0
 16
0.0
 26
0.0
 36
1.0
 17
0.0
 27
0.0
 37
0.0
 40
297.0
 41
1.92798353909465
 42
50.0
 43
0.0
 44
0.0
 50
0.0
 51
0.0
 71
0
 72
100
 73
1
 74
3
 75
1
 76
1
 77
0
 78
0
281
0
 65
1
110
0.0
120
0.0
130
0.0
111
1.0
121
0.0
131
0.0
112
0.0
122
1.0
132
0.0
 79
0
146
0.0
  0
ENDTAB
  0
TABLE
  2
LTYPE
  5
5
100
AcDbSymbolTable
 70
21
  0
LTYPE
  5
14
100
AcDbSymbolTableRecord
100
AcDbLinetypeTableRecord
  2
ByBlock
 70
0
  3

 72
65
 73
0
 40
0.0
  0
LTYPE
  5
15
100
AcDbSymbolTableRecord
100
AcDbLinetypeTableRecord
  2
ByLayer
 70
0
  3

 72
65
 73
0
 40
0.0
  0
LTYPE
  5
16
100
AcDbSymbolTableRecord
100
AcDbLinetypeTableRecord
  2
CONTINUOUS
 70
0
  3
Solid line
 72
65
 73
0
 40
0.0
  0
LTYPE
  5
31
100
AcDbSymbolTableRecord
100
AcDbLinetypeTableRecord
  2
DOT
 70
0
  3
Dot . . . . . . . . . . . . . . . . . . . . . .
 72
65
 73
2
 40
6.3499999999999996
 49
0.0
 74
0
 49
-6.3499999999999996
 74
0
  0
LTYPE
  5
32
100
AcDbSymbolTableRecord
100
AcDbLinetypeTableRecord
  2
DOT2
 70
0
  3
Dot (.5x) .....................................
 72
65
 73
2
 40
3.1749999999999998
 49
0.0
 74
0
 49
-3.1749999999999998
 74
0
  0
LTYPE
  5
33
100
AcDbSymbolTableRecord
100
AcDbLinetypeTableRecord
  2
DOTX2
 70
0
  3
Dot (2x) .  .  .  .  .  .  .  .  .  .  .  .  .
 72
65
 73
2
 40
12.6999999999999993
 49
0.0
 74
0
 49
-12.6999999999999993
 74
0
  0
LTYPE
  5
34
100
AcDbSymbolTableRecord
100
AcDbLinetypeTableRecord
  2
DASHED
 70
0
  3
Dashed __ __ __ __ __ __ __ __ __ __ __ __ __ _
 72
65
 73
2
 40
19.0500000000000007
 49
12.6999999999999993
 74
0
 49
-6.3499999999999996
 74
0
  0
LTYPE
  5
35
100
AcDbSymbolTableRecord
100
AcDbLinetypeTableRecord
  2
DASHED2
 70
0
  3
Dashed (.5x) _ _ _ _ _ _ _ _ _ _ _ _ _ _ _ _ _
 72
65
 73
2
 40
9.5250000000000004
 49
6.3499999999999996
 74
0
 49
-3.1749999999999998
 74
0
  0
LTYPE
  5
36
100
AcDbSymbolTableRecord
100
AcDbLinetypeTableRecord
  2
DASHEDX2
 70
0
  3
Dashed (2x) ____  ____  ____  ____  ____  ___
 72
65
 73
2
 40
38.1000000000000014
 49
25.3999999999999986
 74
0
 49
-12.6999999999999993
 74
0
  0
LTYPE
  5
37
100
AcDbSymbolTableRecord
100
AcDbLinetypeTableRecord
  2
DASHDOT
 70
0
  3
Dash dot __ . __ . __ . __ . __ . __ . __ . __
 72
65
 73
4
 40
25.3999999999999986
 49
12.6999999999999993
 74
0
 49
-6.3499999999999996
 74
0
 49
0.0
 74
0
 49
-6.3499999999999996
 74
0
  0
LTYPE
  5
38
100
AcDbSymbolTableRecord
100
AcDbLinetypeTableRecord
  2
DASHDOT2
 70
0
  3
Dash dot (.5x) _._._._._._._._._._._._._._._.
 72
65
 73
4
 40
12.6999999999999993
 49
6.3499999999999996
 74
0
 49
-3.1749999999999998
 74
0
 49
0.0
 74
0
 49
-3.1749999999999998
 74
0
  0
LTYPE
  5
39
100
AcDbSymbolTableRecord
100
AcDbLinetypeTableRecord
  2
DASHDOTX2
 70
0
  3
Dash dot (2x) ____  .  ____  .  ____  .  ___
 72
65
 73
4
 40
50.7999999999999972
 49
25.3999999999999986
 74
0
 49
-12.6999999999999993
 74
0
 49
0.0
 74
0
 49
-12.6999999999999993
 74
0
  0
LTYPE
  5
3A
100
AcDbSymbolTableRecord
100
AcDbLinetypeTableRecord
  2
DIVIDE
 70
0
  3
Divide ____ . . ____ . . ____ . . ____ . . ____
 72
65
 73
6
 40
31.75
 49
12.6999999999999993
 74
0
 49
-6.3499999999999996
 74
0
 49
0.0
 74
0
 49
-6.3499999999999996
 74
0
 49
0.0
 74
0
 49
-6.3499999999999996
 74
0
  0
LTYPE
  5
3B
100
AcDbSymbolTableRecord
100
AcDbLinetypeTableRecord
  2
DIVIDE2
 70
0
  3
Divide (.5x) __..__..__..__..__..__..__..__.._
 72
65
 73
6
 40
15.875
 49
6.3499999999999996
 74
0
 49
-3.1749999999999998
 74
0
 49
0.0
 74
0
 49
-3.1749999999999998
 74
0
 49
0.0
 74
0
 49
-3.1749999999999998
 74
0
  0
LTYPE
  5
3C
100
AcDbSymbolTableRecord
100
AcDbLinetypeTableRecord
  2
DIVIDEX2
 70
0
  3
Divide (2x) ________  .  .  ________  .  .  _
 72
65
 73
6
 40
63.5
 49
25.3999999999999986
 74
0
 49
-12.6999999999999993
 74
0
 49
0.0
 74
0
 49
-12.6999999999999993
 74
0
 49
0.0
 74
0
 49
-12.6999999999999993
 74
0
  0
LTYPE
  5
3D
100
AcDbSymbolTableRecord
100
AcDbLinetypeTableRecord
  2
CENTER
 70
0
  3
Center ____ _ ____ _ ____ _ ____ _ ____ _ ____
 72
65
 73
4
 40
50.7999999999999972
 49
31.75
 74
0
 49
-6.3499999999999996
 74
0
 49
6.3499999999999996
 74
0
 49
-6.3499999999999996
 74
0
  0
LTYPE
  5
3E
100
AcDbSymbolTableRecord
100
AcDbLinetypeTableRecord
  2
CENTER2
 70
0
  3
Center (.5x) ___ _ ___ _ ___ _ ___ _ ___ _ ___
 72
65
 73
4
 40
28.5749999999999993
 49
19.0500000000000007
 74
0
 49
-3.1749999999999998
 74
0
 49
3.1749999999999998
 74
0
 49
-3.1749999999999998
 74
0
  0
LTYPE
  5
3F
100
AcDbSymbolTableRecord
100
AcDbLinetypeTableRecord
  2
CENTERX2
 70
0
  3
Center (2x) ________  __  ________  __  _____
 72
65
 73
4
 40
101.5999999999999943
 49
63.5
 74
0
 49
-12.6999999999999993
 74
0
 49
12.6999999999999993
 74
0
 49
-12.6999999999999993
 74
0
  0
LTYPE
  5
40
100
AcDbSymbolTableRecord
100
AcDbLinetypeTableRecord
  2
BORDER
 70
0
  3
Border __ __ . __ __ . __ __ . __ __ . __ __ .
 72
65
 73
6
 40
44.4500000000000028
 49
12.6999999999999993
 74
0
 49
-6.3499999999999996
 74
0
 49
12.6999999999999993
 74
0
 49
-6.3499999999999996
 74
0
 49
0.0
 74
0
 49
-6.3499999999999996
 74
0
  0
LTYPE
  5
41
100
AcDbSymbolTableRecord
100
AcDbLinetypeTableRecord
  2
BORDER2
 70
0
  3
Border (.5x) __.__.__.__.__.__.__.__.__.__.__.
 72
65
 73
6
 40
22.2250000000000014
 49
6.3499999999999996
 74
0
 49
-3.1749999999999998
 74
0
 49
6.3499999999999996
 74
0
 49
-3.1749999999999998
 74
0
 49
0.0
 74
0
 49
-3.1749999999999998
 74
0
  0
LTYPE
  5
42
100
AcDbSymbolTableRecord
100
AcDbLinetypeTableRecord
  2
BORDERX2
 70
0
  3
Border (2x) ____  ____  .  ____  ____  .  ___
 72
65
 73
6
 40
88.9000000000000057
 49
25.3999999999999986
 74
0
 49
-12.6999999999999993
 74
0
 49
25.3999999999999986
 74
0
 49
-12.6999999999999993
 74
0
 49
0.0
 74
0
 49
-12.6999999999999993
 74
0
  0
ENDTAB
  0
TABLE
  2
LAYER
  5
2
100
AcDbSymbolTable
 70
6
  0
LAYER
  5
10
100
AcDbSymbolTableRecord
100
AcDbLayerTableRecord
  2
0
 70
0
 62
7
420
16777215
  6
CONTINUOUS
370
0
390
F
  0
LAYER
  5
43
100
AcDbSymbolTableRecord
100
AcDbLayerTableRecord
  2
noname
 70
0
 62
4
420
65535
  6
CONTINUOUS
370
0
390
F
  0
LAYER
  5
44
100
AcDbSymbolTableRecord
100
AcDbLayerTableRecord
  2
skeleton
 70
0
 62
5
420
255
  6
CONTINUOUS
370
0
390
F
  0
LAYER
  5
45
100
AcDbSymbolTableRecord
100
AcDbLayerTableRecord
  2
base
 70
0
 62
7
420
0
  6
CONTINUOUS
370
0
390
F
  0
LAYER
  5
46
100
AcDbSymbolTableRecord
100
AcDbLayerTableRecord
  2
midplate
 70
0
 62
7
420
0
  6
CONTINUOUS
370
0
390
F
  0
LAYER
  5
47
100
AcDbSymbolTableRecord
100
AcDbLayerTableRecord
  2
topplate
 70
0
 62
7
420
0
  6
CONTINUOUS
370
0
390
F
  0
ENDTAB
  0
TABLE
  2
STYLE
  5
3
100
AcDbSymbolTable
 70
1
  0
STYLE
  5
11
100
AcDbSymbolTableRecord
100
AcDbTextStyleTableRecord
  2
Standard
 70
0
 40
0.0
 41
0.75
 50
0.0
 71
0
 42
2.5
  3
txt
  4

  0
ENDTAB
  0
TABLE
  2
VIEW
  5
6
100
AcDbSymbolTable
 70
0
  0
ENDTAB
  0
TABLE
  2
UCS
  5
7
100
AcDbSymbolTable
 70
0
  0
ENDTAB
  0
TABLE
  2
APPID
  5
9
100
AcDbSymbolTable
 70
1
  0
APPID
  5
12
100
AcDbSymbolTableRecord
100
AcDbRegAppTableRecord
  2
ACAD
 70
0
  0
ENDTAB
  0
TABLE
  2
DIMSTYLE
  5
A
100
AcDbSymbolTable
 70
1
100
AcDbDimStyleTable
 71
0
  0
DIMSTYLE
105
27
100
AcDbSymbolTableRecord
100
AcDbDimStyleTableRecord
  2
Standard
 41
2.5
 42
0.625
 43
3.75
 44
1.25
 70
0
 73
0
 74
0
 77
1
 78
8
140
2.5
141
2.5
143
0.03937007874016
147
0.625
171
3
172
1
271
2
272
2
274
3
278
44
283
0
284
8
340
11
  0
ENDTAB
  0
TABLE
  2
BLOCK_RECORD
  5
1
100
AcDbSymbolTable
 70
1
  0
BLOCK_RECORD
  5
1F
100
AcDbSymbolTableRecord
100
AcDbBlockTableRecord
  2
*Model_Space
340
22
  0
BLOCK_RECORD
  5
1B
100
AcDbSymbolTableRecord
100
AcDbBlockTableRecord
  2
*Paper_Space
340
1E
  0
BLOCK_RECORD
  5
23
100
AcDbSymbolTableRecord
100
AcDbBlockTableRecord
  2
*Paper_Space0
340
26
  0
BLOCK_RECORD
  5
48
100
AcDbSymbolTableRecord
100
AcDbBlockTableRecord
  2
rb35
340
0
  0
BLOCK_RECORD
  5
49
100
AcDbSymbolTableRecord
100
AcDbBlockTableRecord
  2
gear_12
340
0
  0
BLOCK_RECORD
  5
4A
100
AcDbSymbolTableRecord
100
AcDbBlockTableRecord
  2
rack
340
0
  0
BLOCK_RECORD
  5
4B
100
AcDbSymbolTableRecord
100
AcDbBlockTableRecord
  2
rb35-hole
340
0
  0
BLOCK_RECORD
  5
4C
100
AcDbSymbolTableRecord
100
AcDbBlockTableRecord
  2
gear_6
340
0
  0
ENDTAB
  0
ENDSEC
  0
SECTION
  2
BLOCKS
  0
BLOCK
  5
20
100
AcDbEntity
  8
0
100
AcDbBlockBegin
  2
*Model_Space
 70
0
 10
0.0
 20
0.0
 30
0.0
  3
*Model_Space
  1

  0
ENDBLK
  5
21
100
AcDbEntity
  8
0
100
AcDbBlockEnd
  0
BLOCK
  5
1C
100
AcDbEntity
 67
1
  8
0
100
AcDbBlockBegin
  2
*Paper_Space
 70
0
 10
0.0
 20
0.0
 30
0.0
  3
*Paper_Space
  1

  0
ENDBLK
  5
1D
100
AcDbEntity
 67
1
  8
0
100
AcDbBlockEnd
  0
BLOCK
  5
24
100
AcDbEntity
  8
0
100
AcDbBlockBegin
  2
*Paper_Space0
 70
0
 10
0.0
 20
0.0
 30
0.0
  3
*Paper_Space0
  1

  0
ENDBLK
  5
25
100
AcDbEntity
  8
0
100
AcDbBlockEnd
  0
BLOCK
  5
4D
100
AcDbEntity
  8
0
100
AcDbBlockBegin
  2
rb35
 70
0
 10
0.0
 20
0.0
 30
0.0
  3
rb35
  1

  0
CIRCLE
  5
4E
100
AcDbEntity
100
AcDbCircle
  8
0
 62
256
370
-1
  6
ByLayer
 10
-15.5
 20
-6.9999999999999982
 30
0.0
 40
1.5
  0
CIRCLE
  5
4F
100
AcDbEntity
100
AcDbCircle
  8
0
 62
256
370
-1
  6
ByLayer
 10
7.7499999999999902
 20
-20.4233937586588041
 30
0.0
 40
1.5
  0
CIRCLE
  5
50
100
AcDbEntity
100
AcDbCircle
  8
0
 62
256
370
-1
  6
ByLayer
 10
7.7500000000000071
 20
6.4233937586587952
 30
0.0
 40
1.5
  0
CIRCLE
  5
51
100
AcDbEntity
100
AcDbCircle
  8
0
 62
256
370
-1
  6
ByLayer
 10
0.0
 20
0.0
 30
0.0
 40
6.0
  0
ENDBLK
  5
52
100
AcDbEntity
  8
0
100
AcDbBlockEnd
  0
BLOCK
  5
53
100
AcDbEntity
  8
0
100
AcDbBlockBegin
  2
gear_12
 70
0
 10
0.0
 20
0.0
 30
0.0
  3
gear_12
  1

  0
LINE
  5
54
100
AcDbEntity
100
AcDbLine
  8
0
 62
256
370
-1
  6
ByLayer
 10
38.874644941199989
 20
-14.1806200237200102
 30
0.0
 11
40.7567400940000084
 21
-7.1565452886000118
 31
0.0
  0
LINE
  5
55
100
AcDbEntity
100
AcDbLine
  8
0
 62
256
370
-1
  6
ByLayer
 10
40.7567400940000084
 20
-7.1565452886000118
 30
0.0
 11
38.8064910877999978
 21
-5.5947517994799956
 31
0.0
  0
LINE
  5
56
100
AcDbEntity
100
AcDbLine
  8
0
 62
256
370
-1
  6
ByLayer
 10
38.8064910877999978
 20
-5.5947517994799956
 30
0.0
 11
37.1497114869999905
 21
-4.579111687600034
 31
0.0
  0
LINE
  5
57
100
AcDbEntity
100
AcDbLine
  8
0
 62
256
370
-1
  6
ByLayer
 10
37.1497114869999905
 20
-4.579111687600034
 30
0.0
 11
35.8852124025999899
 21
-4.0065598636600015
 31
0.0
  0
LINE
  5
58
100
AcDbEntity
100
AcDbLine
  8
0
 62
256
370
-1
  6
ByLayer
 10
35.8852124025999899
 20
-4.0065598636600015
 30
0.0
 11
35.0900430924000091
 21
-3.7588382663399718
 31
0.0
  0
LINE
  5
59
100
AcDbEntity
100
AcDbLine
  8
0
 62
256
370
-1
  6
ByLayer
 10
35.0900430924000091
 20
-3.7588382663399718
 30
0.0
 11
34.8173665365999909
 21
-3.7063876655000385
 31
0.0
  0
LINE
  5
5A
100
AcDbEntity
100
AcDbLine
  8
0
 62
256
370
-1
  6
ByLayer
 10
34.8173665365999909
 20
-3.7063876655000385
 30
0.0
 11
34.8173665365999909
 21
3.7063876655000265
 31
0.0
  0
LINE
  5
5B
100
AcDbEntity
100
AcDbLine
  8
0
 62
256
370
-1
  6
ByLayer
 10
34.8173665365999909
 20
3.7063876655000265
 30
0.0
 11
35.0900430924000091
 21
3.7588382663399509
 31
0.0
  0
LINE
  5
5C
100
AcDbEntity
100
AcDbLine
  8
0
 62
256
370
-1
  6
ByLayer
 10
35.0900430924000091
 20
3.7588382663399509
 30
0.0
 11
35.8852124025999899
 21
4.0065598636600024
 31
0.0
  0
LINE
  5
5D
100
AcDbEntity
100
AcDbLine
  8
0
 62
256
370
-1
  6
ByLayer
 10
35.8852124025999899
 20
4.0065598636600024
 30
0.0
 11
37.1497114869999905
 21
4.5791116876000109
 31
0.0
  0
LINE
  5
5E
100
AcDbEntity
100
AcDbLine
  8
0
 62
256
370
-1
  6
ByLayer
 10
37.1497114869999905
 20
4.5791116876000109
 30
0.0
 11
38.8064910877999978
 21
5.5947517994799876
 31
0.0
  0
LINE
  5
5F
100
AcDbEntity
100
AcDbLine
  8
0
 62
256
370
-1
  6
ByLayer
 10
38.8064910877999978
 20
5.5947517994799876
 30
0.0
 11
40.7567400944000156
 21
7.1565452886600021
 31
0.0
  0
LINE
  5
60
100
AcDbEntity
100
AcDbLine
  8
0
 62
256
370
-1
  6
ByLayer
 10
40.7567400944000156
 20
7.1565452886600021
 30
0.0
 11
40.7567400940000084
 21
7.1565452886000118
 31
0.0
  0
LINE
  5
61
100
AcDbEntity
100
AcDbLine
  8
0
 62
256
370
-1
  6
ByLayer
 10
40.7567400940000084
 20
7.1565452886000118
 30
0.0
 11
38.8746449412000175
 21
14.180620023719996
 31
0.0
  0
LINE
  5
62
100
AcDbEntity
100
AcDbLine
  8
0
 62
256
370
-1
  6
ByLayer
 10
38.8746449412000175
 20
14.180620023719996
 30
0.0
 11
36.4047830133999923
 21
14.5580483576600024
 31
0.0
  0
LINE
  5
63
100
AcDbEntity
100
AcDbLine
  8
0
 62
256
370
-1
  6
ByLayer
 10
36.4047830133999923
 20
14.5580483576600024
 30
0.0
 11
34.4621497347999934
 21
14.6092286952799988
 31
0.0
  0
LINE
  5
64
100
AcDbEntity
100
AcDbLine
  8
0
 62
256
370
-1
  6
ByLayer
 10
34.4621497347999934
 20
14.6092286952799988
 30
0.0
 11
33.0807854926000005
 21
14.4728235775599998
 31
0.0
  0
LINE
  5
65
100
AcDbEntity
100
AcDbLine
  8
0
 62
256
370
-1
  6
ByLayer
 10
33.0807854926000005
 20
14.4728235775599998
 30
0.0
 11
32.2682878709999841
 21
14.2897721187800162
 31
0.0
  0
LINE
  5
66
100
AcDbEntity
100
AcDbLine
  8
0
 62
256
370
-1
  6
ByLayer
 10
32.2682878709999841
 20
14.2897721187800162
 30
0.0
 11
32.0059177464000015
 21
14.198857393720008
 31
0.0
  0
LINE
  5
67
100
AcDbEntity
100
AcDbLine
  8
0
 62
256
370
-1
  6
ByLayer
 10
32.0059177464000015
 20
14.198857393720008
 30
0.0
 11
28.2995300807999968
 21
20.6185091430000043
 31
0.0
  0
LINE
  5
68
100
AcDbEntity
100
AcDbLine
  8
0
 62
256
370
-1
  6
ByLayer
 10
28.2995300807999968
 20
20.6185091430000043
 30
0.0
 11
28.5094496046000074
 21
20.8002709736000035
 31
0.0
  0
LINE
  5
69
100
AcDbEntity
100
AcDbLine
  8
0
 62
256
370
-1
  6
ByLayer
 10
28.5094496046000074
 20
20.8002709736000035
 30
0.0
 11
29.0742256290000114
 21
21.4123888249999936
 31
0.0
  0
LINE
  5
6A
100
AcDbEntity
100
AcDbLine
  8
0
 62
256
370
-1
  6
ByLayer
 10
29.0742256290000114
 20
21.4123888249999936
 30
0.0
 11
29.8830380471999888
 21
22.5404827917999953
 31
0.0
  0
LINE
  5
6B
100
AcDbEntity
100
AcDbLine
  8
0
 62
256
370
-1
  6
ByLayer
 10
29.8830380471999888
 20
22.5404827917999953
 30
0.0
 11
30.8100312139999915
 21
24.2484427300000007
 31
0.0
  0
LINE
  5
6C
100
AcDbEntity
100
AcDbLine
  8
0
 62
256
370
-1
  6
ByLayer
 10
30.8100312139999915
 20
24.2484427300000007
 30
0.0
 11
31.7180996527999888
 21
26.5761200704000018
 31
0.0
  0
LINE
  5
6D
100
AcDbEntity
100
AcDbLine
  8
0
 62
256
370
-1
  6
ByLayer
 10
31.7180996527999888
 20
26.5761200704000018
 30
0.0
 11
31.7180996526000172
 21
26.5761200701999982
 31
0.0
  0
LINE
  5
6E
100
AcDbEntity
100
AcDbLine
  8
0
 62
256
370
-1
  6
ByLayer
 10
31.7180996526000172
 20
26.5761200701999982
 30
0.0
 11
26.5761200702000018
 21
31.718099652600003
 31
0.0
  0
LINE
  5
6F
100
AcDbEntity
100
AcDbLine
  8
0
 62
256
370
-1
  6
ByLayer
 10
26.5761200702000018
 20
31.718099652600003
 30
0.0
 11
24.2484427299999972
 21
30.810031213999995
 31
0.0
  0
LINE
  5
70
100
AcDbEntity
100
AcDbLine
  8
0
 62
256
370
-1
  6
ByLayer
 10
24.2484427299999972
 20
30.810031213999995
 30
0.0
 11
22.5404827917999988
 21
29.8830380471999959
 31
0.0
  0
LINE
  5
71
100
AcDbEntity
100
AcDbLine
  8
0
 62
256
370
-1
  6
ByLayer
 10
22.5404827917999988
 20
29.8830380471999959
 30
0.0
 11
21.4123888249999972
 21
29.0742256290000007
 31
0.0
  0
LINE
  5
72
100
AcDbEntity
100
AcDbLine
  8
0
 62
256
370
-1
  6
ByLayer
 10
21.4123888249999972
 20
29.0742256290000007
 30
0.0
 11
20.8002709735999929
 21
28.5094496046000074
 31
0.0
  0
LINE
  5
73
100
AcDbEntity
100
AcDbLine
  8
0
 62
256
370
-1
  6
ByLayer
 10
20.8002709735999929
 20
28.5094496046000074
 30
0.0
 11
20.6185091429999865
 21
28.2995300808000039
 31
0.0
  0
LINE
  5
74
100
AcDbEntity
100
AcDbLine
  8
0
 62
256
370
-1
  6
ByLayer
 10
20.6185091429999865
 20
28.2995300808000039
 30
0.0
 11
14.1988573937200027
 21
32.0059177464000015
 31
0.0
  0
LINE
  5
75
100
AcDbEntity
100
AcDbLine
  8
0
 62
256
370
-1
  6
ByLayer
 10
14.1988573937200027
 20
32.0059177464000015
 30
0.0
 11
14.2897721187800109
 21
32.2682878709999983
 31
0.0
  0
LINE
  5
76
100
AcDbEntity
100
AcDbLine
  8
0
 62
256
370
-1
  6
ByLayer
 10
14.2897721187800109
 20
32.2682878709999983
 30
0.0
 11
14.4728235775600051
 21
33.0807854926000005
 31
0.0
  0
LINE
  5
77
100
AcDbEntity
100
AcDbLine
  8
0
 62
256
370
-1
  6
ByLayer
 10
14.4728235775600051
 20
33.0807854926000005
 30
0.0
 11
14.6092286952799935
 21
34.4621497348000076
 31
0.0
  0
LINE
  5
78
100
AcDbEntity
100
AcDbLine
  8
0
 62
256
370
-1
  6
ByLayer
 10
14.6092286952799935
 20
34.4621497348000076
 30
0.0
 11
14.5580483576599971
 21
36.4047830133999994
 31
0.0
  0
LINE
  5
79
100
AcDbEntity
100
AcDbLine
  8
0
 62
256
370
-1
  6
ByLayer
 10
14.5580483576599971
 20
36.4047830133999994
 30
0.0
 11
14.1806200238599978
 21
38.8746449413999997
 31
0.0
  0
LINE
  5
7A
100
AcDbEntity
100
AcDbLine
  8
0
 62
256
370
-1
  6
ByLayer
 10
14.1806200238599978
 20
38.8746449413999997
 30
0.0
 11
14.1806200237199977
 21
38.8746449412000032
 31
0.0
  0
LINE
  5
7B
100
AcDbEntity
100
AcDbLine
  8
0
 62
256
370
-1
  6
ByLayer
 10
14.1806200237199977
 20
38.8746449412000032
 30
0.0
 11
7.1565452886000029
 21
40.7567400940000013
 31
0.0
  0
LINE
  5
7C
100
AcDbEntity
100
AcDbLine
  8
0
 62
256
370
-1
  6
ByLayer
 10
7.1565452886000029
 20
40.7567400940000013
 30
0.0
 11
5.5947517994800062
 21
38.8064910878000049
 31
0.0
  0
LINE
  5
7D
100
AcDbEntity
100
AcDbLine
  8
0
 62
256
370
-1
  6
ByLayer
 10
5.5947517994800062
 20
38.8064910878000049
 30
0.0
 11
4.5791116876000038
 21
37.1497114869999976
 31
0.0
  0
LINE
  5
7E
100
AcDbEntity
100
AcDbLine
  8
0
 62
256
370
-1
  6
ByLayer
 10
4.5791116876000038
 20
37.1497114869999976
 30
0.0
 11
4.0065598636600193
 21
35.885212402599997
 31
0.0
  0
LINE
  5
7F
100
AcDbEntity
100
AcDbLine
  8
0
 62
256
370
-1
  6
ByLayer
 10
4.0065598636600193
 20
35.885212402599997
 30
0.0
 11
3.7588382663400037
 21
35.0900430923999949
 31
0.0
  0
LINE
  5
80
100
AcDbEntity
100
AcDbLine
  8
0
 62
256
370
-1
  6
ByLayer
 10
3.7588382663400037
 20
35.0900430923999949
 30
0.0
 11
3.7063876654999857
 21
34.8173665365999909
 31
0.0
  0
LINE
  5
81
100
AcDbEntity
100
AcDbLine
  8
0
 62
256
370
-1
  6
ByLayer
 10
3.7063876654999857
 20
34.8173665365999909
 30
0.0
 11
-3.7063876654999892
 21
34.8173665365999909
 31
0.0
  0
LINE
  5
82
100
AcDbEntity
100
AcDbLine
  8
0
 62
256
370
-1
  6
ByLayer
 10
-3.7063876654999892
 20
34.8173665365999909
 30
0.0
 11
-3.7588382663400073
 21
35.0900430923999949
 31
0.0
  0
LINE
  5
83
100
AcDbEntity
100
AcDbLine
  8
0
 62
256
370
-1
  6
ByLayer
 10
-3.7588382663400073
 20
35.0900430923999949
 30
0.0
 11
-4.0065598636599837
 21
35.885212402599997
 31
0.0
  0
LINE
  5
84
100
AcDbEntity
100
AcDbLine
  8
0
 62
256
370
-1
  6
ByLayer
 10
-4.0065598636599837
 20
35.885212402599997
 30
0.0
 11
-4.5791116876000073
 21
37.1497114869999976
 31
0.0
  0
LINE
  5
85
100
AcDbEntity
100
AcDbLine
  8
0
 62
256
370
-1
  6
ByLayer
 10
-4.5791116876000073
 20
37.1497114869999976
 30
0.0
 11
-5.5947517994800107
 21
38.8064910877999978
 31
0.0
  0
LINE
  5
86
100
AcDbEntity
100
AcDbLine
  8
0
 62
256
370
-1
  6
ByLayer
 10
-5.5947517994800107
 20
38.8064910877999978
 30
0.0
 11
-7.1565452886600003
 21
40.7567400944000013
 31
0.0
  0
LINE
  5
87
100
AcDbEntity
100
AcDbLine
  8
0
 62
256
370
-1
  6
ByLayer
 10
-7.1565452886600003
 20
40.7567400944000013
 30
0.0
 11
-7.1565452885999976
 21
40.7567400940000013
 31
0.0
  0
LINE
  5
88
100
AcDbEntity
100
AcDbLine
  8
0
 62
256
370
-1
  6
ByLayer
 10
-7.1565452885999976
 20
40.7567400940000013
 30
0.0
 11
-14.1806200237199924
 21
38.8746449412000032
 31
0.0
  0
LINE
  5
89
100
AcDbEntity
100
AcDbLine
  8
0
 62
256
370
-1
  6
ByLayer
 10
-14.1806200237199924
 20
38.8746449412000032
 30
0.0
 11
-14.5580483576600006
 21
36.4047830133999994
 31
0.0
  0
LINE
  5
8A
100
AcDbEntity
100
AcDbLine
  8
0
 62
256
370
-1
  6
ByLayer
 10
-14.5580483576600006
 20
36.4047830133999994
 30
0.0
 11
-14.6092286952799952
 21
34.4621497348000005
 31
0.0
  0
LINE
  5
8B
100
AcDbEntity
100
AcDbLine
  8
0
 62
256
370
-1
  6
ByLayer
 10
-14.6092286952799952
 20
34.4621497348000005
 30
0.0
 11
-14.4728235775600069
 21
33.0807854926000005
 31
0.0
  0
LINE
  5
8C
100
AcDbEntity
100
AcDbLine
  8
0
 62
256
370
-1
  6
ByLayer
 10
-14.4728235775600069
 20
33.0807854926000005
 30
0.0
 11
-14.2897721187800055
 21
32.2682878710000054
 31
0.0
  0
LINE
  5
8D
100
AcDbEntity
100
AcDbLine
  8
0
 62
256
370
-1
  6
ByLayer
 10
-14.2897721187800055
 20
32.2682878710000054
 30
0.0
 11
-14.1988573937200062
 21
32.0059177464000015
 31
0.0
  0
LINE
  5
8E
100
AcDbEntity
100
AcDbLine
  8
0
 62
256
370
-1
  6
ByLayer
 10
-14.1988573937200062
 20
32.0059177464000015
 30
0.0
 11
-20.6185091429999829
 21
28.2995300808000039
 31
0.0
  0
LINE
  5
8F
100
AcDbEntity
100
AcDbLine
  8
0
 62
256
370
-1
  6
ByLayer
 10
-20.6185091429999829
 20
28.2995300808000039
 30
0.0
 11
-20.8002709735999964
 21
28.5094496045999968
 31
0.0
  0
LINE
  5
90
100
AcDbEntity
100
AcDbLine
  8
0
 62
256
370
-1
  6
ByLayer
 10
-20.8002709735999964
 20
28.5094496045999968
 30
0.0
 11
-21.4123888249999936
 21
29.0742256290000007
 31
0.0
  0
LINE
  5
91
100
AcDbEntity
100
AcDbLine
  8
0
 62
256
370
-1
  6
ByLayer
 10
-21.4123888249999936
 20
29.0742256290000007
 30
0.0
 11
-22.5404827918000024
 21
29.8830380471999923
 31
0.0
  0
LINE
  5
92
100
AcDbEntity
100
AcDbLine
  8
0
 62
256
370
-1
  6
ByLayer
 10
-22.5404827918000024
 20
29.8830380471999923
 30
0.0
 11
-24.2484427299999972
 21
30.8100312140000057
 31
0.0
  0
LINE
  5
93
100
AcDbEntity
100
AcDbLine
  8
0
 62
256
370
-1
  6
ByLayer
 10
-24.2484427299999972
 20
30.8100312140000057
 30
0.0
 11
-26.5761200704000018
 21
31.7180996528000065
 31
0.0
  0
LINE
  5
94
100
AcDbEntity
100
AcDbLine
  8
0
 62
256
370
-1
  6
ByLayer
 10
-26.5761200704000018
 20
31.7180996528000065
 30
0.0
 11
-26.5761200702000018
 21
31.7180996525999959
 31
0.0
  0
LINE
  5
95
100
AcDbEntity
100
AcDbLine
  8
0
 62
256
370
-1
  6
ByLayer
 10
-26.5761200702000018
 20
31.7180996525999959
 30
0.0
 11
-31.7180996526000136
 21
26.5761200702000018
 31
0.0
  0
LINE
  5
96
100
AcDbEntity
100
AcDbLine
  8
0
 62
256
370
-1
  6
ByLayer
 10
-31.7180996526000136
 20
26.5761200702000018
 30
0.0
 11
-30.810031213999995
 21
24.2484427300000007
 31
0.0
  0
LINE
  5
97
100
AcDbEntity
100
AcDbLine
  8
0
 62
256
370
-1
  6
ByLayer
 10
-30.810031213999995
 20
24.2484427300000007
 30
0.0
 11
-29.8830380471999959
 21
22.5404827917999881
 31
0.0
  0
LINE
  5
98
100
AcDbEntity
100
AcDbLine
  8
0
 62
256
370
-1
  6
ByLayer
 10
-29.8830380471999959
 20
22.5404827917999881
 30
0.0
 11
-29.0742256290000114
 21
21.4123888250000078
 31
0.0
  0
LINE
  5
99
100
AcDbEntity
100
AcDbLine
  8
0
 62
256
370
-1
  6
ByLayer
 10
-29.0742256290000114
 20
21.4123888250000078
 30
0.0
 11
-28.5094496046000145
 21
20.8002709735999964
 31
0.0
  0
LINE
  5
9A
100
AcDbEntity
100
AcDbLine
  8
0
 62
256
370
-1
  6
ByLayer
 10
-28.5094496046000145
 20
20.8002709735999964
 30
0.0
 11
-28.2995300807999968
 21
20.6185091430000043
 31
0.0
  0
LINE
  5
9B
100
AcDbEntity
100
AcDbLine
  8
0
 62
256
370
-1
  6
ByLayer
 10
-28.2995300807999968
 20
20.6185091430000043
 30
0.0
 11
-32.0059177464000015
 21
14.1988573937200133
 31
0.0
  0
LINE
  5
9C
100
AcDbEntity
100
AcDbLine
  8
0
 62
256
370
-1
  6
ByLayer
 10
-32.0059177464000015
 20
14.1988573937200133
 30
0.0
 11
-32.2682878709999841
 21
14.2897721187800197
 31
0.0
  0
LINE
  5
9D
100
AcDbEntity
100
AcDbLine
  8
0
 62
256
370
-1
  6
ByLayer
 10
-32.2682878709999841
 20
14.2897721187800197
 30
0.0
 11
-33.0807854926000005
 21
14.4728235775600069
 31
0.0
  0
LINE
  5
9E
100
AcDbEntity
100
AcDbLine
  8
0
 62
256
370
-1
  6
ByLayer
 10
-33.0807854926000005
 20
14.4728235775600069
 30
0.0
 11
-34.4621497347999934
 21
14.6092286952799988
 31
0.0
  0
LINE
  5
9F
100
AcDbEntity
100
AcDbLine
  8
0
 62
256
370
-1
  6
ByLayer
 10
-34.4621497347999934
 20
14.6092286952799988
 30
0.0
 11
-36.4047830133999923
 21
14.5580483576600059
 31
0.0
  0
LINE
  5
A0
100
AcDbEntity
100
AcDbLine
  8
0
 62
256
370
-1
  6
ByLayer
 10
-36.4047830133999923
 20
14.5580483576600059
 30
0.0
 11
-38.8746449413999926
 21
14.1806200238599978
 31
0.0
  0
LINE
  5
A1
100
AcDbEntity
100
AcDbLine
  8
0
 62
256
370
-1
  6
ByLayer
 10
-38.8746449413999926
 20
14.1806200238599978
 30
0.0
 11
-38.8746449412000175
 21
14.180620023719996
 31
0.0
  0
LINE
  5
A2
100
AcDbEntity
100
AcDbLine
  8
0
 62
256
370
-1
  6
ByLayer
 10
-38.8746449412000175
 20
14.180620023719996
 30
0.0
 11
-40.7567400940000084
 21
7.1565452886000065
 31
0.0
  0
LINE
  5
A3
100
AcDbEntity
100
AcDbLine
  8
0
 62
256
370
-1
  6
ByLayer
 10
-40.7567400940000084
 20
7.1565452886000065
 30
0.0
 11
-38.8064910877999978
 21
5.5947517994799902
 31
0.0
  0
LINE
  5
A4
100
AcDbEntity
100
AcDbLine
  8
0
 62
256
370
-1
  6
ByLayer
 10
-38.8064910877999978
 20
5.5947517994799902
 30
0.0
 11
-37.1497114869999905
 21
4.5791116876000135
 31
0.0
  0
LINE
  5
A5
100
AcDbEntity
100
AcDbLine
  8
0
 62
256
370
-1
  6
ByLayer
 10
-37.1497114869999905
 20
4.5791116876000135
 30
0.0
 11
-35.8852124025999899
 21
4.0065598636599971
 31
0.0
  0
LINE
  5
A6
100
AcDbEntity
100
AcDbLine
  8
0
 62
256
370
-1
  6
ByLayer
 10
-35.8852124025999899
 20
4.0065598636599971
 30
0.0
 11
-35.0900430924000091
 21
3.7588382663399522
 31
0.0
  0
LINE
  5
A7
100
AcDbEntity
100
AcDbLine
  8
0
 62
256
370
-1
  6
ByLayer
 10
-35.0900430924000091
 20
3.7588382663399522
 30
0.0
 11
-34.8173665365999909
 21
3.7063876655000345
 31
0.0
  0
LINE
  5
A8
100
AcDbEntity
100
AcDbLine
  8
0
 62
256
370
-1
  6
ByLayer
 10
-34.8173665365999909
 20
3.7063876655000345
 30
0.0
 11
-34.8173665365999909
 21
-3.7063876655000256
 31
0.0
  0
LINE
  5
A9
100
AcDbEntity
100
AcDbLine
  8
0
 62
256
370
-1
  6
ByLayer
 10
-34.8173665365999909
 20
-3.7063876655000256
 30
0.0
 11
-35.0900430924000091
 21
-3.7588382663399114
 31
0.0
  0
LINE
  5
AA
100
AcDbEntity
100
AcDbLine
  8
0
 62
256
370
-1
  6
ByLayer
 10
-35.0900430924000091
 20
-3.7588382663399114
 30
0.0
 11
-35.8852124025999899
 21
-4.0065598636599882
 31
0.0
  0
LINE
  5
AB
100
AcDbEntity
100
AcDbLine
  8
0
 62
256
370
-1
  6
ByLayer
 10
-35.8852124025999899
 20
-4.0065598636599882
 30
0.0
 11
-37.1497114869999905
 21
-4.5791116876000046
 31
0.0
  0
LINE
  5
AC
100
AcDbEntity
100
AcDbLine
  8
0
 62
256
370
-1
  6
ByLayer
 10
-37.1497114869999905
 20
-4.5791116876000046
 30
0.0
 11
-38.8064910877999978
 21
-5.5947517994799814
 31
0.0
  0
LINE
  5
AD
100
AcDbEntity
100
AcDbLine
  8
0
 62
256
370
-1
  6
ByLayer
 10
-38.8064910877999978
 20
-5.5947517994799814
 30
0.0
 11
-40.7567400944000156
 21
-7.1565452886599914
 31
0.0
  0
LINE
  5
AE
100
AcDbEntity
100
AcDbLine
  8
0
 62
256
370
-1
  6
ByLayer
 10
-40.7567400944000156
 20
-7.1565452886599914
 30
0.0
 11
-40.7567400940000084
 21
-7.1565452885999967
 31
0.0
  0
LINE
  5
AF
100
AcDbEntity
100
AcDbLine
  8
0
 62
256
370
-1
  6
ByLayer
 10
-40.7567400940000084
 20
-7.1565452885999967
 30
0.0
 11
-38.8746449412000175
 21
-14.1806200237199675
 31
0.0
  0
LINE
  5
B0
100
AcDbEntity
100
AcDbLine
  8
0
 62
256
370
-1
  6
ByLayer
 10
-38.8746449412000175
 20
-14.1806200237199675
 30
0.0
 11
-36.4047830133999994
 21
-14.5580483576599615
 31
0.0
  0
LINE
  5
B1
100
AcDbEntity
100
AcDbLine
  8
0
 62
256
370
-1
  6
ByLayer
 10
-36.4047830133999994
 20
-14.5580483576599615
 30
0.0
 11
-34.4621497348000005
 21
-14.6092286952799917
 31
0.0
  0
LINE
  5
B2
100
AcDbEntity
100
AcDbLine
  8
0
 62
256
370
-1
  6
ByLayer
 10
-34.4621497348000005
 20
-14.6092286952799917
 30
0.0
 11
-33.0807854926000005
 21
-14.472823577559998
 31
0.0
  0
LINE
  5
B3
100
AcDbEntity
100
AcDbLine
  8
0
 62
256
370
-1
  6
ByLayer
 10
-33.0807854926000005
 20
-14.472823577559998
 30
0.0
 11
-32.2682878709999841
 21
-14.2897721187800126
 31
0.0
  0
LINE
  5
B4
100
AcDbEntity
100
AcDbLine
  8
0
 62
256
370
-1
  6
ByLayer
 10
-32.2682878709999841
 20
-14.2897721187800126
 30
0.0
 11
-32.0059177464000015
 21
-14.1988573937200044
 31
0.0
  0
LINE
  5
B5
100
AcDbEntity
100
AcDbLine
  8
0
 62
256
370
-1
  6
ByLayer
 10
-32.0059177464000015
 20
-14.1988573937200044
 30
0.0
 11
-28.2995300807999968
 21
-20.6185091429999936
 31
0.0
  0
LINE
  5
B6
100
AcDbEntity
100
AcDbLine
  8
0
 62
256
370
-1
  6
ByLayer
 10
-28.2995300807999968
 20
-20.6185091429999936
 30
0.0
 11
-28.5094496046000181
 21
-20.8002709735999893
 31
0.0
  0
LINE
  5
B7
100
AcDbEntity
100
AcDbLine
  8
0
 62
256
370
-1
  6
ByLayer
 10
-28.5094496046000181
 20
-20.8002709735999893
 30
0.0
 11
-29.0742256290000185
 21
-21.4123888249999865
 31
0.0
  0
LINE
  5
B8
100
AcDbEntity
100
AcDbLine
  8
0
 62
256
370
-1
  6
ByLayer
 10
-29.0742256290000185
 20
-21.4123888249999865
 30
0.0
 11
-29.8830380472000208
 21
-22.5404827917999775
 31
0.0
  0
LINE
  5
B9
100
AcDbEntity
100
AcDbLine
  8
0
 62
256
370
-1
  6
ByLayer
 10
-29.8830380472000208
 20
-22.5404827917999775
 30
0.0
 11
-30.810031213999995
 21
-24.2484427299999865
 31
0.0
  0
LINE
  5
BA
100
AcDbEntity
100
AcDbLine
  8
0
 62
256
370
-1
  6
ByLayer
 10
-30.810031213999995
 20
-24.2484427299999865
 30
0.0
 11
-31.7180996527999994
 21
-26.5761200703999911
 31
0.0
  0
LINE
  5
BB
100
AcDbEntity
100
AcDbLine
  8
0
 62
256
370
-1
  6
ByLayer
 10
-31.7180996527999994
 20
-26.5761200703999911
 30
0.0
 11
-31.7180996526000243
 21
-26.5761200701999769
 31
0.0
  0
LINE
  5
BC
100
AcDbEntity
100
AcDbLine
  8
0
 62
256
370
-1
  6
ByLayer
 10
-31.7180996526000243
 20
-26.5761200701999769
 30
0.0
 11
-26.5761200702000089
 21
-31.7180996525999888
 31
0.0
  0
LINE
  5
BD
100
AcDbEntity
100
AcDbLine
  8
0
 62
256
370
-1
  6
ByLayer
 10
-26.5761200702000089
 20
-31.7180996525999888
 30
0.0
 11
-24.2484427299999901
 21
-30.8100312140000092
 31
0.0
  0
LINE
  5
BE
100
AcDbEntity
100
AcDbLine
  8
0
 62
256
370
-1
  6
ByLayer
 10
-24.2484427299999901
 20
-30.8100312140000092
 30
0.0
 11
-22.5404827918000059
 21
-29.8830380471999817
 31
0.0
  0
LINE
  5
BF
100
AcDbEntity
100
AcDbLine
  8
0
 62
256
370
-1
  6
ByLayer
 10
-22.5404827918000059
 20
-29.8830380471999817
 30
0.0
 11
-21.4123888249999936
 21
-29.0742256290000114
 31
0.0
  0
LINE
  5
C0
100
AcDbEntity
100
AcDbLine
  8
0
 62
256
370
-1
  6
ByLayer
 10
-21.4123888249999936
 20
-29.0742256290000114
 30
0.0
 11
-20.8002709735999929
 21
-28.5094496046000074
 31
0.0
  0
LINE
  5
C1
100
AcDbEntity
100
AcDbLine
  8
0
 62
256
370
-1
  6
ByLayer
 10
-20.8002709735999929
 20
-28.5094496046000074
 30
0.0
 11
-20.6185091430000078
 21
-28.2995300808000039
 31
0.0
  0
LINE
  5
C2
100
AcDbEntity
100
AcDbLine
  8
0
 62
256
370
-1
  6
ByLayer
 10
-20.6185091430000078
 20
-28.2995300808000039
 30
0.0
 11
-14.1988573937200293
 21
-32.0059177463999944
 31
0.0
  0
LINE
  5
C3
100
AcDbEntity
100
AcDbLine
  8
0
 62
256
370
-1
  6
ByLayer
 10
-14.1988573937200293
 20
-32.0059177463999944
 30
0.0
 11
-14.2897721187800535
 21
-32.268287870999977
 31
0.0
  0
LINE
  5
C4
100
AcDbEntity
100
AcDbLine
  8
0
 62
256
370
-1
  6
ByLayer
 10
-14.2897721187800535
 20
-32.268287870999977
 30
0.0
 11
-14.4728235775600087
 21
-33.0807854926000005
 31
0.0
  0
LINE
  5
C5
100
AcDbEntity
100
AcDbLine
  8
0
 62
256
370
-1
  6
ByLayer
 10
-14.4728235775600087
 20
-33.0807854926000005
 30
0.0
 11
-14.6092286952800041
 21
-34.4621497348000005
 31
0.0
  0
LINE
  5
C6
100
AcDbEntity
100
AcDbLine
  8
0
 62
256
370
-1
  6
ByLayer
 10
-14.6092286952800041
 20
-34.4621497348000005
 30
0.0
 11
-14.5580483576599935
 21
-36.4047830133999994
 31
0.0
  0
LINE
  5
C7
100
AcDbEntity
100
AcDbLine
  8
0
 62
256
370
-1
  6
ByLayer
 10
-14.5580483576599935
 20
-36.4047830133999994
 30
0.0
 11
-14.1806200238600226
 21
-38.8746449413999997
 31
0.0
  0
LINE
  5
C8
100
AcDbEntity
100
AcDbLine
  8
0
 62
256
370
-1
  6
ByLayer
 10
-14.1806200238600226
 20
-38.8746449413999997
 30
0.0
 11
-14.1806200237200084
 21
-38.874644941199989
 31
0.0
  0
LINE
  5
C9
100
AcDbEntity
100
AcDbLine
  8
0
 62
256
370
-1
  6
ByLayer
 10
-14.1806200237200084
 20
-38.874644941199989
 30
0.0
 11
-7.1565452886000074
 21
-40.7567400940000013
 31
0.0
  0
LINE
  5
CA
100
AcDbEntity
100
AcDbLine
  8
0
 62
256
370
-1
  6
ByLayer
 10
-7.1565452886000074
 20
-40.7567400940000013
 30
0.0
 11
-5.5947517994799929
 21
-38.8064910877999978
 31
0.0
  0
LINE
  5
CB
100
AcDbEntity
100
AcDbLine
  8
0
 62
256
370
-1
  6
ByLayer
 10
-5.5947517994799929
 20
-38.8064910877999978
 30
0.0
 11
-4.5791116876000002
 21
-37.1497114869999976
 31
0.0
  0
LINE
  5
CC
100
AcDbEntity
100
AcDbLine
  8
0
 62
256
370
-1
  6
ByLayer
 10
-4.5791116876000002
 20
-37.1497114869999976
 30
0.0
 11
-4.0065598636600006
 21
-35.885212402599997
 31
0.0
  0
LINE
  5
CD
100
AcDbEntity
100
AcDbLine
  8
0
 62
256
370
-1
  6
ByLayer
 10
-4.0065598636600006
 20
-35.885212402599997
 30
0.0
 11
-3.7588382663400313
 21
-35.0900430923999949
 31
0.0
  0
LINE
  5
CE
100
AcDbEntity
100
AcDbLine
  8
0
 62
256
370
-1
  6
ByLayer
 10
-3.7588382663400313
 20
-35.0900430923999949
 30
0.0
 11
-3.7063876655000372
 21
-34.817366536599998
 31
0.0
  0
LINE
  5
CF
100
AcDbEntity
100
AcDbLine
  8
0
 62
256
370
-1
  6
ByLayer
 10
-3.7063876655000372
 20
-34.817366536599998
 30
0.0
 11
3.7063876654999617
 21
-34.817366536599998
 31
0.0
  0
LINE
  5
D0
100
AcDbEntity
100
AcDbLine
  8
0
 62
256
370
-1
  6
ByLayer
 10
3.7063876654999617
 20
-34.817366536599998
 30
0.0
 11
3.7588382663399562
 21
-35.090043092400002
 31
0.0
  0
LINE
  5
D1
100
AcDbEntity
100
AcDbLine
  8
0
 62
256
370
-1
  6
ByLayer
 10
3.7588382663399562
 20
-35.090043092400002
 30
0.0
 11
4.0065598636599873
 21
-35.885212402599997
 31
0.0
  0
LINE
  5
D2
100
AcDbEntity
100
AcDbLine
  8
0
 62
256
370
-1
  6
ByLayer
 10
4.0065598636599873
 20
-35.885212402599997
 30
0.0
 11
4.579111687599986
 21
-37.1497114869999976
 31
0.0
  0
LINE
  5
D3
100
AcDbEntity
100
AcDbLine
  8
0
 62
256
370
-1
  6
ByLayer
 10
4.579111687599986
 20
-37.1497114869999976
 30
0.0
 11
5.5947517994799787
 21
-38.8064910877999978
 31
0.0
  0
LINE
  5
D4
100
AcDbEntity
100
AcDbLine
  8
0
 62
256
370
-1
  6
ByLayer
 10
5.5947517994799787
 20
-38.8064910877999978
 30
0.0
 11
7.1565452886600047
 21
-40.7567400944000013
 31
0.0
  0
LINE
  5
D5
100
AcDbEntity
100
AcDbLine
  8
0
 62
256
370
-1
  6
ByLayer
 10
7.1565452886600047
 20
-40.7567400944000013
 30
0.0
 11
7.1565452885999932
 21
-40.7567400940000013
 31
0.0
  0
LINE
  5
D6
100
AcDbEntity
100
AcDbLine
  8
0
 62
256
370
-1
  6
ByLayer
 10
7.1565452885999932
 20
-40.7567400940000013
 30
0.0
 11
14.180620023719996
 21
-38.8746449412000032
 31
0.0
  0
LINE
  5
D7
100
AcDbEntity
100
AcDbLine
  8
0
 62
256
370
-1
  6
ByLayer
 10
14.180620023719996
 20
-38.8746449412000032
 30
0.0
 11
14.5580483576599811
 21
-36.4047830134000066
 31
0.0
  0
LINE
  5
D8
100
AcDbEntity
100
AcDbLine
  8
0
 62
256
370
-1
  6
ByLayer
 10
14.5580483576599811
 20
-36.4047830134000066
 30
0.0
 11
14.6092286952799952
 21
-34.4621497348000148
 31
0.0
  0
LINE
  5
D9
100
AcDbEntity
100
AcDbLine
  8
0
 62
256
370
-1
  6
ByLayer
 10
14.6092286952799952
 20
-34.4621497348000148
 30
0.0
 11
14.4728235775599963
 21
-33.0807854926000005
 31
0.0
  0
LINE
  5
DA
100
AcDbEntity
100
AcDbLine
  8
0
 62
256
370
-1
  6
ByLayer
 10
14.4728235775599963
 20
-33.0807854926000005
 30
0.0
 11
14.2897721187799558
 21
-32.2682878710000196
 31
0.0
  0
LINE
  5
DB
100
AcDbEntity
100
AcDbLine
  8
0
 62
256
370
-1
  6
ByLayer
 10
14.2897721187799558
 20
-32.2682878710000196
 30
0.0
 11
14.1988573937199565
 21
-32.0059177464000157
 31
0.0
  0
LINE
  5
DC
100
AcDbEntity
100
AcDbLine
  8
0
 62
256
370
-1
  6
ByLayer
 10
14.1988573937199565
 20
-32.0059177464000157
 30
0.0
 11
20.61850914299999
 21
-28.2995300808000003
 31
0.0
  0
LINE
  5
DD
100
AcDbEntity
100
AcDbLine
  8
0
 62
256
370
-1
  6
ByLayer
 10
20.61850914299999
 20
-28.2995300808000003
 30
0.0
 11
20.8002709735999893
 21
-28.5094496046000181
 31
0.0
  0
LINE
  5
DE
100
AcDbEntity
100
AcDbLine
  8
0
 62
256
370
-1
  6
ByLayer
 10
20.8002709735999893
 20
-28.5094496046000181
 30
0.0
 11
21.412388824999983
 21
-29.0742256290000221
 31
0.0
  0
LINE
  5
DF
100
AcDbEntity
100
AcDbLine
  8
0
 62
256
370
-1
  6
ByLayer
 10
21.412388824999983
 20
-29.0742256290000221
 30
0.0
 11
22.5404827917999988
 21
-29.8830380471999959
 31
0.0
  0
LINE
  5
E0
100
AcDbEntity
100
AcDbLine
  8
0
 62
256
370
-1
  6
ByLayer
 10
22.5404827917999988
 20
-29.8830380471999959
 30
0.0
 11
24.2484427299999474
 21
-30.8100312140000341
 31
0.0
  0
LINE
  5
E1
100
AcDbEntity
100
AcDbLine
  8
0
 62
256
370
-1
  6
ByLayer
 10
24.2484427299999474
 20
-30.8100312140000341
 30
0.0
 11
26.5761200704000018
 21
-31.7180996528000172
 31
0.0
  0
LINE
  5
E2
100
AcDbEntity
100
AcDbLine
  8
0
 62
256
370
-1
  6
ByLayer
 10
26.5761200704000018
 20
-31.7180996528000172
 30
0.0
 11
26.5761200702000018
 21
-31.718099652600003
 31
0.0
  0
LINE
  5
E3
100
AcDbEntity
100
AcDbLine
  8
0
 62
256
370
-1
  6
ByLayer
 10
26.5761200702000018
 20
-31.718099652600003
 30
0.0
 11
31.7180996525999852
 21
-26.5761200702000124
 31
0.0
  0
LINE
  5
E4
100
AcDbEntity
100
AcDbLine
  8
0
 62
256
370
-1
  6
ByLayer
 10
31.7180996525999852
 20
-26.5761200702000124
 30
0.0
 11
30.8100312139999915
 21
-24.2484427300000256
 31
0.0
  0
LINE
  5
E5
100
AcDbEntity
100
AcDbLine
  8
0
 62
256
370
-1
  6
ByLayer
 10
30.8100312139999915
 20
-24.2484427300000256
 30
0.0
 11
29.8830380471999888
 21
-22.5404827918000095
 31
0.0
  0
LINE
  5
E6
100
AcDbEntity
100
AcDbLine
  8
0
 62
256
370
-1
  6
ByLayer
 10
29.8830380471999888
 20
-22.5404827918000095
 30
0.0
 11
29.0742256290000114
 21
-21.4123888249999972
 31
0.0
  0
LINE
  5
E7
100
AcDbEntity
100
AcDbLine
  8
0
 62
256
370
-1
  6
ByLayer
 10
29.0742256290000114
 20
-21.4123888249999972
 30
0.0
 11
28.509449604599979
 21
-20.8002709736000178
 31
0.0
  0
LINE
  5
E8
100
AcDbEntity
100
AcDbLine
  8
0
 62
256
370
-1
  6
ByLayer
 10
28.509449604599979
 20
-20.8002709736000178
 30
0.0
 11
28.2995300807999968
 21
-20.6185091430000078
 31
0.0
  0
LINE
  5
E9
100
AcDbEntity
100
AcDbLine
  8
0
 62
256
370
-1
  6
ByLayer
 10
28.2995300807999968
 20
-20.6185091430000078
 30
0.0
 11
32.005917746399966
 21
-14.1988573937200542
 31
0.0
  0
LINE
  5
EA
100
AcDbEntity
100
AcDbLine
  8
0
 62
256
370
-1
  6
ByLayer
 10
32.005917746399966
 20
-14.1988573937200542
 30
0.0
 11
32.2682878709999841
 21
-14.2897721187799931
 31
0.0
  0
LINE
  5
EB
100
AcDbEntity
100
AcDbLine
  8
0
 62
256
370
-1
  6
ByLayer
 10
32.2682878709999841
 20
-14.2897721187799931
 30
0.0
 11
33.0807854925999933
 21
-14.4728235775600105
 31
0.0
  0
LINE
  5
EC
100
AcDbEntity
100
AcDbLine
  8
0
 62
256
370
-1
  6
ByLayer
 10
33.0807854925999933
 20
-14.4728235775600105
 30
0.0
 11
34.4621497347999934
 21
-14.6092286952800041
 31
0.0
  0
LINE
  5
ED
100
AcDbEntity
100
AcDbLine
  8
0
 62
256
370
-1
  6
ByLayer
 10
34.4621497347999934
 20
-14.6092286952800041
 30
0.0
 11
36.4047830133999781
 21
-14.5580483576600255
 31
0.0
  0
LINE
  5
EE
100
AcDbEntity
100
AcDbLine
  8
0
 62
256
370
-1
  6
ByLayer
 10
36.4047830133999781
 20
-14.5580483576600255
 30
0.0
 11
38.8746449413999926
 21
-14.1806200238600226
 31
0.0
  0
ENDBLK
  5
EF
100
AcDbEntity
  8
0
100
AcDbBlockEnd
  0
BLOCK
  5
F0
100
AcDbEntity
  8
0
100
AcDbBlockBegin
  2
rack
 70
0
 10
0.0
 20
0.0
 30
0.0
  3
rack
  1

  0
LINE
  5
F1
100
AcDbEntity
100
AcDbLine
  8
0
 62
256
370
-1
  6
ByLayer
 10
-9.8158250585799998
 20
-41.2163806363999967
 30
0.0
 11
-8.7116721190400028
 21
-41.2395093433999875
 31
0.0
  0
LINE
  5
F2
100
AcDbEntity
100
AcDbLine
  8
0
 62
256
370
-1
  6
ByLayer
 10
-8.7116721190400028
 20
-41.2395093433999875
 30
0.0
 11
-7.611549473220002
 21
-41.2971643281999832
 31
0.0
  0
LINE
  5
F3
100
AcDbEntity
100
AcDbLine
  8
0
 62
256
370
-1
  6
ByLayer
 10
-7.611549473220002
 20
-41.2971643281999832
 30
0.0
 11
-6.6260437054600025
 21
-41.3799195595999976
 31
0.0
  0
LINE
  5
F4
100
AcDbEntity
100
AcDbLine
  8
0
 62
256
370
-1
  6
ByLayer
 10
-6.6260437054600025
 20
-41.3799195595999976
 30
0.0
 11
-6.6096289886600026
 21
-41.3496727557999932
 31
0.0
  0
LINE
  5
F5
100
AcDbEntity
100
AcDbLine
  8
0
 62
256
370
-1
  6
ByLayer
 10
-6.6096289886600026
 20
-41.3496727557999932
 30
0.0
 11
-6.5263548584200031
 21
-41.3540369679999955
 31
0.0
  0
LINE
  5
F6
100
AcDbEntity
100
AcDbLine
  8
0
 62
256
370
-1
  6
ByLayer
 10
-6.5263548584200031
 20
-41.3540369679999955
 30
0.0
 11
-6.4921539650800035
 21
-41.2860016209999898
 31
0.0
  0
LINE
  5
F7
100
AcDbEntity
100
AcDbLine
  8
0
 62
256
370
-1
  6
ByLayer
 10
-6.4921539650800035
 20
-41.2860016209999898
 30
0.0
 11
-6.4281203212400015
 21
-41.2873429345999909
 31
0.0
  0
LINE
  5
F8
100
AcDbEntity
100
AcDbLine
  8
0
 62
256
370
-1
  6
ByLayer
 10
-6.4281203212400015
 20
-41.2873429345999909
 30
0.0
 11
-6.3784979210600028
 21
-41.1803837149999836
 31
0.0
  0
LINE
  5
F9
100
AcDbEntity
100
AcDbLine
  8
0
 62
256
370
-1
  6
ByLayer
 10
-6.3784979210600028
 20
-41.1803837149999836
 30
0.0
 11
-6.3326212946400027
 21
-41.1799032783999905
 31
0.0
  0
LINE
  5
FA
100
AcDbEntity
100
AcDbLine
  8
0
 62
256
370
-1
  6
ByLayer
 10
-6.3326212946400027
 20
-41.1799032783999905
 30
0.0
 11
-6.2700116246000022
 21
-41.0330342649999906
 31
0.0
  0
LINE
  5
FB
100
AcDbEntity
100
AcDbLine
  8
0
 62
256
370
-1
  6
ByLayer
 10
-6.2700116246000022
 20
-41.0330342649999906
 30
0.0
 11
-6.2411362797600027
 21
-41.0318240293999921
 31
0.0
  0
LINE
  5
FC
100
AcDbEntity
100
AcDbLine
  8
0
 62
256
370
-1
  6
ByLayer
 10
-6.2411362797600027
 20
-41.0318240293999921
 30
0.0
 11
-6.1680336650399994
 21
-40.8442128760000003
 31
0.0
  0
LINE
  5
FD
100
AcDbEntity
100
AcDbLine
  8
0
 62
256
370
-1
  6
ByLayer
 10
-6.1680336650399994
 20
-40.8442128760000003
 30
0.0
 11
-6.1549398163800042
 21
-40.8432513239999935
 31
0.0
  0
LINE
  5
FE
100
AcDbEntity
100
AcDbLine
  8
0
 62
256
370
-1
  6
ByLayer
 10
-6.1549398163800042
 20
-40.8432513239999935
 30
0.0
 11
-6.0290666823400016
 21
-40.4875668655999945
 31
0.0
  0
LINE
  5
FF
100
AcDbEntity
100
AcDbLine
  8
0
 62
256
370
-1
  6
ByLayer
 10
-6.0290666823400016
 20
-40.4875668655999945
 30
0.0
 11
-5.939599105280001
 21
-40.2579565377999913
 31
0.0
  0
LINE
  5
100
100
AcDbEntity
100
AcDbLine
  8
0
 62
256
370
-1
  6
ByLayer
 10
-5.939599105280001
 20
-40.2579565377999913
 30
0.0
 11
-5.8155866851200013
 21
-39.967049689199996
 31
0.0
  0
LINE
  5
101
100
AcDbEntity
100
AcDbLine
  8
0
 62
256
370
-1
  6
ByLayer
 10
-5.8155866851200013
 20
-39.967049689199996
 30
0.0
 11
-5.6535082970400037
 21
-39.6176958113999831
 31
0.0
  0
LINE
  5
102
100
AcDbEntity
100
AcDbLine
  8
0
 62
256
370
-1
  6
ByLayer
 10
-5.6535082970400037
 20
-39.6176958113999831
 30
0.0
 11
-5.4500461300000023
 21
-39.212951438199994
 31
0.0
  0
LINE
  5
103
100
AcDbEntity
100
AcDbLine
  8
0
 62
256
370
-1
  6
ByLayer
 10
-5.4500461300000023
 20
-39.212951438199994
 30
0.0
 11
-5.434292751720001
 21
-39.1839232587999931
 31
0.0
  0
LINE
  5
104
100
AcDbEntity
100
AcDbLine
  8
0
 62
256
370
-1
  6
ByLayer
 10
-5.434292751720001
 20
-39.1839232587999931
 30
0.0
 11
-5.4302713256999997
 21
-39.1736137033999938
 31
0.0
  0
LINE
  5
105
100
AcDbEntity
100
AcDbLine
  8
0
 62
256
370
-1
  6
ByLayer
 10
-5.4302713256999997
 20
-39.1736137033999938
 30
0.0
 11
-5.4041698726000025
 21
-39.1216904567999961
 31
0.0
  0
LINE
  5
106
100
AcDbEntity
100
AcDbLine
  8
0
 62
256
370
-1
  6
ByLayer
 10
-5.4041698726000025
 20
-39.1216904567999961
 30
0.0
 11
-5.3462463421000024
 21
-38.958202497399995
 31
0.0
  0
LINE
  5
107
100
AcDbEntity
100
AcDbLine
  8
0
 62
256
370
-1
  6
ByLayer
 10
-5.3462463421000024
 20
-38.958202497399995
 30
0.0
 11
-5.2064087861200026
 21
-38.5997070203999897
 31
0.0
  0
LINE
  5
108
100
AcDbEntity
100
AcDbLine
  8
0
 62
256
370
-1
  6
ByLayer
 10
-5.2064087861200026
 20
-38.5997070203999897
 30
0.0
 11
-5.0279836074599995
 21
-38.1815802336000019
 31
0.0
  0
LINE
  5
109
100
AcDbEntity
100
AcDbLine
  8
0
 62
256
370
-1
  6
ByLayer
 10
-5.0279836074599995
 20
-38.1815802336000019
 30
0.0
 11
-4.8075052412600012
 21
-37.7067989643999937
 31
0.0
  0
LINE
  5
10A
100
AcDbEntity
100
AcDbLine
  8
0
 62
256
370
-1
  6
ByLayer
 10
-4.8075052412600012
 20
-37.7067989643999937
 30
0.0
 11
-4.6544443607599995
 21
-37.4025924103999898
 31
0.0
  0
LINE
  5
10B
100
AcDbEntity
100
AcDbLine
  8
0
 62
256
370
-1
  6
ByLayer
 10
-4.6544443607599995
 20
-37.4025924103999898
 30
0.0
 11
-4.6374876408600016
 21
-37.3548683613999941
 31
0.0
  0
LINE
  5
10C
100
AcDbEntity
100
AcDbLine
  8
0
 62
256
370
-1
  6
ByLayer
 10
-4.6374876408600016
 20
-37.3548683613999941
 30
0.0
 11
-4.6285704993600021
 21
-37.338451287399991
 31
0.0
  0
LINE
  5
10D
100
AcDbEntity
100
AcDbLine
  8
0
 62
256
370
-1
  6
ByLayer
 10
-4.6285704993600021
 20
-37.338451287399991
 30
0.0
 11
-4.471487401920001
 21
-36.9368079333999901
 31
0.0
  0
LINE
  5
10E
100
AcDbEntity
100
AcDbLine
  8
0
 62
256
370
-1
  6
ByLayer
 10
-4.471487401920001
 20
-36.9368079333999901
 30
0.0
 11
-4.2380344915400023
 21
-36.3910831409999957
 31
0.0
  0
LINE
  5
10F
100
AcDbEntity
100
AcDbLine
  8
0
 62
256
370
-1
  6
ByLayer
 10
-4.2380344915400023
 20
-36.3910831409999957
 30
0.0
 11
-3.9821223786799997
 21
-35.8412889635999932
 31
0.0
  0
LINE
  5
110
100
AcDbEntity
100
AcDbLine
  8
0
 62
256
370
-1
  6
ByLayer
 10
-3.9821223786799997
 20
-35.8412889635999932
 30
0.0
 11
-3.9786121868799995
 21
-35.8304234975999947
 31
0.0
  0
LINE
  5
111
100
AcDbEntity
100
AcDbLine
  8
0
 62
256
370
-1
  6
ByLayer
 10
-3.9786121868799995
 20
-35.8304234975999947
 30
0.0
 11
-3.9057621585000035
 21
-35.6859576607999998
 31
0.0
  0
LINE
  5
112
100
AcDbEntity
100
AcDbLine
  8
0
 62
256
370
-1
  6
ByLayer
 10
-3.9057621585000035
 20
-35.6859576607999998
 30
0.0
 11
-3.8635907633000031
 21
-35.5682004643999932
 31
0.0
  0
LINE
  5
113
100
AcDbEntity
100
AcDbLine
  8
0
 62
256
370
-1
  6
ByLayer
 10
-3.8635907633000031
 20
-35.5682004643999932
 30
0.0
 11
-3.8239684157800014
 21
-35.4954086262000033
 31
0.0
  0
LINE
  5
114
100
AcDbEntity
100
AcDbLine
  8
0
 62
256
370
-1
  6
ByLayer
 10
-3.8239684157800014
 20
-35.4954086262000033
 30
0.0
 11
-3.7292732748000006
 21
-35.2550545885999895
 31
0.0
  0
LINE
  5
115
100
AcDbEntity
100
AcDbLine
  8
0
 62
256
370
-1
  6
ByLayer
 10
-3.7292732748000006
 20
-35.2550545885999895
 30
0.0
 11
-3.6082937540400053
 21
-34.9741910881999871
 31
0.0
  0
LINE
  5
116
100
AcDbEntity
100
AcDbLine
  8
0
 62
256
370
-1
  6
ByLayer
 10
-3.6082937540400053
 20
-34.9741910881999871
 30
0.0
 11
-2.8239974275400002
 21
-34.908331885599992
 31
0.0
  0
LINE
  5
117
100
AcDbEntity
100
AcDbLine
  8
0
 62
256
370
-1
  6
ByLayer
 10
-2.8239974275400002
 20
-34.908331885599992
 30
0.0
 11
-1.5229817889800046
 21
-34.8401485451999946
 31
0.0
  0
LINE
  5
118
100
AcDbEntity
100
AcDbLine
  8
0
 62
256
370
-1
  6
ByLayer
 10
-1.5229817889800046
 20
-34.8401485451999946
 30
0.0
 11
-0.2177042815999997
 21
-34.8128068789999929
 31
0.0
  0
LINE
  5
119
100
AcDbEntity
100
AcDbLine
  8
0
 62
256
370
-1
  6
ByLayer
 10
-0.2177042815999997
 20
-34.8128068789999929
 30
0.0
 11
1.0881827169999951
 21
-34.826482595599991
 31
0.0
  0
LINE
  5
11A
100
AcDbEntity
100
AcDbLine
  8
0
 62
256
370
-1
  6
ByLayer
 10
1.0881827169999951
 20
-34.826482595599991
 30
0.0
 11
2.3910238915999997
 21
-34.8810878195999905
 31
0.0
  0
LINE
  5
11B
100
AcDbEntity
100
AcDbLine
  8
0
 62
256
370
-1
  6
ByLayer
 10
2.3910238915999997
 20
-34.8810878195999905
 30
0.0
 11
3.6086465712000013
 21
-34.9705044397999956
 31
0.0
  0
LINE
  5
11C
100
AcDbEntity
100
AcDbLine
  8
0
 62
256
370
-1
  6
ByLayer
 10
3.6086465712000013
 20
-34.9705044397999956
 30
0.0
 11
3.6378228423999985
 21
-35.03633344859999
 31
0.0
  0
LINE
  5
11D
100
AcDbEntity
100
AcDbLine
  8
0
 62
256
370
-1
  6
ByLayer
 10
3.6378228423999985
 20
-35.03633344859999
 30
0.0
 11
3.7953054755999993
 21
-35.4240976231999909
 31
0.0
  0
LINE
  5
11E
100
AcDbEntity
100
AcDbLine
  8
0
 62
256
370
-1
  6
ByLayer
 10
3.7953054755999993
 20
-35.4240976231999909
 30
0.0
 11
3.8220840979999977
 21
-35.4720899581999944
 31
0.0
  0
LINE
  5
11F
100
AcDbEntity
100
AcDbLine
  8
0
 62
256
370
-1
  6
ByLayer
 10
3.8220840979999977
 20
-35.4720899581999944
 30
0.0
 11
3.8791559185999986
 21
-35.6263458243999906
 31
0.0
  0
LINE
  5
120
100
AcDbEntity
100
AcDbLine
  8
0
 62
256
370
-1
  6
ByLayer
 10
3.8791559185999986
 20
-35.6263458243999906
 30
0.0
 11
3.9417969434
 21
-35.7473967151999972
 31
0.0
  0
LINE
  5
121
100
AcDbEntity
100
AcDbLine
  8
0
 62
256
370
-1
  6
ByLayer
 10
3.9417969434
 20
-35.7473967151999972
 30
0.0
 11
3.9572043446000009
 21
-35.7934351233999948
 31
0.0
  0
LINE
  5
122
100
AcDbEntity
100
AcDbLine
  8
0
 62
256
370
-1
  6
ByLayer
 10
3.9572043446000009
 20
-35.7934351233999948
 30
0.0
 11
4.1501394769999997
 21
-36.1968349957999962
 31
0.0
  0
LINE
  5
123
100
AcDbEntity
100
AcDbLine
  8
0
 62
256
370
-1
  6
ByLayer
 10
4.1501394769999997
 20
-36.1968349957999962
 30
0.0
 11
4.3985835084000016
 21
-36.76118602559999
 31
0.0
  0
LINE
  5
124
100
AcDbEntity
100
AcDbLine
  8
0
 62
256
370
-1
  6
ByLayer
 10
4.3985835084000016
 20
-36.76118602559999
 30
0.0
 11
4.6031975731999992
 21
-37.2686301521999894
 31
0.0
  0
LINE
  5
125
100
AcDbEntity
100
AcDbLine
  8
0
 62
256
370
-1
  6
ByLayer
 10
4.6031975731999992
 20
-37.2686301521999894
 30
0.0
 11
4.6460364857999998
 21
-37.3853109751999995
 31
0.0
  0
LINE
  5
126
100
AcDbEntity
100
AcDbLine
  8
0
 62
256
370
-1
  6
ByLayer
 10
4.6460364857999998
 20
-37.3853109751999995
 30
0.0
 11
4.7240979391999964
 21
-37.5364929803999914
 31
0.0
  0
LINE
  5
127
100
AcDbEntity
100
AcDbLine
  8
0
 62
256
370
-1
  6
ByLayer
 10
4.7240979391999964
 20
-37.5364929803999914
 30
0.0
 11
4.9593286823999989
 21
-38.0294617095999996
 31
0.0
  0
LINE
  5
128
100
AcDbEntity
100
AcDbLine
  8
0
 62
256
370
-1
  6
ByLayer
 10
4.9593286823999989
 20
-38.0294617095999996
 30
0.0
 11
5.151396505400001
 21
-38.4668144899999973
 31
0.0
  0
LINE
  5
129
100
AcDbEntity
100
AcDbLine
  8
0
 62
256
370
-1
  6
ByLayer
 10
5.151396505400001
 20
-38.4668144899999973
 30
0.0
 11
5.3036992704000028
 21
-38.8455046187999997
 31
0.0
  0
LINE
  5
12A
100
AcDbEntity
100
AcDbLine
  8
0
 62
256
370
-1
  6
ByLayer
 10
5.3036992704000028
 20
-38.8455046187999997
 30
0.0
 11
5.4139861003999954
 21
-39.146728362199994
 31
0.0
  0
LINE
  5
12B
100
AcDbEntity
100
AcDbLine
  8
0
 62
256
370
-1
  6
ByLayer
 10
5.4139861003999954
 20
-39.146728362199994
 30
0.0
 11
5.5904435165999971
 21
-39.4887788749999942
 31
0.0
  0
LINE
  5
12C
100
AcDbEntity
100
AcDbLine
  8
0
 62
256
370
-1
  6
ByLayer
 10
5.5904435165999971
 20
-39.4887788749999942
 30
0.0
 11
5.7659582556000046
 21
-39.8569457023999973
 31
0.0
  0
LINE
  5
12D
100
AcDbEntity
100
AcDbLine
  8
0
 62
256
370
-1
  6
ByLayer
 10
5.7659582556000046
 20
-39.8569457023999973
 30
0.0
 11
5.9022778725999956
 21
-40.1676620023999931
 31
0.0
  0
LINE
  5
12E
100
AcDbEntity
100
AcDbLine
  8
0
 62
256
370
-1
  6
ByLayer
 10
5.9022778725999956
 20
-40.1676620023999931
 30
0.0
 11
6.0028571443999965
 21
-40.4180077925999939
 31
0.0
  0
LINE
  5
12F
100
AcDbEntity
100
AcDbLine
  8
0
 62
256
370
-1
  6
ByLayer
 10
6.0028571443999965
 20
-40.4180077925999939
 30
0.0
 11
6.0713454664000004
 21
-40.6052788405999934
 31
0.0
  0
LINE
  5
130
100
AcDbEntity
100
AcDbLine
  8
0
 62
256
370
-1
  6
ByLayer
 10
6.0713454664000004
 20
-40.6052788405999934
 30
0.0
 11
6.1010406691999961
 21
-40.6951300837999952
 31
0.0
  0
LINE
  5
131
100
AcDbEntity
100
AcDbLine
  8
0
 62
256
370
-1
  6
ByLayer
 10
6.1010406691999961
 20
-40.6951300837999952
 30
0.0
 11
6.1010406691999961
 21
-40.6951300833999952
 31
0.0
  0
LINE
  5
132
100
AcDbEntity
100
AcDbLine
  8
0
 62
256
370
-1
  6
ByLayer
 10
6.1010406691999961
 20
-40.6951300833999952
 30
0.0
 11
6.1043189821999917
 21
-40.6954399751999958
 31
0.0
  0
LINE
  5
133
100
AcDbEntity
100
AcDbLine
  8
0
 62
256
370
-1
  6
ByLayer
 10
6.1043189821999917
 20
-40.6954399751999958
 30
0.0
 11
6.1830058795999996
 21
-40.9105974985999978
 31
0.0
  0
LINE
  5
134
100
AcDbEntity
100
AcDbLine
  8
0
 62
256
370
-1
  6
ByLayer
 10
6.1830058795999996
 20
-40.9105974985999978
 30
0.0
 11
6.1830058797999961
 21
-40.9105974981999907
 31
0.0
  0
LINE
  5
135
100
AcDbEntity
100
AcDbLine
  8
0
 62
256
370
-1
  6
ByLayer
 10
6.1830058797999961
 20
-40.9105974981999907
 30
0.0
 11
6.2012210874000004
 21
-40.9117435020000002
 31
0.0
  0
LINE
  5
136
100
AcDbEntity
100
AcDbLine
  8
0
 62
256
370
-1
  6
ByLayer
 10
6.2012210874000004
 20
-40.9117435020000002
 30
0.0
 11
6.2711065127999994
 21
-41.0856910927999976
 31
0.0
  0
LINE
  5
137
100
AcDbEntity
100
AcDbLine
  8
0
 62
256
370
-1
  6
ByLayer
 10
6.2711065127999994
 20
-41.0856910927999976
 30
0.0
 11
6.2711065127999959
 21
-41.0856910923999905
 31
0.0
  0
LINE
  5
138
100
AcDbEntity
100
AcDbLine
  8
0
 62
256
370
-1
  6
ByLayer
 10
6.2711065127999959
 20
-41.0856910923999905
 30
0.0
 11
6.3055164106000028
 21
-41.086772467000003
 31
0.0
  0
LINE
  5
139
100
AcDbEntity
100
AcDbLine
  8
0
 62
256
370
-1
  6
ByLayer
 10
6.3055164106000028
 20
-41.086772467000003
 30
0.0
 11
6.3640713686000012
 21
-41.2202380704000007
 31
0.0
  0
LINE
  5
13A
100
AcDbEntity
100
AcDbLine
  8
0
 62
256
370
-1
  6
ByLayer
 10
6.3640713686000012
 20
-41.2202380704000007
 30
0.0
 11
6.3640713685999941
 21
-41.2202380699999935
 31
0.0
  0
LINE
  5
13B
100
AcDbEntity
100
AcDbLine
  8
0
 62
256
370
-1
  6
ByLayer
 10
6.3640713685999941
 20
-41.2202380699999935
 30
0.0
 11
6.4158753212000015
 21
-41.2202380699999935
 31
0.0
  0
LINE
  5
13C
100
AcDbEntity
100
AcDbLine
  8
0
 62
256
370
-1
  6
ByLayer
 10
6.4158753212000015
 20
-41.2202380699999935
 30
0.0
 11
6.4606244469999936
 21
-41.3141056493999912
 31
0.0
  0
LINE
  5
13D
100
AcDbEntity
100
AcDbLine
  8
0
 62
256
370
-1
  6
ByLayer
 10
6.4606244469999936
 20
-41.3141056493999912
 30
0.0
 11
6.4606244471999936
 21
-41.3141056489999912
 31
0.0
  0
LINE
  5
13E
100
AcDbEntity
100
AcDbLine
  8
0
 62
256
370
-1
  6
ByLayer
 10
6.4606244471999936
 20
-41.3141056489999912
 30
0.0
 11
6.5309550009999917
 21
-41.3118954223999921
 31
0.0
  0
LINE
  5
13F
100
AcDbEntity
100
AcDbLine
  8
0
 62
256
370
-1
  6
ByLayer
 10
6.5309550009999917
 20
-41.3118954223999921
 30
0.0
 11
6.5594862067999991
 21
-41.3672011939999962
 31
0.0
  0
LINE
  5
140
100
AcDbEntity
100
AcDbLine
  8
0
 62
256
370
-1
  6
ByLayer
 10
6.5594862067999991
 20
-41.3672011939999962
 30
0.0
 11
6.5594862067999955
 21
-41.3672011937999926
 31
0.0
  0
LINE
  5
141
100
AcDbEntity
100
AcDbLine
  8
0
 62
256
370
-1
  6
ByLayer
 10
6.5594862067999955
 20
-41.3672011937999926
 30
0.0
 11
6.649400964199998
 21
-41.3615442365999968
 31
0.0
  0
LINE
  5
142
100
AcDbEntity
100
AcDbLine
  8
0
 62
256
370
-1
  6
ByLayer
 10
6.649400964199998
 20
-41.3615442365999968
 30
0.0
 11
6.6593748279999936
 21
-41.3794723055999896
 31
0.0
  0
LINE
  5
143
100
AcDbEntity
100
AcDbLine
  8
0
 62
256
370
-1
  6
ByLayer
 10
6.6593748279999936
 20
-41.3794723055999896
 30
0.0
 11
6.6593748280000007
 21
-41.3794723051999966
 31
0.0
  0
LINE
  5
144
100
AcDbEntity
100
AcDbLine
  8
0
 62
256
370
-1
  6
ByLayer
 10
6.6593748280000007
 20
-41.3794723051999966
 30
0.0
 11
7.2463319213999924
 21
-41.32398852419999
 31
0.0
  0
LINE
  5
145
100
AcDbEntity
100
AcDbLine
  8
0
 62
256
370
-1
  6
ByLayer
 10
7.2463319213999924
 20
-41.32398852419999
 30
0.0
 11
8.3443466157999993
 21
-41.2549072949999953
 31
0.0
  0
LINE
  5
146
100
AcDbEntity
100
AcDbLine
  8
0
 62
256
370
-1
  6
ByLayer
 10
8.3443466157999993
 20
-41.2549072949999953
 30
0.0
 11
9.4475392443999944
 21
-41.2202380699999935
 31
0.0
  0
LINE
  5
147
100
AcDbEntity
100
AcDbLine
  8
0
 62
256
370
-1
  6
ByLayer
 10
9.4475392443999944
 20
-41.2202380699999935
 30
0.0
 11
10.0
 21
-41.2202380699999935
 31
0.0
  0
LINE
  5
148
100
AcDbEntity
100
AcDbLine
  8
0
 62
256
370
-1
  6
ByLayer
 10
-10.0000000000000036
 20
-41.2183093823616957
 30
0.0
 11
-9.8158250585799998
 21
-41.2163806363999967
 31
0.0
  0
ENDBLK
  5
149
100
AcDbEntity
  8
0
100
AcDbBlockEnd
  0
BLOCK
  5
14A
100
AcDbEntity
  8
0
100
AcDbBlockBegin
  2
rb35-hole
 70
0
 10
0.0
 20
0.0
 30
0.0
  3
rb35-hole
  1

  0
ARC
  5
14B
100
AcDbEntity
  8
0
 62
256
370
-1
  6
ByLayer
100
AcDbCircle
 10
0.0
 20
0.0
 30
0.0
 40
3.0
100
AcDbArc
 50
138.1896851042211836
 51
41.8103148957788235
  0
LINE
  5
14C
100
AcDbEntity
100
AcDbLine
  8
0
 62
256
370
-1
  6
ByLayer
 10
-2.2360679774997725
 20
2.0
 30
0.0
 11
2.236067977499772
 21
2.0
 31
0.0
  0
ENDBLK
  5
14D
100
AcDbEntity
  8
0
100
AcDbBlockEnd
  0
BLOCK
  5
14E
100
AcDbEntity
  8
0
100
AcDbBlockBegin
  2
gear_6
 70
0
 10
0.0
 20
0.0
 30
0.0
  3
gear_6
  1

  0
LINE
  5
14F
100
AcDbEntity
100
AcDbLine
  8
0
 62
256
370
-1
  6
ByLayer
 10
25.0229141551999987
 20
-13.9483101014599953
 30
0.0
 11
27.5568169429999941
 21
-7.830927625320026
 31
0.0
  0
LINE
  5
150
100
AcDbEntity
100
AcDbLine
  8
0
 62
256
370
-1
  6
ByLayer
 10
27.5568169429999941
 20
-7.830927625320026
 30
0.0
 11
25.8872184325999974
 21
-5.816485691440004
 31
0.0
  0
LINE
  5
151
100
AcDbEntity
100
AcDbLine
  8
0
 62
256
370
-1
  6
ByLayer
 10
25.8872184325999974
 20
-5.816485691440004
 30
0.0
 11
24.3545760219999998
 21
-4.4777706734199967
 31
0.0
  0
LINE
  5
152
100
AcDbEntity
100
AcDbLine
  8
0
 62
256
370
-1
  6
ByLayer
 10
24.3545760219999998
 20
-4.4777706734199967
 30
0.0
 11
23.1213964595999997
 21
-3.7082707077600077
 31
0.0
  0
LINE
  5
153
100
AcDbEntity
100
AcDbLine
  8
0
 62
256
370
-1
  6
ByLayer
 10
23.1213964595999997
 20
-3.7082707077600077
 30
0.0
 11
22.3180281958000002
 21
-3.3687577545800096
 31
0.0
  0
LINE
  5
154
100
AcDbEntity
100
AcDbLine
  8
0
 62
256
370
-1
  6
ByLayer
 10
22.3180281958000002
 20
-3.3687577545800096
 30
0.0
 11
22.0367039990000002
 21
-3.2950685433800047
 31
0.0
  0
LINE
  5
155
100
AcDbEntity
100
AcDbLine
  8
0
 62
256
370
-1
  6
ByLayer
 10
22.0367039990000002
 20
-3.2950685433800047
 30
0.0
 11
22.0367039990000002
 21
3.2950685433800002
 31
0.0
  0
LINE
  5
156
100
AcDbEntity
100
AcDbLine
  8
0
 62
256
370
-1
  6
ByLayer
 10
22.0367039990000002
 20
3.2950685433800002
 30
0.0
 11
22.3180281958000002
 21
3.3687577545800038
 31
0.0
  0
LINE
  5
157
100
AcDbEntity
100
AcDbLine
  8
0
 62
256
370
-1
  6
ByLayer
 10
22.3180281958000002
 20
3.3687577545800038
 30
0.0
 11
23.1213964595999997
 21
3.7082707077599939
 31
0.0
  0
LINE
  5
158
100
AcDbEntity
100
AcDbLine
  8
0
 62
256
370
-1
  6
ByLayer
 10
23.1213964595999997
 20
3.7082707077599939
 30
0.0
 11
24.3545760219999998
 21
4.4777706734199887
 31
0.0
  0
LINE
  5
159
100
AcDbEntity
100
AcDbLine
  8
0
 62
256
370
-1
  6
ByLayer
 10
24.3545760219999998
 20
4.4777706734199887
 30
0.0
 11
25.887218432600001
 21
5.8164856914399925
 31
0.0
  0
LINE
  5
15A
100
AcDbEntity
100
AcDbLine
  8
0
 62
256
370
-1
  6
ByLayer
 10
25.887218432600001
 20
5.8164856914399925
 30
0.0
 11
27.5568169438000012
 21
7.8309276255400047
 31
0.0
  0
LINE
  5
15B
100
AcDbEntity
100
AcDbLine
  8
0
 62
256
370
-1
  6
ByLayer
 10
27.5568169438000012
 20
7.8309276255400047
 30
0.0
 11
27.5568169430000012
 21
7.8309276253200073
 31
0.0
  0
LINE
  5
15C
100
AcDbEntity
100
AcDbLine
  8
0
 62
256
370
-1
  6
ByLayer
 10
27.5568169430000012
 20
7.8309276253200073
 30
0.0
 11
25.0229141551999987
 21
13.9483101014599971
 31
0.0
  0
LINE
  5
15D
100
AcDbEntity
100
AcDbLine
  8
0
 62
256
370
-1
  6
ByLayer
 10
25.0229141551999987
 20
13.9483101014599971
 30
0.0
 11
22.4179041748000003
 21
14.1921512246600017
 31
0.0
  0
LINE
  5
15E
100
AcDbEntity
100
AcDbLine
  8
0
 62
256
370
-1
  6
ByLayer
 10
22.4179041748000003
 20
14.1921512246600017
 30
0.0
 11
20.3875478659999985
 21
14.0550238503800031
 31
0.0
  0
LINE
  5
15F
100
AcDbEntity
100
AcDbLine
  8
0
 62
256
370
-1
  6
ByLayer
 10
20.3875478659999985
 20
14.0550238503800031
 30
0.0
 11
18.9714395909400011
 21
13.727152863079997
 31
0.0
  0
LINE
  5
160
100
AcDbEntity
100
AcDbLine
  8
0
 62
256
370
-1
  6
ByLayer
 10
18.9714395909400011
 20
13.727152863079997
 30
0.0
 11
18.163300532360001
 21
13.3991576274999957
 31
0.0
  0
LINE
  5
161
100
AcDbEntity
100
AcDbLine
  8
0
 62
256
370
-1
  6
ByLayer
 10
18.163300532360001
 20
13.3991576274999957
 30
0.0
 11
17.9122681442200005
 21
13.252337521240003
 31
0.0
  0
LINE
  5
162
100
AcDbEntity
100
AcDbLine
  8
0
 62
256
370
-1
  6
ByLayer
 10
17.9122681442200005
 20
13.252337521240003
 30
0.0
 11
13.2523375212400012
 21
17.9122681442200005
 31
0.0
  0
LINE
  5
163
100
AcDbEntity
100
AcDbLine
  8
0
 62
256
370
-1
  6
ByLayer
 10
13.2523375212400012
 20
17.9122681442200005
 30
0.0
 11
13.3991576274999993
 21
18.1633005323599974
 31
0.0
  0
LINE
  5
164
100
AcDbEntity
100
AcDbLine
  8
0
 62
256
370
-1
  6
ByLayer
 10
13.3991576274999993
 20
18.1633005323599974
 30
0.0
 11
13.7271528630800006
 21
18.9714395909400011
 31
0.0
  0
LINE
  5
165
100
AcDbEntity
100
AcDbLine
  8
0
 62
256
370
-1
  6
ByLayer
 10
13.7271528630800006
 20
18.9714395909400011
 30
0.0
 11
14.055023850379996
 21
20.387547866000002
 31
0.0
  0
LINE
  5
166
100
AcDbEntity
100
AcDbLine
  8
0
 62
256
370
-1
  6
ByLayer
 10
14.055023850379996
 20
20.387547866000002
 30
0.0
 11
14.1921512246599981
 21
22.4179041748000039
 31
0.0
  0
LINE
  5
167
100
AcDbEntity
100
AcDbLine
  8
0
 62
256
370
-1
  6
ByLayer
 10
14.1921512246599981
 20
22.4179041748000039
 30
0.0
 11
13.9483101018400006
 21
25.0229141558000023
 31
0.0
  0
LINE
  5
168
100
AcDbEntity
100
AcDbLine
  8
0
 62
256
370
-1
  6
ByLayer
 10
13.9483101018400006
 20
25.0229141558000023
 30
0.0
 11
13.9483101014600024
 21
25.0229141551999952
 31
0.0
  0
LINE
  5
169
100
AcDbEntity
100
AcDbLine
  8
0
 62
256
370
-1
  6
ByLayer
 10
13.9483101014600024
 20
25.0229141551999952
 30
0.0
 11
7.8309276253200029
 21
27.5568169430000012
 31
0.0
  0
LINE
  5
16A
100
AcDbEntity
100
AcDbLine
  8
0
 62
256
370
-1
  6
ByLayer
 10
7.8309276253200029
 20
27.5568169430000012
 30
0.0
 11
5.8164856914400005
 21
25.887218432600001
 31
0.0
  0
LINE
  5
16B
100
AcDbEntity
100
AcDbLine
  8
0
 62
256
370
-1
  6
ByLayer
 10
5.8164856914400005
 20
25.887218432600001
 30
0.0
 11
4.477770673420002
 21
24.3545760219999963
 31
0.0
  0
LINE
  5
16C
100
AcDbEntity
100
AcDbLine
  8
0
 62
256
370
-1
  6
ByLayer
 10
4.477770673420002
 20
24.3545760219999963
 30
0.0
 11
3.7082707077599979
 21
23.1213964595999997
 31
0.0
  0
LINE
  5
16D
100
AcDbEntity
100
AcDbLine
  8
0
 62
256
370
-1
  6
ByLayer
 10
3.7082707077599979
 20
23.1213964595999997
 30
0.0
 11
3.3687577545799998
 21
22.3180281958000002
 31
0.0
  0
LINE
  5
16E
100
AcDbEntity
100
AcDbLine
  8
0
 62
256
370
-1
  6
ByLayer
 10
3.3687577545799998
 20
22.3180281958000002
 30
0.0
 11
3.2950685433800002
 21
22.0367039990000002
 31
0.0
  0
LINE
  5
16F
100
AcDbEntity
100
AcDbLine
  8
0
 62
256
370
-1
  6
ByLayer
 10
3.2950685433800002
 20
22.0367039990000002
 30
0.0
 11
-3.2950685433800024
 21
22.0367039990000002
 31
0.0
  0
LINE
  5
170
100
AcDbEntity
100
AcDbLine
  8
0
 62
256
370
-1
  6
ByLayer
 10
-3.2950685433800024
 20
22.0367039990000002
 30
0.0
 11
-3.368757754580002
 21
22.3180281958000002
 31
0.0
  0
LINE
  5
171
100
AcDbEntity
100
AcDbLine
  8
0
 62
256
370
-1
  6
ByLayer
 10
-3.368757754580002
 20
22.3180281958000002
 30
0.0
 11
-3.7082707077600001
 21
23.1213964595999997
 31
0.0
  0
LINE
  5
172
100
AcDbEntity
100
AcDbLine
  8
0
 62
256
370
-1
  6
ByLayer
 10
-3.7082707077600001
 20
23.1213964595999997
 30
0.0
 11
-4.4777706734199993
 21
24.3545760219999963
 31
0.0
  0
LINE
  5
173
100
AcDbEntity
100
AcDbLine
  8
0
 62
256
370
-1
  6
ByLayer
 10
-4.4777706734199993
 20
24.3545760219999963
 30
0.0
 11
-5.8164856914399969
 21
25.887218432600001
 31
0.0
  0
LINE
  5
174
100
AcDbEntity
100
AcDbLine
  8
0
 62
256
370
-1
  6
ByLayer
 10
-5.8164856914399969
 20
25.887218432600001
 30
0.0
 11
-7.8309276255399984
 21
27.5568169438000012
 31
0.0
  0
LINE
  5
175
100
AcDbEntity
100
AcDbLine
  8
0
 62
256
370
-1
  6
ByLayer
 10
-7.8309276255399984
 20
27.5568169438000012
 30
0.0
 11
-7.8309276253199993
 21
27.5568169430000012
 31
0.0
  0
LINE
  5
176
100
AcDbEntity
100
AcDbLine
  8
0
 62
256
370
-1
  6
ByLayer
 10
-7.8309276253199993
 20
27.5568169430000012
 30
0.0
 11
-13.9483101014599971
 21
25.0229141551999987
 31
0.0
  0
LINE
  5
177
100
AcDbEntity
100
AcDbLine
  8
0
 62
256
370
-1
  6
ByLayer
 10
-13.9483101014599971
 20
25.0229141551999987
 30
0.0
 11
-14.1921512246599999
 21
22.4179041748000003
 31
0.0
  0
LINE
  5
178
100
AcDbEntity
100
AcDbLine
  8
0
 62
256
370
-1
  6
ByLayer
 10
-14.1921512246599999
 20
22.4179041748000003
 30
0.0
 11
-14.0550238503799996
 21
20.387547866000002
 31
0.0
  0
LINE
  5
179
100
AcDbEntity
100
AcDbLine
  8
0
 62
256
370
-1
  6
ByLayer
 10
-14.0550238503799996
 20
20.387547866000002
 30
0.0
 11
-13.727152863079997
 21
18.9714395909400011
 31
0.0
  0
LINE
  5
17A
100
AcDbEntity
100
AcDbLine
  8
0
 62
256
370
-1
  6
ByLayer
 10
-13.727152863079997
 20
18.9714395909400011
 30
0.0
 11
-13.3991576275000011
 21
18.1633005323599974
 31
0.0
  0
LINE
  5
17B
100
AcDbEntity
100
AcDbLine
  8
0
 62
256
370
-1
  6
ByLayer
 10
-13.3991576275000011
 20
18.1633005323599974
 30
0.0
 11
-13.2523375212399959
 21
17.912268144220004
 31
0.0
  0
LINE
  5
17C
100
AcDbEntity
100
AcDbLine
  8
0
 62
256
370
-1
  6
ByLayer
 10
-13.2523375212399959
 20
17.912268144220004
 30
0.0
 11
-17.9122681442200005
 21
13.2523375212399994
 31
0.0
  0
LINE
  5
17D
100
AcDbEntity
100
AcDbLine
  8
0
 62
256
370
-1
  6
ByLayer
 10
-17.9122681442200005
 20
13.2523375212399994
 30
0.0
 11
-18.163300532360001
 21
13.3991576274999957
 31
0.0
  0
LINE
  5
17E
100
AcDbEntity
100
AcDbLine
  8
0
 62
256
370
-1
  6
ByLayer
 10
-18.163300532360001
 20
13.3991576274999957
 30
0.0
 11
-18.9714395909400011
 21
13.7271528630800006
 31
0.0
  0
LINE
  5
17F
100
AcDbEntity
100
AcDbLine
  8
0
 62
256
370
-1
  6
ByLayer
 10
-18.9714395909400011
 20
13.7271528630800006
 30
0.0
 11
-20.3875478659999985
 21
14.0550238503800031
 31
0.0
  0
LINE
  5
180
100
AcDbEntity
100
AcDbLine
  8
0
 62
256
370
-1
  6
ByLayer
 10
-20.3875478659999985
 20
14.0550238503800031
 30
0.0
 11
-22.4179041747999968
 21
14.1921512246600035
 31
0.0
  0
LINE
  5
181
100
AcDbEntity
100
AcDbLine
  8
0
 62
256
370
-1
  6
ByLayer
 10
-22.4179041747999968
 20
14.1921512246600035
 30
0.0
 11
-25.0229141557999988
 21
13.9483101018400024
 31
0.0
  0
LINE
  5
182
100
AcDbEntity
100
AcDbLine
  8
0
 62
256
370
-1
  6
ByLayer
 10
-25.0229141557999988
 20
13.9483101018400024
 30
0.0
 11
-25.0229141552000023
 21
13.9483101014599917
 31
0.0
  0
LINE
  5
183
100
AcDbEntity
100
AcDbLine
  8
0
 62
256
370
-1
  6
ByLayer
 10
-25.0229141552000023
 20
13.9483101014599917
 30
0.0
 11
-27.5568169429999976
 21
7.8309276253200109
 31
0.0
  0
LINE
  5
184
100
AcDbEntity
100
AcDbLine
  8
0
 62
256
370
-1
  6
ByLayer
 10
-27.5568169429999976
 20
7.8309276253200109
 30
0.0
 11
-25.887218432600001
 21
5.8164856914399907
 31
0.0
  0
LINE
  5
185
100
AcDbEntity
100
AcDbLine
  8
0
 62
256
370
-1
  6
ByLayer
 10
-25.887218432600001
 20
5.8164856914399907
 30
0.0
 11
-24.3545760219999998
 21
4.4777706734199931
 31
0.0
  0
LINE
  5
186
100
AcDbEntity
100
AcDbLine
  8
0
 62
256
370
-1
  6
ByLayer
 10
-24.3545760219999998
 20
4.4777706734199931
 30
0.0
 11
-23.1213964595999997
 21
3.7082707077599943
 31
0.0
  0
LINE
  5
187
100
AcDbEntity
100
AcDbLine
  8
0
 62
256
370
-1
  6
ByLayer
 10
-23.1213964595999997
 20
3.7082707077599943
 30
0.0
 11
-22.3180281958000002
 21
3.368757754580006
 31
0.0
  0
LINE
  5
188
100
AcDbEntity
100
AcDbLine
  8
0
 62
256
370
-1
  6
ByLayer
 10
-22.3180281958000002
 20
3.368757754580006
 30
0.0
 11
-22.0367039990000002
 21
3.2950685433800015
 31
0.0
  0
LINE
  5
189
100
AcDbEntity
100
AcDbLine
  8
0
 62
256
370
-1
  6
ByLayer
 10
-22.0367039990000002
 20
3.2950685433800015
 30
0.0
 11
-22.0367039990000002
 21
-3.2950685433799958
 31
0.0
  0
LINE
  5
18A
100
AcDbEntity
100
AcDbLine
  8
0
 62
256
370
-1
  6
ByLayer
 10
-22.0367039990000002
 20
-3.2950685433799958
 30
0.0
 11
-22.3180281958000002
 21
-3.3687577545800007
 31
0.0
  0
LINE
  5
18B
100
AcDbEntity
100
AcDbLine
  8
0
 62
256
370
-1
  6
ByLayer
 10
-22.3180281958000002
 20
-3.3687577545800007
 30
0.0
 11
-23.1213964595999997
 21
-3.7082707077599881
 31
0.0
  0
LINE
  5
18C
100
AcDbEntity
100
AcDbLine
  8
0
 62
256
370
-1
  6
ByLayer
 10
-23.1213964595999997
 20
-3.7082707077599881
 30
0.0
 11
-24.3545760219999998
 21
-4.477770673419986
 31
0.0
  0
LINE
  5
18D
100
AcDbEntity
100
AcDbLine
  8
0
 62
256
370
-1
  6
ByLayer
 10
-24.3545760219999998
 20
-4.477770673419986
 30
0.0
 11
-25.8872184326000045
 21
-5.8164856914399845
 31
0.0
  0
LINE
  5
18E
100
AcDbEntity
100
AcDbLine
  8
0
 62
256
370
-1
  6
ByLayer
 10
-25.8872184326000045
 20
-5.8164856914399845
 30
0.0
 11
-27.5568169438000012
 21
-7.8309276255400029
 31
0.0
  0
LINE
  5
18F
100
AcDbEntity
100
AcDbLine
  8
0
 62
256
370
-1
  6
ByLayer
 10
-27.5568169438000012
 20
-7.8309276255400029
 30
0.0
 11
-27.5568169430000012
 21
-7.8309276253200046
 31
0.0
  0
LINE
  5
190
100
AcDbEntity
100
AcDbLine
  8
0
 62
256
370
-1
  6
ByLayer
 10
-27.5568169430000012
 20
-7.8309276253200046
 30
0.0
 11
-25.0229141552000058
 21
-13.9483101014599846
 31
0.0
  0
LINE
  5
191
100
AcDbEntity
100
AcDbLine
  8
0
 62
256
370
-1
  6
ByLayer
 10
-25.0229141552000058
 20
-13.9483101014599846
 30
0.0
 11
-22.4179041748000003
 21
-14.1921512246599981
 31
0.0
  0
LINE
  5
192
100
AcDbEntity
100
AcDbLine
  8
0
 62
256
370
-1
  6
ByLayer
 10
-22.4179041748000003
 20
-14.1921512246599981
 30
0.0
 11
-20.387547866000002
 21
-14.055023850379996
 31
0.0
  0
LINE
  5
193
100
AcDbEntity
100
AcDbLine
  8
0
 62
256
370
-1
  6
ByLayer
 10
-20.387547866000002
 20
-14.055023850379996
 30
0.0
 11
-18.9714395909400046
 21
-13.7271528630799935
 31
0.0
  0
LINE
  5
194
100
AcDbEntity
100
AcDbLine
  8
0
 62
256
370
-1
  6
ByLayer
 10
-18.9714395909400046
 20
-13.7271528630799935
 30
0.0
 11
-18.1633005323600045
 21
-13.3991576274999922
 31
0.0
  0
LINE
  5
195
100
AcDbEntity
100
AcDbLine
  8
0
 62
256
370
-1
  6
ByLayer
 10
-18.1633005323600045
 20
-13.3991576274999922
 30
0.0
 11
-17.912268144220004
 21
-13.2523375212399941
 31
0.0
  0
LINE
  5
196
100
AcDbEntity
100
AcDbLine
  8
0
 62
256
370
-1
  6
ByLayer
 10
-17.912268144220004
 20
-13.2523375212399941
 30
0.0
 11
-13.2523375212399923
 21
-17.9122681442200076
 31
0.0
  0
LINE
  5
197
100
AcDbEntity
100
AcDbLine
  8
0
 62
256
370
-1
  6
ByLayer
 10
-13.2523375212399923
 20
-17.9122681442200076
 30
0.0
 11
-13.3991576274999975
 21
-18.163300532360001
 31
0.0
  0
LINE
  5
198
100
AcDbEntity
100
AcDbLine
  8
0
 62
256
370
-1
  6
ByLayer
 10
-13.3991576274999975
 20
-18.163300532360001
 30
0.0
 11
-13.7271528630800006
 21
-18.9714395909399975
 31
0.0
  0
LINE
  5
199
100
AcDbEntity
100
AcDbLine
  8
0
 62
256
370
-1
  6
ByLayer
 10
-13.7271528630800006
 20
-18.9714395909399975
 30
0.0
 11
-14.0550238503800138
 21
-20.3875478659999914
 31
0.0
  0
LINE
  5
19A
100
AcDbEntity
100
AcDbLine
  8
0
 62
256
370
-1
  6
ByLayer
 10
-14.0550238503800138
 20
-20.3875478659999914
 30
0.0
 11
-14.1921512246600159
 21
-22.4179041747999896
 31
0.0
  0
LINE
  5
19B
100
AcDbEntity
100
AcDbLine
  8
0
 62
256
370
-1
  6
ByLayer
 10
-14.1921512246600159
 20
-22.4179041747999896
 30
0.0
 11
-13.9483101018400042
 21
-25.0229141557999988
 31
0.0
  0
LINE
  5
19C
100
AcDbEntity
100
AcDbLine
  8
0
 62
256
370
-1
  6
ByLayer
 10
-13.9483101018400042
 20
-25.0229141557999988
 30
0.0
 11
-13.9483101014600148
 21
-25.0229141551999881
 31
0.0
  0
LINE
  5
19D
100
AcDbEntity
100
AcDbLine
  8
0
 62
256
370
-1
  6
ByLayer
 10
-13.9483101014600148
 20
-25.0229141551999881
 30
0.0
 11
-7.8309276253200002
 21
-27.5568169430000012
 31
0.0
  0
LINE
  5
19E
100
AcDbEntity
100
AcDbLine
  8
0
 62
256
370
-1
  6
ByLayer
 10
-7.8309276253200002
 20
-27.5568169430000012
 30
0.0
 11
-5.816485691440004
 21
-25.887218432600001
 31
0.0
  0
LINE
  5
19F
100
AcDbEntity
100
AcDbLine
  8
0
 62
256
370
-1
  6
ByLayer
 10
-5.816485691440004
 20
-25.887218432600001
 30
0.0
 11
-4.477770673419994
 21
-24.3545760219999998
 31
0.0
  0
LINE
  5
1A0
100
AcDbEntity
100
AcDbLine
  8
0
 62
256
370
-1
  6
ByLayer
 10
-4.477770673419994
 20
-24.3545760219999998
 30
0.0
 11
-3.7082707077600059
 21
-23.1213964595999997
 31
0.0
  0
LINE
  5
1A1
100
AcDbEntity
100
AcDbLine
  8
0
 62
256
370
-1
  6
ByLayer
 10
-3.7082707077600059
 20
-23.1213964595999997
 30
0.0
 11
-3.3687577545800074
 21
-22.3180281958000002
 31
0.0
  0
LINE
  5
1A2
100
AcDbEntity
100
AcDbLine
  8
0
 62
256
370
-1
  6
ByLayer
 10
-3.3687577545800074
 20
-22.3180281958000002
 30
0.0
 11
-3.2950685433800029
 21
-22.0367039990000002
 31
0.0
  0
LINE
  5
1A3
100
AcDbEntity
100
AcDbLine
  8
0
 62
256
370
-1
  6
ByLayer
 10
-3.2950685433800029
 20
-22.0367039990000002
 30
0.0
 11
3.2950685433799949
 21
-22.0367039990000002
 31
0.0
  0
LINE
  5
1A4
100
AcDbEntity
100
AcDbLine
  8
0
 62
256
370
-1
  6
ByLayer
 10
3.2950685433799949
 20
-22.0367039990000002
 30
0.0
 11
3.3687577545799989
 21
-22.3180281958000002
 31
0.0
  0
LINE
  5
1A5
100
AcDbEntity
100
AcDbLine
  8
0
 62
256
370
-1
  6
ByLayer
 10
3.3687577545799989
 20
-22.3180281958000002
 30
0.0
 11
3.708270707759997
 21
-23.1213964595999997
 31
0.0
  0
LINE
  5
1A6
100
AcDbEntity
100
AcDbLine
  8
0
 62
256
370
-1
  6
ByLayer
 10
3.708270707759997
 20
-23.1213964595999997
 30
0.0
 11
4.477770673419986
 21
-24.3545760219999998
 31
0.0
  0
LINE
  5
1A7
100
AcDbEntity
100
AcDbLine
  8
0
 62
256
370
-1
  6
ByLayer
 10
4.477770673419986
 20
-24.3545760219999998
 30
0.0
 11
5.8164856914399934
 21
-25.887218432600001
 31
0.0
  0
LINE
  5
1A8
100
AcDbEntity
100
AcDbLine
  8
0
 62
256
370
-1
  6
ByLayer
 10
5.8164856914399934
 20
-25.887218432600001
 30
0.0
 11
7.8309276255400011
 21
-27.5568169438000012
 31
0.0
  0
LINE
  5
1A9
100
AcDbEntity
100
AcDbLine
  8
0
 62
256
370
-1
  6
ByLayer
 10
7.8309276255400011
 20
-27.5568169438000012
 30
0.0
 11
7.8309276253199904
 21
-27.5568169430000012
 31
0.0
  0
LINE
  5
1AA
100
AcDbEntity
100
AcDbLine
  8
0
 62
256
370
-1
  6
ByLayer
 10
7.8309276253199904
 20
-27.5568169430000012
 30
0.0
 11
13.9483101014600059
 21
-25.0229141551999952
 31
0.0
  0
LINE
  5
1AB
100
AcDbEntity
100
AcDbLine
  8
0
 62
256
370
-1
  6
ByLayer
 10
13.9483101014600059
 20
-25.0229141551999952
 30
0.0
 11
14.1921512246599875
 21
-22.4179041748000074
 31
0.0
  0
LINE
  5
1AC
100
AcDbEntity
100
AcDbLine
  8
0
 62
256
370
-1
  6
ByLayer
 10
14.1921512246599875
 20
-22.4179041748000074
 30
0.0
 11
14.0550238503799889
 21
-20.3875478660000091
 31
0.0
  0
LINE
  5
1AD
100
AcDbEntity
100
AcDbLine
  8
0
 62
256
370
-1
  6
ByLayer
 10
14.0550238503799889
 20
-20.3875478660000091
 30
0.0
 11
13.7271528630799935
 21
-18.9714395909400046
 31
0.0
  0
LINE
  5
1AE
100
AcDbEntity
100
AcDbLine
  8
0
 62
256
370
-1
  6
ByLayer
 10
13.7271528630799935
 20
-18.9714395909400046
 30
0.0
 11
13.3991576274999886
 21
-18.1633005323600045
 31
0.0
  0
LINE
  5
1AF
100
AcDbEntity
100
AcDbLine
  8
0
 62
256
370
-1
  6
ByLayer
 10
13.3991576274999886
 20
-18.1633005323600045
 30
0.0
 11
13.2523375212400012
 21
-17.9122681442200005
 31
0.0
  0
LINE
  5
1B0
100
AcDbEntity
100
AcDbLine
  8
0
 62
256
370
-1
  6
ByLayer
 10
13.2523375212400012
 20
-17.9122681442200005
 30
0.0
 11
17.9122681442199934
 21
-13.2523375212400083
 31
0.0
  0
LINE
  5
1B1
100
AcDbEntity
100
AcDbLine
  8
0
 62
256
370
-1
  6
ByLayer
 10
17.9122681442199934
 20
-13.2523375212400083
 30
0.0
 11
18.163300532360001
 21
-13.3991576274999993
 31
0.0
  0
LINE
  5
1B2
100
AcDbEntity
100
AcDbLine
  8
0
 62
256
370
-1
  6
ByLayer
 10
18.163300532360001
 20
-13.3991576274999993
 30
0.0
 11
18.9714395909399975
 21
-13.7271528630800006
 31
0.0
  0
LINE
  5
1B3
100
AcDbEntity
100
AcDbLine
  8
0
 62
256
370
-1
  6
ByLayer
 10
18.9714395909399975
 20
-13.7271528630800006
 30
0.0
 11
20.3875478659999914
 21
-14.0550238503800173
 31
0.0
  0
LINE
  5
1B4
100
AcDbEntity
100
AcDbLine
  8
0
 62
256
370
-1
  6
ByLayer
 10
20.3875478659999914
 20
-14.0550238503800173
 30
0.0
 11
22.4179041747999896
 21
-14.1921512246600159
 31
0.0
  0
LINE
  5
1B5
100
AcDbEntity
100
AcDbLine
  8
0
 62
256
370
-1
  6
ByLayer
 10
22.4179041747999896
 20
-14.1921512246600159
 30
0.0
 11
25.0229141557999988
 21
-13.9483101018400077
 31
0.0
  0
ENDBLK
  5
1B6
100
AcDbEntity
  8
0
100
AcDbBlockEnd
  0
ENDSEC
  0
SECTION
  2
ENTITIES
  0
LINE
  5
1B7
100
AcDbEntity
100
AcDbLine
  8
skeleton
 62
256
370
-1
  6
ByLayer
 10
-20.0
 20
-30.0
 30
0.0
 11
50.0
 21
-30.0
 31
0.0
  0
LINE
  5
1B8
100
AcDbEntity
100
AcDbLine
  8
skeleton
 62
256
370
-1
  6
ByLayer
 10
50.0
 20
-30.0
 30
0.0
 11
50.0
 21
-80.0
 31
0.0
  0
LINE
  5
1B9
100
AcDbEntity
100
AcDbLine
  8
skeleton
 62
256
370
-1
  6
ByLayer
 10
50.0
 20
-80.0
 30
0.0
 11
-20.0
 21
-80.0
 31
0.0
  0
LINE
  5
1BA
100
AcDbEntity
100
AcDbLine
  8
skeleton
 62
256
370
-1
  6
ByLayer
 10
-20.0
 20
-80.0
 30
0.0
 11
-20.0
 21
-30.0
 31
0.0
  0
LINE
  5
1BB
100
AcDbEntity
100
AcDbLine
  8
skeleton
 62
256
370
-1
  6
ByLayer
 10
0.0
 20
-60.0
 30
0.0
 11
0.0
 21
-82.0
 31
0.0
  0
LINE
  5
1BC
100
AcDbEntity
100
AcDbLine
  8
skeleton
 62
256
370
-1
  6
ByLayer
 10
40.0
 20
-59.0
 30
0.0
 11
40.0
 21
-84.0
 31
0.0
  0
LINE
  5
1BD
100
AcDbEntity
100
AcDbLine
  8
skeleton
 62
256
370
-1
  6
ByLayer
 10
48.0
 20
-74.0
 30
0.0
 11
-10.0
 21
-74.0
 31
0.0
  0
CIRCLE
  5
1BE
100
AcDbEntity
100
AcDbCircle
  8
midplate
 62
256
370
-1
  6
ByLayer
 10
0.0
 20
-74.0
 30
0.0
 40
4.9403881761940482
  0
CIRCLE
  5
1BF
100
AcDbEntity
100
AcDbCircle
  8
midplate
 62
256
370
-1
  6
ByLayer
 10
40.0
 20
-74.0
 30
0.0
 40
4.9402916751709114
  0
CIRCLE
  5
1C0
100
AcDbEntity
100
AcDbCircle
  8
topplate
 62
256
370
-1
  6
ByLayer
 10
0.0
 20
-74.0
 30
0.0
 40
1.5
  0
CIRCLE
  5
1C1
100
AcDbEntity
100
AcDbCircle
  8
topplate
 62
256
370
-1
  6
ByLayer
 10
40.0
 20
-74.0
 30
0.0
 40
1.5
  0
CIRCLE
  5
1C2
100
AcDbEntity
100
AcDbCircle
  8
midplate
 62
256
370
-1
  6
ByLayer
 10
40.0
 20
-74.0
 30
0.0
 40
1.5
  0
CIRCLE
  5
1C3
100
AcDbEntity
100
AcDbCircle
  8
midplate
 62
256
370
-1
  6
ByLayer
 10
0.0
 20
-74.0
 30
0.0
 40
1.5
  0
LINE
  5
1C4
100
AcDbEntity
100
AcDbLine
  8
topplate
 62
256
370
-1
  6
ByLayer
 10
47.0
 20
-80.0
 30
0.0
 11
-8.0
 21
-80.0
 31
0.0
  0
LINE
  5
1C5
100
AcDbEntity
100
AcDbLine
  8
topplate
 62
256
370
-1
  6
ByLayer
 10
-8.0
 20
-80.0
 30
0.0
 11
-8.0
 21
-72.0
 31
0.0
  0
ARC
  5
1C6
100
AcDbEntity
  8
topplate
 62
256
370
-1
  6
ByLayer
100
AcDbCircle
 10
0.0
 20
-72.0
 30
0.0
 40
8.0
100
AcDbArc
 50
90.0
 51
180.0
  0
LINE
  5
1C7
100
AcDbEntity
100
AcDbLine
  8
topplate
 62
256
370
-1
  6
ByLayer
 10
0.0
 20
-64.0
 30
0.0
 11
39.0
 21
-64.0
 31
0.0
  0
LINE
  5
1C8
100
AcDbEntity
100
AcDbLine
  8
topplate
 62
256
370
-1
  6
ByLayer
 10
47.0
 20
-72.0
 30
0.0
 11
47.0
 21
-80.0
 31
0.0
  0
ARC
  5
1C9
100
AcDbEntity
  8
topplate
 62
256
370
-1
  6
ByLayer
100
AcDbCircle
 10
39.0
 20
-72.0
 30
0.0
 40
8.0
100
AcDbArc
 50
0.0
 51
90.0
  0
INSERT
  5
1CA
100
AcDbEntity
100
AcDbBlockReference
  8
midplate
 62
256
370
-1
  6
ByLayer
  2
rack
 10
-74.5343419649420156
 20
-42.5182986256665885
 30
0.0
 41
0.28
 42
0.28
 43
1.0
 70
40
 71
1
 44
5.5999999999999996
 45
0.0
  0
INSERT
  5
1CB
100
AcDbEntity
100
AcDbBlockReference
  8
midplate
 62
256
370
-1
  6
ByLayer
  2
gear_12
 10
23.465658035057956
 20
-42.5182986256665885
 30
0.0
 41
0.28
 42
0.28
 43
1.0
 50
194.9999999999999432
 44
0.28
 45
0.28
  0
ARC
  5
1CC
100
AcDbEntity
  8
midplate
 62
256
370
-1
  6
ByLayer
100
AcDbCircle
 10
23.465658035057956
 20
-42.5182986256665885
 30
0.0
 40
3.4000000000000004
100
AcDbArc
 50
318.0009991422166422
 51
41.9990008577833649
  0
ARC
  5
1CD
100
AcDbEntity
  8
midplate
 62
256
370
-1
  6
ByLayer
100
AcDbCircle
 10
23.465658035057956
 20
-42.5182986256665885
 30
0.0
 40
3.3999999999999999
100
AcDbArc
 50
138.0009991422166422
 51
221.9990008577833578
  0
LINE
  5
1CE
100
AcDbEntity
100
AcDbLine
  8
midplate
 62
256
370
-1
  6
ByLayer
 10
20.9389259558695038
 20
-40.2432986256665828
 30
0.0
 11
25.9923901142464082
 21
-40.2432986256665899
 31
0.0
  0
LINE
  5
1CF
100
AcDbEntity
100
AcDbLine
  8
midplate
 62
256
370
-1
  6
ByLayer
 10
25.9923901142464082
 20
-44.793298625666587
 30
0.0
 11
20.9389259558695038
 21
-44.793298625666587
 31
0.0
  0
LINE
  5
1D0
100
AcDbEntity
100
AcDbLine
  8
midplate
 62
256
370
-1
  6
ByLayer
 10
-77.3343419649420127
 20
-54.0594252527278627
 30
0.0
 11
-77.3343419649420127
 21
-69.0594252527278627
 31
0.0
  0
LINE
  5
1D1
100
AcDbEntity
100
AcDbLine
  8
midplate
 62
256
370
-1
  6
ByLayer
 10
146.5109690234899631
 20
-54.0599652852662516
 30
0.0
 11
146.5109690234899631
 21
-69.0599652852662587
 31
0.0
  0
LINE
  5
1D2
100
AcDbEntity
100
AcDbLine
  8
midplate
 62
256
370
-1
  6
ByLayer
 10
-77.3343419649420127
 20
-69.0594252527278627
 30
0.0
 11
146.5109690234899631
 21
-69.0599652852662587
 31
0.0
  0
CIRCLE
  5
1D3
100
AcDbEntity
100
AcDbCircle
  8
base
 62
256
370
-1
  6
ByLayer
 10
0.0
 20
-74.0
 30
0.0
 40
1.5
  0
CIRCLE
  5
1D4
100
AcDbEntity
100
AcDbCircle
  8
base
 62
256
370
-1
  6
ByLayer
 10
40.0
 20
-74.0
 30
0.0
 40
1.5
  0
LINE
  5
1D5
100
AcDbEntity
100
AcDbLine
  8
base
 62
256
370
-1
  6
ByLayer
 10
-20.0
 20
-80.0
 30
0.0
 11
50.0
 21
-80.0
 31
0.0
  0
LINE
  5
1D6
100
AcDbEntity
100
AcDbLine
  8
base
 62
256
370
-1
  6
ByLayer
 10
50.0
 20
-80.0
 30
0.0
 11
50.0
 21
-30.0
 31
0.0
  0
LINE
  5
1D7
100
AcDbEntity
100
AcDbLine
  8
base
 62
256
370
-1
  6
ByLayer
 10
50.0
 20
-30.0
 30
0.0
 11
-20.0
 21
-30.0
 31
0.0
  0
LINE
  5
1D8
100
AcDbEntity
100
AcDbLine
  8
base
 62
256
370
-1
  6
ByLayer
 10
-20.0
 20
-30.0
 30
0.0
 11
-20.0
 21
-80.0
 31
0.0
  0
CIRCLE
  5
1D9
100
AcDbEntity
100
AcDbCircle
  8
midplate
 62
256
370
-1
  6
ByLayer
 10
140.0
 20
-62.0
 30
0.0
 40
1.5
  0
CIRCLE
  5
1DA
100
AcDbEntity
100
AcDbCircle
  8
midplate
 62
256
370
-1
  6
ByLayer
 10
130.0
 20
-62.0
 30
0.0
 40
1.5
  0
CIRCLE
  5
1DB
100
AcDbEntity
100
AcDbCircle
  8
midplate
 62
256
370
-1
  6
ByLayer
 10
120.0
 20
-62.0
 30
0.0
 40
1.5
  0
CIRCLE
  5
1DC
100
AcDbEntity
100
AcDbCircle
  8
base
 62
256
370
-1
  6
ByLayer
 10
23.465658035057956
 20
-42.5182986256665885
 30
0.0
 40
4.7000000000000002
  0
CIRCLE
  5
1DD
100
AcDbEntity
100
AcDbCircle
  8
base
 62
256
370
-1
  6
ByLayer
 10
12.465658035057956
 20
-42.5182986256665885
 30
0.0
 40
1.95
  0
ENDSEC
  0
SECTION
  2
OBJECTS
  0
DICTIONARY
  5
C
100
AcDbDictionary
280
0
281
1
  3
ACAD_GROUP
350
D
  3
ACAD_LAYOUT
350
1A
  3
ACAD_MLINESTYLE
350
17
  3
ACAD_PLOTSETTINGS
350
19
  3
ACAD_PLOTSTYLENAME
350
E
  3
AcDbVariableDictionary
350
1DE
  0
DICTIONARY
  5
D
100
AcDbDictionary
280
0
281
1
  0
ACDBDICTIONARYWDFLT
  5
E
100
AcDbDictionary
281
1
  3
Normal
350
F
100
AcDbDictionaryWithDefault
340
F
  0
ACDBPLACEHOLDER
  5
F
  0
DICTIONARY
  5
17
100
AcDbDictionary
280
0
281
1
  3
Standard
350
18
  0
MLINESTYLE
  5
18
100
AcDbMlineStyle
  2
STANDARD
 70
0
  3

 62
256
 51
90.0
 52
90.0
 71
2
 49
0.5
 62
256
  6
BYLAYER
 49
-0.5
 62
256
  6
BYLAYER
  0
DICTIONARY
  5
19
100
AcDbDictionary
280
0
281
1
  0
DICTIONARY
  5
1A
100
AcDbDictionary
281
1
  3
Layout1
350
1E
  3
Layout2
350
26
  3
Model
350
22
  0
LAYOUT
  5
1E
100
AcDbPlotSettings
  1

  2
C:\Program Files\AutoCAD 2002\plotters\DWF ePlot (optimized for plotting).pc3
  4

  6

 40
0.0
 41
0.0
 42
0.0
 43
0.0
 44
0.0
 45
0.0
 46
0.0
 47
0.0
 48
0.0
 49
0.0
140
0.0
141
0.0
142
1.0
143
1.0
 70
688
 72
0
 73
0
 74
5
  7

 75
16
147
1.0
148
0.0
149
0.0
100
AcDbLayout
  1
Layout1
 70
1
 71
1
 10
0.0
 20
0.0
 11
420.0
 21
297.0
 12
0.0
 22
0.0
 32
0.0
 14
100000000000000000000.0
 24
100000000000000000000.0
 34
100000000000000000000.0
 15
-100000000000000000000.0
 25
-100000000000000000000.0
 35
-100000000000000000000.0
146
0.0
 13
0.0
 23
0.0
 33
0.0
 16
1.0
 26
0.0
 36
0.0
 17
0.0
 27
1.0
 37
0.0
 76
0
330
1B
  0
LAYOUT
  5
22
100
AcDbPlotSettings
  1

  2
C:\Program Files\AutoCAD 2002\plotters\DWF ePlot (optimized for plotting).pc3
  4

  6

 40
0.0
 41
0.0
 42
0.0
 43
0.0
 44
0.0
 45
0.0
 46
0.0
 47
0.0
 48
0.0
 49
0.0
140
0.0
141
0.0
142
1.0
143
1.0
 70
1712
 72
0
 73
0
 74
0
  7

 75
0
147
1.0
148
0.0
149
0.0
100
AcDbLayout
  1
Model
 70
1
 71
0
 10
0.0
 20
0.0
 11
12.0
 21
9.0
 12
0.0
 22
0.0
 32
0.0
 14
0.0
 24
0.0
 34
0.0
 15
0.0
 25
0.0
 35
0.0
146
0.0
 13
0.0
 23
0.0
 33
0.0
 16
1.0
 26
0.0
 36
0.0
 17
0.0
 27
1.0
 37
0.0
 76
0
330
1F
  0
LAYOUT
  5
26
100
AcDbPlotSettings
  1

  2
C:\Program Files\AutoCAD 2002\plotters\DWF ePlot (optimized for plotting).pc3
  4

  6

 40
0.0
 41
0.0
 42
0.0
 43
0.0
 44
0.0
 45
0.0
 46
0.0
 47
0.0
 48
0.0
 49
0.0
140
0.0
141
0.0
142
1.0
143
1.0
 70
688
 72
0
 73
0
 74
5
  7

 75
16
147
1.0
148
0.0
149
0.0
100
AcDbLayout
  1
Layout2
 70
1
 71
2
 10
0.0
 20
0.0
 11
12.0
 21
9.0
 12
0.0
 22
0.0
 32
0.0
 14
0.0
 24
0.0
 34
0.0
 15
0.0
 25
0.0
 35
0.0
146
0.0
 13
0.0
 23
0.0
 33
0.0
 16
1.0
 26
0.0
 36
0.0
 17
0.0
 27
1.0
 37
0.0
 76
0
330
23
  0
DICTIONARY
  5
1DE
100
AcDbDictionary
281
1
  3
DIMASSOC
350
1E0
  3
HIDETEXT
350
1DF
  0
DICTIONARYVAR
  5
1DF
100
DictionaryVariables
280
0
  1
2
  0
DICTIONARYVAR
  5
1E0
100
DictionaryVariables
280
0
  1
1
  0
ENDSEC
  0
EOF
