999
dxflib 2.2.0.0
  0
SECTION
  2
HEADER
  9
$ACADVER
  1
AC1015
  9
$HANDSEED
  5
FFFF
  9
$DIMASZ
 40
2.5
  9
$PLIMMIN
 10
0.0
 20
0.0
  9
$DIMEXE
 40
1.25
  9
$DIMGAP
 40
0.625
  9
$PLIMMAX
 10
210.0
 20
297.0
  9
$INSUNITS
 70
4
  9
$DIMSTYLE
  2
Standard
  9
$MEASUREMENT
 70
1
  9
$CLAYER
  8
0
  9
$DIMEXO
 40
0.625
  9
$DIMTXT
 40
2.5
  9
$CLAYER
  8
0
  0
ENDSEC
  0
SECTION
  2
TABLES
  0
TABLE
  2
VPORT
  5
8
100
AcDbSymbolTable
 70
1
  0
VPORT
  5
30
100
AcDbSymbolTableRecord
100
AcDbViewportTableRecord
  2
*Active
 70
0
 10
0.0
 20
0.0
 11
1.0
 21
1.0
 12
286.3055555555554861
 22
148.5
 13
0.0
 23
0.0
 14
10.0
 24
10.0
 15
10.0
 25
10.0
 16
0.0
 26
0.0
 36
1.0
 17
0.0
 27
0.0
 37
0.0
 40
297.0
 41
1.92798353909465
 42
50.0
 43
0.0
 44
0.0
 50
0.0
 51
0.0
 71
0
 72
100
 73
1
 74
3
 75
1
 76
1
 77
0
 78
0
281
0
 65
1
110
0.0
120
0.0
130
0.0
111
1.0
121
0.0
131
0.0
112
0.0
122
1.0
132
0.0
 79
0
146
0.0
  0
ENDTAB
  0
TABLE
  2
LTYPE
  5
5
100
AcDbSymbolTable
 70
21
  0
LTYPE
  5
14
100
AcDbSymbolTableRecord
100
AcDbLinetypeTableRecord
  2
ByBlock
 70
0
  3

 72
65
 73
0
 40
0.0
  0
LTYPE
  5
15
100
AcDbSymbolTableRecord
100
AcDbLinetypeTableRecord
  2
ByLayer
 70
0
  3

 72
65
 73
0
 40
0.0
  0
LTYPE
  5
16
100
AcDbSymbolTableRecord
100
AcDbLinetypeTableRecord
  2
CONTINUOUS
 70
0
  3
Solid line
 72
65
 73
0
 40
0.0
  0
LTYPE
  5
31
100
AcDbSymbolTableRecord
100
AcDbLinetypeTableRecord
  2
DOT
 70
0
  3
Dot . . . . . . . . . . . . . . . . . . . . . .
 72
65
 73
2
 40
6.3499999999999996
 49
0.0
 74
0
 49
-6.3499999999999996
 74
0
  0
LTYPE
  5
32
100
AcDbSymbolTableRecord
100
AcDbLinetypeTableRecord
  2
DOT2
 70
0
  3
Dot (.5x) .....................................
 72
65
 73
2
 40
3.1749999999999998
 49
0.0
 74
0
 49
-3.1749999999999998
 74
0
  0
LTYPE
  5
33
100
AcDbSymbolTableRecord
100
AcDbLinetypeTableRecord
  2
DOTX2
 70
0
  3
Dot (2x) .  .  .  .  .  .  .  .  .  .  .  .  .
 72
65
 73
2
 40
12.6999999999999993
 49
0.0
 74
0
 49
-12.6999999999999993
 74
0
  0
LTYPE
  5
34
100
AcDbSymbolTableRecord
100
AcDbLinetypeTableRecord
  2
DASHED
 70
0
  3
Dashed __ __ __ __ __ __ __ __ __ __ __ __ __ _
 72
65
 73
2
 40
19.0500000000000007
 49
12.6999999999999993
 74
0
 49
-6.3499999999999996
 74
0
  0
LTYPE
  5
35
100
AcDbSymbolTableRecord
100
AcDbLinetypeTableRecord
  2
DASHED2
 70
0
  3
Dashed (.5x) _ _ _ _ _ _ _ _ _ _ _ _ _ _ _ _ _
 72
65
 73
2
 40
9.5250000000000004
 49
6.3499999999999996
 74
0
 49
-3.1749999999999998
 74
0
  0
LTYPE
  5
36
100
AcDbSymbolTableRecord
100
AcDbLinetypeTableRecord
  2
DASHEDX2
 70
0
  3
Dashed (2x) ____  ____  ____  ____  ____  ___
 72
65
 73
2
 40
38.1000000000000014
 49
25.3999999999999986
 74
0
 49
-12.6999999999999993
 74
0
  0
LTYPE
  5
37
100
AcDbSymbolTableRecord
100
AcDbLinetypeTableRecord
  2
DASHDOT
 70
0
  3
Dash dot __ . __ . __ . __ . __ . __ . __ . __
 72
65
 73
4
 40
25.3999999999999986
 49
12.6999999999999993
 74
0
 49
-6.3499999999999996
 74
0
 49
0.0
 74
0
 49
-6.3499999999999996
 74
0
  0
LTYPE
  5
38
100
AcDbSymbolTableRecord
100
AcDbLinetypeTableRecord
  2
DASHDOT2
 70
0
  3
Dash dot (.5x) _._._._._._._._._._._._._._._.
 72
65
 73
4
 40
12.6999999999999993
 49
6.3499999999999996
 74
0
 49
-3.1749999999999998
 74
0
 49
0.0
 74
0
 49
-3.1749999999999998
 74
0
  0
LTYPE
  5
39
100
AcDbSymbolTableRecord
100
AcDbLinetypeTableRecord
  2
DASHDOTX2
 70
0
  3
Dash dot (2x) ____  .  ____  .  ____  .  ___
 72
65
 73
4
 40
50.7999999999999972
 49
25.3999999999999986
 74
0
 49
-12.6999999999999993
 74
0
 49
0.0
 74
0
 49
-12.6999999999999993
 74
0
  0
LTYPE
  5
3A
100
AcDbSymbolTableRecord
100
AcDbLinetypeTableRecord
  2
DIVIDE
 70
0
  3
Divide ____ . . ____ . . ____ . . ____ . . ____
 72
65
 73
6
 40
31.75
 49
12.6999999999999993
 74
0
 49
-6.3499999999999996
 74
0
 49
0.0
 74
0
 49
-6.3499999999999996
 74
0
 49
0.0
 74
0
 49
-6.3499999999999996
 74
0
  0
LTYPE
  5
3B
100
AcDbSymbolTableRecord
100
AcDbLinetypeTableRecord
  2
DIVIDE2
 70
0
  3
Divide (.5x) __..__..__..__..__..__..__..__.._
 72
65
 73
6
 40
15.875
 49
6.3499999999999996
 74
0
 49
-3.1749999999999998
 74
0
 49
0.0
 74
0
 49
-3.1749999999999998
 74
0
 49
0.0
 74
0
 49
-3.1749999999999998
 74
0
  0
LTYPE
  5
3C
100
AcDbSymbolTableRecord
100
AcDbLinetypeTableRecord
  2
DIVIDEX2
 70
0
  3
Divide (2x) ________  .  .  ________  .  .  _
 72
65
 73
6
 40
63.5
 49
25.3999999999999986
 74
0
 49
-12.6999999999999993
 74
0
 49
0.0
 74
0
 49
-12.6999999999999993
 74
0
 49
0.0
 74
0
 49
-12.6999999999999993
 74
0
  0
LTYPE
  5
3D
100
AcDbSymbolTableRecord
100
AcDbLinetypeTableRecord
  2
CENTER
 70
0
  3
Center ____ _ ____ _ ____ _ ____ _ ____ _ ____
 72
65
 73
4
 40
50.7999999999999972
 49
31.75
 74
0
 49
-6.3499999999999996
 74
0
 49
6.3499999999999996
 74
0
 49
-6.3499999999999996
 74
0
  0
LTYPE
  5
3E
100
AcDbSymbolTableRecord
100
AcDbLinetypeTableRecord
  2
CENTER2
 70
0
  3
Center (.5x) ___ _ ___ _ ___ _ ___ _ ___ _ ___
 72
65
 73
4
 40
28.5749999999999993
 49
19.0500000000000007
 74
0
 49
-3.1749999999999998
 74
0
 49
3.1749999999999998
 74
0
 49
-3.1749999999999998
 74
0
  0
LTYPE
  5
3F
100
AcDbSymbolTableRecord
100
AcDbLinetypeTableRecord
  2
CENTERX2
 70
0
  3
Center (2x) ________  __  ________  __  _____
 72
65
 73
4
 40
101.5999999999999943
 49
63.5
 74
0
 49
-12.6999999999999993
 74
0
 49
12.6999999999999993
 74
0
 49
-12.6999999999999993
 74
0
  0
LTYPE
  5
40
100
AcDbSymbolTableRecord
100
AcDbLinetypeTableRecord
  2
BORDER
 70
0
  3
Border __ __ . __ __ . __ __ . __ __ . __ __ .
 72
65
 73
6
 40
44.4500000000000028
 49
12.6999999999999993
 74
0
 49
-6.3499999999999996
 74
0
 49
12.6999999999999993
 74
0
 49
-6.3499999999999996
 74
0
 49
0.0
 74
0
 49
-6.3499999999999996
 74
0
  0
LTYPE
  5
41
100
AcDbSymbolTableRecord
100
AcDbLinetypeTableRecord
  2
BORDER2
 70
0
  3
Border (.5x) __.__.__.__.__.__.__.__.__.__.__.
 72
65
 73
6
 40
22.2250000000000014
 49
6.3499999999999996
 74
0
 49
-3.1749999999999998
 74
0
 49
6.3499999999999996
 74
0
 49
-3.1749999999999998
 74
0
 49
0.0
 74
0
 49
-3.1749999999999998
 74
0
  0
LTYPE
  5
42
100
AcDbSymbolTableRecord
100
AcDbLinetypeTableRecord
  2
BORDERX2
 70
0
  3
Border (2x) ____  ____  .  ____  ____  .  ___
 72
65
 73
6
 40
88.9000000000000057
 49
25.3999999999999986
 74
0
 49
-12.6999999999999993
 74
0
 49
25.3999999999999986
 74
0
 49
-12.6999999999999993
 74
0
 49
0.0
 74
0
 49
-12.6999999999999993
 74
0
  0
ENDTAB
  0
TABLE
  2
LAYER
  5
2
100
AcDbSymbolTable
 70
2
  0
LAYER
  5
10
100
AcDbSymbolTableRecord
100
AcDbLayerTableRecord
  2
0
 70
0
 62
7
420
16777215
  6
CONTINUOUS
390
F
  0
LAYER
  5
43
100
AcDbSymbolTableRecord
100
AcDbLayerTableRecord
  2
holes
 70
0
 62
7
420
0
  6
CONTINUOUS
370
0
390
F
  0
ENDTAB
  0
TABLE
  2
STYLE
  5
3
100
AcDbSymbolTable
 70
1
  0
STYLE
  5
11
100
AcDbSymbolTableRecord
100
AcDbTextStyleTableRecord
  2
Standard
 70
0
 40
0.0
 41
0.75
 50
0.0
 71
0
 42
2.5
  3
txt
  4

  0
ENDTAB
  0
TABLE
  2
VIEW
  5
6
100
AcDbSymbolTable
 70
0
  0
ENDTAB
  0
TABLE
  2
UCS
  5
7
100
AcDbSymbolTable
 70
0
  0
ENDTAB
  0
TABLE
  2
APPID
  5
9
100
AcDbSymbolTable
 70
1
  0
APPID
  5
12
100
AcDbSymbolTableRecord
100
AcDbRegAppTableRecord
  2
ACAD
 70
0
  0
ENDTAB
  0
TABLE
  2
DIMSTYLE
  5
A
100
AcDbSymbolTable
 70
1
100
AcDbDimStyleTable
 71
0
  0
DIMSTYLE
105
27
100
AcDbSymbolTableRecord
100
AcDbDimStyleTableRecord
  2
Standard
 41
2.5
 42
0.625
 43
3.75
 44
1.25
 70
0
 73
0
 74
0
 77
1
 78
8
140
2.5
141
2.5
143
0.03937007874016
147
0.625
171
3
172
1
271
2
272
2
274
3
278
44
283
0
284
8
340
11
  0
ENDTAB
  0
TABLE
  2
BLOCK_RECORD
  5
1
100
AcDbSymbolTable
 70
1
  0
BLOCK_RECORD
  5
1F
100
AcDbSymbolTableRecord
100
AcDbBlockTableRecord
  2
*Model_Space
340
22
  0
BLOCK_RECORD
  5
1B
100
AcDbSymbolTableRecord
100
AcDbBlockTableRecord
  2
*Paper_Space
340
1E
  0
BLOCK_RECORD
  5
23
100
AcDbSymbolTableRecord
100
AcDbBlockTableRecord
  2
*Paper_Space0
340
26
  0
BLOCK_RECORD
  5
44
100
AcDbSymbolTableRecord
100
AcDbBlockTableRecord
  2
hole
340
0
  0
ENDTAB
  0
ENDSEC
  0
SECTION
  2
BLOCKS
  0
BLOCK
  5
20
100
AcDbEntity
  8
0
100
AcDbBlockBegin
  2
*Model_Space
 70
0
 10
0.0
 20
0.0
 30
0.0
  3
*Model_Space
  1

  0
ENDBLK
  5
21
100
AcDbEntity
  8
0
100
AcDbBlockEnd
  0
BLOCK
  5
1C
100
AcDbEntity
 67
1
  8
0
100
AcDbBlockBegin
  2
*Paper_Space
 70
0
 10
0.0
 20
0.0
 30
0.0
  3
*Paper_Space
  1

  0
ENDBLK
  5
1D
100
AcDbEntity
 67
1
  8
0
100
AcDbBlockEnd
  0
BLOCK
  5
24
100
AcDbEntity
  8
0
100
AcDbBlockBegin
  2
*Paper_Space0
 70
0
 10
0.0
 20
0.0
 30
0.0
  3
*Paper_Space0
  1

  0
ENDBLK
  5
25
100
AcDbEntity
  8
0
100
AcDbBlockEnd
  0
BLOCK
  5
45
100
AcDbEntity
  8
0
100
AcDbBlockBegin
  2
hole
 70
0
 10
0.0
 20
0.0
 30
0.0
  3
hole
  1

  0
CIRCLE
  5
46
100
AcDbEntity
100
AcDbCircle
  8
0
 62
256
370
-1
  6
ByLayer
 10
0.0
 20
0.0
 30
0.0
 40
2.2999999999999998
  0
ENDBLK
  5
47
100
AcDbEntity
  8
0
100
AcDbBlockEnd
  0
ENDSEC
  0
SECTION
  2
ENTITIES
  0
SPLINE
  5
48
  8
0
 62
7
420
16777215
370
-1
  6
ByLayer
100
AcDbEntity
100
AcDbSpline
 70
8
 71
3
 72
8
 73
4
 74
0
 40
0.0
 40
0.0
 40
0.0
 40
0.0
 40
1.0
 40
1.0
 40
1.0
 40
1.0
 10
89.8500803919999953
 20
0.0
 30
0.0
 10
89.8500803919999953
 20
0.0
 30
0.0
 10
83.029777124000006
 20
2.3722817000000056
 30
0.0
 10
80.6574968950000084
 20
9.1925834970000189
 30
0.0
  0
LWPOLYLINE
  5
49
  8
0
 62
7
420
16777215
370
-1
  6
ByLayer
100
AcDbEntity
100
AcDbPolyline
 90
2
 70
0
 10
-0.0
 20
0.0
 10
89.8500803919999953
 20
0.0
  0
SPLINE
  5
4A
  8
0
 62
7
420
16777215
370
-1
  6
ByLayer
100
AcDbEntity
100
AcDbSpline
 70
8
 71
3
 72
8
 73
4
 74
0
 40
0.0
 40
0.0
 40
0.0
 40
0.0
 40
1.0
 40
1.0
 40
1.0
 40
1.0
 10
81.2505658489999973
 20
50.707472058999997
 30
0.0
 10
82.7332411759999928
 20
56.0451000000000121
 30
0.0
 10
86.2541767620000144
 20
63.1801060660000076
 30
0.0
 10
91.6292887250000234
 20
66.4238228760000169
 30
0.0
  0
SPLINE
  5
4B
  8
0
 62
7
420
16777215
370
-1
  6
ByLayer
100
AcDbEntity
100
AcDbSpline
 70
8
 71
3
 72
8
 73
4
 74
0
 40
0.0
 40
0.0
 40
0.0
 40
0.0
 40
1.0
 40
1.0
 40
1.0
 40
1.0
 10
91.6292887250000234
 20
66.4238228760000169
 30
0.0
 10
97.4793292190000216
 20
69.9541449130000075
 30
0.0
 10
107.0491050650000204
 20
78.5817526140000098
 30
0.0
 10
112.683268953999999
 20
85.1055228760000091
 30
0.0
  0
SPLINE
  5
4C
  8
0
 62
7
420
16777215
370
-1
  6
ByLayer
100
AcDbEntity
100
AcDbSpline
 70
8
 71
3
 72
8
 73
4
 74
0
 40
0.0
 40
0.0
 40
0.0
 40
0.0
 40
1.0
 40
1.0
 40
1.0
 40
1.0
 10
112.683268953999999
 20
85.1055228760000091
 30
0.0
 10
117.77084454700001
 20
90.9963983300000052
 30
0.0
 10
151.8258772870000257
 20
153.3085570270000346
 30
0.0
 10
151.8258772870000257
 20
153.3085570270000346
 30
0.0
  0
SPLINE
  5
4D
  8
0
 62
7
420
16777215
370
-1
  6
ByLayer
100
AcDbEntity
100
AcDbSpline
 70
8
 71
3
 72
8
 73
4
 74
0
 40
0.0
 40
0.0
 40
0.0
 40
0.0
 40
1.0
 40
1.0
 40
1.0
 40
1.0
 10
151.8258772870000257
 20
153.3085570270000346
 30
0.0
 10
150.6397379080000292
 20
155.3843013080000333
 30
0.0
 10
141.1242772660000071
 20
156.2878351090000137
 30
0.0
 10
135.2199215680000179
 20
156.2739032680000264
 30
0.0
  0
SPLINE
  5
4E
  8
0
 62
7
420
16777215
370
-1
  6
ByLayer
100
AcDbEntity
100
AcDbSpline
 70
8
 71
3
 72
8
 73
4
 74
0
 40
0.0
 40
0.0
 40
0.0
 40
0.0
 40
1.0
 40
1.0
 40
1.0
 40
1.0
 10
135.2199215680000179
 20
156.2739032680000264
 30
0.0
 10
130.1009489510000208
 20
156.2618219450000083
 30
0.0
 10
123.9515982030000174
 20
150.9362753270000042
 30
0.0
 10
119.5035722220000309
 20
146.7847867650000353
 30
0.0
  0
LWPOLYLINE
  5
4F
  8
0
 62
7
420
16777215
370
-1
  6
ByLayer
100
AcDbEntity
100
AcDbPolyline
 90
2
 70
0
 10
80.6574968950000084
 20
9.1925834970000189
 10
81.2505658489999973
 20
50.707472058999997
  0
SPLINE
  5
50
  8
0
 62
7
420
16777215
370
-1
  6
ByLayer
100
AcDbEntity
100
AcDbSpline
 70
8
 71
3
 72
8
 73
4
 74
0
 40
0.0
 40
0.0
 40
0.0
 40
0.0
 40
1.0
 40
1.0
 40
1.0
 40
1.0
 10
104.67682336499999
 20
121.5793209160000288
 30
0.0
 10
99.6357299009999906
 20
118.0209013080000204
 30
0.0
 10
96.966919608000012
 20
123.6550651970000416
 30
0.0
 10
96.966919608000012
 20
123.6550651970000416
 30
0.0
  0
LWPOLYLINE
  5
51
  8
0
 62
7
420
16777215
370
-1
  6
ByLayer
100
AcDbEntity
100
AcDbPolyline
 90
2
 70
0
 10
119.5035722220000309
 20
146.7847867650000353
 10
104.67682336499999
 20
121.5793209160000288
  0
SPLINE
  5
52
  8
0
 62
7
420
16777215
370
-1
  6
ByLayer
100
AcDbEntity
100
AcDbSpline
 70
8
 71
3
 72
8
 73
4
 74
0
 40
0.0
 40
0.0
 40
0.0
 40
0.0
 40
1.0
 40
1.0
 40
1.0
 40
1.0
 10
92.8154310460000147
 20
225.959611275000043
 30
0.0
 10
92.8154310460000147
 20
225.959611275000043
 30
0.0
 10
91.4003790600000059
 20
233.9660524510000243
 30
0.0
 10
83.029777124000006
 20
233.9660524510000243
 30
0.0
  0
SPLINE
  5
53
  8
0
 62
7
420
16777215
370
-1
  6
ByLayer
100
AcDbEntity
100
AcDbSpline
 70
8
 71
3
 72
8
 73
4
 74
0
 40
0.0
 40
0.0
 40
0.0
 40
0.0
 40
1.0
 40
1.0
 40
1.0
 40
1.0
 10
83.029777124000006
 20
233.9660524510000243
 30
0.0
 10
75.0182683530000105
 20
233.9660524510000243
 30
0.0
 10
74.1337310459999941
 20
226.5526816999999937
 30
0.0
 10
74.1337310459999941
 20
226.5526816999999937
 30
0.0
  0
LWPOLYLINE
  5
54
  8
0
 62
7
420
16777215
370
-1
  6
ByLayer
100
AcDbEntity
100
AcDbPolyline
 90
2
 70
0
 10
96.966919608000012
 20
123.6550651970000416
 10
92.8154310460000147
 20
225.959611275000043
  0
SPLINE
  5
55
  8
0
 62
7
420
16777215
370
-1
  6
ByLayer
100
AcDbEntity
100
AcDbSpline
 70
8
 71
3
 72
8
 73
4
 74
0
 40
0.0
 40
0.0
 40
0.0
 40
0.0
 40
1.0
 40
1.0
 40
1.0
 40
1.0
 10
66.1272854569999993
 20
241.0828916670000126
 30
0.0
 10
66.1272854569999993
 20
241.0828916670000126
 30
0.0
 10
64.3431036730000159
 20
249.0186704160000204
 30
0.0
 10
56.3416330060000163
 20
248.7928013080000369
 30
0.0
  0
SPLINE
  5
56
  8
0
 62
7
420
16777215
370
-1
  6
ByLayer
100
AcDbEntity
100
AcDbSpline
 70
8
 71
3
 72
8
 73
4
 74
0
 40
0.0
 40
0.0
 40
0.0
 40
0.0
 40
1.0
 40
1.0
 40
1.0
 40
1.0
 10
56.3416330060000163
 20
248.7928013080000369
 30
0.0
 10
48.490851579000001
 20
248.5711863320000248
 30
0.0
 10
47.4455854569999929
 20
240.7863557190000563
 30
0.0
 10
47.4455854569999929
 20
240.7863557190000563
 30
0.0
  0
LWPOLYLINE
  5
57
  8
0
 62
7
420
16777215
370
-1
  6
ByLayer
100
AcDbEntity
100
AcDbPolyline
 90
4
 70
0
 10
74.1337310459999941
 20
226.5526816999999937
 10
72.9475887250000028
 20
145.5986473860000103
 10
69.3891691170000087
 20
145.895180392000043
 10
66.1272854569999993
 20
241.0828916670000126
  0
SPLINE
  5
58
  8
0
 62
7
420
16777215
370
-1
  6
ByLayer
100
AcDbEntity
100
AcDbSpline
 70
8
 71
3
 72
8
 73
4
 74
0
 40
0.0
 40
0.0
 40
0.0
 40
0.0
 40
1.0
 40
1.0
 40
1.0
 40
1.0
 10
38.2530019599999989
 20
226.8492132350000361
 30
0.0
 10
38.2530019599999989
 20
226.8492132350000361
 30
0.0
 10
36.8039080920000004
 20
234.26436242500003
 30
0.0
 10
29.0604228760000112
 20
233.9660524510000243
 30
0.0
  0
SPLINE
  5
59
  8
0
 62
7
420
16777215
370
-1
  6
ByLayer
100
AcDbEntity
100
AcDbSpline
 70
8
 71
3
 72
8
 73
4
 74
0
 40
0.0
 40
0.0
 40
0.0
 40
0.0
 40
1.0
 40
1.0
 40
1.0
 40
1.0
 10
29.0604228760000112
 20
233.9660524510000243
 30
0.0
 10
21.1401705320000097
 20
233.6609346890000438
 30
0.0
 10
19.5713019600000138
 20
226.2561442810000472
 30
0.0
 10
19.5713019600000138
 20
226.2561442810000472
 30
0.0
  0
LWPOLYLINE
  5
5A
  8
0
 62
7
420
16777215
370
-1
  6
ByLayer
100
AcDbEntity
100
AcDbPolyline
 90
4
 70
0
 10
47.4455854569999929
 20
240.7863557190000563
 10
46.5559790840000076
 20
145.5986473860000103
 10
40.3287462410000046
 20
145.895180392000043
 10
38.2530019599999989
 20
226.8492132350000361
  0
SPLINE
  5
5B
  8
0
 62
7
420
16777215
370
-1
  6
ByLayer
100
AcDbEntity
100
AcDbSpline
 70
8
 71
3
 72
8
 73
4
 74
0
 40
0.0
 40
0.0
 40
0.0
 40
0.0
 40
1.0
 40
1.0
 40
1.0
 40
1.0
 10
11.861398203000002
 20
199.8645361110000351
 30
0.0
 10
11.861398203000002
 20
199.8645361110000351
 30
0.0
 10
9.6583315170000095
 20
207.5762624370000253
 30
0.0
 10
1.4826753270000081
 20
207.5744442810000123
 30
0.0
  0
SPLINE
  5
5C
  8
0
 62
7
420
16777215
370
-1
  6
ByLayer
100
AcDbEntity
100
AcDbSpline
 70
8
 71
3
 72
8
 73
4
 74
0
 40
0.0
 40
0.0
 40
0.0
 40
0.0
 40
1.0
 40
1.0
 40
1.0
 40
1.0
 10
1.4826753270000081
 20
207.5744442810000123
 30
0.0
 10
-5.9481238319999949
 20
207.5727835220000088
 30
0.0
 10
-8.3029771239999999
 20
198.3818651970000246
 30
0.0
 10
-8.3029771239999999
 20
198.3818651970000246
 30
0.0
  0
LWPOLYLINE
  5
5D
  8
0
 62
7
420
16777215
370
-1
  6
ByLayer
100
AcDbEntity
100
AcDbPolyline
 90
4
 70
0
 10
19.5713019600000138
 20
226.2561442810000472
 10
19.274768954000006
 20
146.4882537590000311
 10
14.2336740190000022
 20
146.1917178110000179
 10
11.861398203000002
 20
199.8645361110000351
  0
SPLINE
  5
5E
  8
0
 62
7
420
16777215
370
-1
  6
ByLayer
100
AcDbEntity
100
AcDbSpline
 70
8
 71
3
 72
8
 73
4
 74
0
 40
0.0
 40
0.0
 40
0.0
 40
0.0
 40
1.0
 40
1.0
 40
1.0
 40
1.0
 10
-9.4891209159999956
 20
84.5124524510000015
 30
0.0
 10
-8.3029815369999991
 20
76.8025442810000101
 30
0.0
 10
-4.2069364359999977
 20
68.7680143600000093
 30
0.0
 10
-1.4826753269999977
 20
63.4584722220000117
 30
0.0
  0
SPLINE
  5
5F
  8
0
 62
7
420
16777215
370
-1
  6
ByLayer
100
AcDbEntity
100
AcDbSpline
 70
8
 71
3
 72
8
 73
4
 74
0
 40
0.0
 40
0.0
 40
0.0
 40
0.0
 40
1.0
 40
1.0
 40
1.0
 40
1.0
 10
-1.4826753269999977
 20
63.4584722220000117
 30
0.0
 10
1.4238323850000061
 20
57.7937321270000197
 30
0.0
 10
7.7099081700000003
 20
53.0797537590000061
 30
0.0
 10
7.4133722220000102
 20
46.5559834970000068
 30
0.0
  0
LWPOLYLINE
  5
60
  8
0
 62
7
420
16777215
370
-1
  6
ByLayer
100
AcDbEntity
100
AcDbPolyline
 90
2
 70
0
 10
-8.3029771239999999
 20
198.3818651970000246
 10
-9.4891209159999956
 20
84.5124524510000015
  0
SPLINE
  5
61
  8
0
 62
7
420
16777215
370
-1
  6
ByLayer
100
AcDbEntity
100
AcDbSpline
 70
8
 71
3
 72
8
 73
4
 74
0
 40
0.0
 40
0.0
 40
0.0
 40
0.0
 40
1.0
 40
1.0
 40
1.0
 40
1.0
 10
7.4133722220000102
 20
9.1925834970000189
 30
0.0
 10
6.8203032679999982
 20
4.1514885620000159
 30
0.0
 10
-0.0
 20
0.0
 30
0.0
 10
-0.0
 20
0.0
 30
0.0
  0
LWPOLYLINE
  5
62
  8
0
 62
7
420
16777215
370
-1
  6
ByLayer
100
AcDbEntity
100
AcDbPolyline
 90
2
 70
0
 10
7.4133722220000102
 20
46.5559834970000068
 10
7.4133722220000102
 20
9.1925834970000189
  0
LWPOLYLINE
  5
63
  8
0
 62
7
420
16777215
370
-1
  6
ByLayer
100
AcDbEntity
100
AcDbPolyline
 90
2
 70
0
 10
-0.0
 20
0.0
 10
-0.0
 20
0.0
  0
INSERT
  5
64
100
AcDbEntity
100
AcDbBlockReference
  8
holes
 62
256
370
-1
  6
ByLayer
  2
hole
 10
28.1993672827744568
 20
227.6091787823938262
 30
0.0
 44
1.0
 45
1.0
  0
INSERT
  5
65
100
AcDbEntity
100
AcDbBlockReference
  8
holes
 62
256
370
-1
  6
ByLayer
  2
hole
 10
33.4363926352897138
 20
214.7180394531255274
 30
0.0
 44
1.0
 45
1.0
  0
INSERT
  5
66
100
AcDbEntity
100
AcDbBlockReference
  8
holes
 62
256
370
-1
  6
ByLayer
  2
hole
 10
24.1708862423781028
 20
214.5166154011056676
 30
0.0
 44
1.0
 45
1.0
  0
INSERT
  5
67
100
AcDbEntity
100
AcDbBlockReference
  8
holes
 62
256
370
-1
  6
ByLayer
  2
hole
 10
24.1708862423781028
 20
200.9204918897679875
 30
0.0
 44
1.0
 45
1.0
  0
INSERT
  5
68
100
AcDbEntity
100
AcDbBlockReference
  8
holes
 62
256
370
-1
  6
ByLayer
  2
hole
 10
33.8392407393293482
 20
200.2155077076986629
 30
0.0
 44
1.0
 45
1.0
  0
INSERT
  5
69
100
AcDbEntity
100
AcDbBlockReference
  8
holes
 62
256
370
-1
  6
ByLayer
  2
hole
 10
24.6744463724276493
 20
187.3243683784303073
 30
0.0
 44
1.0
 45
1.0
  0
INSERT
  5
6A
100
AcDbEntity
100
AcDbBlockReference
  8
holes
 62
256
370
-1
  6
ByLayer
  2
hole
 10
34.2420888433689825
 20
188.5329126905492387
 30
0.0
 44
1.0
 45
1.0
  0
INSERT
  5
6B
100
AcDbEntity
100
AcDbBlockReference
  8
holes
 62
256
370
-1
  6
ByLayer
  2
hole
 10
25.1780065024771922
 20
174.2318049971421772
 30
0.0
 44
1.0
 45
1.0
  0
INSERT
  5
6C
100
AcDbEntity
100
AcDbBlockReference
  8
holes
 62
256
370
-1
  6
ByLayer
  2
hole
 10
35.0477850514482583
 20
173.6275328410827399
 30
0.0
 44
1.0
 45
1.0
  0
INSERT
  5
6D
100
AcDbEntity
100
AcDbBlockReference
  8
holes
 62
256
370
-1
  6
ByLayer
  2
hole
 10
34.644936947408624
 20
159.1250010956558754
 30
0.0
 44
1.0
 45
1.0
  0
INSERT
  5
6E
100
AcDbEntity
100
AcDbBlockReference
  8
holes
 62
256
370
-1
  6
ByLayer
  2
hole
 10
25.1780065024771922
 20
159.628561225705397
 30
0.0
 44
1.0
 45
1.0
  0
INSERT
  5
6F
100
AcDbEntity
100
AcDbBlockReference
  8
holes
 62
256
370
-1
  6
ByLayer
  2
hole
 10
24.1708862423781028
 20
147.5431181045163385
 30
0.0
 44
1.0
 45
1.0
  0
INSERT
  5
70
100
AcDbEntity
100
AcDbBlockReference
  8
holes
 62
256
370
-1
  6
ByLayer
  2
hole
 10
35.0477850514482583
 20
147.0395579744668169
 30
0.0
 44
1.0
 45
1.0
  0
INSERT
  5
71
100
AcDbEntity
100
AcDbBlockReference
  8
holes
 62
256
370
-1
  6
ByLayer
  2
hole
 10
55.8951744354993636
 20
244.2266630740287781
 30
0.0
 44
1.0
 45
1.0
  0
INSERT
  5
72
100
AcDbEntity
100
AcDbBlockReference
  8
holes
 62
256
370
-1
  6
ByLayer
  2
hole
 10
51.9674054211129288
 20
234.054748447028004
 30
0.0
 44
1.0
 45
1.0
  0
INSERT
  5
73
100
AcDbEntity
100
AcDbBlockReference
  8
holes
 62
256
370
-1
  6
ByLayer
  2
hole
 10
62.0386080221038085
 20
234.054748447028004
 30
0.0
 44
1.0
 45
1.0
  0
INSERT
  5
74
100
AcDbEntity
100
AcDbBlockReference
  8
holes
 62
256
370
-1
  6
ByLayer
  2
hole
 10
51.9674054211129288
 20
220.3579129096804081
 30
0.0
 44
1.0
 45
1.0
  0
INSERT
  5
75
100
AcDbEntity
100
AcDbBlockReference
  8
holes
 62
256
370
-1
  6
ByLayer
  2
hole
 10
62.4414561261434429
 20
221.5664572217993111
 30
0.0
 44
1.0
 45
1.0
  0
INSERT
  5
76
100
AcDbEntity
100
AcDbBlockReference
  8
holes
 62
256
370
-1
  6
ByLayer
  2
hole
 10
51.5645573170732945
 20
208.2724697884913496
 30
0.0
 44
1.0
 45
1.0
  0
INSERT
  5
77
100
AcDbEntity
100
AcDbBlockReference
  8
holes
 62
256
370
-1
  6
ByLayer
  2
hole
 10
62.8443042301830772
 20
209.0781659965706183
 30
0.0
 44
1.0
 45
1.0
  0
INSERT
  5
78
100
AcDbEntity
100
AcDbBlockReference
  8
holes
 62
256
370
-1
  6
ByLayer
  2
hole
 10
62.8443042301830772
 20
196.9927228753815882
 30
0.0
 44
1.0
 45
1.0
  0
INSERT
  5
79
100
AcDbEntity
100
AcDbBlockReference
  8
holes
 62
256
370
-1
  6
ByLayer
  2
hole
 10
51.9674054211129288
 20
197.3955709794212225
 30
0.0
 44
1.0
 45
1.0
  0
INSERT
  5
7A
100
AcDbEntity
100
AcDbBlockReference
  8
holes
 62
256
370
-1
  6
ByLayer
  2
hole
 10
52.3702535251525703
 20
183.2958873380339924
 30
0.0
 44
1.0
 45
1.0
  0
INSERT
  5
7B
100
AcDbEntity
100
AcDbBlockReference
  8
holes
 62
256
370
-1
  6
ByLayer
  2
hole
 10
63.2471523342227187
 20
183.6987354420736267
 30
0.0
 44
1.0
 45
1.0
  0
INSERT
  5
7C
100
AcDbEntity
100
AcDbBlockReference
  8
holes
 62
256
370
-1
  6
ByLayer
  2
hole
 10
63.2471523342227187
 20
170.8075961128052995
 30
0.0
 44
1.0
 45
1.0
  0
INSERT
  5
7D
100
AcDbEntity
100
AcDbBlockReference
  8
holes
 62
256
370
-1
  6
ByLayer
  2
hole
 10
51.5645573170732945
 20
159.1250010956558754
 30
0.0
 44
1.0
 45
1.0
  0
INSERT
  5
7E
100
AcDbEntity
100
AcDbBlockReference
  8
holes
 62
256
370
-1
  6
ByLayer
  2
hole
 10
51.9674054211129288
 20
170.8075961128052995
 30
0.0
 44
1.0
 45
1.0
  0
INSERT
  5
7F
100
AcDbEntity
100
AcDbBlockReference
  8
holes
 62
256
370
-1
  6
ByLayer
  2
hole
 10
63.650000438262353
 20
158.3193048875766067
 30
0.0
 44
1.0
 45
1.0
  0
INSERT
  5
80
100
AcDbEntity
100
AcDbBlockReference
  8
holes
 62
256
370
-1
  6
ByLayer
  2
hole
 10
51.5645573170732945
 20
146.2338617663875482
 30
0.0
 44
1.0
 45
1.0
  0
INSERT
  5
81
100
AcDbEntity
100
AcDbBlockReference
  8
holes
 62
256
370
-1
  6
ByLayer
  2
hole
 10
63.650000438262353
 20
146.2338617663875482
 30
0.0
 44
1.0
 45
1.0
  0
INSERT
  5
82
100
AcDbEntity
100
AcDbBlockReference
  8
holes
 62
256
370
-1
  6
ByLayer
  2
hole
 10
83.087421458174731
 20
228.1127389124433478
 30
0.0
 44
1.0
 45
1.0
  0
INSERT
  5
83
100
AcDbEntity
100
AcDbBlockReference
  8
holes
 62
256
370
-1
  6
ByLayer
  2
hole
 10
78.1525321836892175
 20
215.9265837652444304
 30
0.0
 44
1.0
 45
1.0
  0
INSERT
  5
84
100
AcDbEntity
100
AcDbBlockReference
  8
holes
 62
256
370
-1
  6
ByLayer
  2
hole
 10
88.6265828887197245
 20
215.9265837652444304
 30
0.0
 44
1.0
 45
1.0
  0
INSERT
  5
85
100
AcDbEntity
100
AcDbBlockReference
  8
holes
 62
256
370
-1
  6
ByLayer
  2
hole
 10
78.5553802877288518
 20
201.8269001238572002
 30
0.0
 44
1.0
 45
1.0
  0
INSERT
  5
86
100
AcDbEntity
100
AcDbBlockReference
  8
holes
 62
256
370
-1
  6
ByLayer
  2
hole
 10
89.0294309927593588
 20
201.8269001238572002
 30
0.0
 44
1.0
 45
1.0
  0
INSERT
  5
87
100
AcDbEntity
100
AcDbBlockReference
  8
holes
 62
256
370
-1
  6
ByLayer
  2
hole
 10
78.5553802877288518
 20
188.5329126905492387
 30
0.0
 44
1.0
 45
1.0
  0
INSERT
  5
88
100
AcDbEntity
100
AcDbBlockReference
  8
holes
 62
256
370
-1
  6
ByLayer
  2
hole
 10
89.4322790967989931
 20
187.7272164824699701
 30
0.0
 44
1.0
 45
1.0
  0
INSERT
  5
89
100
AcDbEntity
100
AcDbBlockReference
  8
holes
 62
256
370
-1
  6
ByLayer
  2
hole
 10
78.9582283917684862
 20
173.6275328410827399
 30
0.0
 44
1.0
 45
1.0
  0
INSERT
  5
8A
100
AcDbEntity
100
AcDbBlockReference
  8
holes
 62
256
370
-1
  6
ByLayer
  2
hole
 10
89.8351272008386275
 20
173.6275328410827399
 30
0.0
 44
1.0
 45
1.0
  0
INSERT
  5
8B
100
AcDbEntity
100
AcDbBlockReference
  8
holes
 62
256
370
-1
  6
ByLayer
  2
hole
 10
78.9582283917684862
 20
160.3335454077747784
 30
0.0
 44
1.0
 45
1.0
  0
INSERT
  5
8C
100
AcDbEntity
100
AcDbBlockReference
  8
holes
 62
256
370
-1
  6
ByLayer
  2
hole
 10
90.237975304878276
 20
160.7363935118144127
 30
0.0
 44
1.0
 45
1.0
  0
INSERT
  5
8D
100
AcDbEntity
100
AcDbBlockReference
  8
holes
 62
256
370
-1
  6
ByLayer
  2
hole
 10
78.9582283917684862
 20
145.8310136623479139
 30
0.0
 44
1.0
 45
1.0
  0
INSERT
  5
8E
100
AcDbEntity
100
AcDbBlockReference
  8
holes
 62
256
370
-1
  6
ByLayer
  2
hole
 10
90.6408234089179103
 20
146.6367098704271825
 30
0.0
 44
1.0
 45
1.0
  0
INSERT
  5
8F
100
AcDbEntity
100
AcDbBlockReference
  8
holes
 62
256
370
-1
  6
ByLayer
  2
hole
 10
1.0071202600990876
 20
200.9204918897679875
 30
0.0
 44
1.0
 45
1.0
  0
INSERT
  5
90
100
AcDbEntity
100
AcDbBlockReference
  8
holes
 62
256
370
-1
  6
ByLayer
  2
hole
 10
-3.5249209103468071
 20
190.8492892887771291
 30
0.0
 44
1.0
 45
1.0
  0
INSERT
  5
91
100
AcDbEntity
100
AcDbBlockReference
  8
holes
 62
256
370
-1
  6
ByLayer
  2
hole
 10
6.0427215605945257
 20
190.8279285084798573
 30
0.0
 44
1.0
 45
1.0
  0
INSERT
  5
92
100
AcDbEntity
100
AcDbBlockReference
  8
holes
 62
256
370
-1
  6
ByLayer
  2
hole
 10
-4.0284810403963505
 20
178.7638461675880706
 30
0.0
 44
1.0
 45
1.0
  0
INSERT
  5
93
100
AcDbEntity
100
AcDbBlockReference
  8
holes
 62
256
370
-1
  6
ByLayer
  2
hole
 10
6.0427215605945257
 20
178.2602860375385205
 30
0.0
 44
1.0
 45
1.0
  0
INSERT
  5
94
100
AcDbEntity
100
AcDbBlockReference
  8
holes
 62
256
370
-1
  6
ByLayer
  2
hole
 10
-4.0284810403963505
 20
164.1606023961512903
 30
0.0
 44
1.0
 45
1.0
  0
INSERT
  5
95
100
AcDbEntity
100
AcDbBlockReference
  8
holes
 62
256
370
-1
  6
ByLayer
  2
hole
 10
6.5462816906440704
 20
164.6641625262008404
 30
0.0
 44
1.0
 45
1.0
  0
INSERT
  5
96
100
AcDbEntity
100
AcDbBlockReference
  8
holes
 62
256
370
-1
  6
ByLayer
  2
hole
 10
8.5605222108422456
 20
149.0537984946649885
 30
0.0
 44
1.0
 45
1.0
  0
INSERT
  5
97
100
AcDbEntity
100
AcDbBlockReference
  8
holes
 62
256
370
-1
  6
ByLayer
  2
hole
 10
-3.5249209103468071
 20
148.5502383646154385
 30
0.0
 44
1.0
 45
1.0
  0
INSERT
  5
98
100
AcDbEntity
100
AcDbBlockReference
  8
holes
 62
256
370
-1
  6
ByLayer
  2
hole
 10
-3.5249209103468075
 20
132.8125
 30
0.0
 44
1.0
 45
1.0
  0
INSERT
  5
99
100
AcDbEntity
100
AcDbBlockReference
  8
holes
 62
256
370
-1
  6
ByLayer
  2
hole
 10
12.5890032512385943
 20
132.8125
 30
0.0
 44
1.0
 45
1.0
  0
INSERT
  5
9A
100
AcDbEntity
100
AcDbBlockReference
  8
holes
 62
256
370
-1
  6
ByLayer
  2
hole
 10
25.1780065024771886
 20
132.8125
 30
0.0
 44
1.0
 45
1.0
  0
INSERT
  5
9B
100
AcDbEntity
100
AcDbBlockReference
  8
holes
 62
256
370
-1
  6
ByLayer
  2
hole
 10
42.2990509241617048
 20
132.8125
 30
0.0
 44
1.0
 45
1.0
  0
INSERT
  5
9C
100
AcDbEntity
100
AcDbBlockReference
  8
holes
 62
256
370
-1
  6
ByLayer
  2
hole
 10
58.916535215796614
 20
132.8125
 30
0.0
 44
1.0
 45
1.0
  0
INSERT
  5
9D
100
AcDbEntity
100
AcDbBlockReference
  8
holes
 62
256
370
-1
  6
ByLayer
  2
hole
 10
75.0304593773820301
 20
132.8125
 30
0.0
 44
1.0
 45
1.0
  0
INSERT
  5
9E
100
AcDbEntity
100
AcDbBlockReference
  8
holes
 62
256
370
-1
  6
ByLayer
  2
hole
 10
90.6408234089178961
 20
132.8125
 30
0.0
 44
1.0
 45
1.0
  0
INSERT
  5
9F
100
AcDbEntity
100
AcDbBlockReference
  8
holes
 62
256
370
-1
  6
ByLayer
  2
hole
 10
115.2145577553356475
 20
132.5370262290399523
 30
0.0
 44
1.0
 45
1.0
  0
INSERT
  5
A0
100
AcDbEntity
100
AcDbBlockReference
  8
holes
 62
256
370
-1
  6
ByLayer
  2
hole
 10
122.4658236280490797
 20
143.8167731421497422
 30
0.0
 44
1.0
 45
1.0
  0
INSERT
  5
A1
100
AcDbEntity
100
AcDbBlockReference
  8
holes
 62
256
370
-1
  6
ByLayer
  2
hole
 10
133.7455705411588553
 20
151.4708871189027946
 30
0.0
 44
1.0
 45
1.0
  0
INSERT
  5
A2
100
AcDbEntity
100
AcDbBlockReference
  8
holes
 62
256
370
-1
  6
ByLayer
  2
hole
 10
145.4281655583082795
 20
151.0680390148631602
 30
0.0
 44
1.0
 45
1.0
  0
INSERT
  5
A3
100
AcDbEntity
100
AcDbBlockReference
  8
holes
 62
256
370
-1
  6
ByLayer
  2
hole
 10
139.7882921017533988
 20
140.5939883098326675
 30
0.0
 44
1.0
 45
1.0
  0
INSERT
  5
A4
100
AcDbEntity
100
AcDbBlockReference
  8
holes
 62
256
370
-1
  6
ByLayer
  2
hole
 10
130.1199376048021463
 20
137.7740515815552271
 30
0.0
 44
1.0
 45
1.0
  0
INSERT
  5
A5
100
AcDbEntity
100
AcDbBlockReference
  8
holes
 62
256
370
-1
  6
ByLayer
  2
hole
 10
132.5370262290399523
 20
127.300000876524706
 30
0.0
 44
1.0
 45
1.0
  0
INSERT
  5
A6
100
AcDbEntity
100
AcDbBlockReference
  8
holes
 62
256
370
-1
  6
ByLayer
  2
hole
 10
118.0344944836130878
 20
122.8686717320887141
 30
0.0
 44
1.0
 45
1.0
  0
INSERT
  5
A7
100
AcDbEntity
100
AcDbBlockReference
  8
holes
 62
256
370
-1
  6
ByLayer
  2
hole
 10
125.890032512386
 20
117.1875
 30
0.0
 44
1.0
 45
1.0
  0
INSERT
  5
A8
100
AcDbEntity
100
AcDbBlockReference
  8
holes
 62
256
370
-1
  6
ByLayer
  2
hole
 10
115.8188299113951132
 20
101.5625
 30
0.0
 44
1.0
 45
1.0
  0
INSERT
  5
A9
100
AcDbEntity
100
AcDbBlockReference
  8
holes
 62
256
370
-1
  6
ByLayer
  2
hole
 10
101.2155861399583046
 20
117.1875
 30
0.0
 44
1.0
 45
1.0
  0
INSERT
  5
AA
100
AcDbEntity
100
AcDbBlockReference
  8
holes
 62
256
370
-1
  6
ByLayer
  2
hole
 10
83.087421458174731
 20
117.1875
 30
0.0
 44
1.0
 45
1.0
  0
INSERT
  5
AB
100
AcDbEntity
100
AcDbBlockReference
  8
holes
 62
256
370
-1
  6
ByLayer
  2
hole
 10
66.4699371665397933
 20
117.1875
 30
0.0
 44
1.0
 45
1.0
  0
INSERT
  5
AC
100
AcDbEntity
100
AcDbBlockReference
  8
holes
 62
256
370
-1
  6
ByLayer
  2
hole
 10
52.3702535251525632
 20
117.1875
 30
0.0
 44
1.0
 45
1.0
  0
INSERT
  5
AD
100
AcDbEntity
100
AcDbBlockReference
  8
holes
 62
256
370
-1
  6
ByLayer
  2
hole
 10
36.7598894936166829
 20
117.1875
 30
0.0
 44
1.0
 45
1.0
  0
INSERT
  5
AE
100
AcDbEntity
100
AcDbBlockReference
  8
holes
 62
256
370
-1
  6
ByLayer
  2
hole
 10
22.6602058522294669
 20
117.1875
 30
0.0
 44
1.0
 45
1.0
  0
INSERT
  5
AF
100
AcDbEntity
100
AcDbBlockReference
  8
holes
 62
256
370
-1
  6
ByLayer
  2
hole
 10
9.5676424709413439
 20
117.1875
 30
0.0
 44
1.0
 45
1.0
  0
INSERT
  5
B0
100
AcDbEntity
100
AcDbBlockReference
  8
holes
 62
256
370
-1
  6
ByLayer
  2
hole
 10
-4.5320411704458934
 20
117.1875
 30
0.0
 44
1.0
 45
1.0
  0
INSERT
  5
B1
100
AcDbEntity
100
AcDbBlockReference
  8
holes
 62
256
370
-1
  6
ByLayer
  2
hole
 10
-5.0356013004954363
 20
101.5625
 30
0.0
 44
1.0
 45
1.0
  0
INSERT
  5
B2
100
AcDbEntity
100
AcDbBlockReference
  8
holes
 62
256
370
-1
  6
ByLayer
  2
hole
 10
9.5676424709413439
 20
101.5625
 30
0.0
 44
1.0
 45
1.0
  0
INSERT
  5
B3
100
AcDbEntity
100
AcDbBlockReference
  8
holes
 62
256
370
-1
  6
ByLayer
  2
hole
 10
23.6673261123285528
 20
101.5625
 30
0.0
 44
1.0
 45
1.0
  0
INSERT
  5
B4
100
AcDbEntity
100
AcDbBlockReference
  8
holes
 62
256
370
-1
  6
ByLayer
  2
hole
 10
37.2634496236662613
 20
101.5625
 30
0.0
 44
1.0
 45
1.0
  0
INSERT
  5
B5
100
AcDbEntity
100
AcDbBlockReference
  8
holes
 62
256
370
-1
  6
ByLayer
  2
hole
 10
51.3631332650534773
 20
101.5625
 30
0.0
 44
1.0
 45
1.0
  0
INSERT
  5
B6
100
AcDbEntity
100
AcDbBlockReference
  8
holes
 62
256
370
-1
  6
ByLayer
  2
hole
 10
63.4485763862425216
 20
101.5625
 30
0.0
 44
1.0
 45
1.0
  0
INSERT
  5
B7
100
AcDbEntity
100
AcDbBlockReference
  8
holes
 62
256
370
-1
  6
ByLayer
  2
hole
 10
77.5482600276297518
 20
101.5625
 30
0.0
 44
1.0
 45
1.0
  0
INSERT
  5
B8
100
AcDbEntity
100
AcDbBlockReference
  8
holes
 62
256
370
-1
  6
ByLayer
  2
hole
 10
94.1657443192647179
 20
101.5625
 30
0.0
 44
1.0
 45
1.0
  0
INSERT
  5
B9
100
AcDbEntity
100
AcDbBlockReference
  8
holes
 62
256
370
-1
  6
ByLayer
  2
hole
 10
100.2084658798592045
 20
85.9375
 30
0.0
 44
1.0
 45
1.0
  0
INSERT
  5
BA
100
AcDbEntity
100
AcDbBlockReference
  8
holes
 62
256
370
-1
  6
ByLayer
  2
hole
 10
82.583861328125181
 20
85.9375
 30
0.0
 44
1.0
 45
1.0
  0
INSERT
  5
BB
100
AcDbEntity
100
AcDbBlockReference
  8
holes
 62
256
370
-1
  6
ByLayer
  2
hole
 10
69.9948580768866009
 20
85.9375
 30
0.0
 44
1.0
 45
1.0
  0
INSERT
  5
BC
100
AcDbEntity
100
AcDbBlockReference
  8
holes
 62
256
370
-1
  6
ByLayer
  2
hole
 10
55.3916143054498349
 20
85.9375
 30
0.0
 44
1.0
 45
1.0
  0
INSERT
  5
BD
100
AcDbEntity
100
AcDbBlockReference
  8
holes
 62
256
370
-1
  6
ByLayer
  2
hole
 10
38.270569883765333
 20
85.9375
 30
0.0
 44
1.0
 45
1.0
  0
INSERT
  5
BE
100
AcDbEntity
100
AcDbBlockReference
  8
holes
 62
256
370
-1
  6
ByLayer
  2
hole
 10
24.1708862423781028
 20
85.9375
 30
0.0
 44
1.0
 45
1.0
  0
INSERT
  5
BF
100
AcDbEntity
100
AcDbBlockReference
  8
holes
 62
256
370
-1
  6
ByLayer
  2
hole
 10
9.5676424709413439
 20
85.9375
 30
0.0
 44
1.0
 45
1.0
  0
INSERT
  5
C0
100
AcDbEntity
100
AcDbBlockReference
  8
holes
 62
256
370
-1
  6
ByLayer
  2
hole
 10
-4.5320411704458934
 20
85.9375
 30
0.0
 44
1.0
 45
1.0
  0
INSERT
  5
C1
100
AcDbEntity
100
AcDbBlockReference
  8
holes
 62
256
370
-1
  6
ByLayer
  2
hole
 10
2.5178006502477217
 20
70.3125
 30
0.0
 44
1.0
 45
1.0
  0
INSERT
  5
C2
100
AcDbEntity
100
AcDbBlockReference
  8
holes
 62
256
370
-1
  6
ByLayer
  2
hole
 10
18.1281646817835735
 20
70.3125
 30
0.0
 44
1.0
 45
1.0
  0
INSERT
  5
C3
100
AcDbEntity
100
AcDbBlockReference
  8
holes
 62
256
370
-1
  6
ByLayer
  2
hole
 10
32.7314084532203537
 20
70.3125
 30
0.0
 44
1.0
 45
1.0
  0
INSERT
  5
C4
100
AcDbEntity
100
AcDbBlockReference
  8
holes
 62
256
370
-1
  6
ByLayer
  2
hole
 10
47.8382123547066556
 20
70.3125
 30
0.0
 44
1.0
 45
1.0
  0
INSERT
  5
C5
100
AcDbEntity
100
AcDbBlockReference
  8
holes
 62
256
370
-1
  6
ByLayer
  2
hole
 10
62.4414561261434358
 20
70.3125
 30
0.0
 44
1.0
 45
1.0
  0
INSERT
  5
C6
100
AcDbEntity
100
AcDbBlockReference
  8
holes
 62
256
370
-1
  6
ByLayer
  2
hole
 10
76.5411397675306659
 20
70.3125
 30
0.0
 44
1.0
 45
1.0
  0
INSERT
  5
C7
100
AcDbEntity
100
AcDbBlockReference
  8
holes
 62
256
370
-1
  6
ByLayer
  2
hole
 10
88.626582888719696
 20
70.3125
 30
0.0
 44
1.0
 45
1.0
  0
INSERT
  5
C8
100
AcDbEntity
100
AcDbBlockReference
  8
holes
 62
256
370
-1
  6
ByLayer
  2
hole
 10
78.0518201576792876
 20
54.6875
 30
0.0
 44
1.0
 45
1.0
  0
INSERT
  5
C9
100
AcDbEntity
100
AcDbBlockReference
  8
holes
 62
256
370
-1
  6
ByLayer
  2
hole
 10
66.4699371665397933
 20
54.6875
 30
0.0
 44
1.0
 45
1.0
  0
INSERT
  5
CA
100
AcDbEntity
100
AcDbBlockReference
  8
holes
 62
256
370
-1
  6
ByLayer
  2
hole
 10
53.880933915301199
 20
54.6875
 30
0.0
 44
1.0
 45
1.0
  0
INSERT
  5
CB
100
AcDbEntity
100
AcDbBlockReference
  8
holes
 62
256
370
-1
  6
ByLayer
  2
hole
 10
39.2776901438644046
 20
54.6875
 30
0.0
 44
1.0
 45
1.0
  0
INSERT
  5
CC
100
AcDbEntity
100
AcDbBlockReference
  8
holes
 62
256
370
-1
  6
ByLayer
  2
hole
 10
25.1780065024771886
 20
54.6875
 30
0.0
 44
1.0
 45
1.0
  0
INSERT
  5
CD
100
AcDbEntity
100
AcDbBlockReference
  8
holes
 62
256
370
-1
  6
ByLayer
  2
hole
 10
10.5747627310404155
 20
54.6875
 30
0.0
 44
1.0
 45
1.0
  0
INSERT
  5
CE
100
AcDbEntity
100
AcDbBlockReference
  8
holes
 62
256
370
-1
  6
ByLayer
  2
hole
 10
16.1139241615854019
 20
39.0625
 30
0.0
 44
1.0
 45
1.0
  0
INSERT
  5
CF
100
AcDbEntity
100
AcDbBlockReference
  8
holes
 62
256
370
-1
  6
ByLayer
  2
hole
 10
31.2207280630717179
 20
39.0625
 30
0.0
 44
1.0
 45
1.0
  0
INSERT
  5
D0
100
AcDbEntity
100
AcDbBlockReference
  8
holes
 62
256
370
-1
  6
ByLayer
  2
hole
 10
46.3275319645580339
 20
39.0625
 30
0.0
 44
1.0
 45
1.0
  0
INSERT
  5
D1
100
AcDbEntity
100
AcDbBlockReference
  8
holes
 62
256
370
-1
  6
ByLayer
  2
hole
 10
60.4272156059452783
 20
39.0625
 30
0.0
 44
1.0
 45
1.0
  0
INSERT
  5
D2
100
AcDbEntity
100
AcDbBlockReference
  8
holes
 62
256
370
-1
  6
ByLayer
  2
hole
 10
74.0233391172829442
 20
39.0625
 30
0.0
 44
1.0
 45
1.0
  0
INSERT
  5
D3
100
AcDbEntity
100
AcDbBlockReference
  8
holes
 62
256
370
-1
  6
ByLayer
  2
hole
 10
74.5268992473324801
 20
23.4375
 30
0.0
 44
1.0
 45
1.0
  0
INSERT
  5
D4
100
AcDbEntity
100
AcDbBlockReference
  8
holes
 62
256
370
-1
  6
ByLayer
  2
hole
 10
74.0233391172829442
 20
7.8125
 30
0.0
 44
1.0
 45
1.0
  0
INSERT
  5
D5
100
AcDbEntity
100
AcDbBlockReference
  8
holes
 62
256
370
-1
  6
ByLayer
  2
hole
 10
59.9236554758957141
 20
7.8125
 30
0.0
 44
1.0
 45
1.0
  0
INSERT
  5
D6
100
AcDbEntity
100
AcDbBlockReference
  8
holes
 62
256
370
-1
  6
ByLayer
  2
hole
 10
60.9307757359948141
 20
23.4375
 30
0.0
 44
1.0
 45
1.0
  0
INSERT
  5
D7
100
AcDbEntity
100
AcDbBlockReference
  8
holes
 62
256
370
-1
  6
ByLayer
  2
hole
 10
45.8239718345084839
 20
23.4375
 30
0.0
 44
1.0
 45
1.0
  0
INSERT
  5
D8
100
AcDbEntity
100
AcDbBlockReference
  8
holes
 62
256
370
-1
  6
ByLayer
  2
hole
 10
45.3204117044589481
 20
7.8125
 30
0.0
 44
1.0
 45
1.0
  0
INSERT
  5
D9
100
AcDbEntity
100
AcDbBlockReference
  8
holes
 62
256
370
-1
  6
ByLayer
  2
hole
 10
30.213607802972632
 20
7.8125
 30
0.0
 44
1.0
 45
1.0
  0
INSERT
  5
DA
100
AcDbEntity
100
AcDbBlockReference
  8
holes
 62
256
370
-1
  6
ByLayer
  2
hole
 10
30.7171679330221821
 20
23.4375
 30
0.0
 44
1.0
 45
1.0
  0
INSERT
  5
DB
100
AcDbEntity
100
AcDbBlockReference
  8
holes
 62
256
370
-1
  6
ByLayer
  2
hole
 10
16.1139241615854019
 20
23.4375
 30
0.0
 44
1.0
 45
1.0
  0
INSERT
  5
DC
100
AcDbEntity
100
AcDbBlockReference
  8
holes
 62
256
370
-1
  6
ByLayer
  2
hole
 10
15.106803901486316
 20
7.8125
 30
0.0
 44
1.0
 45
1.0
  0
ENDSEC
  0
SECTION
  2
OBJECTS
  0
DICTIONARY
  5
C
100
AcDbDictionary
280
0
281
1
  3
ACAD_GROUP
350
D
  3
ACAD_LAYOUT
350
1A
  3
ACAD_MLINESTYLE
350
17
  3
ACAD_PLOTSETTINGS
350
19
  3
ACAD_PLOTSTYLENAME
350
E
  3
AcDbVariableDictionary
350
DD
  0
DICTIONARY
  5
D
100
AcDbDictionary
280
0
281
1
  0
ACDBDICTIONARYWDFLT
  5
E
100
AcDbDictionary
281
1
  3
Normal
350
F
100
AcDbDictionaryWithDefault
340
F
  0
ACDBPLACEHOLDER
  5
F
  0
DICTIONARY
  5
17
100
AcDbDictionary
280
0
281
1
  3
Standard
350
18
  0
MLINESTYLE
  5
18
100
AcDbMlineStyle
  2
STANDARD
 70
0
  3

 62
256
 51
90.0
 52
90.0
 71
2
 49
0.5
 62
256
  6
BYLAYER
 49
-0.5
 62
256
  6
BYLAYER
  0
DICTIONARY
  5
19
100
AcDbDictionary
280
0
281
1
  0
DICTIONARY
  5
1A
100
AcDbDictionary
281
1
  3
Layout1
350
1E
  3
Layout2
350
26
  3
Model
350
22
  0
LAYOUT
  5
1E
100
AcDbPlotSettings
  1

  2
C:\Program Files\AutoCAD 2002\plotters\DWF ePlot (optimized for plotting).pc3
  4

  6

 40
0.0
 41
0.0
 42
0.0
 43
0.0
 44
0.0
 45
0.0
 46
0.0
 47
0.0
 48
0.0
 49
0.0
140
0.0
141
0.0
142
1.0
143
1.0
 70
688
 72
0
 73
0
 74
5
  7

 75
16
147
1.0
148
0.0
149
0.0
100
AcDbLayout
  1
Layout1
 70
1
 71
1
 10
0.0
 20
0.0
 11
420.0
 21
297.0
 12
0.0
 22
0.0
 32
0.0
 14
100000000000000000000.0
 24
100000000000000000000.0
 34
100000000000000000000.0
 15
-100000000000000000000.0
 25
-100000000000000000000.0
 35
-100000000000000000000.0
146
0.0
 13
0.0
 23
0.0
 33
0.0
 16
1.0
 26
0.0
 36
0.0
 17
0.0
 27
1.0
 37
0.0
 76
0
330
1B
  0
LAYOUT
  5
22
100
AcDbPlotSettings
  1

  2
C:\Program Files\AutoCAD 2002\plotters\DWF ePlot (optimized for plotting).pc3
  4

  6

 40
0.0
 41
0.0
 42
0.0
 43
0.0
 44
0.0
 45
0.0
 46
0.0
 47
0.0
 48
0.0
 49
0.0
140
0.0
141
0.0
142
1.0
143
1.0
 70
1712
 72
0
 73
0
 74
0
  7

 75
0
147
1.0
148
0.0
149
0.0
100
AcDbLayout
  1
Model
 70
1
 71
0
 10
0.0
 20
0.0
 11
12.0
 21
9.0
 12
0.0
 22
0.0
 32
0.0
 14
0.0
 24
0.0
 34
0.0
 15
0.0
 25
0.0
 35
0.0
146
0.0
 13
0.0
 23
0.0
 33
0.0
 16
1.0
 26
0.0
 36
0.0
 17
0.0
 27
1.0
 37
0.0
 76
0
330
1F
  0
LAYOUT
  5
26
100
AcDbPlotSettings
  1

  2
C:\Program Files\AutoCAD 2002\plotters\DWF ePlot (optimized for plotting).pc3
  4

  6

 40
0.0
 41
0.0
 42
0.0
 43
0.0
 44
0.0
 45
0.0
 46
0.0
 47
0.0
 48
0.0
 49
0.0
140
0.0
141
0.0
142
1.0
143
1.0
 70
688
 72
0
 73
0
 74
5
  7

 75
16
147
1.0
148
0.0
149
0.0
100
AcDbLayout
  1
Layout2
 70
1
 71
2
 10
0.0
 20
0.0
 11
12.0
 21
9.0
 12
0.0
 22
0.0
 32
0.0
 14
0.0
 24
0.0
 34
0.0
 15
0.0
 25
0.0
 35
0.0
146
0.0
 13
0.0
 23
0.0
 33
0.0
 16
1.0
 26
0.0
 36
0.0
 17
0.0
 27
1.0
 37
0.0
 76
0
330
23
  0
DICTIONARY
  5
DD
100
AcDbDictionary
281
1
  3
DIMASSOC
350
DF
  3
HIDETEXT
350
DE
  0
DICTIONARYVAR
  5
DE
100
DictionaryVariables
280
0
  1
2
  0
DICTIONARYVAR
  5
DF
100
DictionaryVariables
280
0
  1
1
  0
ENDSEC
  0
EOF
