G75*
G70*
%OFA0B0*%
%FSLAX24Y24*%
%IPPOS*%
%LPD*%
%AMOC8*
5,1,8,0,0,1.08239X$1,22.5*
%
%ADD10C,0.0000*%
%ADD11C,0.0740*%
%ADD12C,0.0560*%
%ADD13R,0.0740X0.0740*%
%ADD14OC8,0.0740*%
%ADD15C,0.0673*%
%ADD16R,0.0650X0.0650*%
%ADD17C,0.0650*%
%ADD18C,0.0080*%
%ADD19C,0.0400*%
%ADD20C,0.0240*%
D10*
X000191Y000121D02*
X000191Y018026D01*
X027691Y018026D01*
X027691Y000121D01*
X000191Y000121D01*
D11*
X001892Y001979D03*
X002892Y001979D03*
X003892Y001979D03*
X005113Y001971D03*
X006113Y001971D03*
X007113Y001971D03*
X008341Y001979D03*
X009341Y001979D03*
X010341Y001979D03*
X011341Y001979D03*
X012341Y001979D03*
X013341Y001979D03*
X014341Y001979D03*
X015341Y001979D03*
X016341Y001979D03*
X020361Y002023D03*
X021361Y002023D03*
X022361Y002023D03*
X023361Y002023D03*
X024361Y002023D03*
X025361Y002023D03*
X026361Y002023D03*
X027121Y006200D03*
X024121Y006200D03*
X023132Y006204D03*
X020132Y006204D03*
X019227Y006204D03*
X016227Y006204D03*
X015270Y006215D03*
X012270Y006215D03*
X006814Y006975D03*
X006814Y007975D03*
X006814Y008975D03*
X012365Y010278D03*
X015365Y010278D03*
X016270Y010278D03*
X019270Y010278D03*
X020219Y010274D03*
X023219Y010274D03*
X024144Y010274D03*
X027144Y010274D03*
X014144Y013558D03*
X014144Y016558D03*
D12*
X012227Y016503D02*
X011667Y016503D01*
X011667Y015503D02*
X012227Y015503D01*
X012227Y014503D02*
X011667Y014503D01*
X011667Y013503D02*
X012227Y013503D01*
X009227Y013503D02*
X008667Y013503D01*
X008667Y014503D02*
X009227Y014503D01*
X009227Y015503D02*
X008667Y015503D01*
X008667Y016503D02*
X009227Y016503D01*
X004720Y016700D02*
X004160Y016700D01*
X004160Y015700D02*
X004720Y015700D01*
X004720Y014700D02*
X004160Y014700D01*
X004160Y013700D02*
X004720Y013700D01*
X004720Y012700D02*
X004160Y012700D01*
X004160Y011700D02*
X004720Y011700D01*
X004720Y010700D02*
X004160Y010700D01*
X004160Y009700D02*
X004720Y009700D01*
X004720Y008700D02*
X004160Y008700D01*
X004160Y007700D02*
X004720Y007700D01*
X004720Y006700D02*
X004160Y006700D01*
X004160Y005700D02*
X004720Y005700D01*
X004720Y004700D02*
X004160Y004700D01*
X004160Y003700D02*
X004720Y003700D01*
X001720Y003700D02*
X001160Y003700D01*
X001160Y004700D02*
X001720Y004700D01*
X001720Y005700D02*
X001160Y005700D01*
X001160Y006700D02*
X001720Y006700D01*
X001720Y007700D02*
X001160Y007700D01*
X001160Y008700D02*
X001720Y008700D01*
X001720Y009700D02*
X001160Y009700D01*
X001160Y010700D02*
X001720Y010700D01*
X001720Y011700D02*
X001160Y011700D01*
X001160Y012700D02*
X001720Y012700D01*
X001720Y013700D02*
X001160Y013700D01*
X001160Y014700D02*
X001720Y014700D01*
X001720Y015700D02*
X001160Y015700D01*
X001160Y016700D02*
X001720Y016700D01*
D13*
X000892Y001979D03*
X019361Y002023D03*
D14*
X010479Y007286D03*
X009479Y007286D03*
X009479Y008286D03*
X010479Y008286D03*
X010479Y009286D03*
X009479Y009286D03*
D15*
X008924Y011456D03*
X011924Y011456D03*
D16*
X006821Y010771D03*
D17*
X006821Y011771D03*
D18*
X007278Y011932D02*
X008459Y010751D01*
X008459Y009963D01*
X009247Y009176D01*
X009479Y009286D01*
X009247Y008782D02*
X011609Y008782D01*
X013184Y007208D01*
X013184Y006814D01*
X014365Y006420D02*
X014365Y003664D01*
X014758Y003271D01*
X016333Y003271D01*
X017121Y002483D01*
X015341Y001979D02*
X015152Y002089D01*
X013577Y003664D01*
X010821Y003664D01*
X010034Y003271D02*
X011215Y002089D01*
X011341Y001979D01*
X010341Y001979D02*
X010034Y002089D01*
X009640Y002483D01*
X009640Y003664D01*
X011609Y005633D01*
X011609Y007995D01*
X011215Y007601D02*
X011215Y006814D01*
X008853Y004452D01*
X007672Y004452D01*
X005310Y002089D01*
X005113Y001971D01*
X004916Y002089D01*
X003735Y003271D01*
X003735Y003664D01*
X001766Y005633D01*
X001440Y005700D01*
X001373Y004845D02*
X000585Y005633D01*
X000585Y006814D01*
X000979Y007208D01*
X004916Y007208D01*
X005310Y006814D01*
X005310Y005633D01*
X005703Y006026D02*
X005703Y008389D01*
X004916Y009176D01*
X004161Y009176D01*
X004122Y009178D01*
X004083Y009183D01*
X004044Y009192D01*
X004007Y009205D01*
X003971Y009221D01*
X003937Y009240D01*
X003904Y009262D01*
X003874Y009287D01*
X003846Y009315D01*
X003821Y009345D01*
X003799Y009378D01*
X003780Y009412D01*
X003764Y009448D01*
X003751Y009485D01*
X003742Y009524D01*
X003737Y009563D01*
X003735Y009602D01*
X003735Y011932D01*
X004129Y012326D01*
X004129Y012719D01*
X004440Y012700D01*
X004522Y013507D02*
X004440Y013700D01*
X004522Y013507D02*
X006097Y011932D01*
X006097Y010357D01*
X006884Y009570D01*
X007278Y009570D01*
X008459Y008389D01*
X008459Y006026D01*
X008853Y005633D02*
X007672Y005633D01*
X005310Y003271D01*
X005703Y002877D02*
X004916Y002877D01*
X005703Y002877D02*
X008066Y005239D01*
X009247Y005239D01*
X010428Y006420D01*
X010428Y007208D01*
X010479Y007286D01*
X010821Y007995D02*
X011215Y007601D01*
X010821Y007995D02*
X010821Y008389D01*
X010479Y008286D01*
X009247Y008782D02*
X007672Y010357D01*
X007672Y010751D01*
X008459Y011145D02*
X008853Y010751D01*
X009247Y010751D01*
X009640Y011145D01*
X009640Y011538D01*
X008924Y011456D02*
X008853Y011538D01*
X008459Y011145D02*
X008459Y012326D01*
X007672Y013113D01*
X007672Y014688D01*
X007278Y015082D02*
X009247Y015082D01*
X011215Y013113D01*
X011215Y009570D01*
X014365Y006420D01*
X015940Y009570D02*
X012003Y009570D01*
X011609Y009963D01*
X011924Y011456D02*
X012003Y011538D01*
X012003Y013507D01*
X011947Y013503D01*
X012003Y014294D02*
X011947Y014503D01*
X012003Y014688D01*
X012003Y015475D01*
X011947Y015503D01*
X011947Y016503D02*
X012003Y016656D01*
X013971Y016656D01*
X014144Y016558D01*
X014365Y017050D02*
X021451Y009963D01*
X021451Y003664D01*
X022278Y002837D01*
X024121Y006200D02*
X024207Y006420D01*
X023814Y006814D01*
X022632Y006814D01*
X021845Y007601D01*
X021845Y009963D01*
X014365Y017444D01*
X014365Y017050D02*
X008459Y017050D01*
X007278Y015869D01*
X007278Y015082D02*
X006884Y014688D01*
X006491Y014688D02*
X006491Y013113D01*
X007278Y012326D01*
X007278Y011932D01*
X007672Y012326D02*
X007278Y012719D01*
X007278Y014294D01*
X006491Y014688D02*
X004522Y016656D01*
X004440Y016700D01*
X004129Y017444D02*
X003341Y016656D01*
X001766Y016656D01*
X001440Y016700D01*
X004129Y017444D02*
X007278Y017444D01*
X007672Y017050D01*
X004916Y014294D02*
X003735Y014294D01*
X003341Y014688D01*
X001766Y014688D01*
X001440Y014700D01*
X004916Y014294D02*
X006097Y013113D01*
X008853Y013507D02*
X008947Y013503D01*
X010428Y013113D02*
X010428Y011538D01*
X009247Y010357D01*
X008853Y010357D01*
X008853Y007995D02*
X008853Y007208D01*
X009640Y006420D01*
X008066Y007208D02*
X004522Y003664D01*
X004440Y003700D01*
X003735Y002089D02*
X002947Y002089D01*
X002892Y001979D01*
X003735Y002089D02*
X003892Y001979D01*
X006097Y002089D02*
X006113Y001971D01*
X006097Y002089D02*
X006491Y002483D01*
X007672Y002483D01*
X007672Y001696D01*
X008066Y001302D01*
X008459Y001302D01*
X008066Y000908D02*
X007278Y001696D01*
X007113Y001971D01*
X007672Y002877D02*
X008459Y002089D01*
X008341Y001979D01*
X009341Y001979D02*
X009640Y002089D01*
X008066Y003664D01*
X007672Y004058D02*
X007672Y002877D01*
X007672Y004058D02*
X009247Y004058D01*
X012790Y003271D02*
X014365Y001696D01*
X014341Y001979D01*
X013341Y001979D02*
X013184Y001696D01*
X012003Y000515D01*
X007672Y000515D01*
X013577Y001302D02*
X013971Y000908D01*
X017121Y000908D01*
X020132Y006204D02*
X019877Y006420D01*
X019877Y007601D01*
X015546Y011932D01*
X013184Y011932D01*
X012790Y012326D02*
X018302Y012326D01*
X020270Y010357D01*
X020219Y010274D01*
X016333Y009963D02*
X016270Y010278D01*
X016333Y009963D02*
X015940Y009570D01*
X014144Y013558D02*
X013971Y013900D01*
X013577Y014294D01*
X012003Y014294D01*
X006398Y007975D02*
X004671Y009702D01*
X004667Y009702D01*
X004633Y009669D01*
X004471Y009669D01*
X004440Y009700D01*
X006398Y007975D02*
X006814Y007975D01*
X001373Y004845D02*
X001440Y004700D01*
D19*
X004916Y002877D03*
X005310Y003271D03*
X008066Y003664D03*
X009247Y004058D03*
X010034Y003271D03*
X010821Y003664D03*
X012790Y003271D03*
X014896Y003664D03*
X017121Y002483D03*
X018695Y004058D03*
X022239Y004058D03*
X022278Y002837D03*
X025585Y004058D03*
X025782Y007995D03*
X022239Y007995D03*
X018518Y007995D03*
X014975Y008389D03*
X013184Y006814D03*
X011609Y007995D03*
X009640Y006420D03*
X008459Y006026D03*
X008853Y005633D03*
X008066Y007208D03*
X008853Y007995D03*
X011609Y009963D03*
X009640Y011538D03*
X008853Y010357D03*
X007672Y010751D03*
X007672Y012326D03*
X006097Y013113D03*
X007278Y014294D03*
X006884Y014688D03*
X007672Y014688D03*
X007278Y015869D03*
X007672Y017050D03*
X010428Y013113D03*
X012790Y012326D03*
X013184Y011932D03*
X014365Y017444D03*
X005703Y006026D03*
X005310Y005633D03*
X008459Y001302D03*
X008066Y000908D03*
X007672Y000515D03*
X013577Y001302D03*
X017121Y000908D03*
D20*
X019089Y002089D02*
X019361Y002023D01*
X019089Y002089D02*
X017514Y003664D01*
X014896Y003664D01*
X018203Y003684D02*
X019089Y002877D01*
X019621Y002877D01*
X020408Y002089D01*
X020361Y002023D01*
X021361Y002023D02*
X021451Y002089D01*
X019483Y004058D01*
X018695Y004058D01*
X018203Y003684D02*
X018203Y005121D01*
X014975Y008389D01*
X018518Y007995D02*
X018518Y005633D01*
X022239Y002089D01*
X022361Y002023D01*
X023026Y002089D02*
X023361Y002023D01*
X023026Y002089D02*
X023026Y003271D01*
X022239Y004058D01*
X024601Y002089D02*
X024995Y002483D01*
X024995Y006243D01*
X023066Y007995D01*
X022239Y007995D01*
X025782Y007995D02*
X025782Y004845D01*
X026176Y004452D01*
X026176Y002089D01*
X026361Y002023D01*
X025585Y002483D02*
X025388Y002089D01*
X025361Y002023D01*
X025585Y002483D02*
X025585Y004058D01*
X024601Y002089D02*
X024361Y002023D01*
X008853Y011538D02*
X008853Y013507D01*
X001766Y002089D02*
X000979Y002089D01*
X000892Y001979D01*
X001766Y002089D02*
X001892Y001979D01*
M02*
