G75*
G70*
%OFA0B0*%
%FSLAX24Y24*%
%IPPOS*%
%LPD*%
%AMOC8*
5,1,8,0,0,1.08239X$1,22.5*
%
%ADD10C,0.0060*%
%ADD11C,0.0030*%
%ADD12C,0.0080*%
%ADD13C,0.0050*%
%ADD14R,0.0200X0.0736*%
%ADD15R,0.0250X0.0335*%
D10*
X000473Y000604D02*
X000793Y000604D01*
X000900Y000710D01*
X000900Y000924D01*
X000793Y001031D01*
X000473Y001031D01*
X000473Y001244D02*
X000473Y000604D01*
X001118Y000604D02*
X001118Y000924D01*
X001224Y001031D01*
X001545Y001031D01*
X001545Y000604D01*
X001762Y000710D02*
X001762Y000924D01*
X001976Y000924D01*
X002189Y001137D02*
X002189Y000710D01*
X002082Y000604D01*
X001869Y000604D01*
X001762Y000710D01*
X002402Y000682D02*
X002722Y000682D01*
X002829Y000789D01*
X002829Y001003D01*
X002722Y001109D01*
X002402Y001109D01*
X002189Y001137D02*
X002082Y001244D01*
X001869Y001244D01*
X001762Y001137D01*
X003047Y001109D02*
X003367Y001109D01*
X003474Y001003D01*
X003474Y000789D01*
X003367Y000682D01*
X003047Y000682D01*
X003691Y000896D02*
X003691Y001323D01*
X004118Y001323D02*
X004118Y000896D01*
X003905Y000682D01*
X003691Y000896D01*
X004986Y000663D02*
X004986Y001303D01*
X005413Y001303D02*
X004986Y000663D01*
X005413Y000663D02*
X005413Y001303D01*
X005630Y001197D02*
X005737Y001303D01*
X006057Y001303D01*
X006057Y000663D01*
X005737Y000663D01*
X005630Y000769D01*
X005630Y001197D01*
X006275Y001303D02*
X006275Y000663D01*
X006275Y000983D02*
X006702Y000983D01*
X006920Y000876D02*
X006920Y000769D01*
X007026Y000663D01*
X007240Y000663D01*
X007347Y000769D01*
X007240Y000983D02*
X007026Y000983D01*
X006920Y000876D01*
X006702Y000663D02*
X006702Y001303D01*
X006920Y001197D02*
X007026Y001303D01*
X007240Y001303D01*
X007347Y001197D01*
X007347Y001090D01*
X007240Y000983D01*
X008081Y000682D02*
X008508Y000682D01*
X008294Y000682D02*
X008294Y001323D01*
X008508Y001109D01*
X012304Y001303D02*
X012731Y001303D01*
X012518Y001303D02*
X012518Y000663D01*
X012949Y000769D02*
X012949Y001303D01*
X013376Y001303D02*
X013376Y000769D01*
X013269Y000663D01*
X013056Y000663D01*
X012949Y000769D01*
X013593Y000769D02*
X013593Y001197D01*
X013700Y001303D01*
X013914Y001303D01*
X014020Y001197D01*
X014020Y000769D01*
X013914Y000663D01*
X013700Y000663D01*
X013593Y000769D01*
X014882Y000663D02*
X014882Y001303D01*
X015096Y001090D01*
X015309Y001303D01*
X015309Y000663D01*
X015527Y000663D02*
X015527Y001303D01*
X015954Y001303D02*
X015954Y000663D01*
X015740Y000876D01*
X015527Y000663D01*
X016171Y000983D02*
X016171Y001197D01*
X016278Y001303D01*
X016599Y001303D01*
X016599Y000663D01*
X016599Y000876D02*
X016278Y000876D01*
X016171Y000983D01*
X019183Y000702D02*
X019610Y000702D01*
X019397Y000702D02*
X019397Y001343D01*
X019610Y001129D01*
X022988Y001343D02*
X023415Y001343D01*
X023415Y000702D01*
X022988Y000702D01*
X023202Y001022D02*
X023415Y001022D01*
X023633Y000809D02*
X023740Y000702D01*
X023953Y000702D01*
X024060Y000809D01*
X024060Y001236D01*
X023953Y001343D01*
X023740Y001343D01*
X023633Y001236D01*
X024277Y001236D02*
X024277Y001022D01*
X024384Y000916D01*
X024704Y000916D01*
X024491Y000916D02*
X024277Y000702D01*
X024704Y000702D02*
X024704Y001343D01*
X024384Y001343D01*
X024277Y001236D01*
X024922Y001343D02*
X024922Y000809D01*
X025029Y000702D01*
X025242Y000702D01*
X025349Y000809D01*
X025349Y001343D01*
X025566Y001236D02*
X025673Y001343D01*
X025887Y001343D01*
X025993Y001236D01*
X025993Y000809D01*
X025887Y000702D01*
X025673Y000702D01*
X025566Y000809D01*
X025566Y001236D01*
X026211Y001236D02*
X026318Y001343D01*
X026531Y001343D01*
X026638Y001236D01*
X026638Y001129D01*
X026531Y001022D01*
X026318Y001022D01*
X026211Y000916D01*
X026211Y000809D01*
X026318Y000702D01*
X026531Y000702D01*
X026638Y000809D01*
X011243Y011093D02*
X011243Y011818D01*
X009604Y011818D01*
X009604Y011093D01*
X011243Y011093D01*
X010674Y011456D02*
X010424Y011456D01*
X010424Y011206D01*
X010424Y011456D02*
X010424Y011706D01*
X010424Y011456D02*
X010024Y011706D01*
X010024Y011206D01*
X010424Y011456D01*
X009824Y011456D01*
X009297Y013003D02*
X011597Y013003D01*
X011597Y017003D01*
X010847Y017003D01*
X010845Y016964D01*
X010839Y016925D01*
X010830Y016887D01*
X010817Y016850D01*
X010800Y016814D01*
X010780Y016781D01*
X010756Y016749D01*
X010730Y016720D01*
X010701Y016694D01*
X010669Y016670D01*
X010636Y016650D01*
X010600Y016633D01*
X010563Y016620D01*
X010525Y016611D01*
X010486Y016605D01*
X010447Y016603D01*
X010408Y016605D01*
X010369Y016611D01*
X010331Y016620D01*
X010294Y016633D01*
X010258Y016650D01*
X010225Y016670D01*
X010193Y016694D01*
X010164Y016720D01*
X010138Y016749D01*
X010114Y016781D01*
X010094Y016814D01*
X010077Y016850D01*
X010064Y016887D01*
X010055Y016925D01*
X010049Y016964D01*
X010047Y017003D01*
X009297Y017003D01*
X009297Y013003D01*
X004040Y017500D02*
X003190Y017500D01*
X003188Y017470D01*
X003183Y017440D01*
X003174Y017411D01*
X003161Y017384D01*
X003146Y017358D01*
X003127Y017334D01*
X003106Y017313D01*
X003082Y017294D01*
X003056Y017279D01*
X003029Y017266D01*
X003000Y017257D01*
X002970Y017252D01*
X002940Y017250D01*
X002910Y017252D01*
X002880Y017257D01*
X002851Y017266D01*
X002824Y017279D01*
X002798Y017294D01*
X002774Y017313D01*
X002753Y017334D01*
X002734Y017358D01*
X002719Y017384D01*
X002706Y017411D01*
X002697Y017440D01*
X002692Y017470D01*
X002690Y017500D01*
X001840Y017500D01*
X001840Y002900D01*
X004040Y002900D01*
X004040Y017500D01*
D11*
X008695Y017538D02*
X008942Y017538D01*
X009063Y017538D02*
X009310Y017538D01*
X009187Y017538D02*
X009187Y017908D01*
X009310Y017784D01*
X009432Y017908D02*
X009679Y017538D01*
X009800Y017599D02*
X009800Y017661D01*
X009862Y017723D01*
X010047Y017723D01*
X010047Y017599D01*
X009985Y017538D01*
X009862Y017538D01*
X009800Y017599D01*
X009923Y017846D02*
X010047Y017723D01*
X009923Y017846D02*
X009800Y017908D01*
X010537Y017538D02*
X010661Y017538D01*
X010599Y017538D02*
X010599Y017908D01*
X010661Y017908D01*
X010844Y017908D02*
X010844Y017538D01*
X010783Y017538D02*
X010906Y017538D01*
X011028Y017661D02*
X011274Y017661D01*
X011274Y017599D02*
X011274Y017723D01*
X011213Y017784D01*
X011089Y017784D01*
X011028Y017723D01*
X011028Y017661D01*
X011089Y017538D02*
X011213Y017538D01*
X011274Y017599D01*
X011397Y017538D02*
X011458Y017599D01*
X011458Y017846D01*
X011397Y017784D02*
X011520Y017784D01*
X011641Y017784D02*
X011827Y017784D01*
X011888Y017723D01*
X011827Y017661D01*
X011703Y017661D01*
X011641Y017599D01*
X011703Y017538D01*
X011888Y017538D01*
X012010Y017538D02*
X012010Y017723D01*
X012071Y017784D01*
X012257Y017784D01*
X012257Y017538D01*
X012378Y017661D02*
X012625Y017661D01*
X012625Y017599D02*
X012625Y017723D01*
X012563Y017784D01*
X012440Y017784D01*
X012378Y017723D01*
X012378Y017661D01*
X012440Y017538D02*
X012563Y017538D01*
X012625Y017599D01*
X012746Y017538D02*
X012746Y017908D01*
X012746Y017723D02*
X012993Y017723D01*
X012993Y017538D02*
X012993Y017908D01*
X013483Y017784D02*
X013730Y017538D01*
X013851Y017538D02*
X014036Y017538D01*
X014098Y017599D01*
X014036Y017661D01*
X013851Y017661D01*
X013851Y017723D02*
X013851Y017538D01*
X013851Y017723D02*
X013913Y017784D01*
X014036Y017784D01*
X014220Y017908D02*
X014220Y017538D01*
X014466Y017538D02*
X014466Y017908D01*
X014343Y017784D01*
X014220Y017908D01*
X013730Y017784D02*
X013483Y017538D01*
X014956Y017723D02*
X015203Y017723D01*
X015693Y017784D02*
X015817Y017784D01*
X015755Y017846D02*
X015755Y017599D01*
X015693Y017538D01*
X015939Y017538D02*
X016062Y017538D01*
X016001Y017538D02*
X016001Y017784D01*
X016062Y017784D01*
X016184Y017784D02*
X016184Y017538D01*
X016369Y017538D01*
X016431Y017599D01*
X016431Y017784D01*
X016552Y017846D02*
X016614Y017908D01*
X016737Y017908D01*
X016799Y017846D01*
X016799Y017784D01*
X016737Y017723D01*
X016614Y017723D01*
X016552Y017661D01*
X016552Y017599D01*
X016614Y017538D01*
X016737Y017538D01*
X016799Y017599D01*
X017289Y017599D02*
X017289Y017846D01*
X017350Y017908D01*
X017536Y017908D01*
X017536Y017538D01*
X017350Y017538D01*
X017289Y017599D01*
X017657Y017538D02*
X017904Y017538D01*
X017904Y017908D01*
X017657Y017908D01*
X017780Y017723D02*
X017904Y017723D01*
X018025Y017538D02*
X018272Y017538D01*
X018272Y017908D01*
X018762Y017784D02*
X018824Y017784D01*
X018947Y017661D01*
X018947Y017538D02*
X018947Y017784D01*
X019069Y017723D02*
X019131Y017784D01*
X019254Y017784D01*
X019316Y017723D01*
X019316Y017599D01*
X019254Y017538D01*
X019131Y017538D01*
X019069Y017599D01*
X019069Y017723D01*
X019438Y017723D02*
X019561Y017723D01*
X019500Y017846D02*
X019438Y017908D01*
X019500Y017846D02*
X019500Y017538D01*
X020051Y017538D02*
X020051Y017908D01*
X020051Y017784D02*
X020236Y017784D01*
X020298Y017723D01*
X020298Y017599D01*
X020236Y017538D01*
X020051Y017538D01*
X020420Y017784D02*
X020481Y017784D01*
X020605Y017661D01*
X020726Y017661D02*
X020911Y017661D01*
X020973Y017599D01*
X020911Y017538D01*
X020726Y017538D01*
X020726Y017723D01*
X020788Y017784D01*
X020911Y017784D01*
X021094Y017723D02*
X021156Y017784D01*
X021280Y017784D01*
X021341Y017723D01*
X021341Y017599D01*
X021280Y017538D01*
X021156Y017538D01*
X021094Y017599D01*
X021094Y017723D01*
X020605Y017784D02*
X020605Y017538D01*
X021463Y017599D02*
X021524Y017538D01*
X021710Y017538D01*
X021710Y017908D01*
X021524Y017908D01*
X021463Y017846D01*
X021463Y017784D01*
X021524Y017723D01*
X021710Y017723D01*
X021524Y017723D02*
X021463Y017661D01*
X021463Y017599D01*
X022200Y017784D02*
X022261Y017784D01*
X022385Y017661D01*
X022506Y017661D02*
X022753Y017661D01*
X022753Y017599D02*
X022753Y017723D01*
X022691Y017784D01*
X022568Y017784D01*
X022506Y017723D01*
X022506Y017661D01*
X022568Y017538D02*
X022691Y017538D01*
X022753Y017599D01*
X022875Y017784D02*
X022998Y017538D01*
X023121Y017784D01*
X023305Y017784D02*
X023305Y017538D01*
X023244Y017538D02*
X023367Y017538D01*
X023367Y017784D02*
X023305Y017784D01*
X023305Y017908D02*
X023305Y017970D01*
X023489Y017784D02*
X023550Y017784D01*
X023674Y017661D01*
X023674Y017538D02*
X023674Y017784D01*
X023795Y017846D02*
X023857Y017908D01*
X024042Y017908D01*
X024042Y017538D01*
X023857Y017538D01*
X023795Y017599D01*
X023795Y017846D01*
X024532Y017723D02*
X024532Y017661D01*
X024779Y017661D01*
X024779Y017599D02*
X024779Y017723D01*
X024717Y017784D01*
X024594Y017784D01*
X024532Y017723D01*
X024594Y017538D02*
X024717Y017538D01*
X024779Y017599D01*
X024900Y017538D02*
X025085Y017538D01*
X025147Y017599D01*
X025147Y017723D01*
X025085Y017784D01*
X024900Y017784D01*
X024900Y017908D02*
X024900Y017538D01*
X025269Y017538D02*
X025393Y017538D01*
X025331Y017538D02*
X025331Y017784D01*
X025393Y017784D01*
X025514Y017846D02*
X025576Y017908D01*
X025699Y017908D01*
X025761Y017846D01*
X025761Y017784D01*
X025699Y017723D01*
X025576Y017723D01*
X025514Y017661D01*
X025514Y017599D01*
X025576Y017538D01*
X025699Y017538D01*
X025761Y017599D01*
X026251Y017538D02*
X026251Y017723D01*
X026312Y017784D01*
X026436Y017784D01*
X026498Y017723D01*
X026619Y017784D02*
X026804Y017784D01*
X026866Y017723D01*
X026866Y017599D01*
X026804Y017538D01*
X026619Y017538D01*
X026619Y017476D02*
X026619Y017784D01*
X026498Y017908D02*
X026498Y017538D01*
X026619Y017476D02*
X026681Y017414D01*
X026742Y017414D01*
X026988Y017538D02*
X027111Y017538D01*
X027050Y017538D02*
X027050Y017784D01*
X027111Y017784D01*
X027233Y017723D02*
X027480Y017723D01*
X027480Y017538D02*
X027480Y017908D01*
X027233Y017908D02*
X027233Y017538D01*
X027050Y017908D02*
X027050Y017970D01*
X025331Y017970D02*
X025331Y017908D01*
X022385Y017784D02*
X022385Y017538D01*
X016001Y017908D02*
X016001Y017970D01*
X010906Y017908D02*
X010844Y017908D01*
X008942Y017784D02*
X008818Y017908D01*
X008818Y017538D01*
D12*
X013844Y016058D02*
X013844Y014058D01*
X014144Y014058D01*
X014144Y013958D01*
X014144Y014058D02*
X014444Y014058D01*
X014444Y016058D01*
X014144Y016058D01*
X014144Y016158D01*
X014144Y016058D02*
X013844Y016058D01*
X005837Y011271D02*
X005839Y011333D01*
X005845Y011396D01*
X005855Y011457D01*
X005869Y011518D01*
X005886Y011578D01*
X005907Y011637D01*
X005933Y011694D01*
X005961Y011749D01*
X005993Y011803D01*
X006029Y011854D01*
X006067Y011904D01*
X006109Y011950D01*
X006153Y011994D01*
X006201Y012035D01*
X006250Y012073D01*
X006302Y012107D01*
X006356Y012138D01*
X006412Y012166D01*
X006470Y012190D01*
X006529Y012211D01*
X006589Y012227D01*
X006650Y012240D01*
X006712Y012249D01*
X006774Y012254D01*
X006837Y012255D01*
X006899Y012252D01*
X006961Y012245D01*
X007023Y012234D01*
X007083Y012219D01*
X007143Y012201D01*
X007201Y012179D01*
X007258Y012153D01*
X007313Y012123D01*
X007366Y012090D01*
X007417Y012054D01*
X007465Y012015D01*
X007511Y011972D01*
X007554Y011927D01*
X007594Y011879D01*
X007631Y011829D01*
X007665Y011776D01*
X007696Y011722D01*
X007722Y011666D01*
X007746Y011608D01*
X007765Y011548D01*
X007781Y011488D01*
X007793Y011426D01*
X007801Y011365D01*
X007805Y011302D01*
X007805Y011240D01*
X007801Y011177D01*
X007793Y011116D01*
X007781Y011054D01*
X007765Y010994D01*
X007746Y010934D01*
X007722Y010876D01*
X007696Y010820D01*
X007665Y010766D01*
X007631Y010713D01*
X007594Y010663D01*
X007554Y010615D01*
X007511Y010570D01*
X007465Y010527D01*
X007417Y010488D01*
X007366Y010452D01*
X007313Y010419D01*
X007258Y010389D01*
X007201Y010363D01*
X007143Y010341D01*
X007083Y010323D01*
X007023Y010308D01*
X006961Y010297D01*
X006899Y010290D01*
X006837Y010287D01*
X006774Y010288D01*
X006712Y010293D01*
X006650Y010302D01*
X006589Y010315D01*
X006529Y010331D01*
X006470Y010352D01*
X006412Y010376D01*
X006356Y010404D01*
X006302Y010435D01*
X006250Y010469D01*
X006201Y010507D01*
X006153Y010548D01*
X006109Y010592D01*
X006067Y010638D01*
X006029Y010688D01*
X005993Y010739D01*
X005961Y010793D01*
X005933Y010848D01*
X005907Y010905D01*
X005886Y010964D01*
X005869Y011024D01*
X005855Y011085D01*
X005845Y011146D01*
X005839Y011209D01*
X005837Y011271D01*
X006271Y011571D02*
X006271Y011971D01*
X008979Y009536D02*
X009229Y009786D01*
X010729Y009786D01*
X010979Y009536D01*
X010979Y009036D01*
X010729Y008786D01*
X009229Y008786D01*
X008979Y009036D01*
X008979Y009536D01*
X009229Y008786D02*
X008979Y008536D01*
X008979Y008036D01*
X009229Y007786D01*
X010729Y007786D01*
X010979Y008036D01*
X010979Y008536D01*
X010729Y008786D01*
X010729Y007786D02*
X010979Y007536D01*
X010979Y007036D01*
X010729Y006786D01*
X009229Y006786D01*
X008979Y007036D01*
X008979Y007536D01*
X009229Y007786D01*
X008847Y007536D02*
X008847Y007036D01*
X012670Y006215D02*
X012770Y006215D01*
X012770Y005915D01*
X014770Y005915D01*
X014770Y006215D01*
X014870Y006215D01*
X014770Y006215D02*
X014770Y006515D01*
X012770Y006515D01*
X012770Y006215D01*
X013944Y005490D02*
X013944Y002910D01*
X015344Y002910D01*
X015344Y005490D01*
X013944Y005490D01*
X013925Y006973D02*
X013925Y009553D01*
X015325Y009553D01*
X015325Y006973D01*
X013925Y006973D01*
X016627Y006204D02*
X016727Y006204D01*
X016727Y005904D01*
X018727Y005904D01*
X018727Y006204D01*
X018827Y006204D01*
X018727Y006204D02*
X018727Y006504D01*
X016727Y006504D01*
X016727Y006204D01*
X017606Y005486D02*
X017606Y002906D01*
X019006Y002906D01*
X019006Y005486D01*
X017606Y005486D01*
X017637Y006886D02*
X017637Y009466D01*
X019037Y009466D01*
X019037Y006886D01*
X017637Y006886D01*
X020532Y006204D02*
X020632Y006204D01*
X020632Y005904D01*
X022632Y005904D01*
X022632Y006204D01*
X022732Y006204D01*
X022632Y006204D02*
X022632Y006504D01*
X020632Y006504D01*
X020632Y006204D01*
X021259Y005537D02*
X021259Y002957D01*
X022659Y002957D01*
X022659Y005537D01*
X021259Y005537D01*
X021259Y006862D02*
X021259Y009442D01*
X022659Y009442D01*
X022659Y006862D01*
X021259Y006862D01*
X024521Y006200D02*
X024621Y006200D01*
X024621Y005900D01*
X026621Y005900D01*
X026621Y006200D01*
X026721Y006200D01*
X026621Y006200D02*
X026621Y006500D01*
X024621Y006500D01*
X024621Y006200D01*
X024932Y005549D02*
X024932Y002969D01*
X026332Y002969D01*
X026332Y005549D01*
X024932Y005549D01*
X024932Y006855D02*
X024932Y009435D01*
X026332Y009435D01*
X026332Y006855D01*
X024932Y006855D01*
X024644Y009974D02*
X024644Y010274D01*
X024544Y010274D01*
X024644Y010274D02*
X024644Y010574D01*
X026644Y010574D01*
X026644Y010274D01*
X026744Y010274D01*
X026644Y010274D02*
X026644Y009974D01*
X024644Y009974D01*
X022819Y010274D02*
X022719Y010274D01*
X022719Y010574D01*
X020719Y010574D01*
X020719Y010274D01*
X020619Y010274D01*
X020719Y010274D02*
X020719Y009974D01*
X022719Y009974D01*
X022719Y010274D01*
X018870Y010278D02*
X018770Y010278D01*
X018770Y010578D01*
X016770Y010578D01*
X016770Y010278D01*
X016670Y010278D01*
X016770Y010278D02*
X016770Y009978D01*
X018770Y009978D01*
X018770Y010278D01*
X014965Y010278D02*
X014865Y010278D01*
X014865Y010578D01*
X012865Y010578D01*
X012865Y010278D01*
X012765Y010278D01*
X012865Y010278D02*
X012865Y009978D01*
X014865Y009978D01*
X014865Y010278D01*
D13*
X015743Y013428D02*
X016176Y013428D01*
X015743Y013428D02*
X015743Y016578D01*
X016176Y016578D01*
X018184Y016578D02*
X018617Y016578D01*
X018617Y013428D01*
X018184Y013428D01*
D14*
X010974Y011450D03*
D15*
X011368Y011456D03*
X009479Y011456D03*
M02*
