%
M48
M72
T01C0.0200
T02C0.0276
T03C0.0315
T04C0.0320
T05C0.0354
T06C0.0400
T07C0.0433
%
T01
X4916Y2877
X5310Y3271
X8066Y3664
X9247Y4058
X10034Y3271
X10821Y3664
X12790Y3271
X14896Y3664
X17121Y2483
X18695Y4058
X22239Y4058
X22278Y2837
X25585Y4058
X25782Y7995
X22239Y7995
X18518Y7995
X14975Y8389
X13184Y6814
X11609Y7995
X9640Y6420
X8459Y6026
X8853Y5633
X8066Y7208
X8853Y7995
X11609Y9963
X9640Y11538
X8853Y10357
X7672Y10751
X7672Y12326
X6097Y13113
X7278Y14294
X6884Y14688
X7672Y14688
X7278Y15869
X7672Y17050
X10428Y13113
X12790Y12326
X13184Y11932
X14365Y17444
X5703Y6026
X5310Y5633
X8459Y1302
X8066Y908
X7672Y515
X13577Y1302
X17121Y908
T02
X6821Y10771
X6821Y11771
T03
X6814Y8975
X6814Y7975
X6814Y6975
T04
X4440Y6700
X4440Y7700
X4440Y8700
X4440Y9700
X4440Y10700
X4440Y11700
X4440Y12700
X4440Y13700
X4440Y14700
X4440Y15700
X4440Y16700
X1440Y16700
X1440Y15700
X1440Y14700
X1440Y13700
X1440Y12700
X1440Y11700
X1440Y10700
X1440Y9700
X1440Y8700
X1440Y7700
X1440Y6700
X1440Y5700
X1440Y4700
X1440Y3700
X4440Y3700
X4440Y4700
X4440Y5700
X8947Y13503
X8947Y14503
X8947Y15503
X8947Y16503
X11947Y16503
X11947Y15503
X11947Y14503
X11947Y13503
T05
X14144Y13558
X14144Y16558
X15365Y10278
X16270Y10278
X19270Y10278
X20219Y10274
X23219Y10274
X24144Y10274
X27144Y10274
X27121Y6200
X24121Y6200
X23132Y6204
X20132Y6204
X19227Y6204
X16227Y6204
X15270Y6215
X12270Y6215
X12365Y10278
T06
X892Y1979
X1892Y1979
X2892Y1979
X3892Y1979
X5113Y1971
X6113Y1971
X7113Y1971
X8341Y1979
X9341Y1979
X10341Y1979
X11341Y1979
X12341Y1979
X13341Y1979
X14341Y1979
X15341Y1979
X16341Y1979
X19361Y2023
X20361Y2023
X21361Y2023
X22361Y2023
X23361Y2023
X24361Y2023
X25361Y2023
X26361Y2023
X10479Y7286
X9479Y7286
X9479Y8286
X10479Y8286
X10479Y9286
X9479Y9286
T07
X8924Y11456
X11924Y11456
M30
