G75*
G70*
%OFA0B0*%
%FSLAX24Y24*%
%IPPOS*%
%LPD*%
%AMOC8*
5,1,8,0,0,1.08239X$1,22.5*
%
%ADD10C,0.0740*%
%ADD11C,0.0560*%
%ADD12R,0.0740X0.0740*%
%ADD13OC8,0.0740*%
%ADD14R,0.0880X0.0480*%
%ADD15R,0.0866X0.1417*%
%ADD16R,0.1850X0.0689*%
%ADD17C,0.0673*%
%ADD18R,0.0650X0.0650*%
%ADD19C,0.0650*%
%ADD20C,0.0240*%
%ADD21C,0.0080*%
%ADD22C,0.0400*%
D10*
X001892Y001979D03*
X002892Y001979D03*
X003892Y001979D03*
X005113Y001971D03*
X006113Y001971D03*
X007113Y001971D03*
X008341Y001979D03*
X009341Y001979D03*
X010341Y001979D03*
X011341Y001979D03*
X012341Y001979D03*
X013341Y001979D03*
X014341Y001979D03*
X015341Y001979D03*
X016341Y001979D03*
X020361Y002023D03*
X021361Y002023D03*
X022361Y002023D03*
X023361Y002023D03*
X024361Y002023D03*
X025361Y002023D03*
X026361Y002023D03*
X027121Y006200D03*
X024121Y006200D03*
X023132Y006204D03*
X020132Y006204D03*
X019227Y006204D03*
X016227Y006204D03*
X015270Y006215D03*
X012270Y006215D03*
X006814Y006975D03*
X006814Y007975D03*
X006814Y008975D03*
X012365Y010278D03*
X015365Y010278D03*
X016270Y010278D03*
X019270Y010278D03*
X020219Y010274D03*
X023219Y010274D03*
X024144Y010274D03*
X027144Y010274D03*
X014144Y013558D03*
X014144Y016558D03*
D11*
X012227Y016503D02*
X011667Y016503D01*
X011667Y015503D02*
X012227Y015503D01*
X012227Y014503D02*
X011667Y014503D01*
X011667Y013503D02*
X012227Y013503D01*
X009227Y013503D02*
X008667Y013503D01*
X008667Y014503D02*
X009227Y014503D01*
X009227Y015503D02*
X008667Y015503D01*
X008667Y016503D02*
X009227Y016503D01*
X004720Y016700D02*
X004160Y016700D01*
X004160Y015700D02*
X004720Y015700D01*
X004720Y014700D02*
X004160Y014700D01*
X004160Y013700D02*
X004720Y013700D01*
X004720Y012700D02*
X004160Y012700D01*
X004160Y011700D02*
X004720Y011700D01*
X004720Y010700D02*
X004160Y010700D01*
X004160Y009700D02*
X004720Y009700D01*
X004720Y008700D02*
X004160Y008700D01*
X004160Y007700D02*
X004720Y007700D01*
X004720Y006700D02*
X004160Y006700D01*
X004160Y005700D02*
X004720Y005700D01*
X004720Y004700D02*
X004160Y004700D01*
X004160Y003700D02*
X004720Y003700D01*
X001720Y003700D02*
X001160Y003700D01*
X001160Y004700D02*
X001720Y004700D01*
X001720Y005700D02*
X001160Y005700D01*
X001160Y006700D02*
X001720Y006700D01*
X001720Y007700D02*
X001160Y007700D01*
X001160Y008700D02*
X001720Y008700D01*
X001720Y009700D02*
X001160Y009700D01*
X001160Y010700D02*
X001720Y010700D01*
X001720Y011700D02*
X001160Y011700D01*
X001160Y012700D02*
X001720Y012700D01*
X001720Y013700D02*
X001160Y013700D01*
X001160Y014700D02*
X001720Y014700D01*
X001720Y015700D02*
X001160Y015700D01*
X001160Y016700D02*
X001720Y016700D01*
D12*
X000892Y001979D03*
X019361Y002023D03*
D13*
X010479Y007286D03*
X009479Y007286D03*
X009479Y008286D03*
X010479Y008286D03*
X010479Y009286D03*
X009479Y009286D03*
D14*
X015845Y009173D03*
X015845Y008263D03*
X015845Y007353D03*
X015864Y005110D03*
X015864Y004200D03*
X015864Y003290D03*
X019526Y003286D03*
X019526Y004196D03*
X019526Y005106D03*
X019557Y007266D03*
X019557Y008176D03*
X019557Y009086D03*
X023179Y009062D03*
X023179Y008152D03*
X023179Y007242D03*
X023179Y005157D03*
X023179Y004247D03*
X023179Y003337D03*
X026852Y003349D03*
X026852Y004259D03*
X026852Y005169D03*
X026852Y007235D03*
X026852Y008145D03*
X026852Y009055D03*
D15*
X024412Y008145D03*
X020739Y008152D03*
X017117Y008176D03*
X013404Y008263D03*
X013424Y004200D03*
X017086Y004196D03*
X020739Y004247D03*
X024412Y004259D03*
D16*
X017180Y013822D03*
X017180Y016204D03*
D17*
X011924Y011456D03*
X008924Y011456D03*
D18*
X006821Y010771D03*
D19*
X006821Y011771D03*
D20*
X000892Y001979D02*
X000585Y002089D01*
X000585Y009963D01*
X001373Y010751D01*
X001440Y010700D02*
X001766Y010751D01*
X002554Y009963D01*
X004129Y009963D01*
X004440Y009700D01*
X004522Y009570D02*
X004877Y009885D01*
X009266Y009924D01*
X009640Y010357D01*
X008853Y011145D01*
X008924Y011456D01*
X006884Y011538D02*
X006821Y011771D01*
X006884Y011538D02*
X006491Y011538D01*
X004877Y009885D01*
X014144Y013558D02*
X014365Y013507D01*
X014365Y007208D01*
X015546Y007208D01*
X015940Y007208D02*
X019483Y007208D01*
X019877Y007208D02*
X021766Y007208D01*
X021766Y003271D01*
X019877Y003271D01*
X019483Y003271D02*
X015940Y003271D01*
X015546Y004058D02*
X014896Y003664D01*
X018518Y007995D02*
X019483Y007995D01*
X021766Y007208D02*
X023026Y007208D01*
X023420Y007208D02*
X026569Y007208D01*
X026569Y007995D02*
X025782Y007995D01*
X025585Y004058D02*
X026569Y004058D01*
X026569Y003271D02*
X023420Y003271D01*
X023026Y003271D02*
X021766Y003271D01*
X022239Y004058D02*
X023026Y004058D01*
X015546Y008389D02*
X014975Y008389D01*
D21*
X015546Y008389D02*
X015845Y008263D01*
X015845Y007353D02*
X015546Y007208D01*
X015845Y007353D02*
X015940Y007208D01*
X015546Y006814D02*
X015940Y006420D01*
X016227Y006204D01*
X015546Y006026D02*
X015270Y006215D01*
X015546Y006026D02*
X015546Y005239D01*
X015864Y005110D01*
X015864Y004200D02*
X015546Y004058D01*
X015864Y003290D02*
X015940Y003271D01*
X015546Y002877D02*
X016333Y002089D01*
X016341Y001979D01*
X017121Y001696D02*
X017121Y002483D01*
X017121Y001696D02*
X016333Y000908D01*
X008066Y000908D01*
X008459Y001302D02*
X013577Y001302D01*
X012341Y001979D02*
X012003Y002089D01*
X011609Y002483D01*
X009247Y002483D01*
X008853Y002877D01*
X007278Y002877D01*
X004522Y005633D01*
X004440Y005700D01*
X004522Y006420D02*
X004440Y006700D01*
X004522Y006420D02*
X006097Y006420D01*
X009247Y003271D01*
X010034Y003271D01*
X010821Y003664D02*
X008853Y005633D01*
X008459Y006026D02*
X008459Y004845D01*
X009247Y004058D01*
X008853Y003271D02*
X009247Y002877D01*
X015546Y002877D01*
X012790Y003271D02*
X009640Y006420D01*
X009640Y007208D02*
X010428Y006420D01*
X012003Y006420D01*
X012270Y006215D01*
X013184Y006814D02*
X015546Y006814D01*
X014365Y007208D02*
X010821Y007208D01*
X010479Y007286D01*
X009640Y007208D02*
X009479Y007286D01*
X009247Y007208D01*
X008459Y006420D01*
X006491Y006420D01*
X005703Y007208D01*
X003735Y007208D01*
X003341Y006814D01*
X001766Y006814D01*
X001440Y006700D01*
X001766Y007601D02*
X001440Y007700D01*
X001766Y007601D02*
X003341Y009176D01*
X006097Y009176D01*
X006491Y009570D01*
X008066Y009570D01*
X008853Y008782D01*
X011215Y008782D01*
X012396Y009963D01*
X012365Y010278D01*
X011609Y009963D02*
X011215Y009963D01*
X009640Y011538D01*
X009247Y011932D02*
X013184Y011932D01*
X013577Y012326D02*
X013577Y009963D01*
X011609Y007995D01*
X010479Y009286D02*
X010428Y009570D01*
X009640Y010357D01*
X008853Y010357D02*
X007278Y010357D01*
X006884Y010751D01*
X006821Y010771D01*
X006884Y010751D02*
X007278Y011145D01*
X007278Y012326D01*
X006491Y012326D01*
X004916Y010751D01*
X004522Y010751D01*
X004440Y010700D01*
X004916Y011145D02*
X006491Y012719D01*
X008459Y012719D01*
X009247Y011932D01*
X009247Y012326D02*
X012790Y012326D01*
X013184Y012719D02*
X013577Y012326D01*
X013184Y012719D02*
X010034Y012719D01*
X010034Y014294D01*
X009247Y015082D01*
X008459Y015082D01*
X008066Y014688D01*
X008066Y014294D01*
X007672Y013900D01*
X006097Y013900D01*
X005703Y013507D01*
X005703Y013113D01*
X004522Y011932D01*
X004440Y011700D01*
X004916Y011145D02*
X000979Y011145D01*
X000585Y011538D01*
X000585Y012719D01*
X001373Y013507D01*
X001440Y013700D01*
X001440Y012700D02*
X001766Y012719D01*
X003735Y014688D01*
X003735Y015869D01*
X004129Y016263D01*
X007672Y016263D01*
X007672Y014688D01*
X007278Y014294D02*
X004129Y014294D01*
X001766Y011932D01*
X001440Y011700D01*
X001373Y010751D02*
X001440Y010700D01*
X004440Y009700D02*
X004522Y009570D01*
X004522Y008782D02*
X004440Y008700D01*
X004522Y008782D02*
X006491Y008782D01*
X006814Y008975D01*
X005703Y007601D02*
X006491Y006814D01*
X006814Y006975D01*
X005703Y007601D02*
X004522Y007601D01*
X004440Y007700D01*
X005703Y006026D02*
X008066Y003664D01*
X007672Y003271D02*
X008853Y003271D01*
X007672Y003271D02*
X005310Y005633D01*
X004440Y004700D02*
X004522Y004452D01*
X005310Y004452D01*
X007278Y002483D01*
X007672Y002483D01*
X007672Y000515D01*
X004916Y002877D02*
X004129Y002089D01*
X003892Y001979D01*
X003735Y003271D02*
X005310Y003271D01*
X003735Y003271D02*
X003341Y003664D01*
X001766Y003664D01*
X001440Y003700D01*
X008066Y007208D02*
X008853Y007995D01*
X009247Y008389D02*
X009479Y008286D01*
X009247Y008389D02*
X008853Y008782D01*
X007672Y010751D02*
X007672Y012326D01*
X008459Y013113D02*
X009247Y012326D01*
X008459Y013113D02*
X006097Y013113D01*
X006884Y014688D02*
X004522Y014688D01*
X004440Y014700D01*
X004440Y015700D02*
X004522Y015869D01*
X007278Y015869D01*
X007672Y017050D02*
X017908Y017050D01*
X023814Y011145D01*
X023814Y010357D01*
X024144Y010274D01*
X023420Y009963D02*
X023219Y010274D01*
X023420Y009963D02*
X023420Y009176D01*
X023179Y009062D01*
X023179Y008152D02*
X023026Y007995D01*
X022239Y007995D01*
X023026Y007208D02*
X023179Y007242D01*
X023420Y007208D01*
X023132Y006204D02*
X023420Y006026D01*
X023420Y005239D01*
X023179Y005157D01*
X023179Y004247D02*
X023026Y004058D01*
X023179Y003337D02*
X023026Y003271D01*
X023179Y003337D02*
X023420Y003271D01*
X022278Y002837D02*
X019089Y002837D01*
X017121Y000908D01*
X019483Y003271D02*
X019526Y003286D01*
X019877Y003271D01*
X019483Y004058D02*
X018695Y004058D01*
X019483Y004058D02*
X019526Y004196D01*
X019526Y005106D02*
X019483Y005239D01*
X019483Y006026D01*
X019227Y006204D01*
X019483Y007208D02*
X019557Y007266D01*
X019877Y007208D01*
X019483Y007995D02*
X019557Y008176D01*
X019557Y009086D02*
X019483Y009176D01*
X019483Y010357D01*
X019270Y010278D01*
X015845Y009173D02*
X015546Y009176D01*
X015546Y009963D01*
X015365Y010278D01*
X012003Y013507D02*
X011947Y013503D01*
X012003Y013507D02*
X012790Y014294D01*
X014365Y014294D01*
X014758Y013900D01*
X017121Y013900D01*
X017180Y013822D01*
X016333Y015082D02*
X017121Y015869D01*
X017180Y016204D01*
X016333Y015082D02*
X011215Y015082D01*
X010428Y015869D01*
X010428Y013113D01*
X010428Y015869D02*
X010034Y016263D01*
X009247Y016263D01*
X008947Y016503D01*
X004129Y017444D02*
X014365Y017444D01*
X004129Y017444D02*
X002554Y015869D01*
X001766Y015869D01*
X001440Y015700D01*
X026569Y007995D02*
X026852Y008145D01*
X026852Y009055D02*
X026963Y009176D01*
X026963Y009963D01*
X027144Y010274D01*
X026852Y007235D02*
X026569Y007208D01*
X027121Y006200D02*
X026963Y006026D01*
X026963Y005239D01*
X026852Y005169D01*
X026852Y004259D02*
X026569Y004058D01*
X026852Y003349D02*
X026569Y003271D01*
D22*
X025585Y004058D03*
X022239Y004058D03*
X022278Y002837D03*
X018695Y004058D03*
X017121Y002483D03*
X014896Y003664D03*
X012790Y003271D03*
X010821Y003664D03*
X010034Y003271D03*
X009247Y004058D03*
X008066Y003664D03*
X008853Y005633D03*
X008459Y006026D03*
X009640Y006420D03*
X008066Y007208D03*
X008853Y007995D03*
X011609Y007995D03*
X013184Y006814D03*
X014975Y008389D03*
X011609Y009963D03*
X009640Y011538D03*
X008853Y010357D03*
X007672Y010751D03*
X007672Y012326D03*
X006097Y013113D03*
X007278Y014294D03*
X006884Y014688D03*
X007672Y014688D03*
X007278Y015869D03*
X007672Y017050D03*
X010428Y013113D03*
X012790Y012326D03*
X013184Y011932D03*
X018518Y007995D03*
X022239Y007995D03*
X025782Y007995D03*
X017121Y000908D03*
X013577Y001302D03*
X008459Y001302D03*
X008066Y000908D03*
X007672Y000515D03*
X004916Y002877D03*
X005310Y003271D03*
X005310Y005633D03*
X005703Y006026D03*
X014365Y017444D03*
M02*
