999
dxflib 2.2.0.0
  0
SECTION
  2
HEADER
  9
$ACADVER
  1
AC1015
  9
$HANDSEED
  5
FFFF
  9
$DIMASZ
 40
0.1
  9
$PLIMMIN
 10
0.0
 20
0.0
  9
$DIMEXE
 40
0.05
  9
$DIMGAP
 40
0.025
  9
$PLIMMAX
 10
8.2677165354330722
 20
11.6929133858267722
  9
$INSUNITS
 70
1
  9
$DIMEXO
 40
0.025
  9
$DIMTXT
 40
0.1
  9
$CLAYER
  8
0
  0
ENDSEC
  0
SECTION
  2
TABLES
  0
TABLE
  2
VPORT
  5
8
100
AcDbSymbolTable
 70
1
  0
VPORT
  5
30
100
AcDbSymbolTableRecord
100
AcDbViewportTableRecord
  2
*Active
 70
0
 10
0.0
 20
0.0
 11
1.0
 21
1.0
 12
286.3055555555554861
 22
148.5
 13
0.0
 23
0.0
 14
10.0
 24
10.0
 15
10.0
 25
10.0
 16
0.0
 26
0.0
 36
1.0
 17
0.0
 27
0.0
 37
0.0
 40
297.0
 41
1.92798353909465
 42
50.0
 43
0.0
 44
0.0
 50
0.0
 51
0.0
 71
0
 72
100
 73
1
 74
3
 75
1
 76
1
 77
0
 78
0
281
0
 65
1
110
0.0
120
0.0
130
0.0
111
1.0
121
0.0
131
0.0
112
0.0
122
1.0
132
0.0
 79
0
146
0.0
  0
ENDTAB
  0
TABLE
  2
LTYPE
  5
5
100
AcDbSymbolTable
 70
21
  0
LTYPE
  5
14
100
AcDbSymbolTableRecord
100
AcDbLinetypeTableRecord
  2
ByBlock
 70
0
  3

 72
65
 73
0
 40
0.0
  0
LTYPE
  5
15
100
AcDbSymbolTableRecord
100
AcDbLinetypeTableRecord
  2
ByLayer
 70
0
  3

 72
65
 73
0
 40
0.0
  0
LTYPE
  5
16
100
AcDbSymbolTableRecord
100
AcDbLinetypeTableRecord
  2
CONTINUOUS
 70
0
  3
Solid line
 72
65
 73
0
 40
0.0
  0
LTYPE
  5
31
100
AcDbSymbolTableRecord
100
AcDbLinetypeTableRecord
  2
DOT
 70
0
  3
Dot . . . . . . . . . . . . . . . . . . . . . .
 72
65
 73
2
 40
6.3499999999999996
 49
0.0
 74
0
 49
-6.3499999999999996
 74
0
  0
LTYPE
  5
32
100
AcDbSymbolTableRecord
100
AcDbLinetypeTableRecord
  2
DOT2
 70
0
  3
Dot (.5x) .....................................
 72
65
 73
2
 40
3.1749999999999998
 49
0.0
 74
0
 49
-3.1749999999999998
 74
0
  0
LTYPE
  5
33
100
AcDbSymbolTableRecord
100
AcDbLinetypeTableRecord
  2
DOTX2
 70
0
  3
Dot (2x) .  .  .  .  .  .  .  .  .  .  .  .  .
 72
65
 73
2
 40
12.6999999999999993
 49
0.0
 74
0
 49
-12.6999999999999993
 74
0
  0
LTYPE
  5
34
100
AcDbSymbolTableRecord
100
AcDbLinetypeTableRecord
  2
DASHED
 70
0
  3
Dashed __ __ __ __ __ __ __ __ __ __ __ __ __ _
 72
65
 73
2
 40
19.0500000000000007
 49
12.6999999999999993
 74
0
 49
-6.3499999999999996
 74
0
  0
LTYPE
  5
35
100
AcDbSymbolTableRecord
100
AcDbLinetypeTableRecord
  2
DASHED2
 70
0
  3
Dashed (.5x) _ _ _ _ _ _ _ _ _ _ _ _ _ _ _ _ _
 72
65
 73
2
 40
9.5250000000000004
 49
6.3499999999999996
 74
0
 49
-3.1749999999999998
 74
0
  0
LTYPE
  5
36
100
AcDbSymbolTableRecord
100
AcDbLinetypeTableRecord
  2
DASHEDX2
 70
0
  3
Dashed (2x) ____  ____  ____  ____  ____  ___
 72
65
 73
2
 40
38.1000000000000014
 49
25.3999999999999986
 74
0
 49
-12.6999999999999993
 74
0
  0
LTYPE
  5
37
100
AcDbSymbolTableRecord
100
AcDbLinetypeTableRecord
  2
DASHDOT
 70
0
  3
Dash dot __ . __ . __ . __ . __ . __ . __ . __
 72
65
 73
4
 40
25.3999999999999986
 49
12.6999999999999993
 74
0
 49
-6.3499999999999996
 74
0
 49
0.0
 74
0
 49
-6.3499999999999996
 74
0
  0
LTYPE
  5
38
100
AcDbSymbolTableRecord
100
AcDbLinetypeTableRecord
  2
DASHDOT2
 70
0
  3
Dash dot (.5x) _._._._._._._._._._._._._._._.
 72
65
 73
4
 40
12.6999999999999993
 49
6.3499999999999996
 74
0
 49
-3.1749999999999998
 74
0
 49
0.0
 74
0
 49
-3.1749999999999998
 74
0
  0
LTYPE
  5
39
100
AcDbSymbolTableRecord
100
AcDbLinetypeTableRecord
  2
DASHDOTX2
 70
0
  3
Dash dot (2x) ____  .  ____  .  ____  .  ___
 72
65
 73
4
 40
50.7999999999999972
 49
25.3999999999999986
 74
0
 49
-12.6999999999999993
 74
0
 49
0.0
 74
0
 49
-12.6999999999999993
 74
0
  0
LTYPE
  5
3A
100
AcDbSymbolTableRecord
100
AcDbLinetypeTableRecord
  2
DIVIDE
 70
0
  3
Divide ____ . . ____ . . ____ . . ____ . . ____
 72
65
 73
6
 40
31.75
 49
12.6999999999999993
 74
0
 49
-6.3499999999999996
 74
0
 49
0.0
 74
0
 49
-6.3499999999999996
 74
0
 49
0.0
 74
0
 49
-6.3499999999999996
 74
0
  0
LTYPE
  5
3B
100
AcDbSymbolTableRecord
100
AcDbLinetypeTableRecord
  2
DIVIDE2
 70
0
  3
Divide (.5x) __..__..__..__..__..__..__..__.._
 72
65
 73
6
 40
15.875
 49
6.3499999999999996
 74
0
 49
-3.1749999999999998
 74
0
 49
0.0
 74
0
 49
-3.1749999999999998
 74
0
 49
0.0
 74
0
 49
-3.1749999999999998
 74
0
  0
LTYPE
  5
3C
100
AcDbSymbolTableRecord
100
AcDbLinetypeTableRecord
  2
DIVIDEX2
 70
0
  3
Divide (2x) ________  .  .  ________  .  .  _
 72
65
 73
6
 40
63.5
 49
25.3999999999999986
 74
0
 49
-12.6999999999999993
 74
0
 49
0.0
 74
0
 49
-12.6999999999999993
 74
0
 49
0.0
 74
0
 49
-12.6999999999999993
 74
0
  0
LTYPE
  5
3D
100
AcDbSymbolTableRecord
100
AcDbLinetypeTableRecord
  2
CENTER
 70
0
  3
Center ____ _ ____ _ ____ _ ____ _ ____ _ ____
 72
65
 73
4
 40
50.7999999999999972
 49
31.75
 74
0
 49
-6.3499999999999996
 74
0
 49
6.3499999999999996
 74
0
 49
-6.3499999999999996
 74
0
  0
LTYPE
  5
3E
100
AcDbSymbolTableRecord
100
AcDbLinetypeTableRecord
  2
CENTER2
 70
0
  3
Center (.5x) ___ _ ___ _ ___ _ ___ _ ___ _ ___
 72
65
 73
4
 40
28.5749999999999993
 49
19.0500000000000007
 74
0
 49
-3.1749999999999998
 74
0
 49
3.1749999999999998
 74
0
 49
-3.1749999999999998
 74
0
  0
LTYPE
  5
3F
100
AcDbSymbolTableRecord
100
AcDbLinetypeTableRecord
  2
CENTERX2
 70
0
  3
Center (2x) ________  __  ________  __  _____
 72
65
 73
4
 40
101.5999999999999943
 49
63.5
 74
0
 49
-12.6999999999999993
 74
0
 49
12.6999999999999993
 74
0
 49
-12.6999999999999993
 74
0
  0
LTYPE
  5
40
100
AcDbSymbolTableRecord
100
AcDbLinetypeTableRecord
  2
BORDER
 70
0
  3
Border __ __ . __ __ . __ __ . __ __ . __ __ .
 72
65
 73
6
 40
44.4500000000000028
 49
12.6999999999999993
 74
0
 49
-6.3499999999999996
 74
0
 49
12.6999999999999993
 74
0
 49
-6.3499999999999996
 74
0
 49
0.0
 74
0
 49
-6.3499999999999996
 74
0
  0
LTYPE
  5
41
100
AcDbSymbolTableRecord
100
AcDbLinetypeTableRecord
  2
BORDER2
 70
0
  3
Border (.5x) __.__.__.__.__.__.__.__.__.__.__.
 72
65
 73
6
 40
22.2250000000000014
 49
6.3499999999999996
 74
0
 49
-3.1749999999999998
 74
0
 49
6.3499999999999996
 74
0
 49
-3.1749999999999998
 74
0
 49
0.0
 74
0
 49
-3.1749999999999998
 74
0
  0
LTYPE
  5
42
100
AcDbSymbolTableRecord
100
AcDbLinetypeTableRecord
  2
BORDERX2
 70
0
  3
Border (2x) ____  ____  .  ____  ____  .  ___
 72
65
 73
6
 40
88.9000000000000057
 49
25.3999999999999986
 74
0
 49
-12.6999999999999993
 74
0
 49
25.3999999999999986
 74
0
 49
-12.6999999999999993
 74
0
 49
0.0
 74
0
 49
-12.6999999999999993
 74
0
  0
ENDTAB
  0
TABLE
  2
LAYER
  5
2
100
AcDbSymbolTable
 70
1
  0
LAYER
  5
10
100
AcDbSymbolTableRecord
100
AcDbLayerTableRecord
  2
0
 70
0
 62
7
420
0
  6
CONTINUOUS
370
0
390
F
  0
ENDTAB
  0
TABLE
  2
STYLE
  5
3
100
AcDbSymbolTable
 70
1
  0
STYLE
  5
11
100
AcDbSymbolTableRecord
100
AcDbTextStyleTableRecord
  2
Standard
 70
0
 40
0.0
 41
0.75
 50
0.0
 71
0
 42
2.5
  3
txt
  4

  0
ENDTAB
  0
TABLE
  2
VIEW
  5
6
100
AcDbSymbolTable
 70
0
  0
ENDTAB
  0
TABLE
  2
UCS
  5
7
100
AcDbSymbolTable
 70
0
  0
ENDTAB
  0
TABLE
  2
APPID
  5
9
100
AcDbSymbolTable
 70
1
  0
APPID
  5
12
100
AcDbSymbolTableRecord
100
AcDbRegAppTableRecord
  2
ACAD
 70
0
  0
ENDTAB
  0
TABLE
  2
DIMSTYLE
  5
A
100
AcDbSymbolTable
 70
1
100
AcDbDimStyleTable
 71
0
  0
DIMSTYLE
105
27
100
AcDbSymbolTableRecord
100
AcDbDimStyleTableRecord
  2
Standard
 41
0.1
 42
0.025
 43
3.75
 44
0.05
 70
0
 73
0
 74
0
 77
1
 78
8
140
0.1
141
2.5
143
0.03937007874016
147
0.025
171
3
172
1
271
2
272
2
274
3
278
44
283
0
284
8
340
11
  0
ENDTAB
  0
TABLE
  2
BLOCK_RECORD
  5
1
100
AcDbSymbolTable
 70
1
  0
BLOCK_RECORD
  5
1F
100
AcDbSymbolTableRecord
100
AcDbBlockTableRecord
  2
*Model_Space
340
22
  0
BLOCK_RECORD
  5
1B
100
AcDbSymbolTableRecord
100
AcDbBlockTableRecord
  2
*Paper_Space
340
1E
  0
BLOCK_RECORD
  5
23
100
AcDbSymbolTableRecord
100
AcDbBlockTableRecord
  2
*Paper_Space0
340
26
  0
ENDTAB
  0
ENDSEC
  0
SECTION
  2
BLOCKS
  0
BLOCK
  5
20
100
AcDbEntity
  8
0
100
AcDbBlockBegin
  2
*Model_Space
 70
0
 10
0.0
 20
0.0
 30
0.0
  3
*Model_Space
  1

  0
ENDBLK
  5
21
100
AcDbEntity
  8
0
100
AcDbBlockEnd
  0
BLOCK
  5
1C
100
AcDbEntity
 67
1
  8
0
100
AcDbBlockBegin
  2
*Paper_Space
 70
0
 10
0.0
 20
0.0
 30
0.0
  3
*Paper_Space
  1

  0
ENDBLK
  5
1D
100
AcDbEntity
 67
1
  8
0
100
AcDbBlockEnd
  0
BLOCK
  5
24
100
AcDbEntity
  8
0
100
AcDbBlockBegin
  2
*Paper_Space0
 70
0
 10
0.0
 20
0.0
 30
0.0
  3
*Paper_Space0
  1

  0
ENDBLK
  5
25
100
AcDbEntity
  8
0
100
AcDbBlockEnd
  0
ENDSEC
  0
SECTION
  2
ENTITIES
  0
LINE
  5
43
100
AcDbEntity
100
AcDbLine
  8
0
 62
256
370
-1
  6
ByLayer
 10
0.2111444747608793
 20
1.3416392621794668
 30
0.0
 11
1.1055712846804904
 21
1.7888536198392222
 31
0.0
  0
LINE
  5
44
100
AcDbEntity
100
AcDbLine
  8
0
 62
256
370
-1
  6
ByLayer
 10
1.1055712846804904
 20
1.7888536198392222
 30
0.0
 11
0.21114256936098
 21
3.5777072396784453
 31
0.0
  0
LINE
  5
45
100
AcDbEntity
100
AcDbLine
  8
0
 62
256
370
-1
  6
ByLayer
 10
0.21114256936098
 20
3.5777072396784453
 30
0.0
 11
1.1055693792805916
 21
4.0249215973382002
 31
0.0
  0
LINE
  5
46
100
AcDbEntity
100
AcDbLine
  8
0
 62
256
370
-1
  6
ByLayer
 10
1.1055693792805916
 20
4.0249215973382002
 30
0.0
 11
0.2111406639610824
 21
5.8137752171774215
 31
0.0
  0
LINE
  5
47
100
AcDbEntity
100
AcDbLine
  8
0
 62
256
370
-1
  6
ByLayer
 10
0.2111406639610824
 20
5.8137752171774215
 30
0.0
 11
1.1055674738806944
 21
6.2609895748371782
 31
0.0
  0
LINE
  5
48
100
AcDbEntity
100
AcDbLine
  8
0
 62
256
370
-1
  6
ByLayer
 10
1.1055674738806944
 20
6.2609895748371782
 30
0.0
 11
0.2111387585611822
 21
8.0498431946764022
 31
0.0
  0
LINE
  5
49
100
AcDbEntity
100
AcDbLine
  8
0
 62
256
370
-1
  6
ByLayer
 10
0.2111387585611822
 20
8.0498431946764022
 30
0.0
 11
1.1055655684807932
 21
8.4970575523361553
 31
0.0
  0
LINE
  5
4A
100
AcDbEntity
100
AcDbLine
  8
0
 62
256
370
-1
  6
ByLayer
 10
1.1055655684807932
 20
8.4970575523361553
 30
0.0
 11
0.2111368531612831
 21
10.2859111721753784
 31
0.0
  0
LINE
  5
4B
100
AcDbEntity
100
AcDbLine
  8
0
 62
256
370
-1
  6
ByLayer
 10
0.2111368531612831
 20
10.2859111721753784
 30
0.0
 11
1.1055636630808936
 21
10.7331255298351351
 31
0.0
  0
LINE
  5
4C
100
AcDbEntity
100
AcDbLine
  8
0
 62
256
370
-1
  6
ByLayer
 10
1.1055636630808936
 20
10.7331255298351351
 30
0.0
 11
0.2111349477613841
 21
12.5219791496743547
 31
0.0
  0
LINE
  5
4D
100
AcDbEntity
100
AcDbLine
  8
0
 62
256
370
-1
  6
ByLayer
 10
0.2111349477613841
 20
12.5219791496743547
 30
0.0
 11
1.1055617576809968
 21
12.9691935073341114
 31
0.0
  0
LINE
  5
4E
100
AcDbEntity
100
AcDbLine
  8
0
 62
256
370
-1
  6
ByLayer
 10
1.1055617576809968
 20
12.9691935073341114
 30
0.0
 11
0.2111330423614864
 21
14.7580471271733344
 31
0.0
  0
LINE
  5
4F
100
AcDbEntity
100
AcDbLine
  8
0
 62
256
370
-1
  6
ByLayer
 10
1.5527856423402451
 20
0.8944268099196107
 30
0.0
 11
2.0
 21
0.0
 31
0.0
  0
LINE
  5
50
100
AcDbEntity
100
AcDbLine
  8
0
 62
256
370
-1
  6
ByLayer
 10
2.0
 20
0.0
 30
0.0
 11
3.788853619839224
 21
0.8944287153195081
 31
0.0
  0
LINE
  5
51
100
AcDbEntity
100
AcDbLine
  8
0
 62
256
370
-1
  6
ByLayer
 10
3.788853619839224
 20
0.8944287153195081
 30
0.0
 11
4.236067977498978
 21
0.0000019053998979
 31
0.0
  0
LINE
  5
52
100
AcDbEntity
100
AcDbLine
  8
0
 62
256
370
-1
  6
ByLayer
 10
4.236067977498978
 20
0.0000019053998979
 30
0.0
 11
6.0249215973382011
 21
0.8944306207194082
 31
0.0
  0
LINE
  5
53
100
AcDbEntity
100
AcDbLine
  8
0
 62
256
370
-1
  6
ByLayer
 10
6.0249215973382011
 20
0.8944306207194082
 30
0.0
 11
6.4721359549979578
 21
0.0000038107997931
 31
0.0
  0
LINE
  5
54
100
AcDbEntity
100
AcDbLine
  8
0
 62
256
370
-1
  6
ByLayer
 10
6.4721359549979578
 20
0.0000038107997931
 30
0.0
 11
8.2609895748371862
 21
0.8944325261192936
 31
0.0
  0
LINE
  5
55
100
AcDbEntity
100
AcDbLine
  8
0
 62
256
370
-1
  6
ByLayer
 10
8.2609895748371862
 20
0.8944325261192936
 30
0.0
 11
8.7082039324969323
 21
0.0000057161996994
 31
0.0
  0
LINE
  5
56
100
AcDbEntity
100
AcDbLine
  8
0
 62
256
370
-1
  6
ByLayer
 10
8.7082039324969323
 20
0.0000057161996994
 30
0.0
 11
10.4970575523361589
 21
0.8944344315192025
 31
0.0
  0
LINE
  5
57
100
AcDbEntity
100
AcDbLine
  8
0
 62
256
370
-1
  6
ByLayer
 10
10.4970575523361589
 20
0.8944344315192025
 30
0.0
 11
10.944271909995912
 21
0.000007621599595
 31
0.0
  0
LINE
  5
58
100
AcDbEntity
100
AcDbLine
  8
0
 62
256
370
-1
  6
ByLayer
 10
10.944271909995912
 20
0.000007621599595
 30
0.0
 11
12.7331255298351351
 21
0.8944363369191044
 31
0.0
  0
LINE
  5
59
100
AcDbEntity
100
AcDbLine
  8
0
 62
256
370
-1
  6
ByLayer
 10
12.7331255298351351
 20
0.8944363369191044
 30
0.0
 11
13.1803398874948918
 21
0.0000095269994871
 31
0.0
  0
LINE
  5
5A
100
AcDbEntity
100
AcDbLine
  8
0
 62
256
370
-1
  6
ByLayer
 10
1.5527837369403457
 20
3.1304947874185896
 30
0.0
 11
1.9999980946001021
 21
2.2360679774989771
 31
0.0
  0
LINE
  5
5B
100
AcDbEntity
100
AcDbLine
  8
0
 62
256
370
-1
  6
ByLayer
 10
1.9999980946001021
 20
2.2360679774989771
 30
0.0
 11
3.7888517144393248
 21
3.1304966928184879
 31
0.0
  0
LINE
  5
5C
100
AcDbEntity
100
AcDbLine
  8
0
 62
256
370
-1
  6
ByLayer
 10
3.7888517144393248
 20
3.1304966928184879
 30
0.0
 11
4.2360660720990788
 21
2.2360698828988772
 31
0.0
  0
LINE
  5
5D
100
AcDbEntity
100
AcDbLine
  8
0
 62
256
370
-1
  6
ByLayer
 10
4.2360660720990788
 20
2.2360698828988772
 30
0.0
 11
6.0249196919383019
 21
3.1304985982183862
 31
0.0
  0
LINE
  5
5E
100
AcDbEntity
100
AcDbLine
  8
0
 62
256
370
-1
  6
ByLayer
 10
6.0249196919383019
 20
3.1304985982183862
 30
0.0
 11
6.4721340495980604
 21
2.2360717882987693
 31
0.0
  0
LINE
  5
5F
100
AcDbEntity
100
AcDbLine
  8
0
 62
256
370
-1
  6
ByLayer
 10
6.4721340495980604
 20
2.2360717882987693
 30
0.0
 11
8.2609876694372808
 21
3.1305005036182827
 31
0.0
  0
LINE
  5
60
100
AcDbEntity
100
AcDbLine
  8
0
 62
256
370
-1
  6
ByLayer
 10
8.2609876694372808
 20
3.1305005036182827
 30
0.0
 11
8.7082020270970339
 21
2.2360736936986729
 31
0.0
  0
LINE
  5
61
100
AcDbEntity
100
AcDbLine
  8
0
 62
256
370
-1
  6
ByLayer
 10
8.7082020270970339
 20
2.2360736936986729
 30
0.0
 11
10.497055646936257
 21
3.1305024090181837
 31
0.0
  0
LINE
  5
62
100
AcDbEntity
100
AcDbLine
  8
0
 62
256
370
-1
  6
ByLayer
 10
10.497055646936257
 20
3.1305024090181837
 30
0.0
 11
10.9442700045960208
 21
2.236075599098557
 31
0.0
  0
LINE
  5
63
100
AcDbEntity
100
AcDbLine
  8
0
 62
256
370
-1
  6
ByLayer
 10
10.9442700045960208
 20
2.236075599098557
 30
0.0
 11
12.7331236244352297
 21
3.1305043144180997
 31
0.0
  0
LINE
  5
64
100
AcDbEntity
100
AcDbLine
  8
0
 62
256
370
-1
  6
ByLayer
 10
12.7331236244352297
 20
3.1305043144180997
 30
0.0
 11
13.1803379820949935
 21
2.2360775044984633
 31
0.0
  0
LINE
  5
65
100
AcDbEntity
100
AcDbLine
  8
0
 62
256
370
-1
  6
ByLayer
 10
1.5527818315404478
 20
5.3665627649175658
 30
0.0
 11
1.9999961892002016
 21
4.472135954997956
 31
0.0
  0
LINE
  5
66
100
AcDbEntity
100
AcDbLine
  8
0
 62
256
370
-1
  6
ByLayer
 10
1.9999961892002016
 20
4.472135954997956
 30
0.0
 11
3.7888498090394265
 21
5.366564670317465
 31
0.0
  0
LINE
  5
67
100
AcDbEntity
100
AcDbLine
  8
0
 62
256
370
-1
  6
ByLayer
 10
3.7888498090394265
 20
5.366564670317465
 30
0.0
 11
4.2360641666991823
 21
4.4721378603978525
 31
0.0
  0
LINE
  5
68
100
AcDbEntity
100
AcDbLine
  8
0
 62
256
370
-1
  6
ByLayer
 10
4.2360641666991823
 20
4.4721378603978525
 30
0.0
 11
6.0249177865384063
 21
5.3665665757173606
 31
0.0
  0
LINE
  5
69
100
AcDbEntity
100
AcDbLine
  8
0
 62
256
370
-1
  6
ByLayer
 10
6.0249177865384063
 20
5.3665665757173606
 30
0.0
 11
6.4721321441981576
 21
4.4721397657977535
 31
0.0
  0
LINE
  5
6A
100
AcDbEntity
100
AcDbLine
  8
0
 62
256
370
-1
  6
ByLayer
 10
6.4721321441981576
 20
4.4721397657977535
 30
0.0
 11
8.2609857640373825
 21
5.3665684811172607
 31
0.0
  0
LINE
  5
6B
100
AcDbEntity
100
AcDbLine
  8
0
 62
256
370
-1
  6
ByLayer
 10
8.2609857640373825
 20
5.3665684811172607
 30
0.0
 11
8.7082001216971356
 21
4.4721416711976527
 31
0.0
  0
LINE
  5
6C
100
AcDbEntity
100
AcDbLine
  8
0
 62
256
370
-1
  6
ByLayer
 10
8.7082001216971356
 20
4.4721416711976527
 30
0.0
 11
10.4970537415363587
 21
5.3665703865171617
 31
0.0
  0
LINE
  5
6D
100
AcDbEntity
100
AcDbLine
  8
0
 62
256
370
-1
  6
ByLayer
 10
10.4970537415363587
 20
5.3665703865171617
 30
0.0
 11
10.9442680991961083
 21
4.4721435765975608
 31
0.0
  0
LINE
  5
6E
100
AcDbEntity
100
AcDbLine
  8
0
 62
256
370
-1
  6
ByLayer
 10
10.9442680991961083
 20
4.4721435765975608
 30
0.0
 11
12.733121719035335
 21
5.3665722919170653
 31
0.0
  0
LINE
  5
6F
100
AcDbEntity
100
AcDbLine
  8
0
 62
256
370
-1
  6
ByLayer
 10
12.733121719035335
 20
5.3665722919170653
 30
0.0
 11
13.1803360766950917
 21
4.4721454819974484
 31
0.0
  0
LINE
  5
70
100
AcDbEntity
100
AcDbLine
  8
0
 62
256
370
-1
  6
ByLayer
 10
1.5527799261405486
 20
7.6026307424165447
 30
0.0
 11
1.9999942838003038
 21
6.7082039324969331
 31
0.0
  0
LINE
  5
71
100
AcDbEntity
100
AcDbLine
  8
0
 62
256
370
-1
  6
ByLayer
 10
1.9999942838003038
 20
6.7082039324969331
 30
0.0
 11
3.7888479036395273
 21
7.602632647816443
 31
0.0
  0
LINE
  5
72
100
AcDbEntity
100
AcDbLine
  8
0
 62
256
370
-1
  6
ByLayer
 10
3.7888479036395273
 20
7.602632647816443
 30
0.0
 11
4.2360622612992831
 21
6.7082058378968314
 31
0.0
  0
LINE
  5
73
100
AcDbEntity
100
AcDbLine
  8
0
 62
256
370
-1
  6
ByLayer
 10
4.2360622612992831
 20
6.7082058378968314
 30
0.0
 11
6.0249158811385044
 21
7.6026345532163431
 31
0.0
  0
LINE
  5
74
100
AcDbEntity
100
AcDbLine
  8
0
 62
256
370
-1
  6
ByLayer
 10
6.0249158811385044
 20
7.6026345532163431
 30
0.0
 11
6.4721302387982602
 21
6.7082077432967315
 31
0.0
  0
LINE
  5
75
100
AcDbEntity
100
AcDbLine
  8
0
 62
256
370
-1
  6
ByLayer
 10
6.4721302387982602
 20
6.7082077432967315
 30
0.0
 11
8.2609838586374842
 21
7.6026364586162396
 31
0.0
  0
LINE
  5
76
100
AcDbEntity
100
AcDbLine
  8
0
 62
256
370
-1
  6
ByLayer
 10
8.2609838586374842
 20
7.6026364586162396
 30
0.0
 11
8.7081982162972373
 21
6.7082096486966316
 31
0.0
  0
LINE
  5
77
100
AcDbEntity
100
AcDbLine
  8
0
 62
256
370
-1
  6
ByLayer
 10
8.7081982162972373
 20
6.7082096486966316
 30
0.0
 11
10.4970518361364604
 21
7.6026383640161397
 31
0.0
  0
LINE
  5
78
100
AcDbEntity
100
AcDbLine
  8
0
 62
256
370
-1
  6
ByLayer
 10
10.4970518361364604
 20
7.6026383640161397
 30
0.0
 11
10.9442661937962136
 21
6.7082115540965317
 31
0.0
  0
LINE
  5
79
100
AcDbEntity
100
AcDbLine
  8
0
 62
256
370
-1
  6
ByLayer
 10
10.9442661937962136
 20
6.7082115540965317
 30
0.0
 11
12.7331198136354367
 21
7.602640269416038
 31
0.0
  0
LINE
  5
7A
100
AcDbEntity
100
AcDbLine
  8
0
 62
256
370
-1
  6
ByLayer
 10
12.7331198136354367
 20
7.602640269416038
 30
0.0
 11
13.1803341712952005
 21
6.7082134594964158
 31
0.0
  0
LINE
  5
7B
100
AcDbEntity
100
AcDbLine
  8
0
 62
256
370
-1
  6
ByLayer
 10
1.5527780207406519
 20
9.83869871991552
 30
0.0
 11
1.9999923784004054
 21
8.944271909995912
 31
0.0
  0
LINE
  5
7C
100
AcDbEntity
100
AcDbLine
  8
0
 62
256
370
-1
  6
ByLayer
 10
1.9999923784004054
 20
8.944271909995912
 30
0.0
 11
3.788845998239629
 21
9.8387006253154219
 31
0.0
  0
LINE
  5
7D
100
AcDbEntity
100
AcDbLine
  8
0
 62
256
370
-1
  6
ByLayer
 10
3.788845998239629
 20
9.8387006253154219
 30
0.0
 11
4.2360603558993821
 21
8.9442738153958103
 31
0.0
  0
LINE
  5
7E
100
AcDbEntity
100
AcDbLine
  8
0
 62
256
370
-1
  6
ByLayer
 10
4.2360603558993821
 20
8.9442738153958103
 30
0.0
 11
6.0249139757386052
 21
9.8387025307153202
 31
0.0
  0
LINE
  5
7F
100
AcDbEntity
100
AcDbLine
  8
0
 62
256
370
-1
  6
ByLayer
 10
6.0249139757386052
 20
9.8387025307153202
 30
0.0
 11
6.4721283333983619
 21
8.9442757207957087
 31
0.0
  0
LINE
  5
80
100
AcDbEntity
100
AcDbLine
  8
0
 62
256
370
-1
  6
ByLayer
 10
6.4721283333983619
 20
8.9442757207957087
 30
0.0
 11
8.2609819532375859
 21
9.8387044361152185
 31
0.0
  0
LINE
  5
81
100
AcDbEntity
100
AcDbLine
  8
0
 62
256
370
-1
  6
ByLayer
 10
8.2609819532375859
 20
9.8387044361152185
 30
0.0
 11
8.708196310897339
 21
8.944277626195607
 31
0.0
  0
LINE
  5
82
100
AcDbEntity
100
AcDbLine
  8
0
 62
256
370
-1
  6
ByLayer
 10
8.708196310897339
 20
8.944277626195607
 30
0.0
 11
10.4970499307365621
 21
9.8387063415151133
 31
0.0
  0
LINE
  5
83
100
AcDbEntity
100
AcDbLine
  8
0
 62
256
370
-1
  6
ByLayer
 10
10.4970499307365621
 20
9.8387063415151133
 30
0.0
 11
10.9442642883963153
 21
8.9442795315955088
 31
0.0
  0
LINE
  5
84
100
AcDbEntity
100
AcDbLine
  8
0
 62
256
370
-1
  6
ByLayer
 10
10.9442642883963153
 20
8.9442795315955088
 30
0.0
 11
12.7331179082355419
 21
9.8387082469150116
 31
0.0
  0
LINE
  5
85
100
AcDbEntity
100
AcDbLine
  8
0
 62
256
370
-1
  6
ByLayer
 10
12.7331179082355419
 20
9.8387082469150116
 30
0.0
 11
13.1803322658952986
 21
8.9442814369954
 31
0.0
  0
LINE
  5
86
100
AcDbEntity
100
AcDbLine
  8
0
 62
256
370
-1
  6
ByLayer
 10
1.5527761153407535
 20
12.0747666974144998
 30
0.0
 11
1.9999904730005063
 21
11.1803398874948883
 31
0.0
  0
LINE
  5
87
100
AcDbEntity
100
AcDbLine
  8
0
 62
256
370
-1
  6
ByLayer
 10
1.9999904730005063
 20
11.1803398874948883
 30
0.0
 11
3.788844092839728
 21
12.0747686028144017
 31
0.0
  0
LINE
  5
88
100
AcDbEntity
100
AcDbLine
  8
0
 62
256
370
-1
  6
ByLayer
 10
3.788844092839728
 20
12.0747686028144017
 30
0.0
 11
4.236058450499482
 21
11.1803417928947901
 31
0.0
  0
LINE
  5
89
100
AcDbEntity
100
AcDbLine
  8
0
 62
256
370
-1
  6
ByLayer
 10
4.236058450499482
 20
11.1803417928947901
 30
0.0
 11
6.0249120703387078
 21
12.0747705082142964
 31
0.0
  0
LINE
  5
8A
100
AcDbEntity
100
AcDbLine
  8
0
 62
256
370
-1
  6
ByLayer
 10
6.0249120703387078
 20
12.0747705082142964
 30
0.0
 11
6.4721264279984645
 21
11.1803436982946849
 31
0.0
  0
LINE
  5
8B
100
AcDbEntity
100
AcDbLine
  8
0
 62
256
370
-1
  6
ByLayer
 10
6.4721264279984645
 20
11.1803436982946849
 30
0.0
 11
8.260980047837684
 21
12.0747724136141983
 31
0.0
  0
LINE
  5
8C
100
AcDbEntity
100
AcDbLine
  8
0
 62
256
370
-1
  6
ByLayer
 10
8.260980047837684
 20
12.0747724136141983
 30
0.0
 11
8.7081944054974443
 21
11.1803456036945832
 31
0.0
  0
LINE
  5
8D
100
AcDbEntity
100
AcDbLine
  8
0
 62
256
370
-1
  6
ByLayer
 10
8.7081944054974443
 20
11.1803456036945832
 30
0.0
 11
10.4970480253366638
 21
12.0747743190140966
 31
0.0
  0
LINE
  5
8E
100
AcDbEntity
100
AcDbLine
  8
0
 62
256
370
-1
  6
ByLayer
 10
10.4970480253366638
 20
12.0747743190140966
 30
0.0
 11
10.9442623829964205
 21
11.1803475090944815
 31
0.0
  0
LINE
  5
8F
100
AcDbEntity
100
AcDbLine
  8
0
 62
256
370
-1
  6
ByLayer
 10
10.9442623829964205
 20
11.1803475090944815
 30
0.0
 11
12.7331160028356365
 21
12.0747762244139984
 31
0.0
  0
LINE
  5
90
100
AcDbEntity
100
AcDbLine
  8
0
 62
256
370
-1
  6
ByLayer
 10
12.7331160028356365
 20
12.0747762244139984
 30
0.0
 11
13.1803303604953932
 21
11.1803494144943834
 31
0.0
  0
LINE
  5
91
100
AcDbEntity
100
AcDbLine
  8
0
 62
256
370
-1
  6
ByLayer
 10
1.5527742099408508
 20
14.3108346749134796
 30
0.0
 11
1.9999885676006075
 21
13.4164078649938681
 31
0.0
  0
LINE
  5
92
100
AcDbEntity
100
AcDbLine
  8
0
 62
256
370
-1
  6
ByLayer
 10
1.9999885676006075
 20
13.4164078649938681
 30
0.0
 11
3.7888421874398279
 21
14.3108365803133779
 31
0.0
  0
LINE
  5
93
100
AcDbEntity
100
AcDbLine
  8
0
 62
256
370
-1
  6
ByLayer
 10
3.7888421874398279
 20
14.3108365803133779
 30
0.0
 11
4.2360565450995855
 21
13.4164097703937664
 31
0.0
  0
LINE
  5
94
100
AcDbEntity
100
AcDbLine
  8
0
 62
256
370
-1
  6
ByLayer
 10
4.2360565450995855
 20
13.4164097703937664
 30
0.0
 11
6.0249101649388104
 21
14.3108384857132727
 31
0.0
  0
LINE
  5
95
100
AcDbEntity
100
AcDbLine
  8
0
 62
256
370
-1
  6
ByLayer
 10
6.0249101649388104
 20
14.3108384857132727
 30
0.0
 11
6.4721245225985617
 21
13.4164116757936682
 31
0.0
  0
LINE
  5
96
100
AcDbEntity
100
AcDbLine
  8
0
 62
256
370
-1
  6
ByLayer
 10
6.4721245225985617
 20
13.4164116757936682
 30
0.0
 11
8.2609781424377857
 21
14.3108403911131745
 31
0.0
  0
LINE
  5
97
100
AcDbEntity
100
AcDbLine
  8
0
 62
256
370
-1
  6
ByLayer
 10
8.2609781424377857
 20
14.3108403911131745
 30
0.0
 11
8.7081925000975424
 21
13.416413581193563
 31
0.0
  0
LINE
  5
98
100
AcDbEntity
100
AcDbLine
  8
0
 62
256
370
-1
  6
ByLayer
 10
8.7081925000975424
 20
13.416413581193563
 30
0.0
 11
10.497046119936762
 21
14.3108422965130728
 31
0.0
  0
LINE
  5
99
100
AcDbEntity
100
AcDbLine
  8
0
 62
256
370
-1
  6
ByLayer
 10
10.497046119936762
 20
14.3108422965130728
 30
0.0
 11
10.9442604775965222
 21
13.4164154865934577
 31
0.0
  0
LINE
  5
9A
100
AcDbEntity
100
AcDbLine
  8
0
 62
256
370
-1
  6
ByLayer
 10
10.9442604775965222
 20
13.4164154865934577
 30
0.0
 11
12.7331140974357417
 21
14.3108442019129711
 31
0.0
  0
LINE
  5
9B
100
AcDbEntity
100
AcDbLine
  8
0
 62
256
370
-1
  6
ByLayer
 10
12.7331140974357417
 20
14.3108442019129711
 30
0.0
 11
13.1803284550954984
 21
13.4164173919933596
 31
0.0
  0
LINE
  5
9C
100
AcDbEntity
100
AcDbLine
  8
0
 62
256
370
-1
  6
ByLayer
 10
1.5527723045409556
 20
16.5469026524124523
 30
0.0
 11
1.9999866622007119
 21
15.6524758424928443
 31
0.0
  0
LINE
  5
9D
100
AcDbEntity
100
AcDbLine
  8
0
 62
256
370
-1
  6
ByLayer
 10
1.9999866622007119
 20
15.6524758424928443
 30
0.0
 11
3.7888402820399332
 21
16.5469045578123541
 31
0.0
  0
LINE
  5
9E
100
AcDbEntity
100
AcDbLine
  8
0
 62
256
370
-1
  6
ByLayer
 10
3.7888402820399332
 20
16.5469045578123541
 30
0.0
 11
4.2360546396996863
 21
15.6524777478927426
 31
0.0
  0
LINE
  5
9F
100
AcDbEntity
100
AcDbLine
  8
0
 62
256
370
-1
  6
ByLayer
 10
4.2360546396996863
 20
15.6524777478927426
 30
0.0
 11
6.0249082595389112
 21
16.5469064632122524
 31
0.0
  0
LINE
  5
A0
100
AcDbEntity
100
AcDbLine
  8
0
 62
256
370
-1
  6
ByLayer
 10
6.0249082595389112
 20
16.5469064632122524
 30
0.0
 11
6.4721226171986661
 21
15.6524796532926409
 31
0.0
  0
LINE
  5
A1
100
AcDbEntity
100
AcDbLine
  8
0
 62
256
370
-1
  6
ByLayer
 10
6.4721226171986661
 20
15.6524796532926409
 30
0.0
 11
8.2609762370378874
 21
16.5469083686121508
 31
0.0
  0
LINE
  5
A2
100
AcDbEntity
100
AcDbLine
  8
0
 62
256
370
-1
  6
ByLayer
 10
8.2609762370378874
 20
16.5469083686121508
 30
0.0
 11
8.7081905946976441
 21
15.6524815586925392
 31
0.0
  0
LINE
  5
A3
100
AcDbEntity
100
AcDbLine
  8
0
 62
256
370
-1
  6
ByLayer
 10
8.7081905946976441
 20
15.6524815586925392
 30
0.0
 11
10.4970442145368672
 21
16.5469102740120526
 31
0.0
  0
LINE
  5
A4
100
AcDbEntity
100
AcDbLine
  8
0
 62
256
370
-1
  6
ByLayer
 10
10.4970442145368672
 20
16.5469102740120526
 30
0.0
 11
10.9442585721966203
 21
15.6524834640924411
 31
0.0
  0
LINE
  5
A5
100
AcDbEntity
100
AcDbLine
  8
0
 62
256
370
-1
  6
ByLayer
 10
10.9442585721966203
 20
15.6524834640924411
 30
0.0
 11
12.733112192035847
 21
16.5469121794119438
 31
0.0
  0
LINE
  5
A6
100
AcDbEntity
100
AcDbLine
  8
0
 62
256
370
-1
  6
ByLayer
 10
12.733112192035847
 20
16.5469121794119438
 30
0.0
 11
13.1803265496956001
 21
15.6524853694923394
 31
0.0
  0
LINE
  5
A7
100
AcDbEntity
100
AcDbLine
  8
0
 62
256
370
-1
  6
ByLayer
 10
1.5527703991410551
 20
18.7829706299114356
 30
0.0
 11
1.9999847568008127
 21
17.8885438199918205
 31
0.0
  0
LINE
  5
A8
100
AcDbEntity
100
AcDbLine
  8
0
 62
256
370
-1
  6
ByLayer
 10
1.9999847568008127
 20
17.8885438199918205
 30
0.0
 11
3.7888383766400358
 21
18.7829725353113304
 31
0.0
  0
LINE
  5
A9
100
AcDbEntity
100
AcDbLine
  8
0
 62
256
370
-1
  6
ByLayer
 10
3.7888383766400358
 20
18.7829725353113304
 30
0.0
 11
4.2360527342997853
 21
17.8885457253917224
 31
0.0
  0
LINE
  5
AA
100
AcDbEntity
100
AcDbLine
  8
0
 62
256
370
-1
  6
ByLayer
 10
4.2360527342997853
 20
17.8885457253917224
 30
0.0
 11
6.0249063541390111
 21
18.7829744407112322
 31
0.0
  0
LINE
  5
AB
100
AcDbEntity
100
AcDbLine
  8
0
 62
256
370
-1
  6
ByLayer
 10
6.0249063541390111
 20
18.7829744407112322
 30
0.0
 11
6.4721207117987634
 21
17.8885476307916207
 31
0.0
  0
LINE
  5
AC
100
AcDbEntity
100
AcDbLine
  8
0
 62
256
370
-1
  6
ByLayer
 10
6.4721207117987634
 20
17.8885476307916207
 30
0.0
 11
8.2609743316379891
 21
18.7829763461111305
 31
0.0
  0
LINE
  5
AD
100
AcDbEntity
100
AcDbLine
  8
0
 62
256
370
-1
  6
ByLayer
 10
8.2609743316379891
 20
18.7829763461111305
 30
0.0
 11
8.7081886892977458
 21
17.8885495361915154
 31
0.0
  0
LINE
  5
AE
100
AcDbEntity
100
AcDbLine
  8
0
 62
256
370
-1
  6
ByLayer
 10
8.7081886892977458
 20
17.8885495361915154
 30
0.0
 11
10.4970423091369653
 21
18.7829782515110288
 31
0.0
  0
LINE
  5
AF
100
AcDbEntity
100
AcDbLine
  8
0
 62
256
370
-1
  6
ByLayer
 10
10.4970423091369653
 20
18.7829782515110288
 30
0.0
 11
10.944256666796722
 21
17.8885514415914173
 31
0.0
  0
LINE
  5
B0
100
AcDbEntity
100
AcDbLine
  8
0
 62
256
370
-1
  6
ByLayer
 10
10.944256666796722
 20
17.8885514415914173
 30
0.0
 11
12.7331102866359416
 21
18.7829801569109271
 31
0.0
  0
LINE
  5
B1
100
AcDbEntity
100
AcDbLine
  8
0
 62
256
370
-1
  6
ByLayer
 10
12.7331102866359416
 20
18.7829801569109271
 30
0.0
 11
13.1803246442957054
 21
17.8885533469913085
 31
0.0
  0
LINE
  5
B2
100
AcDbEntity
100
AcDbLine
  8
0
 62
256
370
-1
  6
ByLayer
 10
0.2111330423614864
 20
14.7580471271733344
 30
0.0
 11
1.1055598522810974
 21
15.2052614848330876
 31
0.0
  0
LINE
  5
B3
100
AcDbEntity
100
AcDbLine
  8
0
 62
256
370
-1
  6
ByLayer
 10
1.1055598522810974
 20
15.2052614848330876
 30
0.0
 11
0.2111311369615894
 21
16.9941151046723107
 31
0.0
  0
LINE
  5
B4
100
AcDbEntity
100
AcDbLine
  8
0
 62
256
370
-1
  6
ByLayer
 10
0.2111311369615894
 20
16.9941151046723107
 30
0.0
 11
1.1055579468811989
 21
17.4413294623320674
 31
0.0
  0
LINE
  5
B5
100
AcDbEntity
100
AcDbLine
  8
0
 62
256
370
-1
  6
ByLayer
 10
2.4472124522598566
 20
1.341641167579366
 30
0.0
 11
3.3416392621794686
 21
1.7888555252391196
 31
0.0
  0
LINE
  5
B6
100
AcDbEntity
100
AcDbLine
  8
0
 62
256
370
-1
  6
ByLayer
 10
3.3416392621794686
 20
1.7888555252391196
 30
0.0
 11
2.4472105468599583
 21
3.5777091450783436
 31
0.0
  0
LINE
  5
B7
100
AcDbEntity
100
AcDbLine
  8
0
 62
256
370
-1
  6
ByLayer
 10
2.4472105468599583
 20
3.5777091450783436
 30
0.0
 11
3.341637356779569
 21
4.0249235027380985
 31
0.0
  0
LINE
  5
B8
100
AcDbEntity
100
AcDbLine
  8
0
 62
256
370
-1
  6
ByLayer
 10
3.341637356779569
 20
4.0249235027380985
 30
0.0
 11
2.4472086414600596
 21
5.8137771225773216
 31
0.0
  0
LINE
  5
B9
100
AcDbEntity
100
AcDbLine
  8
0
 62
256
370
-1
  6
ByLayer
 10
2.4472086414600596
 20
5.8137771225773216
 30
0.0
 11
3.3416354513796716
 21
6.2609914802370765
 31
0.0
  0
LINE
  5
BA
100
AcDbEntity
100
AcDbLine
  8
0
 62
256
370
-1
  6
ByLayer
 10
3.3416354513796716
 20
6.2609914802370765
 30
0.0
 11
2.4472067360601595
 21
8.0498451000763005
 31
0.0
  0
LINE
  5
BB
100
AcDbEntity
100
AcDbLine
  8
0
 62
256
370
-1
  6
ByLayer
 10
2.4472067360601595
 20
8.0498451000763005
 30
0.0
 11
3.3416335459797701
 21
8.4970594577360572
 31
0.0
  0
LINE
  5
BC
100
AcDbEntity
100
AcDbLine
  8
0
 62
256
370
-1
  6
ByLayer
 10
3.3416335459797701
 20
8.4970594577360572
 30
0.0
 11
2.4472048306602621
 21
10.2859130775752767
 31
0.0
  0
LINE
  5
BD
100
AcDbEntity
100
AcDbLine
  8
0
 62
256
370
-1
  6
ByLayer
 10
2.4472048306602621
 20
10.2859130775752767
 30
0.0
 11
3.3416316405798736
 21
10.7331274352350334
 31
0.0
  0
LINE
  5
BE
100
AcDbEntity
100
AcDbLine
  8
0
 62
256
370
-1
  6
ByLayer
 10
3.3416316405798736
 20
10.7331274352350334
 30
0.0
 11
2.4472029252603624
 21
12.5219810550742565
 31
0.0
  0
LINE
  5
BF
100
AcDbEntity
100
AcDbLine
  8
0
 62
256
370
-1
  6
ByLayer
 10
2.4472029252603624
 20
12.5219810550742565
 30
0.0
 11
3.3416297351799744
 21
12.9691954127340097
 31
0.0
  0
LINE
  5
C0
100
AcDbEntity
100
AcDbLine
  8
0
 62
256
370
-1
  6
ByLayer
 10
3.3416297351799744
 20
12.9691954127340097
 30
0.0
 11
2.4472010198604677
 21
14.7580490325732328
 31
0.0
  0
LINE
  5
C1
100
AcDbEntity
100
AcDbLine
  8
0
 62
256
370
-1
  6
ByLayer
 10
2.4472010198604677
 20
14.7580490325732328
 30
0.0
 11
3.3416278297800752
 21
15.2052633902329895
 31
0.0
  0
LINE
  5
C2
100
AcDbEntity
100
AcDbLine
  8
0
 62
256
370
-1
  6
ByLayer
 10
3.3416278297800752
 20
15.2052633902329895
 30
0.0
 11
2.4471991144605645
 21
16.9941170100722125
 31
0.0
  0
LINE
  5
C3
100
AcDbEntity
100
AcDbLine
  8
0
 62
256
370
-1
  6
ByLayer
 10
2.4471991144605645
 20
16.9941170100722125
 30
0.0
 11
3.341625924380176
 21
17.4413313677319657
 31
0.0
  0
LINE
  5
C4
100
AcDbEntity
100
AcDbLine
  8
0
 62
256
370
-1
  6
ByLayer
 10
4.6832804297588346
 20
1.3416430729792634
 30
0.0
 11
5.5777072396784444
 21
1.7888574306390224
 31
0.0
  0
LINE
  5
C5
100
AcDbEntity
100
AcDbLine
  8
0
 62
256
370
-1
  6
ByLayer
 10
5.5777072396784444
 20
1.7888574306390224
 30
0.0
 11
4.6832785243589354
 21
3.5777110504782437
 31
0.0
  0
LINE
  5
C6
100
AcDbEntity
100
AcDbLine
  8
0
 62
256
370
-1
  6
ByLayer
 10
4.6832785243589354
 20
3.5777110504782437
 30
0.0
 11
5.577705334278547
 21
4.0249254081379968
 31
0.0
  0
LINE
  5
C7
100
AcDbEntity
100
AcDbLine
  8
0
 62
256
370
-1
  6
ByLayer
 10
5.577705334278547
 20
4.0249254081379968
 30
0.0
 11
4.6832766189590389
 21
5.8137790279772181
 31
0.0
  0
LINE
  5
C8
100
AcDbEntity
100
AcDbLine
  8
0
 62
256
370
-1
  6
ByLayer
 10
4.6832766189590389
 20
5.8137790279772181
 30
0.0
 11
5.5777034288786478
 21
6.2609933856369766
 31
0.0
  0
LINE
  5
C9
100
AcDbEntity
100
AcDbLine
  8
0
 62
256
370
-1
  6
ByLayer
 10
5.5777034288786478
 20
6.2609933856369766
 30
0.0
 11
4.6832747135591388
 21
8.0498470054761988
 31
0.0
  0
LINE
  5
CA
100
AcDbEntity
100
AcDbLine
  8
0
 62
256
370
-1
  6
ByLayer
 10
4.6832747135591388
 20
8.0498470054761988
 30
0.0
 11
5.5777015234787486
 21
8.497061363135952
 31
0.0
  0
LINE
  5
CB
100
AcDbEntity
100
AcDbLine
  8
0
 62
256
370
-1
  6
ByLayer
 10
5.5777015234787486
 20
8.497061363135952
 30
0.0
 11
4.6832728081592405
 21
10.285914982975175
 31
0.0
  0
LINE
  5
CC
100
AcDbEntity
100
AcDbLine
  8
0
 62
256
370
-1
  6
ByLayer
 10
4.6832728081592405
 20
10.285914982975175
 30
0.0
 11
5.5776996180788521
 21
10.7331293406349317
 31
0.0
  0
LINE
  5
CD
100
AcDbEntity
100
AcDbLine
  8
0
 62
256
370
-1
  6
ByLayer
 10
5.5776996180788521
 20
10.7331293406349317
 30
0.0
 11
4.6832709027593413
 21
12.5219829604741548
 31
0.0
  0
LINE
  5
CE
100
AcDbEntity
100
AcDbLine
  8
0
 62
256
370
-1
  6
ByLayer
 10
4.6832709027593413
 20
12.5219829604741548
 30
0.0
 11
5.5776977126789538
 21
12.969197318133908
 31
0.0
  0
LINE
  5
CF
100
AcDbEntity
100
AcDbLine
  8
0
 62
256
370
-1
  6
ByLayer
 10
5.5776977126789538
 20
12.969197318133908
 30
0.0
 11
4.6832689973594412
 21
14.7580509379731311
 31
0.0
  0
LINE
  5
D0
100
AcDbEntity
100
AcDbLine
  8
0
 62
256
370
-1
  6
ByLayer
 10
4.6832689973594412
 20
14.7580509379731311
 30
0.0
 11
5.5776958072790546
 21
15.2052652956328842
 31
0.0
  0
LINE
  5
D1
100
AcDbEntity
100
AcDbLine
  8
0
 62
256
370
-1
  6
ByLayer
 10
5.5776958072790546
 20
15.2052652956328842
 30
0.0
 11
4.6832670919595412
 21
16.9941189154721108
 31
0.0
  0
LINE
  5
D2
100
AcDbEntity
100
AcDbLine
  8
0
 62
256
370
-1
  6
ByLayer
 10
4.6832670919595412
 20
16.9941189154721108
 30
0.0
 11
5.5776939018791536
 21
17.4413332731318675
 31
0.0
  0
LINE
  5
D3
100
AcDbEntity
100
AcDbLine
  8
0
 62
256
370
-1
  6
ByLayer
 10
6.9193484072578126
 20
1.3416449783791631
 30
0.0
 11
7.8137752171774233
 21
1.788859336038918
 31
0.0
  0
LINE
  5
D4
100
AcDbEntity
100
AcDbLine
  8
0
 62
256
370
-1
  6
ByLayer
 10
7.8137752171774233
 20
1.788859336038918
 30
0.0
 11
6.9193465018579161
 21
3.5777129558781384
 31
0.0
  0
LINE
  5
D5
100
AcDbEntity
100
AcDbLine
  8
0
 62
256
370
-1
  6
ByLayer
 10
6.9193465018579161
 20
3.5777129558781384
 30
0.0
 11
7.8137733117775268
 21
4.0249273135378933
 31
0.0
  0
LINE
  5
D6
100
AcDbEntity
100
AcDbLine
  8
0
 62
256
370
-1
  6
ByLayer
 10
7.8137733117775268
 20
4.0249273135378933
 30
0.0
 11
6.919344596458016
 21
5.8137809333771164
 31
0.0
  0
LINE
  5
D7
100
AcDbEntity
100
AcDbLine
  8
0
 62
256
370
-1
  6
ByLayer
 10
6.919344596458016
 20
5.8137809333771164
 30
0.0
 11
7.8137714063776249
 21
6.2609952910368767
 31
0.0
  0
LINE
  5
D8
100
AcDbEntity
100
AcDbLine
  8
0
 62
256
370
-1
  6
ByLayer
 10
7.8137714063776249
 20
6.2609952910368767
 30
0.0
 11
6.9193426910581159
 21
8.0498489108760971
 31
0.0
  0
LINE
  5
D9
100
AcDbEntity
100
AcDbLine
  8
0
 62
256
370
-1
  6
ByLayer
 10
6.9193426910581159
 20
8.0498489108760971
 30
0.0
 11
7.8137695009777284
 21
8.4970632685358538
 31
0.0
  0
LINE
  5
DA
100
AcDbEntity
100
AcDbLine
  8
0
 62
256
370
-1
  6
ByLayer
 10
7.8137695009777284
 20
8.4970632685358538
 30
0.0
 11
6.9193407856582168
 21
10.2859168883750733
 31
0.0
  0
LINE
  5
DB
100
AcDbEntity
100
AcDbLine
  8
0
 62
256
370
-1
  6
ByLayer
 10
6.9193407856582168
 20
10.2859168883750733
 30
0.0
 11
7.8137675955778301
 21
10.73313124603483
 31
0.0
  0
LINE
  5
DC
100
AcDbEntity
100
AcDbLine
  8
0
 62
256
370
-1
  6
ByLayer
 10
7.8137675955778301
 20
10.73313124603483
 30
0.0
 11
6.9193388802583184
 21
12.5219848658740567
 31
0.0
  0
LINE
  5
DD
100
AcDbEntity
100
AcDbLine
  8
0
 62
256
370
-1
  6
ByLayer
 10
6.9193388802583184
 20
12.5219848658740567
 30
0.0
 11
7.8137656901779318
 21
12.9691992235338063
 31
0.0
  0
LINE
  5
DE
100
AcDbEntity
100
AcDbLine
  8
0
 62
256
370
-1
  6
ByLayer
 10
7.8137656901779318
 20
12.9691992235338063
 30
0.0
 11
6.9193369748584219
 21
14.7580528433730294
 31
0.0
  0
LINE
  5
DF
100
AcDbEntity
100
AcDbLine
  8
0
 62
256
370
-1
  6
ByLayer
 10
6.9193369748584219
 20
14.7580528433730294
 30
0.0
 11
7.8137637847780317
 21
15.2052672010327825
 31
0.0
  0
LINE
  5
E0
100
AcDbEntity
100
AcDbLine
  8
0
 62
256
370
-1
  6
ByLayer
 10
7.8137637847780317
 20
15.2052672010327825
 30
0.0
 11
6.9193350694585174
 21
16.9941208208720091
 31
0.0
  0
LINE
  5
E1
100
AcDbEntity
100
AcDbLine
  8
0
 62
256
370
-1
  6
ByLayer
 10
6.9193350694585174
 20
16.9941208208720091
 30
0.0
 11
7.8137618793781334
 21
17.4413351785317623
 31
0.0
  0
LINE
  5
E2
100
AcDbEntity
100
AcDbLine
  8
0
 62
256
370
-1
  6
ByLayer
 10
9.1554163847567906
 20
1.3416468837790592
 30
0.0
 11
10.0498431946764022
 21
1.788861241438819
 31
0.0
  0
LINE
  5
E3
100
AcDbEntity
100
AcDbLine
  8
0
 62
256
370
-1
  6
ByLayer
 10
10.0498431946764022
 20
1.788861241438819
 30
0.0
 11
9.1554144793568923
 21
3.5777148612780394
 31
0.0
  0
LINE
  5
E4
100
AcDbEntity
100
AcDbLine
  8
0
 62
256
370
-1
  6
ByLayer
 10
9.1554144793568923
 20
3.5777148612780394
 30
0.0
 11
10.0498412892765003
 21
4.0249292189378023
 31
0.0
  0
LINE
  5
E5
100
AcDbEntity
100
AcDbLine
  8
0
 62
256
370
-1
  6
ByLayer
 10
10.0498412892765003
 20
4.0249292189378023
 30
0.0
 11
9.155412573956994
 21
5.813782838777013
 31
0.0
  0
LINE
  5
E6
100
AcDbEntity
100
AcDbLine
  8
0
 62
256
370
-1
  6
ByLayer
 10
9.155412573956994
 20
5.813782838777013
 30
0.0
 11
10.049839383876602
 21
6.260997196436775
 31
0.0
  0
LINE
  5
E7
100
AcDbEntity
100
AcDbLine
  8
0
 62
256
370
-1
  6
ByLayer
 10
10.049839383876602
 20
6.260997196436775
 30
0.0
 11
9.1554106685570922
 21
8.0498508162759954
 31
0.0
  0
LINE
  5
E8
100
AcDbEntity
100
AcDbLine
  8
0
 62
256
370
-1
  6
ByLayer
 10
9.1554106685570922
 20
8.0498508162759954
 30
0.0
 11
10.0498374784767073
 21
8.4970651739357521
 31
0.0
  0
LINE
  5
E9
100
AcDbEntity
100
AcDbLine
  8
0
 62
256
370
-1
  6
ByLayer
 10
10.0498374784767073
 20
8.4970651739357521
 30
0.0
 11
9.1554087631571974
 21
10.2859187937749752
 31
0.0
  0
LINE
  5
EA
100
AcDbEntity
100
AcDbLine
  8
0
 62
256
370
-1
  6
ByLayer
 10
9.1554087631571974
 20
10.2859187937749752
 30
0.0
 11
10.049835573076809
 21
10.7331331514347283
 31
0.0
  0
LINE
  5
EB
100
AcDbEntity
100
AcDbLine
  8
0
 62
256
370
-1
  6
ByLayer
 10
10.049835573076809
 20
10.7331331514347283
 30
0.0
 11
9.1554068577572956
 21
12.5219867712739514
 31
0.0
  0
LINE
  5
EC
100
AcDbEntity
100
AcDbLine
  8
0
 62
256
370
-1
  6
ByLayer
 10
9.1554068577572956
 20
12.5219867712739514
 30
0.0
 11
10.0498336676769071
 21
12.9692011289337081
 31
0.0
  0
LINE
  5
ED
100
AcDbEntity
100
AcDbLine
  8
0
 62
256
370
-1
  6
ByLayer
 10
10.0498336676769071
 20
12.9692011289337081
 30
0.0
 11
9.1554049523574008
 21
14.7580547487729277
 31
0.0
  0
LINE
  5
EE
100
AcDbEntity
100
AcDbLine
  8
0
 62
256
370
-1
  6
ByLayer
 10
9.1554049523574008
 20
14.7580547487729277
 30
0.0
 11
10.0498317622770088
 21
15.2052691064326844
 31
0.0
  0
LINE
  5
EF
100
AcDbEntity
100
AcDbLine
  8
0
 62
256
370
-1
  6
ByLayer
 10
10.0498317622770088
 20
15.2052691064326844
 30
0.0
 11
9.155403046957499
 21
16.9941227262719039
 31
0.0
  0
LINE
  5
F0
100
AcDbEntity
100
AcDbLine
  8
0
 62
256
370
-1
  6
ByLayer
 10
9.155403046957499
 20
16.9941227262719039
 30
0.0
 11
10.0498298568771105
 21
17.4413370839316642
 31
0.0
  0
LINE
  5
F1
100
AcDbEntity
100
AcDbLine
  8
0
 62
256
370
-1
  6
ByLayer
 10
11.3914843622557704
 20
1.3416487891789539
 30
0.0
 11
12.285911172175382
 21
1.7888631468387119
 31
0.0
  0
LINE
  5
F2
100
AcDbEntity
100
AcDbLine
  8
0
 62
256
370
-1
  6
ByLayer
 10
12.285911172175382
 20
1.7888631468387119
 30
0.0
 11
11.3914824568558686
 21
3.5777167666779386
 31
0.0
  0
LINE
  5
F3
100
AcDbEntity
100
AcDbLine
  8
0
 62
256
370
-1
  6
ByLayer
 10
11.3914824568558686
 20
3.5777167666779386
 30
0.0
 11
12.2859092667754801
 21
4.0249311243376935
 31
0.0
  0
LINE
  5
F4
100
AcDbEntity
100
AcDbLine
  8
0
 62
256
370
-1
  6
ByLayer
 10
12.2859092667754801
 20
4.0249311243376935
 30
0.0
 11
11.3914805514559667
 21
5.8137847441769219
 31
0.0
  0
LINE
  5
F5
100
AcDbEntity
100
AcDbLine
  8
0
 62
256
370
-1
  6
ByLayer
 10
11.3914805514559667
 20
5.8137847441769219
 30
0.0
 11
12.2859073613755818
 21
6.2609991018366715
 31
0.0
  0
LINE
  5
F6
100
AcDbEntity
100
AcDbLine
  8
0
 62
256
370
-1
  6
ByLayer
 10
12.2859073613755818
 20
6.2609991018366715
 30
0.0
 11
11.391478646056072
 21
8.0498527216758937
 31
0.0
  0
LINE
  5
F7
100
AcDbEntity
100
AcDbLine
  8
0
 62
256
370
-1
  6
ByLayer
 10
11.391478646056072
 20
8.0498527216758937
 30
0.0
 11
12.2859054559756835
 21
8.4970670793356504
 31
0.0
  0
LINE
  5
F8
100
AcDbEntity
100
AcDbLine
  8
0
 62
256
370
-1
  6
ByLayer
 10
12.2859054559756835
 20
8.4970670793356504
 30
0.0
 11
11.3914767406561737
 21
10.28592069917487
 31
0.0
  0
LINE
  5
F9
100
AcDbEntity
100
AcDbLine
  8
0
 62
256
370
-1
  6
ByLayer
 10
11.3914767406561737
 20
10.28592069917487
 30
0.0
 11
12.2859035505757852
 21
10.7331350568346267
 31
0.0
  0
LINE
  5
FA
100
AcDbEntity
100
AcDbLine
  8
0
 62
256
370
-1
  6
ByLayer
 10
12.2859035505757852
 20
10.7331350568346267
 30
0.0
 11
11.3914748352562789
 21
12.5219886766738462
 31
0.0
  0
LINE
  5
FB
100
AcDbEntity
100
AcDbLine
  8
0
 62
256
370
-1
  6
ByLayer
 10
11.3914748352562789
 20
12.5219886766738462
 30
0.0
 11
12.2859016451758905
 21
12.9692030343335993
 31
0.0
  0
LINE
  5
FC
100
AcDbEntity
100
AcDbLine
  8
0
 62
256
370
-1
  6
ByLayer
 10
12.2859016451758905
 20
12.9692030343335993
 30
0.0
 11
11.3914729298563735
 21
14.7580566541728295
 31
0.0
  0
LINE
  5
FD
100
AcDbEntity
100
AcDbLine
  8
0
 62
256
370
-1
  6
ByLayer
 10
11.3914729298563735
 20
14.7580566541728295
 30
0.0
 11
12.285899739775985
 21
15.2052710118325827
 31
0.0
  0
LINE
  5
FE
100
AcDbEntity
100
AcDbLine
  8
0
 62
256
370
-1
  6
ByLayer
 10
12.285899739775985
 20
15.2052710118325827
 30
0.0
 11
11.3914710244564752
 21
16.9941246316718058
 31
0.0
  0
LINE
  5
FF
100
AcDbEntity
100
AcDbLine
  8
0
 62
256
370
-1
  6
ByLayer
 10
11.3914710244564752
 20
16.9941246316718058
 30
0.0
 11
12.2858978343760867
 21
17.4413389893315625
 31
0.0
  0
LINE
  5
100
100
AcDbEntity
100
AcDbLine
  8
0
 62
256
370
-1
  6
ByLayer
 10
13.6275523397547467
 20
1.3416506945788567
 30
0.0
 11
14.5219791496743582
 21
1.788865052238612
 31
0.0
  0
LINE
  5
101
100
AcDbEntity
100
AcDbLine
  8
0
 62
256
370
-1
  6
ByLayer
 10
14.5219791496743582
 20
1.788865052238612
 30
0.0
 11
13.6275504343548519
 21
3.5777186720778253
 31
0.0
  0
LINE
  5
102
100
AcDbEntity
100
AcDbLine
  8
0
 62
256
370
-1
  6
ByLayer
 10
13.6275504343548519
 20
3.5777186720778253
 30
0.0
 11
14.5219772442744635
 21
4.0249330297375838
 31
0.0
  0
LINE
  5
103
100
AcDbEntity
100
AcDbLine
  8
0
 62
256
370
-1
  6
ByLayer
 10
14.5219772442744635
 20
4.0249330297375838
 30
0.0
 11
13.6275485289549465
 21
5.8137866495768202
 31
0.0
  0
LINE
  5
104
100
AcDbEntity
100
AcDbLine
  8
0
 62
256
370
-1
  6
ByLayer
 10
13.6275485289549465
 20
5.8137866495768202
 30
0.0
 11
14.5219753388745403
 21
6.2610010072366071
 31
0.0
  0
LINE
  5
105
100
AcDbEntity
100
AcDbLine
  8
0
 62
256
370
-1
  6
ByLayer
 10
14.5219753388745403
 20
6.2610010072366071
 30
0.0
 11
13.6275466235550553
 21
8.0498546270757885
 31
0.0
  0
LINE
  5
106
100
AcDbEntity
100
AcDbLine
  8
0
 62
256
370
-1
  6
ByLayer
 10
13.6275466235550553
 20
8.0498546270757885
 30
0.0
 11
14.5219734334746633
 21
8.4970689847355452
 31
0.0
  0
LINE
  5
107
100
AcDbEntity
100
AcDbLine
  8
0
 62
256
370
-1
  6
ByLayer
 10
14.5219734334746633
 20
8.4970689847355452
 30
0.0
 11
13.6275447181551499
 21
10.2859226045747754
 31
0.0
  0
LINE
  5
108
100
AcDbEntity
100
AcDbLine
  8
0
 62
256
370
-1
  6
ByLayer
 10
13.6275447181551499
 20
10.2859226045747754
 30
0.0
 11
14.521971528074765
 21
10.7331369622345214
 31
0.0
  0
LINE
  5
109
100
AcDbEntity
100
AcDbLine
  8
0
 62
256
370
-1
  6
ByLayer
 10
14.521971528074765
 20
10.7331369622345214
 30
0.0
 11
13.6275428127552516
 21
12.521990582073748
 31
0.0
  0
LINE
  5
10A
100
AcDbEntity
100
AcDbLine
  8
0
 62
256
370
-1
  6
ByLayer
 10
13.6275428127552516
 20
12.521990582073748
 30
0.0
 11
14.5219696226748596
 21
12.9692049397335083
 31
0.0
  0
LINE
  5
10B
100
AcDbEntity
100
AcDbLine
  8
0
 62
256
370
-1
  6
ByLayer
 10
14.5219696226748596
 20
12.9692049397335083
 30
0.0
 11
13.6275409073553533
 21
14.7580585595727243
 31
0.0
  0
LINE
  5
10C
100
AcDbEntity
100
AcDbLine
  8
0
 62
256
370
-1
  6
ByLayer
 10
13.6275409073553533
 20
14.7580585595727243
 30
0.0
 11
14.5219677172749648
 21
15.2052729172324845
 31
0.0
  0
LINE
  5
10D
100
AcDbEntity
100
AcDbLine
  8
0
 62
256
370
-1
  6
ByLayer
 10
14.5219677172749648
 20
15.2052729172324845
 30
0.0
 11
13.6275390019554585
 21
16.994126537071697
 31
0.0
  0
LINE
  5
10E
100
AcDbEntity
100
AcDbLine
  8
0
 62
256
370
-1
  6
ByLayer
 10
13.6275390019554585
 20
16.994126537071697
 30
0.0
 11
14.5219658118750665
 21
17.4413408947314608
 31
0.0
  0
LINE
  5
10F
100
AcDbEntity
100
AcDbLine
  8
0
 62
256
370
-1
  6
ByLayer
 10
1.1055579468811989
 20
17.4413294623320674
 30
0.0
 11
0.6583435892214442
 21
18.3357562722516789
 31
0.0
  0
LINE
  5
110
100
AcDbEntity
100
AcDbLine
  8
0
 62
256
370
-1
  6
ByLayer
 10
0.6583435892214443
 20
18.3357562722516789
 30
0.0
 11
1.5527703991410551
 21
18.7829706299114356
 31
0.0
  0
LINE
  5
111
100
AcDbEntity
100
AcDbLine
  8
0
 62
256
370
-1
  6
ByLayer
 10
3.341625924380176
 20
17.4413313677319657
 30
0.0
 11
2.894411566720422
 21
18.3357581776515737
 31
0.0
  0
LINE
  5
112
100
AcDbEntity
100
AcDbLine
  8
0
 62
256
370
-1
  6
ByLayer
 10
5.5776939018791536
 20
17.4413332731318675
 30
0.0
 11
5.1304795442193996
 21
18.3357600830514791
 31
0.0
  0
LINE
  5
113
100
AcDbEntity
100
AcDbLine
  8
0
 62
256
370
-1
  6
ByLayer
 10
7.8137618793781334
 20
17.4413351785317623
 30
0.0
 11
7.3665475217183758
 21
18.3357619884513774
 31
0.0
  0
LINE
  5
114
100
AcDbEntity
100
AcDbLine
  8
0
 62
256
370
-1
  6
ByLayer
 10
10.0498298568771105
 20
17.4413370839316642
 30
0.0
 11
9.6026154992173574
 21
18.3357638938512721
 31
0.0
  0
LINE
  5
115
100
AcDbEntity
100
AcDbLine
  8
0
 62
256
370
-1
  6
ByLayer
 10
12.2858978343760867
 20
17.4413389893315625
 30
0.0
 11
11.8386834767163336
 21
18.335765799251174
 31
0.0
  0
LINE
  5
116
100
AcDbEntity
100
AcDbLine
  8
0
 62
256
370
-1
  6
ByLayer
 10
14.5219658118750665
 20
17.4413408947314608
 30
0.0
 11
14.0747514542153169
 21
18.3357677046510652
 31
0.0
  0
LINE
  5
117
100
AcDbEntity
100
AcDbLine
  8
0
 62
256
370
-1
  6
ByLayer
 10
13.1803246442957054
 20
17.8885533469913085
 30
0.0
 11
14.0747514542153169
 21
18.3357677046510652
 31
0.0
  0
LINE
  5
118
100
AcDbEntity
100
AcDbLine
  8
0
 62
256
370
-1
  6
ByLayer
 10
13.1803265496956001
 20
15.6524853694923394
 30
0.0
 11
14.0747533596152081
 21
16.0996997271520961
 31
0.0
  0
LINE
  5
119
100
AcDbEntity
100
AcDbLine
  8
0
 62
256
370
-1
  6
ByLayer
 10
13.1803284550954984
 20
13.4164173919933596
 30
0.0
 11
14.0747552650151064
 21
13.8636317496531127
 31
0.0
  0
LINE
  5
11A
100
AcDbEntity
100
AcDbLine
  8
0
 62
256
370
-1
  6
ByLayer
 10
13.1803303604953932
 20
11.1803494144943834
 30
0.0
 11
14.0747571704150047
 21
11.6275637721541401
 31
0.0
  0
LINE
  5
11B
100
AcDbEntity
100
AcDbLine
  8
0
 62
256
370
-1
  6
ByLayer
 10
13.1803322658952986
 20
8.9442814369954
 30
0.0
 11
14.0747590758149066
 21
9.3914957946551603
 31
0.0
  0
LINE
  5
11C
100
AcDbEntity
100
AcDbLine
  8
0
 62
256
370
-1
  6
ByLayer
 10
13.1803341712952005
 20
6.7082134594964158
 30
0.0
 11
14.0747609812148049
 21
7.1554278171561849
 31
0.0
  0
LINE
  5
11D
100
AcDbEntity
100
AcDbLine
  8
0
 62
256
370
-1
  6
ByLayer
 10
13.1803360766950917
 20
4.4721454819974484
 30
0.0
 11
14.0747628866147032
 21
4.9193598396572034
 31
0.0
  0
LINE
  5
11E
100
AcDbEntity
100
AcDbLine
  8
0
 62
256
370
-1
  6
ByLayer
 10
13.1803379820949935
 20
2.2360775044984633
 30
0.0
 11
14.0747647920146051
 21
2.6832918621582236
 31
0.0
  0
LINE
  5
11F
100
AcDbEntity
100
AcDbLine
  8
0
 62
256
370
-1
  6
ByLayer
 10
13.1803398874948918
 20
0.0000095269994871
 30
0.0
 11
14.0747666974145034
 21
0.4472238846592425
 31
0.0
  0
LINE
  5
120
100
AcDbEntity
100
AcDbLine
  8
0
 62
256
370
-1
  6
ByLayer
 10
14.0747666974145034
 20
0.447223884659242
 30
0.0
 11
13.6275523397547467
 21
1.3416506945788567
 31
0.0
  0
LINE
  5
121
100
AcDbEntity
100
AcDbLine
  8
0
 62
256
370
-1
  6
ByLayer
 10
11.83869871991552
 20
0.447221979259349
 30
0.0
 11
11.3914843622557704
 21
1.3416487891789539
 31
0.0
  0
LINE
  5
122
100
AcDbEntity
100
AcDbLine
  8
0
 62
256
370
-1
  6
ByLayer
 10
9.6026307424165438
 20
0.4472200738594507
 30
0.0
 11
9.1554163847567906
 21
1.3416468837790592
 31
0.0
  0
LINE
  5
123
100
AcDbEntity
100
AcDbLine
  8
0
 62
256
370
-1
  6
ByLayer
 10
7.3665627649175711
 20
0.4472181684595431
 30
0.0
 11
6.9193484072578126
 21
1.3416449783791631
 31
0.0
  0
LINE
  5
124
100
AcDbEntity
100
AcDbLine
  8
0
 62
256
370
-1
  6
ByLayer
 10
5.1304947874185887
 20
0.4472162630596528
 30
0.0
 11
4.6832804297588346
 21
1.3416430729792634
 31
0.0
  0
LINE
  5
125
100
AcDbEntity
100
AcDbLine
  8
0
 62
256
370
-1
  6
ByLayer
 10
2.894426809919612
 20
0.447214357659754
 30
0.0
 11
2.4472124522598566
 21
1.341641167579366
 31
0.0
  0
LINE
  5
126
100
AcDbEntity
100
AcDbLine
  8
0
 62
256
370
-1
  6
ByLayer
 10
0.658358832420634
 20
0.4472124522598557
 30
0.0
 11
1.5527856423402451
 21
0.8944268099196107
 31
0.0
  0
LINE
  5
127
100
AcDbEntity
100
AcDbLine
  8
0
 62
256
370
-1
  6
ByLayer
 10
0.658358832420634
 20
0.4472124522598557
 30
0.0
 11
0.2111444747608793
 21
1.3416392621794668
 31
0.0
  0
LINE
  5
128
100
AcDbEntity
100
AcDbLine
  8
0
 62
256
370
-1
  6
ByLayer
 10
0.6583569270207349
 20
2.6832804297588337
 30
0.0
 11
1.5527837369403457
 21
3.1304947874185896
 31
0.0
  0
LINE
  5
129
100
AcDbEntity
100
AcDbLine
  8
0
 62
256
370
-1
  6
ByLayer
 10
0.6583550216208367
 20
4.9193484072578118
 30
0.0
 11
1.5527818315404478
 21
5.3665627649175658
 31
0.0
  0
LINE
  5
12A
100
AcDbEntity
100
AcDbLine
  8
0
 62
256
370
-1
  6
ByLayer
 10
0.6583531162209383
 20
7.1554163847567898
 30
0.0
 11
1.5527799261405486
 21
7.6026307424165447
 31
0.0
  0
LINE
  5
12B
100
AcDbEntity
100
AcDbLine
  8
0
 62
256
370
-1
  6
ByLayer
 10
0.6583512108210389
 20
9.3914843622557669
 30
0.0
 11
1.5527780207406519
 21
9.83869871991552
 31
0.0
  0
LINE
  5
12C
100
AcDbEntity
100
AcDbLine
  8
0
 62
256
370
-1
  6
ByLayer
 10
0.6583493054211396
 20
11.6275523397547431
 30
0.0
 11
1.5527761153407535
 21
12.0747666974144998
 31
0.0
  0
LINE
  5
12D
100
AcDbEntity
100
AcDbLine
  8
0
 62
256
370
-1
  6
ByLayer
 10
0.6583474000212409
 20
13.8636203172537229
 30
0.0
 11
1.5527742099408508
 21
14.3108346749134796
 31
0.0
  0
LINE
  5
12E
100
AcDbEntity
100
AcDbLine
  8
0
 62
256
370
-1
  6
ByLayer
 10
0.6583454946213436
 20
16.0996882947526991
 30
0.0
 11
1.5527723045409556
 21
16.5469026524124523
 31
0.0
  0
ENDSEC
  0
SECTION
  2
OBJECTS
  0
DICTIONARY
  5
C
100
AcDbDictionary
280
0
281
1
  3
ACAD_GROUP
350
D
  3
ACAD_LAYOUT
350
1A
  3
ACAD_MLINESTYLE
350
17
  3
ACAD_PLOTSETTINGS
350
19
  3
ACAD_PLOTSTYLENAME
350
E
  3
AcDbVariableDictionary
350
12F
  0
DICTIONARY
  5
D
100
AcDbDictionary
280
0
281
1
  0
ACDBDICTIONARYWDFLT
  5
E
100
AcDbDictionary
281
1
  3
Normal
350
F
100
AcDbDictionaryWithDefault
340
F
  0
ACDBPLACEHOLDER
  5
F
  0
DICTIONARY
  5
17
100
AcDbDictionary
280
0
281
1
  3
Standard
350
18
  0
MLINESTYLE
  5
18
100
AcDbMlineStyle
  2
STANDARD
 70
0
  3

 62
256
 51
90.0
 52
90.0
 71
2
 49
0.5
 62
256
  6
BYLAYER
 49
-0.5
 62
256
  6
BYLAYER
  0
DICTIONARY
  5
19
100
AcDbDictionary
280
0
281
1
  0
DICTIONARY
  5
1A
100
AcDbDictionary
281
1
  3
Layout1
350
1E
  3
Layout2
350
26
  3
Model
350
22
  0
LAYOUT
  5
1E
100
AcDbPlotSettings
  1

  2
C:\Program Files\AutoCAD 2002\plotters\DWF ePlot (optimized for plotting).pc3
  4

  6

 40
0.0
 41
0.0
 42
0.0
 43
0.0
 44
0.0
 45
0.0
 46
0.0
 47
0.0
 48
0.0
 49
0.0
140
0.0
141
0.0
142
1.0
143
1.0
 70
688
 72
0
 73
0
 74
5
  7

 75
16
147
1.0
148
0.0
149
0.0
100
AcDbLayout
  1
Layout1
 70
1
 71
1
 10
0.0
 20
0.0
 11
420.0
 21
297.0
 12
0.0
 22
0.0
 32
0.0
 14
100000000000000000000.0
 24
100000000000000000000.0
 34
100000000000000000000.0
 15
-100000000000000000000.0
 25
-100000000000000000000.0
 35
-100000000000000000000.0
146
0.0
 13
0.0
 23
0.0
 33
0.0
 16
1.0
 26
0.0
 36
0.0
 17
0.0
 27
1.0
 37
0.0
 76
0
330
1B
  0
LAYOUT
  5
22
100
AcDbPlotSettings
  1

  2
C:\Program Files\AutoCAD 2002\plotters\DWF ePlot (optimized for plotting).pc3
  4

  6

 40
0.0
 41
0.0
 42
0.0
 43
0.0
 44
0.0
 45
0.0
 46
0.0
 47
0.0
 48
0.0
 49
0.0
140
0.0
141
0.0
142
1.0
143
1.0
 70
1712
 72
0
 73
0
 74
0
  7

 75
0
147
1.0
148
0.0
149
0.0
100
AcDbLayout
  1
Model
 70
1
 71
0
 10
0.0
 20
0.0
 11
12.0
 21
9.0
 12
0.0
 22
0.0
 32
0.0
 14
0.0
 24
0.0
 34
0.0
 15
0.0
 25
0.0
 35
0.0
146
0.0
 13
0.0
 23
0.0
 33
0.0
 16
1.0
 26
0.0
 36
0.0
 17
0.0
 27
1.0
 37
0.0
 76
0
330
1F
  0
LAYOUT
  5
26
100
AcDbPlotSettings
  1

  2
C:\Program Files\AutoCAD 2002\plotters\DWF ePlot (optimized for plotting).pc3
  4

  6

 40
0.0
 41
0.0
 42
0.0
 43
0.0
 44
0.0
 45
0.0
 46
0.0
 47
0.0
 48
0.0
 49
0.0
140
0.0
141
0.0
142
1.0
143
1.0
 70
688
 72
0
 73
0
 74
5
  7

 75
16
147
1.0
148
0.0
149
0.0
100
AcDbLayout
  1
Layout2
 70
1
 71
2
 10
0.0
 20
0.0
 11
12.0
 21
9.0
 12
0.0
 22
0.0
 32
0.0
 14
0.0
 24
0.0
 34
0.0
 15
0.0
 25
0.0
 35
0.0
146
0.0
 13
0.0
 23
0.0
 33
0.0
 16
1.0
 26
0.0
 36
0.0
 17
0.0
 27
1.0
 37
0.0
 76
0
330
23
  0
DICTIONARY
  5
12F
100
AcDbDictionary
281
1
  3
DIMASSOC
350
131
  3
HIDETEXT
350
130
  0
DICTIONARYVAR
  5
130
100
DictionaryVariables
280
0
  1
2
  0
DICTIONARYVAR
  5
131
100
DictionaryVariables
280
0
  1
1
  0
ENDSEC
  0
EOF
