999
dxflib 2.2.0.0
  0
SECTION
  2
HEADER
  9
$ACADVER
  1
AC1015
  9
$HANDSEED
  5
FFFF
  9
$DIMASZ
 40
2.5
  9
$PLIMMIN
 10
0.0
 20
0.0
  9
$DIMEXE
 40
1.25
  9
$DIMGAP
 40
0.625
  9
$PLIMMAX
 10
210.0
 20
297.0
  9
$INSUNITS
 70
4
  9
$DIMSTYLE
  2
Standard
  9
$CLAYER
  8
documentation
  9
$DIMEXO
 40
0.625
  9
$DIMTXT
 40
2.5
  9
$CLAYER
  8
0
  0
ENDSEC
  0
SECTION
  2
TABLES
  0
TABLE
  2
VPORT
  5
8
100
AcDbSymbolTable
 70
1
  0
VPORT
  5
30
100
AcDbSymbolTableRecord
100
AcDbViewportTableRecord
  2
*Active
 70
0
 10
0.0
 20
0.0
 11
1.0
 21
1.0
 12
286.3055555555554861
 22
148.5
 13
0.0
 23
0.0
 14
10.0
 24
10.0
 15
10.0
 25
10.0
 16
0.0
 26
0.0
 36
1.0
 17
0.0
 27
0.0
 37
0.0
 40
297.0
 41
1.92798353909465
 42
50.0
 43
0.0
 44
0.0
 50
0.0
 51
0.0
 71
0
 72
100
 73
1
 74
3
 75
1
 76
1
 77
0
 78
0
281
0
 65
1
110
0.0
120
0.0
130
0.0
111
1.0
121
0.0
131
0.0
112
0.0
122
1.0
132
0.0
 79
0
146
0.0
  0
ENDTAB
  0
TABLE
  2
LTYPE
  5
5
100
AcDbSymbolTable
 70
21
  0
LTYPE
  5
14
100
AcDbSymbolTableRecord
100
AcDbLinetypeTableRecord
  2
ByBlock
 70
0
  3

 72
65
 73
0
 40
0.0
  0
LTYPE
  5
15
100
AcDbSymbolTableRecord
100
AcDbLinetypeTableRecord
  2
ByLayer
 70
0
  3

 72
65
 73
0
 40
0.0
  0
LTYPE
  5
16
100
AcDbSymbolTableRecord
100
AcDbLinetypeTableRecord
  2
CONTINUOUS
 70
0
  3
Solid line
 72
65
 73
0
 40
0.0
  0
LTYPE
  5
31
100
AcDbSymbolTableRecord
100
AcDbLinetypeTableRecord
  2
DOT
 70
0
  3
Dot . . . . . . . . . . . . . . . . . . . . . .
 72
65
 73
2
 40
6.3499999999999996
 49
0.0
 74
0
 49
-6.3499999999999996
 74
0
  0
LTYPE
  5
32
100
AcDbSymbolTableRecord
100
AcDbLinetypeTableRecord
  2
DOT2
 70
0
  3
Dot (.5x) .....................................
 72
65
 73
2
 40
3.1749999999999998
 49
0.0
 74
0
 49
-3.1749999999999998
 74
0
  0
LTYPE
  5
33
100
AcDbSymbolTableRecord
100
AcDbLinetypeTableRecord
  2
DOTX2
 70
0
  3
Dot (2x) .  .  .  .  .  .  .  .  .  .  .  .  .
 72
65
 73
2
 40
12.6999999999999993
 49
0.0
 74
0
 49
-12.6999999999999993
 74
0
  0
LTYPE
  5
34
100
AcDbSymbolTableRecord
100
AcDbLinetypeTableRecord
  2
DASHED
 70
0
  3
Dashed __ __ __ __ __ __ __ __ __ __ __ __ __ _
 72
65
 73
2
 40
19.0500000000000007
 49
12.6999999999999993
 74
0
 49
-6.3499999999999996
 74
0
  0
LTYPE
  5
35
100
AcDbSymbolTableRecord
100
AcDbLinetypeTableRecord
  2
DASHED2
 70
0
  3
Dashed (.5x) _ _ _ _ _ _ _ _ _ _ _ _ _ _ _ _ _
 72
65
 73
2
 40
9.5250000000000004
 49
6.3499999999999996
 74
0
 49
-3.1749999999999998
 74
0
  0
LTYPE
  5
36
100
AcDbSymbolTableRecord
100
AcDbLinetypeTableRecord
  2
DASHEDX2
 70
0
  3
Dashed (2x) ____  ____  ____  ____  ____  ___
 72
65
 73
2
 40
38.1000000000000014
 49
25.3999999999999986
 74
0
 49
-12.6999999999999993
 74
0
  0
LTYPE
  5
37
100
AcDbSymbolTableRecord
100
AcDbLinetypeTableRecord
  2
DASHDOT
 70
0
  3
Dash dot __ . __ . __ . __ . __ . __ . __ . __
 72
65
 73
4
 40
25.3999999999999986
 49
12.6999999999999993
 74
0
 49
-6.3499999999999996
 74
0
 49
0.0
 74
0
 49
-6.3499999999999996
 74
0
  0
LTYPE
  5
38
100
AcDbSymbolTableRecord
100
AcDbLinetypeTableRecord
  2
DASHDOT2
 70
0
  3
Dash dot (.5x) _._._._._._._._._._._._._._._.
 72
65
 73
4
 40
12.6999999999999993
 49
6.3499999999999996
 74
0
 49
-3.1749999999999998
 74
0
 49
0.0
 74
0
 49
-3.1749999999999998
 74
0
  0
LTYPE
  5
39
100
AcDbSymbolTableRecord
100
AcDbLinetypeTableRecord
  2
DASHDOTX2
 70
0
  3
Dash dot (2x) ____  .  ____  .  ____  .  ___
 72
65
 73
4
 40
50.7999999999999972
 49
25.3999999999999986
 74
0
 49
-12.6999999999999993
 74
0
 49
0.0
 74
0
 49
-12.6999999999999993
 74
0
  0
LTYPE
  5
3A
100
AcDbSymbolTableRecord
100
AcDbLinetypeTableRecord
  2
DIVIDE
 70
0
  3
Divide ____ . . ____ . . ____ . . ____ . . ____
 72
65
 73
6
 40
31.75
 49
12.6999999999999993
 74
0
 49
-6.3499999999999996
 74
0
 49
0.0
 74
0
 49
-6.3499999999999996
 74
0
 49
0.0
 74
0
 49
-6.3499999999999996
 74
0
  0
LTYPE
  5
3B
100
AcDbSymbolTableRecord
100
AcDbLinetypeTableRecord
  2
DIVIDE2
 70
0
  3
Divide (.5x) __..__..__..__..__..__..__..__.._
 72
65
 73
6
 40
15.875
 49
6.3499999999999996
 74
0
 49
-3.1749999999999998
 74
0
 49
0.0
 74
0
 49
-3.1749999999999998
 74
0
 49
0.0
 74
0
 49
-3.1749999999999998
 74
0
  0
LTYPE
  5
3C
100
AcDbSymbolTableRecord
100
AcDbLinetypeTableRecord
  2
DIVIDEX2
 70
0
  3
Divide (2x) ________  .  .  ________  .  .  _
 72
65
 73
6
 40
63.5
 49
25.3999999999999986
 74
0
 49
-12.6999999999999993
 74
0
 49
0.0
 74
0
 49
-12.6999999999999993
 74
0
 49
0.0
 74
0
 49
-12.6999999999999993
 74
0
  0
LTYPE
  5
3D
100
AcDbSymbolTableRecord
100
AcDbLinetypeTableRecord
  2
CENTER
 70
0
  3
Center ____ _ ____ _ ____ _ ____ _ ____ _ ____
 72
65
 73
4
 40
50.7999999999999972
 49
31.75
 74
0
 49
-6.3499999999999996
 74
0
 49
6.3499999999999996
 74
0
 49
-6.3499999999999996
 74
0
  0
LTYPE
  5
3E
100
AcDbSymbolTableRecord
100
AcDbLinetypeTableRecord
  2
CENTER2
 70
0
  3
Center (.5x) ___ _ ___ _ ___ _ ___ _ ___ _ ___
 72
65
 73
4
 40
28.5749999999999993
 49
19.0500000000000007
 74
0
 49
-3.1749999999999998
 74
0
 49
3.1749999999999998
 74
0
 49
-3.1749999999999998
 74
0
  0
LTYPE
  5
3F
100
AcDbSymbolTableRecord
100
AcDbLinetypeTableRecord
  2
CENTERX2
 70
0
  3
Center (2x) ________  __  ________  __  _____
 72
65
 73
4
 40
101.5999999999999943
 49
63.5
 74
0
 49
-12.6999999999999993
 74
0
 49
12.6999999999999993
 74
0
 49
-12.6999999999999993
 74
0
  0
LTYPE
  5
40
100
AcDbSymbolTableRecord
100
AcDbLinetypeTableRecord
  2
BORDER
 70
0
  3
Border __ __ . __ __ . __ __ . __ __ . __ __ .
 72
65
 73
6
 40
44.4500000000000028
 49
12.6999999999999993
 74
0
 49
-6.3499999999999996
 74
0
 49
12.6999999999999993
 74
0
 49
-6.3499999999999996
 74
0
 49
0.0
 74
0
 49
-6.3499999999999996
 74
0
  0
LTYPE
  5
41
100
AcDbSymbolTableRecord
100
AcDbLinetypeTableRecord
  2
BORDER2
 70
0
  3
Border (.5x) __.__.__.__.__.__.__.__.__.__.__.
 72
65
 73
6
 40
22.2250000000000014
 49
6.3499999999999996
 74
0
 49
-3.1749999999999998
 74
0
 49
6.3499999999999996
 74
0
 49
-3.1749999999999998
 74
0
 49
0.0
 74
0
 49
-3.1749999999999998
 74
0
  0
LTYPE
  5
42
100
AcDbSymbolTableRecord
100
AcDbLinetypeTableRecord
  2
BORDERX2
 70
0
  3
Border (2x) ____  ____  .  ____  ____  .  ___
 72
65
 73
6
 40
88.9000000000000057
 49
25.3999999999999986
 74
0
 49
-12.6999999999999993
 74
0
 49
25.3999999999999986
 74
0
 49
-12.6999999999999993
 74
0
 49
0.0
 74
0
 49
-12.6999999999999993
 74
0
  0
ENDTAB
  0
TABLE
  2
LAYER
  5
2
100
AcDbSymbolTable
 70
3
  0
LAYER
  5
10
100
AcDbSymbolTableRecord
100
AcDbLayerTableRecord
  2
0
 70
0
 62
7
420
0
  6
CONTINUOUS
370
0
390
F
  0
LAYER
  5
43
100
AcDbSymbolTableRecord
100
AcDbLayerTableRecord
  2
skeleton
 70
0
 62
5
420
255
  6
CONTINUOUS
370
0
390
F
  0
LAYER
  5
44
100
AcDbSymbolTableRecord
100
AcDbLayerTableRecord
  2
documentation
 70
0
 62
1
420
16711680
  6
CONTINUOUS
370
0
390
F
  0
ENDTAB
  0
TABLE
  2
STYLE
  5
3
100
AcDbSymbolTable
 70
1
  0
STYLE
  5
11
100
AcDbSymbolTableRecord
100
AcDbTextStyleTableRecord
  2
Standard
 70
0
 40
0.0
 41
0.75
 50
0.0
 71
0
 42
2.5
  3
txt
  4

  0
ENDTAB
  0
TABLE
  2
VIEW
  5
6
100
AcDbSymbolTable
 70
0
  0
ENDTAB
  0
TABLE
  2
UCS
  5
7
100
AcDbSymbolTable
 70
0
  0
ENDTAB
  0
TABLE
  2
APPID
  5
9
100
AcDbSymbolTable
 70
1
  0
APPID
  5
12
100
AcDbSymbolTableRecord
100
AcDbRegAppTableRecord
  2
ACAD
 70
0
  0
ENDTAB
  0
TABLE
  2
DIMSTYLE
  5
A
100
AcDbSymbolTable
 70
1
100
AcDbDimStyleTable
 71
0
  0
DIMSTYLE
105
27
100
AcDbSymbolTableRecord
100
AcDbDimStyleTableRecord
  2
Standard
 41
2.5
 42
0.625
 43
3.75
 44
1.25
 70
0
 73
0
 74
0
 77
1
 78
8
140
2.5
141
2.5
143
0.03937007874016
147
0.625
171
3
172
1
271
2
272
2
274
3
278
44
283
0
284
8
340
11
  0
ENDTAB
  0
TABLE
  2
BLOCK_RECORD
  5
1
100
AcDbSymbolTable
 70
1
  0
BLOCK_RECORD
  5
1F
100
AcDbSymbolTableRecord
100
AcDbBlockTableRecord
  2
*Model_Space
340
22
  0
BLOCK_RECORD
  5
1B
100
AcDbSymbolTableRecord
100
AcDbBlockTableRecord
  2
*Paper_Space
340
1E
  0
BLOCK_RECORD
  5
23
100
AcDbSymbolTableRecord
100
AcDbBlockTableRecord
  2
*Paper_Space0
340
26
  0
ENDTAB
  0
ENDSEC
  0
SECTION
  2
BLOCKS
  0
BLOCK
  5
20
100
AcDbEntity
  8
0
100
AcDbBlockBegin
  2
*Model_Space
 70
0
 10
0.0
 20
0.0
 30
0.0
  3
*Model_Space
  1

  0
ENDBLK
  5
21
100
AcDbEntity
  8
0
100
AcDbBlockEnd
  0
BLOCK
  5
1C
100
AcDbEntity
 67
1
  8
0
100
AcDbBlockBegin
  2
*Paper_Space
 70
0
 10
0.0
 20
0.0
 30
0.0
  3
*Paper_Space
  1

  0
ENDBLK
  5
1D
100
AcDbEntity
 67
1
  8
0
100
AcDbBlockEnd
  0
BLOCK
  5
24
100
AcDbEntity
  8
0
100
AcDbBlockBegin
  2
*Paper_Space0
 70
0
 10
0.0
 20
0.0
 30
0.0
  3
*Paper_Space0
  1

  0
ENDBLK
  5
25
100
AcDbEntity
  8
0
100
AcDbBlockEnd
  0
ENDSEC
  0
SECTION
  2
ENTITIES
  0
LINE
  5
45
100
AcDbEntity
100
AcDbLine
  8
0
 62
256
370
-1
  6
ByLayer
 10
90.0
 20
148.0
 30
0.0
 11
90.0
 21
52.0
 31
0.0
  0
CIRCLE
  5
46
100
AcDbEntity
100
AcDbCircle
  8
0
 62
256
370
-1
  6
ByLayer
 10
70.0
 20
140.0
 30
0.0
 40
8.0
  0
LINE
  5
47
100
AcDbEntity
100
AcDbLine
  8
skeleton
 62
256
370
-1
  6
ByLayer
 10
44.631773867470578
 20
168.0
 30
0.0
 11
81.0728640381032335
 21
32.0
 31
0.0
  0
LINE
  5
48
100
AcDbEntity
100
AcDbLine
  8
skeleton
 62
256
370
-1
  6
ByLayer
 10
45.4356214447639459
 20
165.0
 30
0.0
 11
111.5
 21
165.0
 31
0.0
  0
LINE
  5
49
100
AcDbEntity
100
AcDbLine
  8
skeleton
 62
256
370
-1
  6
ByLayer
 10
48.3830625615062928
 20
154.0
 30
0.0
 11
111.5
 21
154.0
 31
0.0
  0
LINE
  5
4A
100
AcDbEntity
100
AcDbLine
  8
skeleton
 62
256
370
-1
  6
ByLayer
 10
77.3215753440675115
 20
46.0
 30
0.0
 11
111.5
 21
46.0
 31
0.0
  0
LINE
  5
4B
100
AcDbEntity
100
AcDbLine
  8
skeleton
 62
256
370
-1
  6
ByLayer
 10
80.2690164608098655
 20
35.0
 30
0.0
 11
111.5
 21
35.0
 31
0.0
  0
LINE
  5
4C
100
AcDbEntity
100
AcDbLine
  8
skeleton
 62
256
370
-1
  6
ByLayer
 10
40.6814834742186306
 20
114.8236190979495888
 30
0.0
 11
79.3185165257813765
 21
125.1763809020504112
 31
0.0
  0
LINE
  5
4D
100
AcDbEntity
100
AcDbLine
  8
skeleton
 62
256
370
-1
  6
ByLayer
 10
67.8139936984082254
 20
174.2116570824604764
 30
0.0
 11
104.2550838690408739
 21
38.2116570824604835
 31
0.0
  0
LINE
  5
4E
100
AcDbEntity
100
AcDbLine
  8
skeleton
 62
256
370
-1
  6
ByLayer
 10
56.2228837829393981
 20
171.1058285412302382
 30
0.0
 11
92.6639739535720537
 21
35.1058285412302453
 31
0.0
  0
LINE
  5
4F
100
AcDbEntity
100
AcDbLine
  8
0
 62
256
370
-1
  6
ByLayer
 10
57.6612498127981041
 20
119.3733337760411075
 30
0.0
 11
57.6612498127981041
 21
119.3733337760411075
 31
0.0
  0
LINE
  5
50
100
AcDbEntity
100
AcDbLine
  8
0
 62
256
370
-1
  6
ByLayer
 10
57.6612498127981041
 20
119.3733337760411075
 30
0.0
 11
69.2523597282669243
 21
122.4791623172713599
 31
0.0
  0
LINE
  5
51
100
AcDbEntity
100
AcDbLine
  8
0
 62
256
370
-1
  6
ByLayer
 10
44.631773867470578
 20
168.0
 30
0.0
 11
57.6612498127981041
 21
119.3733337760411075
 31
0.0
  0
LINE
  5
52
100
AcDbEntity
100
AcDbLine
  8
0
 62
256
370
-1
  6
ByLayer
 10
202.4500000000000171
 20
120.0
 30
0.0
 11
202.4500000000000171
 21
132.0
 31
0.0
  0
LINE
  5
53
100
AcDbEntity
100
AcDbLine
  8
0
 62
256
370
-1
  6
ByLayer
 10
202.4500000000000171
 20
132.0
 30
0.0
 11
212.4500000000000171
 21
132.0
 31
0.0
  0
POINT
  5
54
100
AcDbEntity
100
AcDbPoint
  8
skeleton
 62
256
370
-1
  6
ByLayer
 10
200.0
 20
30.0
 30
0.0
  0
LINE
  5
55
100
AcDbEntity
100
AcDbLine
  8
0
 62
256
370
-1
  6
ByLayer
 10
187.5500000000000114
 20
132.0
 30
0.0
 11
187.5500000000000114
 21
82.0
 31
0.0
  0
LINE
  5
56
100
AcDbEntity
100
AcDbLine
  8
0
 62
256
370
-1
  6
ByLayer
 10
276.7172863405994576
 20
77.1217622392718738
 30
0.0
 11
287.1095911860127217
 21
83.1217622392718738
 31
0.0
  0
LINE
  5
57
100
AcDbEntity
100
AcDbLine
  8
0
 62
256
370
-1
  6
ByLayer
 10
287.1095911860127217
 20
83.1217622392718738
 30
0.0
 11
282.1095911860127217
 21
91.78201627711627
 31
0.0
  0
LINE
  5
58
100
AcDbEntity
100
AcDbLine
  8
0
 62
256
370
-1
  6
ByLayer
 10
294.5595911860127671
 20
70.21798372288373
 30
0.0
 11
251.2583209967908147
 21
45.2179837228837371
 31
0.0
  0
CIRCLE
  5
59
100
AcDbEntity
100
AcDbCircle
  8
0
 62
256
370
-1
  6
ByLayer
 10
225.0
 20
73.3012701892219241
 30
0.0
 40
8.0
  0
LINE
  5
5A
100
AcDbEntity
100
AcDbLine
  8
skeleton
 62
256
370
-1
  6
ByLayer
 10
200.0
 20
30.0
 30
0.0
 11
240.0
 21
99.2820323027550842
 31
0.0
  0
LINE
  5
5B
100
AcDbEntity
100
AcDbLine
  8
0
 62
256
370
-1
  6
ByLayer
 10
282.1095911860127217
 20
91.78201627711627
 30
0.0
 11
262.7586801352319981
 21
80.609762572883497
 31
0.0
  0
LINE
  5
5C
100
AcDbEntity
100
AcDbLine
  8
0
 62
256
370
-1
  6
ByLayer
 10
212.4500000000000171
 20
132.0
 30
0.0
 11
212.4500000000000171
 21
109.6554925915344398
 31
0.0
  0
LINE
  5
5D
100
AcDbEntity
100
AcDbLine
  8
0
 62
256
370
-1
  6
ByLayer
 10
212.4500000000000171
 20
109.6554925915344398
 30
0.0
 11
262.7586801352319981
 21
80.609762572883497
 31
0.0
  0
LINE
  5
5E
100
AcDbEntity
100
AcDbLine
  8
0
 62
256
370
-1
  6
ByLayer
 10
251.2583209967908147
 20
45.2179837228837371
 30
0.0
 11
213.2562476868982912
 21
52.9604945114252175
 31
0.0
  0
LINE
  5
5F
100
AcDbEntity
100
AcDbLine
  8
0
 62
256
370
-1
  6
ByLayer
 10
213.2562476868982912
 20
52.9604945114252175
 30
0.0
 11
187.5500000000000114
 21
82.0
 31
0.0
  0
ARC
  5
60
100
AcDbEntity
  8
documentation
 62
256
370
-1
  6
ByLayer
100
AcDbCircle
 10
189.1664038651102828
 20
7.638888888888907
 30
0.0
 40
7.3611111111111116
100
AcDbArc
 50
63.0699999999999932
 51
90.0
  0
ARC
  5
61
100
AcDbEntity
  8
documentation
 62
256
370
-1
  6
ByLayer
100
AcDbCircle
 10
189.1664038651102828
 20
12.7777777777777963
 30
0.0
 40
2.2222222222222223
100
AcDbArc
 50
90.0
 51
243.0
  0
LINE
  5
62
100
AcDbEntity
100
AcDbLine
  8
documentation
 62
256
370
-1
  6
ByLayer
 10
188.1564038651102919
 20
10.7977777777777959
 30
0.0
 11
191.287514976221388
 21
9.2022222222222396
 31
0.0
  0
ARC
  5
63
100
AcDbEntity
  8
documentation
 62
256
370
-1
  6
ByLayer
100
AcDbCircle
 10
190.2775149762213971
 20
7.2222222222222401
 30
0.0
 40
2.2222222222222223
100
AcDbArc
 50
270.0
 51
62.980000000000004
  0
ARC
  5
64
100
AcDbEntity
  8
documentation
 62
256
370
-1
  6
ByLayer
100
AcDbCircle
 10
190.2775149762213971
 20
12.3611111111111285
 30
0.0
 40
7.3611111111111116
100
AcDbArc
 50
243.0999999999999943
 51
270.0
  0
LINE
  5
65
100
AcDbEntity
100
AcDbLine
  8
documentation
 62
256
370
-1
  6
ByLayer
 10
195.8335961348896888
 20
11.6666666666666394
 30
0.0
 11
195.8335961348896888
 21
6.6666666666666377
 31
0.0
  0
ARC
  5
66
100
AcDbEntity
  8
documentation
 62
256
370
-1
  6
ByLayer
100
AcDbCircle
 10
197.5002628015563459
 20
6.6666666666666377
 30
0.0
 40
1.6666666666666667
100
AcDbArc
 50
180.0
 51
270.0
  0
LINE
  5
67
100
AcDbEntity
100
AcDbLine
  8
documentation
 62
256
370
-1
  6
ByLayer
 10
197.5002628015563459
 20
4.9999999999999707
 30
0.0
 11
200.2780405793341458
 21
4.9999999999999707
 31
0.0
  0
LINE
  5
68
100
AcDbEntity
100
AcDbLine
  8
documentation
 62
256
370
-1
  6
ByLayer
 10
200.2780405793341458
 20
4.9999999999999707
 30
0.0
 11
200.2780405793341458
 21
11.6666666666666394
 31
0.0
  0
LINE
  5
69
100
AcDbEntity
100
AcDbLine
  8
documentation
 62
256
370
-1
  6
ByLayer
 10
203.6113739126674886
 20
4.9999999999999982
 30
0.0
 11
206.3891516904452601
 21
4.9999999999999982
 31
0.0
  0
ARC
  5
6A
100
AcDbEntity
  8
documentation
 62
256
370
-1
  6
ByLayer
100
AcDbCircle
 10
206.3891516904452601
 20
6.6666666666666652
 30
0.0
 40
1.6666666666666667
100
AcDbArc
 50
270.0
 51
0.0
  0
LINE
  5
6B
100
AcDbEntity
100
AcDbLine
  8
documentation
 62
256
370
-1
  6
ByLayer
 10
208.0558183571119457
 20
6.6666666666666661
 30
0.0
 11
208.0558183571119457
 21
9.9999999999999982
 31
0.0
  0
ARC
  5
6C
100
AcDbEntity
  8
documentation
 62
256
370
-1
  6
ByLayer
100
AcDbCircle
 10
206.3891516904452601
 20
9.9999999999999982
 30
0.0
 40
1.6666666666666667
100
AcDbArc
 50
0.0
 51
90.0
  0
LINE
  5
6D
100
AcDbEntity
100
AcDbLine
  8
documentation
 62
256
370
-1
  6
ByLayer
 10
206.3891516904452601
 20
11.6666666666666643
 30
0.0
 11
203.6113739126674886
 21
11.6666666666666643
 31
0.0
  0
LINE
  5
6E
100
AcDbEntity
100
AcDbLine
  8
documentation
 62
256
370
-1
  6
ByLayer
 10
203.6113739126674886
 20
11.6666666666666643
 30
0.0
 11
203.6113739126674886
 21
1.6666666666666647
 31
0.0
  0
LINE
  5
6F
100
AcDbEntity
100
AcDbLine
  8
documentation
 62
256
370
-1
  6
ByLayer
 10
211.3891516904452601
 20
5.0000000000000009
 30
0.0
 11
214.1669294682230316
 21
5.0000000000000009
 31
0.0
  0
ARC
  5
70
100
AcDbEntity
  8
documentation
 62
256
370
-1
  6
ByLayer
100
AcDbCircle
 10
214.1669294682230316
 20
6.6666666666666679
 30
0.0
 40
1.6666666666666667
100
AcDbArc
 50
270.0
 51
0.0
  0
LINE
  5
71
100
AcDbEntity
100
AcDbLine
  8
documentation
 62
256
370
-1
  6
ByLayer
 10
215.8335961348897172
 20
6.6666666666666687
 30
0.0
 11
215.8335961348897172
 21
10.0
 31
0.0
  0
ARC
  5
72
100
AcDbEntity
  8
documentation
 62
256
370
-1
  6
ByLayer
100
AcDbCircle
 10
214.1669294682230316
 20
10.0
 30
0.0
 40
1.6666666666666667
100
AcDbArc
 50
0.0
 51
90.0
  0
LINE
  5
73
100
AcDbEntity
100
AcDbLine
  8
documentation
 62
256
370
-1
  6
ByLayer
 10
214.1669294682230316
 20
11.6666666666666679
 30
0.0
 11
211.3891516904452601
 21
11.6666666666666679
 31
0.0
  0
LINE
  5
74
100
AcDbEntity
100
AcDbLine
  8
documentation
 62
256
370
-1
  6
ByLayer
 10
211.3891516904452601
 20
11.6666666666666679
 30
0.0
 11
211.3891516904452601
 21
1.6666666666666674
 31
0.0
  0
LINE
  5
75
100
AcDbEntity
100
AcDbLine
  8
documentation
 62
256
370
-1
  6
ByLayer
 10
219.1669294682230316
 20
9.4444444444444446
 30
0.0
 11
219.1669294682230316
 21
7.2222222222222223
 31
0.0
  0
ARC
  5
76
100
AcDbEntity
  8
documentation
 62
256
370
-1
  6
ByLayer
100
AcDbCircle
 10
221.3891516904452601
 20
7.2222222222222223
 30
0.0
 40
2.2222222222222223
100
AcDbArc
 50
180.0
 51
0.0
  0
LINE
  5
77
100
AcDbEntity
100
AcDbLine
  8
documentation
 62
256
370
-1
  6
ByLayer
 10
223.6113739126674886
 20
7.2222222222222232
 30
0.0
 11
223.6113739126674886
 21
9.4444444444444446
 31
0.0
  0
ARC
  5
78
100
AcDbEntity
  8
documentation
 62
256
370
-1
  6
ByLayer
100
AcDbCircle
 10
221.3891516904452601
 20
9.4444444444444446
 30
0.0
 40
2.2222222222222223
100
AcDbArc
 50
0.0
 51
180.0
  0
LINE
  5
79
100
AcDbEntity
100
AcDbLine
  8
documentation
 62
256
370
-1
  6
ByLayer
 10
226.944707246000803
 20
5.0000000000000018
 30
0.0
 11
226.944707246000803
 21
11.6666666666666679
 31
0.0
  0
LINE
  5
7A
100
AcDbEntity
100
AcDbLine
  8
documentation
 62
256
370
-1
  6
ByLayer
 10
226.944707246000803
 20
11.6666666666666679
 30
0.0
 11
229.1669294682230316
 21
11.6666666666666679
 31
0.0
  0
ARC
  5
7B
100
AcDbEntity
  8
documentation
 62
256
370
-1
  6
ByLayer
100
AcDbCircle
 10
229.1669294682230316
 20
10.5555555555555571
 30
0.0
 40
1.1111111111111112
100
AcDbArc
 50
0.0
 51
90.0
  0
LINE
  5
7C
100
AcDbEntity
100
AcDbLine
  8
documentation
 62
256
370
-1
  6
ByLayer
 10
233.6113739126674886
 20
11.6666666666666679
 30
0.0
 11
236.9447072460008314
 21
11.6666666666666679
 31
0.0
  0
LINE
  5
7D
100
AcDbEntity
100
AcDbLine
  8
documentation
 62
256
370
-1
  6
ByLayer
 10
234.7224850237786029
 20
15.0
 30
0.0
 11
234.7224850237786029
 21
4.9999999999999991
 31
0.0
  0
LINE
  5
7E
100
AcDbEntity
100
AcDbLine
  8
documentation
 62
256
370
-1
  6
ByLayer
 10
247.7780405793341458
 20
11.6666666666666607
 30
0.0
 11
252.2224850237786029
 21
4.9999999999999938
 31
0.0
  0
LINE
  5
7F
100
AcDbEntity
100
AcDbLine
  8
documentation
 62
256
370
-1
  6
ByLayer
 10
247.7780405793341458
 20
4.9999999999999938
 30
0.0
 11
252.2224850237786029
 21
11.6666666666666607
 31
0.0
  0
LINE
  5
80
100
AcDbEntity
100
AcDbLine
  8
documentation
 62
256
370
-1
  6
ByLayer
 10
263.0558183571119457
 20
12.7777777777777857
 30
0.0
 11
265.2780405793341743
 21
15.0000000000000036
 31
0.0
  0
LINE
  5
81
100
AcDbEntity
100
AcDbLine
  8
documentation
 62
256
370
-1
  6
ByLayer
 10
265.2780405793341743
 20
15.0000000000000036
 30
0.0
 11
265.2780405793341743
 21
5.0000000000000062
 31
0.0
  0
LINE
  5
82
100
AcDbEntity
100
AcDbLine
  8
documentation
 62
256
370
-1
  6
ByLayer
 10
273.0558183571119457
 20
4.99999999999996
 30
0.0
 11
268.6113739126674886
 21
4.99999999999996
 31
0.0
  0
LINE
  5
83
100
AcDbEntity
100
AcDbLine
  8
documentation
 62
256
370
-1
  6
ByLayer
 10
268.6113739126674886
 20
4.99999999999996
 30
0.0
 11
272.9058183571119685
 21
12.3855555555555163
 31
0.0
  0
ARC
  5
84
100
AcDbEntity
  8
documentation
 62
256
370
-1
  6
ByLayer
100
AcDbCircle
 10
271.944707246000803
 20
12.9433333333332925
 30
0.0
 40
1.1111111111111112
100
AcDbArc
 50
329.8000000000000114
 51
20.5300000000000011
  0
ARC
  5
85
100
AcDbEntity
  8
documentation
 62
256
370
-1
  6
ByLayer
100
AcDbCircle
 10
270.8335961348897172
 20
12.7777777777777395
 30
0.0
 40
2.2222222222222223
100
AcDbArc
 50
14.4799999999999986
 51
165.5
  0
LINE
  5
86
100
AcDbEntity
100
AcDbLine
  8
documentation
 62
256
370
-1
  6
ByLayer
 10
47.5
 20
5.0000000000000302
 30
0.0
 11
47.5
 21
15.0000000000000302
 31
0.0
  0
LINE
  5
87
100
AcDbEntity
100
AcDbLine
  8
documentation
 62
256
370
-1
  6
ByLayer
 10
47.5
 20
15.0000000000000302
 30
0.0
 11
50.2777777777777786
 21
15.0000000000000302
 31
0.0
  0
ARC
  5
88
100
AcDbEntity
  8
documentation
 62
256
370
-1
  6
ByLayer
100
AcDbCircle
 10
50.2777777777777786
 20
12.777777777777807
 30
0.0
 40
2.2222222222222223
100
AcDbArc
 50
270.0
 51
90.0
  0
LINE
  5
89
100
AcDbEntity
100
AcDbLine
  8
documentation
 62
256
370
-1
  6
ByLayer
 10
47.5
 20
10.5555555555555856
 30
0.0
 11
50.3888888888888928
 21
10.5555555555555856
 31
0.0
  0
ARC
  5
8A
100
AcDbEntity
  8
documentation
 62
256
370
-1
  6
ByLayer
100
AcDbCircle
 10
50.3888888888888928
 20
7.8888888888889195
 30
0.0
 40
2.6666666666666665
100
AcDbArc
 50
0.0
 51
90.0
  0
LINE
  5
8B
100
AcDbEntity
100
AcDbLine
  8
documentation
 62
256
370
-1
  6
ByLayer
 10
53.0555555555555571
 20
7.8888888888889186
 30
0.0
 11
53.0555555555555571
 21
7.666666666666698
 31
0.0
  0
ARC
  5
8C
100
AcDbEntity
  8
documentation
 62
256
370
-1
  6
ByLayer
100
AcDbCircle
 10
50.3888888888888928
 20
7.6666666666666972
 30
0.0
 40
2.6666666666666665
100
AcDbArc
 50
270.0
 51
0.0
  0
LINE
  5
8D
100
AcDbEntity
100
AcDbLine
  8
documentation
 62
256
370
-1
  6
ByLayer
 10
50.3888888888888928
 20
5.0000000000000302
 30
0.0
 11
47.5
 21
5.0000000000000302
 31
0.0
  0
LINE
  5
8E
100
AcDbEntity
100
AcDbLine
  8
documentation
 62
256
370
-1
  6
ByLayer
 10
56.3888888888888857
 20
5.0000000000000098
 30
0.0
 11
56.3888888888888857
 21
11.6666666666666785
 31
0.0
  0
LINE
  5
8F
100
AcDbEntity
100
AcDbLine
  8
documentation
 62
256
370
-1
  6
ByLayer
 10
56.3888888888888857
 20
11.6666666666666785
 30
0.0
 11
58.6111111111111072
 21
11.6666666666666785
 31
0.0
  0
ARC
  5
90
100
AcDbEntity
  8
documentation
 62
256
370
-1
  6
ByLayer
100
AcDbCircle
 10
58.6111111111111072
 20
10.5555555555555678
 30
0.0
 40
1.1111111111111112
100
AcDbArc
 50
0.0
 51
90.0
  0
LINE
  5
91
100
AcDbEntity
100
AcDbLine
  8
documentation
 62
256
370
-1
  6
ByLayer
 10
63.6111111111111072
 20
11.6666666666666679
 30
0.0
 11
65.8333333333333144
 21
11.6666666666666679
 31
0.0
  0
ARC
  5
92
100
AcDbEntity
  8
documentation
 62
256
370
-1
  6
ByLayer
100
AcDbCircle
 10
65.8333333333333144
 20
10.0
 30
0.0
 40
1.6666666666666667
100
AcDbArc
 50
0.0
 51
90.0
  0
LINE
  5
93
100
AcDbEntity
100
AcDbLine
  8
documentation
 62
256
370
-1
  6
ByLayer
 10
67.4999999999999858
 20
10.0
 30
0.0
 11
67.4999999999999858
 21
5.0000000000000009
 31
0.0
  0
LINE
  5
94
100
AcDbEntity
100
AcDbLine
  8
documentation
 62
256
370
-1
  6
ByLayer
 10
67.4999999999999858
 20
5.0000000000000009
 30
0.0
 11
64.7222222222222143
 21
5.0000000000000009
 31
0.0
  0
ARC
  5
95
100
AcDbEntity
  8
documentation
 62
256
370
-1
  6
ByLayer
100
AcDbCircle
 10
64.7222222222222143
 20
6.6666666666666679
 30
0.0
 40
1.6666666666666667
100
AcDbArc
 50
90.0
 51
270.0
  0
LINE
  5
96
100
AcDbEntity
100
AcDbLine
  8
documentation
 62
256
370
-1
  6
ByLayer
 10
64.7222222222222143
 20
8.3333333333333339
 30
0.0
 11
67.4999999999999858
 21
8.3333333333333339
 31
0.0
  0
LINE
  5
97
100
AcDbEntity
100
AcDbLine
  8
documentation
 62
256
370
-1
  6
ByLayer
 10
74.1666666666666572
 20
11.6666666666666785
 30
0.0
 11
72.5
 21
11.6666666666666785
 31
0.0
  0
ARC
  5
98
100
AcDbEntity
  8
documentation
 62
256
370
-1
  6
ByLayer
100
AcDbCircle
 10
72.5
 20
10.0000000000000107
 30
0.0
 40
1.6666666666666667
100
AcDbArc
 50
90.0
 51
180.0
  0
LINE
  5
99
100
AcDbEntity
100
AcDbLine
  8
documentation
 62
256
370
-1
  6
ByLayer
 10
70.8333333333333286
 20
10.0000000000000107
 30
0.0
 11
70.8333333333333286
 21
6.6666666666666785
 31
0.0
  0
ARC
  5
9A
100
AcDbEntity
  8
documentation
 62
256
370
-1
  6
ByLayer
100
AcDbCircle
 10
72.5
 20
6.6666666666666785
 30
0.0
 40
1.6666666666666667
100
AcDbArc
 50
180.0
 51
270.0
  0
LINE
  5
9B
100
AcDbEntity
100
AcDbLine
  8
documentation
 62
256
370
-1
  6
ByLayer
 10
72.5
 20
5.0000000000000115
 30
0.0
 11
74.1666666666666572
 21
5.0000000000000115
 31
0.0
  0
LINE
  5
9C
100
AcDbEntity
100
AcDbLine
  8
documentation
 62
256
370
-1
  6
ByLayer
 10
77.5
 20
15.0000000000000018
 30
0.0
 11
77.5
 21
5.0000000000000018
 31
0.0
  0
LINE
  5
9D
100
AcDbEntity
100
AcDbLine
  8
documentation
 62
256
370
-1
  6
ByLayer
 10
77.5
 20
8.8888888888888911
 30
0.0
 11
81.9444444444444429
 21
11.6666666666666679
 31
0.0
  0
LINE
  5
9E
100
AcDbEntity
100
AcDbLine
  8
documentation
 62
256
370
-1
  6
ByLayer
 10
78.9677777777777692
 20
9.8066666666666684
 30
0.0
 11
81.9444444444444429
 21
5.0000000000000018
 31
0.0
  0
LINE
  5
9F
100
AcDbEntity
100
AcDbLine
  8
documentation
 62
256
370
-1
  6
ByLayer
 10
85.2777777777777715
 20
8.3333333333333339
 30
0.0
 11
89.7222222222222143
 21
8.3333333333333339
 31
0.0
  0
LINE
  5
A0
100
AcDbEntity
100
AcDbLine
  8
documentation
 62
256
370
-1
  6
ByLayer
 10
89.7222222222222143
 20
8.3333333333333339
 30
0.0
 11
89.7222222222222143
 21
9.4444444444444446
 31
0.0
  0
ARC
  5
A1
100
AcDbEntity
  8
documentation
 62
256
370
-1
  6
ByLayer
100
AcDbCircle
 10
87.5
 20
9.4444444444444446
 30
0.0
 40
2.2222222222222223
100
AcDbArc
 50
0.0
 51
180.0
  0
LINE
  5
A2
100
AcDbEntity
100
AcDbLine
  8
documentation
 62
256
370
-1
  6
ByLayer
 10
85.2777777777777715
 20
9.4444444444444446
 30
0.0
 11
85.2777777777777715
 21
6.666666666666667
 31
0.0
  0
ARC
  5
A3
100
AcDbEntity
  8
documentation
 62
256
370
-1
  6
ByLayer
100
AcDbCircle
 10
86.9444444444444429
 20
6.666666666666667
 30
0.0
 40
1.6666666666666667
100
AcDbArc
 50
180.0
 51
270.0
  0
LINE
  5
A4
100
AcDbEntity
100
AcDbLine
  8
documentation
 62
256
370
-1
  6
ByLayer
 10
86.9444444444444429
 20
5.0
 30
0.0
 11
89.7222222222222143
 21
5.0
 31
0.0
  0
LINE
  5
A5
100
AcDbEntity
100
AcDbLine
  8
documentation
 62
256
370
-1
  6
ByLayer
 10
93.0555555555555571
 20
11.6666666666666679
 30
0.0
 11
96.3888888888888857
 21
11.6666666666666679
 31
0.0
  0
LINE
  5
A6
100
AcDbEntity
100
AcDbLine
  8
documentation
 62
256
370
-1
  6
ByLayer
 10
94.1666666666666714
 20
15.0
 30
0.0
 11
94.1666666666666714
 21
5.0000000000000009
 31
0.0
  0
LINE
  5
A7
100
AcDbEntity
100
AcDbLine
  8
documentation
 62
256
370
-1
  6
ByLayer
 10
107.2222222222222285
 20
11.6666666666666714
 30
0.0
 11
111.6666666666666714
 21
5.0000000000000053
 31
0.0
  0
LINE
  5
A8
100
AcDbEntity
100
AcDbLine
  8
documentation
 62
256
370
-1
  6
ByLayer
 10
107.2222222222222285
 20
5.0000000000000053
 30
0.0
 11
111.6666666666666714
 21
11.6666666666666714
 31
0.0
  0
LINE
  5
A9
100
AcDbEntity
100
AcDbLine
  8
documentation
 62
256
370
-1
  6
ByLayer
 10
122.5
 20
12.777777777777775
 30
0.0
 11
124.7222222222222285
 21
14.9999999999999947
 31
0.0
  0
LINE
  5
AA
100
AcDbEntity
100
AcDbLine
  8
documentation
 62
256
370
-1
  6
ByLayer
 10
124.7222222222222285
 20
14.9999999999999947
 30
0.0
 11
124.7222222222222285
 21
4.9999999999999964
 31
0.0
  0
LINE
  5
AB
100
AcDbEntity
100
AcDbLine
  8
documentation
 62
256
370
-1
  6
ByLayer
 10
132.5
 20
4.9999999999999698
 30
0.0
 11
128.0555555555555429
 21
4.9999999999999698
 31
0.0
  0
LINE
  5
AC
100
AcDbEntity
100
AcDbLine
  8
documentation
 62
256
370
-1
  6
ByLayer
 10
128.0555555555555429
 20
4.9999999999999698
 30
0.0
 11
132.3499999999999943
 21
12.385555555555527
 31
0.0
  0
ARC
  5
AD
100
AcDbEntity
  8
documentation
 62
256
370
-1
  6
ByLayer
100
AcDbCircle
 10
131.3888888888888857
 20
12.9433333333333032
 30
0.0
 40
1.1111111111111112
100
AcDbArc
 50
329.8000000000000114
 51
20.5300000000000011
  0
ARC
  5
AE
100
AcDbEntity
  8
documentation
 62
256
370
-1
  6
ByLayer
100
AcDbCircle
 10
130.2777777777777715
 20
12.7777777777777466
 30
0.0
 40
2.2222222222222223
100
AcDbArc
 50
14.4799999999999986
 51
165.5
  0
LINE
  5
AF
100
AcDbEntity
100
AcDbLine
  8
skeleton
 62
256
370
-1
  6
ByLayer
 10
41.9755786997312299
 20
109.9939899665042589
 30
0.0
 11
80.6126117512939828
 21
120.3467517706050813
 31
0.0
  0
LINE
  5
B0
100
AcDbEntity
100
AcDbLine
  8
0
 62
256
370
-1
  6
ByLayer
 10
69.2523597282669243
 20
122.4791623172713599
 30
0.0
 11
70.5464549537795307
 21
117.64953318582603
 31
0.0
  0
LINE
  5
B1
100
AcDbEntity
100
AcDbLine
  8
0
 62
256
370
-1
  6
ByLayer
 10
58.9553450383107034
 20
114.5437046445957776
 30
0.0
 11
81.0728640381032335
 21
32.0
 31
0.0
  0
LINE
  5
B2
100
AcDbEntity
100
AcDbLine
  8
0
 62
256
370
-1
  6
ByLayer
 10
70.5464549537795165
 20
117.6495331858260158
 30
0.0
 11
58.9553450383106963
 21
114.5437046445957776
 31
0.0
  0
LINE
  5
B3
100
AcDbEntity
100
AcDbLine
  8
0
 62
256
370
-1
  6
ByLayer
 10
197.4500000000000171
 20
120.0
 30
0.0
 11
197.4500000000000171
 21
132.0
 31
0.0
  0
LINE
  5
B4
100
AcDbEntity
100
AcDbLine
  8
0
 62
256
370
-1
  6
ByLayer
 10
279.2172863405995145
 20
72.7916352203496615
 30
0.0
 11
289.6095911860127785
 21
78.7916352203496615
 31
0.0
  0
LINE
  5
B5
100
AcDbEntity
100
AcDbLine
  8
0
 62
256
370
-1
  6
ByLayer
 10
289.6095911860127785
 20
78.7916352203496615
 30
0.0
 11
294.5595911860127671
 21
70.21798372288373
 31
0.0
  0
LINE
  5
B6
100
AcDbEntity
100
AcDbLine
  8
0
 62
256
370
-1
  6
ByLayer
 10
279.2172863405995145
 20
72.7916352203496615
 30
0.0
 11
276.7172863405994576
 21
77.1217622392718738
 31
0.0
  0
LINE
  5
B7
100
AcDbEntity
100
AcDbLine
  8
0
 62
256
370
-1
  6
ByLayer
 10
197.4500000000000171
 20
132.0
 30
0.0
 11
187.5500000000000114
 21
132.0
 31
0.0
  0
LINE
  5
B8
100
AcDbEntity
100
AcDbLine
  8
0
 62
256
370
-1
  6
ByLayer
 10
197.4500000000000171
 20
120.0
 30
0.0
 11
202.4500000000000171
 21
120.0
 31
0.0
  0
LINE
  5
B9
100
AcDbEntity
100
AcDbLine
  8
0
 62
256
370
-1
  6
ByLayer
 10
115.0
 20
153.0
 30
0.0
 11
116.5
 21
153.0
 31
0.0
  0
LINE
  5
BA
100
AcDbEntity
100
AcDbLine
  8
0
 62
256
370
-1
  6
ByLayer
 10
115.0
 20
47.0
 30
0.0
 11
116.5
 21
47.0
 31
0.0
  0
LINE
  5
BB
100
AcDbEntity
100
AcDbLine
  8
0
 62
256
370
-1
  6
ByLayer
 10
116.5
 20
47.0
 30
0.0
 11
116.5
 21
52.0
 31
0.0
  0
LINE
  5
BC
100
AcDbEntity
100
AcDbLine
  8
0
 62
256
370
-1
  6
ByLayer
 10
116.5
 20
153.0
 30
0.0
 11
116.5
 21
148.0
 31
0.0
  0
LINE
  5
BD
100
AcDbEntity
100
AcDbLine
  8
0
 62
256
370
-1
  6
ByLayer
 10
115.0
 20
47.0
 30
0.0
 11
115.0
 21
52.0
 31
0.0
  0
LINE
  5
BE
100
AcDbEntity
100
AcDbLine
  8
0
 62
256
370
-1
  6
ByLayer
 10
115.0
 20
148.0
 30
0.0
 11
115.0
 21
153.0
 31
0.0
  0
LINE
  5
BF
100
AcDbEntity
100
AcDbLine
  8
0
 62
256
370
-1
  6
ByLayer
 10
116.5
 20
148.0
 30
0.0
 11
121.5
 21
148.0
 31
0.0
  0
LINE
  5
C0
100
AcDbEntity
100
AcDbLine
  8
0
 62
256
370
-1
  6
ByLayer
 10
116.5
 20
52.0
 30
0.0
 11
121.5
 21
52.0
 31
0.0
  0
LINE
  5
C1
100
AcDbEntity
100
AcDbLine
  8
skeleton
 62
256
370
-1
  6
ByLayer
 10
121.5
 20
178.0
 30
0.0
 11
121.5
 21
22.0
 31
0.0
  0
LINE
  5
C2
100
AcDbEntity
100
AcDbLine
  8
skeleton
 62
256
370
-1
  6
ByLayer
 10
124.5
 20
178.0
 30
0.0
 11
124.5
 21
22.0
 31
0.0
  0
LINE
  5
C3
100
AcDbEntity
100
AcDbLine
  8
skeleton
 62
256
370
-1
  6
ByLayer
 10
118.5
 20
178.0
 30
0.0
 11
118.5
 21
22.0
 31
0.0
  0
LINE
  5
C4
100
AcDbEntity
100
AcDbLine
  8
0
 62
256
370
-1
  6
ByLayer
 10
121.5
 20
148.0
 30
0.0
 11
121.5
 21
154.0
 31
0.0
  0
LINE
  5
C5
100
AcDbEntity
100
AcDbLine
  8
0
 62
256
370
-1
  6
ByLayer
 10
121.5
 20
154.0
 30
0.0
 11
124.5
 21
154.0
 31
0.0
  0
LINE
  5
C6
100
AcDbEntity
100
AcDbLine
  8
0
 62
256
370
-1
  6
ByLayer
 10
124.5
 20
154.0
 30
0.0
 11
124.5
 21
165.0
 31
0.0
  0
LINE
  5
C7
100
AcDbEntity
100
AcDbLine
  8
0
 62
256
370
-1
  6
ByLayer
 10
124.5
 20
165.0
 30
0.0
 11
121.5
 21
165.0
 31
0.0
  0
LINE
  5
C8
100
AcDbEntity
100
AcDbLine
  8
0
 62
256
370
-1
  6
ByLayer
 10
121.5
 20
165.0
 30
0.0
 11
121.5
 21
168.0
 31
0.0
  0
LINE
  5
C9
100
AcDbEntity
100
AcDbLine
  8
0
 62
256
370
-1
  6
ByLayer
 10
121.5
 20
52.0
 30
0.0
 11
121.5
 21
46.0
 31
0.0
  0
LINE
  5
CA
100
AcDbEntity
100
AcDbLine
  8
0
 62
256
370
-1
  6
ByLayer
 10
121.5
 20
46.0
 30
0.0
 11
124.5
 21
46.0
 31
0.0
  0
LINE
  5
CB
100
AcDbEntity
100
AcDbLine
  8
0
 62
256
370
-1
  6
ByLayer
 10
124.5
 20
46.0
 30
0.0
 11
124.5
 21
35.0
 31
0.0
  0
LINE
  5
CC
100
AcDbEntity
100
AcDbLine
  8
0
 62
256
370
-1
  6
ByLayer
 10
124.5
 20
35.0
 30
0.0
 11
121.5
 21
35.0
 31
0.0
  0
LINE
  5
CD
100
AcDbEntity
100
AcDbLine
  8
0
 62
256
370
-1
  6
ByLayer
 10
121.5
 20
35.0
 30
0.0
 11
121.5
 21
32.0
 31
0.0
  0
LINE
  5
CE
100
AcDbEntity
100
AcDbLine
  8
0
 62
256
370
-1
  6
ByLayer
 10
115.0
 20
148.0
 30
0.0
 11
90.0
 21
148.0
 31
0.0
  0
LINE
  5
CF
100
AcDbEntity
100
AcDbLine
  8
0
 62
256
370
-1
  6
ByLayer
 10
115.0
 20
52.0
 30
0.0
 11
90.0
 21
52.0
 31
0.0
  0
LINE
  5
D0
100
AcDbEntity
100
AcDbLine
  8
0
 62
256
370
-1
  6
ByLayer
 10
81.0728640381032335
 20
32.0
 30
0.0
 11
121.5
 21
32.0
 31
0.0
  0
LINE
  5
D1
100
AcDbEntity
100
AcDbLine
  8
0
 62
256
370
-1
  6
ByLayer
 10
121.5
 20
168.0
 30
0.0
 11
44.631773867470578
 21
168.0
 31
0.0
  0
ENDSEC
  0
SECTION
  2
OBJECTS
  0
DICTIONARY
  5
C
100
AcDbDictionary
280
0
281
1
  3
ACAD_GROUP
350
D
  3
ACAD_LAYOUT
350
1A
  3
ACAD_MLINESTYLE
350
17
  3
ACAD_PLOTSETTINGS
350
19
  3
ACAD_PLOTSTYLENAME
350
E
  3
AcDbVariableDictionary
350
D2
  0
DICTIONARY
  5
D
100
AcDbDictionary
280
0
281
1
  0
ACDBDICTIONARYWDFLT
  5
E
100
AcDbDictionary
281
1
  3
Normal
350
F
100
AcDbDictionaryWithDefault
340
F
  0
ACDBPLACEHOLDER
  5
F
  0
DICTIONARY
  5
17
100
AcDbDictionary
280
0
281
1
  3
Standard
350
18
  0
MLINESTYLE
  5
18
100
AcDbMlineStyle
  2
STANDARD
 70
0
  3

 62
256
 51
90.0
 52
90.0
 71
2
 49
0.5
 62
256
  6
BYLAYER
 49
-0.5
 62
256
  6
BYLAYER
  0
DICTIONARY
  5
19
100
AcDbDictionary
280
0
281
1
  0
DICTIONARY
  5
1A
100
AcDbDictionary
281
1
  3
Layout1
350
1E
  3
Layout2
350
26
  3
Model
350
22
  0
LAYOUT
  5
1E
100
AcDbPlotSettings
  1

  2
C:\Program Files\AutoCAD 2002\plotters\DWF ePlot (optimized for plotting).pc3
  4

  6

 40
0.0
 41
0.0
 42
0.0
 43
0.0
 44
0.0
 45
0.0
 46
0.0
 47
0.0
 48
0.0
 49
0.0
140
0.0
141
0.0
142
1.0
143
1.0
 70
688
 72
0
 73
0
 74
5
  7

 75
16
147
1.0
148
0.0
149
0.0
100
AcDbLayout
  1
Layout1
 70
1
 71
1
 10
0.0
 20
0.0
 11
420.0
 21
297.0
 12
0.0
 22
0.0
 32
0.0
 14
100000000000000000000.0
 24
100000000000000000000.0
 34
100000000000000000000.0
 15
-100000000000000000000.0
 25
-100000000000000000000.0
 35
-100000000000000000000.0
146
0.0
 13
0.0
 23
0.0
 33
0.0
 16
1.0
 26
0.0
 36
0.0
 17
0.0
 27
1.0
 37
0.0
 76
0
330
1B
  0
LAYOUT
  5
22
100
AcDbPlotSettings
  1

  2
C:\Program Files\AutoCAD 2002\plotters\DWF ePlot (optimized for plotting).pc3
  4

  6

 40
0.0
 41
0.0
 42
0.0
 43
0.0
 44
0.0
 45
0.0
 46
0.0
 47
0.0
 48
0.0
 49
0.0
140
0.0
141
0.0
142
1.0
143
1.0
 70
1712
 72
0
 73
0
 74
0
  7

 75
0
147
1.0
148
0.0
149
0.0
100
AcDbLayout
  1
Model
 70
1
 71
0
 10
0.0
 20
0.0
 11
12.0
 21
9.0
 12
0.0
 22
0.0
 32
0.0
 14
0.0
 24
0.0
 34
0.0
 15
0.0
 25
0.0
 35
0.0
146
0.0
 13
0.0
 23
0.0
 33
0.0
 16
1.0
 26
0.0
 36
0.0
 17
0.0
 27
1.0
 37
0.0
 76
0
330
1F
  0
LAYOUT
  5
26
100
AcDbPlotSettings
  1

  2
C:\Program Files\AutoCAD 2002\plotters\DWF ePlot (optimized for plotting).pc3
  4

  6

 40
0.0
 41
0.0
 42
0.0
 43
0.0
 44
0.0
 45
0.0
 46
0.0
 47
0.0
 48
0.0
 49
0.0
140
0.0
141
0.0
142
1.0
143
1.0
 70
688
 72
0
 73
0
 74
5
  7

 75
16
147
1.0
148
0.0
149
0.0
100
AcDbLayout
  1
Layout2
 70
1
 71
2
 10
0.0
 20
0.0
 11
12.0
 21
9.0
 12
0.0
 22
0.0
 32
0.0
 14
0.0
 24
0.0
 34
0.0
 15
0.0
 25
0.0
 35
0.0
146
0.0
 13
0.0
 23
0.0
 33
0.0
 16
1.0
 26
0.0
 36
0.0
 17
0.0
 27
1.0
 37
0.0
 76
0
330
23
  0
DICTIONARY
  5
D2
100
AcDbDictionary
281
1
  3
DIMASSOC
350
D4
  3
HIDETEXT
350
D3
  0
DICTIONARYVAR
  5
D3
100
DictionaryVariables
280
0
  1
2
  0
DICTIONARYVAR
  5
D4
100
DictionaryVariables
280
0
  1
1
  0
ENDSEC
  0
EOF
